G04 Layer_Color=65535*
%FSLAX25Y25*%
%MOIN*%
G70*
G01*
G75*
%ADD24C,0.00500*%
%ADD40C,0.01000*%
%ADD41C,0.00472*%
%ADD42C,0.01000*%
%ADD43C,0.00701*%
D24*
X631299Y211260D02*
X641221D01*
X622598Y204252D02*
Y208898D01*
X631378Y180866D02*
X641378D01*
X622598Y183268D02*
Y187953D01*
D40*
X620590Y186811D02*
D03*
D41*
X590020Y220000D02*
X591083D01*
X590020Y216220D02*
X591083D01*
X602539Y171653D02*
X608484D01*
X602539Y178740D02*
X608484D01*
X610748Y190945D02*
Y192106D01*
X599488Y196870D02*
Y198031D01*
X610748D01*
Y196870D02*
Y198031D01*
X599488Y190945D02*
X610748D01*
X599488D02*
Y192106D01*
X614528Y193307D02*
Y195669D01*
X610748Y181496D02*
Y182658D01*
X599488Y187421D02*
Y188583D01*
X610748D01*
Y187421D02*
Y188583D01*
X599488Y181496D02*
X610748D01*
X599488D02*
Y182658D01*
X614528Y183858D02*
Y186221D01*
X603681Y210039D02*
X604980D01*
X603681Y206496D02*
X604980D01*
X603287Y215945D02*
X604587D01*
X603287Y212402D02*
X604587D01*
X528465Y177520D02*
X548465D01*
X528465D02*
Y207520D01*
X548465D01*
Y177520D02*
Y207520D01*
X583740Y210827D02*
Y215591D01*
Y210827D02*
X584842D01*
Y209724D02*
Y210827D01*
X556890D02*
X557992D01*
X556890Y209724D02*
Y210827D01*
Y182874D02*
X557992D01*
X556890D02*
Y183976D01*
X583740Y182874D02*
X584842D01*
Y183976D01*
X531752Y175118D02*
X532815D01*
X531752Y171339D02*
X532815D01*
X568366Y175118D02*
X569429D01*
X568366Y171339D02*
X569429D01*
X498130Y220374D02*
X502638D01*
Y194390D02*
X520354D01*
X502638Y220374D02*
X520354D01*
X519488Y173937D02*
X524980D01*
X504134Y173425D02*
Y173937D01*
Y173425D02*
X519488D01*
Y173937D01*
X504134Y192205D02*
Y192717D01*
X519488D01*
Y192205D02*
Y192717D01*
X483996Y228150D02*
X485295D01*
X483996Y231693D02*
X485295D01*
X604468Y204134D02*
X605768D01*
X604468Y200591D02*
X605768D01*
X534114Y219606D02*
X535177D01*
X534114Y215827D02*
X535177D01*
X541673Y211437D02*
Y212992D01*
X554646D02*
Y218740D01*
X541417Y212992D02*
Y218740D01*
X533996Y213583D02*
X535295D01*
X533996Y210039D02*
X535295D01*
X482047Y211496D02*
X487795D01*
X482047Y224724D02*
X487795D01*
Y211752D02*
X489350D01*
D42*
X493110Y129134D02*
Y168898D01*
X475394Y129134D02*
X493110D01*
X475394D02*
Y168898D01*
X493110Y129134D02*
X510827D01*
Y168898D01*
Y129134D02*
X528543D01*
Y168898D01*
Y129134D02*
X546260D01*
Y168898D01*
X528543D02*
X546260D01*
X546260Y129134D02*
X563976D01*
Y168898D01*
Y129134D02*
X581693D01*
Y168898D01*
X581693Y129134D02*
X599409D01*
Y168898D01*
Y129134D02*
X617126D01*
Y168898D01*
Y129134D02*
X634842D01*
Y168898D01*
X493110Y129134D02*
Y130905D01*
X546260Y129134D02*
Y130905D01*
X563976Y129134D02*
Y130905D01*
X581693Y129134D02*
Y130905D01*
X599409Y129134D02*
Y130905D01*
X617126Y129134D02*
Y130905D01*
X475394Y168898D02*
X528740D01*
X546260D02*
X634842D01*
X617126Y222441D02*
Y262598D01*
X599409Y222441D02*
Y262598D01*
X617126D01*
X581693Y222835D02*
Y262598D01*
X599409D01*
X563976Y222835D02*
Y262598D01*
X581693D01*
X546260Y222835D02*
Y262598D01*
X563976D01*
X528543Y222835D02*
Y262598D01*
X546260D01*
X510827Y222835D02*
Y262598D01*
X528543D01*
X493110Y222441D02*
Y262598D01*
X510827D01*
X493110Y222441D02*
X599409D01*
X475984Y207874D02*
X484252D01*
X475197D02*
X475984D01*
X475197Y174016D02*
Y207874D01*
Y172441D02*
Y174016D01*
Y172441D02*
X496063D01*
Y207874D01*
X484252D02*
X496063D01*
X634646Y225197D02*
X637402Y222441D01*
X599409D02*
X618504D01*
X634646Y259449D02*
X637795Y262598D01*
X634646Y225197D02*
Y258268D01*
Y259449D01*
X617126Y222441D02*
X631890D01*
X634646Y225197D01*
X617126Y262598D02*
X631496D01*
X634646Y259449D01*
X637795Y262598D02*
X649213D01*
X652559Y259252D01*
X637402Y222441D02*
X649606D01*
X652559Y225394D01*
Y259252D01*
D43*
X589994Y214166D02*
X589444Y214716D01*
X588345D01*
X587795Y214166D01*
Y211967D01*
X588345Y211417D01*
X589444D01*
X589994Y211967D01*
X593292Y214716D02*
X592193Y214166D01*
X591093Y213066D01*
Y211967D01*
X591643Y211417D01*
X592742D01*
X593292Y211967D01*
Y212517D01*
X592742Y213066D01*
X591093D01*
X591978Y175427D02*
Y173228D01*
X593626D01*
Y174328D01*
Y173228D01*
X595276D01*
Y176526D02*
Y177626D01*
Y177076D01*
X591978D01*
X592527Y176526D01*
X591584Y192520D02*
X594882D01*
Y194169D01*
X594332Y194719D01*
X592133D01*
X591584Y194169D01*
Y192520D01*
X594882Y195818D02*
Y196917D01*
Y196368D01*
X591584D01*
X592133Y195818D01*
X591584Y182283D02*
X594882D01*
Y183932D01*
X594332Y184482D01*
X592133D01*
X591584Y183932D01*
Y182283D01*
X594882Y187780D02*
Y185582D01*
X592683Y187780D01*
X592133D01*
X591584Y187231D01*
Y186131D01*
X592133Y185582D01*
X610236Y207087D02*
Y210385D01*
X611885D01*
X612435Y209835D01*
Y208736D01*
X611885Y208186D01*
X610236D01*
X611336D02*
X612435Y207087D01*
X615733D02*
X613534D01*
X615733Y209285D01*
Y209835D01*
X615183Y210385D01*
X614084D01*
X613534Y209835D01*
X619031Y207087D02*
X616832D01*
X619031Y209285D01*
Y209835D01*
X618482Y210385D01*
X617382D01*
X616832Y209835D01*
X610236Y212598D02*
Y215897D01*
X611885D01*
X612435Y215347D01*
Y214247D01*
X611885Y213698D01*
X610236D01*
X611336D02*
X612435Y212598D01*
X615733D02*
X613534D01*
X615733Y214797D01*
Y215347D01*
X615183Y215897D01*
X614084D01*
X613534Y215347D01*
X616832D02*
X617382Y215897D01*
X618482D01*
X619031Y215347D01*
Y214797D01*
X618482Y214247D01*
X617932D01*
X618482D01*
X619031Y213698D01*
Y213148D01*
X618482Y212598D01*
X617382D01*
X616832Y213148D01*
X548656Y176526D02*
X547556D01*
X548106D01*
Y173778D01*
X547556Y173228D01*
X547006D01*
X546457Y173778D01*
X551954Y173228D02*
X549755D01*
X551954Y175427D01*
Y175977D01*
X551404Y176526D01*
X550305D01*
X549755Y175977D01*
X584891Y175197D02*
X587639D01*
X588189Y175747D01*
Y176846D01*
X587639Y177396D01*
X584891D01*
Y180694D02*
Y178495D01*
X586540D01*
X585990Y179594D01*
Y180144D01*
X586540Y180694D01*
X587639D01*
X588189Y180144D01*
Y179045D01*
X587639Y178495D01*
X540781Y174402D02*
X540232Y174952D01*
X539132D01*
X538583Y174402D01*
Y172203D01*
X539132Y171653D01*
X540232D01*
X540781Y172203D01*
X543530Y171653D02*
Y174952D01*
X541881Y173303D01*
X544080D01*
X578183Y174008D02*
X577633Y174558D01*
X576534D01*
X575984Y174008D01*
Y171809D01*
X576534Y171260D01*
X577633D01*
X578183Y171809D01*
X579282Y174558D02*
X581481D01*
Y174008D01*
X579282Y171809D01*
Y171260D01*
X492371Y212598D02*
X495120D01*
X495669Y213148D01*
Y214247D01*
X495120Y214797D01*
X492371D01*
X495669Y218095D02*
Y215897D01*
X493470Y218095D01*
X492921D01*
X492371Y217546D01*
Y216446D01*
X492921Y215897D01*
X509842Y182826D02*
Y180077D01*
X510392Y179528D01*
X511492D01*
X512041Y180077D01*
Y182826D01*
X513141Y179528D02*
X514240D01*
X513690D01*
Y182826D01*
X513141Y182276D01*
X475197Y233465D02*
X478495D01*
Y231816D01*
X477945Y231266D01*
X476846D01*
X476296Y231816D01*
Y233465D01*
Y232365D02*
X475197Y231266D01*
Y230166D02*
Y229067D01*
Y229617D01*
X478495D01*
X477945Y230166D01*
X475746Y227418D02*
X475197Y226868D01*
Y225769D01*
X475746Y225219D01*
X477945D01*
X478495Y225769D01*
Y226868D01*
X477945Y227418D01*
X477396D01*
X476846Y226868D01*
Y225219D01*
X591732Y200394D02*
Y203692D01*
X593381D01*
X593931Y203142D01*
Y202043D01*
X593381Y201493D01*
X591732D01*
X592832D02*
X593931Y200394D01*
X597229D02*
X595030D01*
X597229Y202592D01*
Y203142D01*
X596679Y203692D01*
X595580D01*
X595030Y203142D01*
X598329Y200394D02*
X599428D01*
X598878D01*
Y203692D01*
X598329Y203142D01*
X478889Y218504D02*
X475591Y216305D01*
X478889D02*
X475591Y218504D01*
Y215206D02*
Y214106D01*
Y214656D01*
X478889D01*
X478339Y215206D01*
X482907Y166922D02*
X482358Y167471D01*
X481258D01*
X480709Y166922D01*
Y164723D01*
X481258Y164173D01*
X482358D01*
X482907Y164723D01*
X484007Y167471D02*
Y164173D01*
Y165822D01*
X484556Y166372D01*
X485656D01*
X486206Y165822D01*
Y164173D01*
X487305D02*
X488404D01*
X487855D01*
Y167471D01*
X487305Y166922D01*
X499837D02*
X499287Y167471D01*
X498187D01*
X497638Y166922D01*
Y164723D01*
X498187Y164173D01*
X499287D01*
X499837Y164723D01*
X500936Y167471D02*
Y164173D01*
Y165822D01*
X501486Y166372D01*
X502585D01*
X503135Y165822D01*
Y164173D01*
X506433D02*
X504234D01*
X506433Y166372D01*
Y166922D01*
X505883Y167471D01*
X504784D01*
X504234Y166922D01*
X517553D02*
X517003Y167471D01*
X515904D01*
X515354Y166922D01*
Y164723D01*
X515904Y164173D01*
X517003D01*
X517553Y164723D01*
X518652Y167471D02*
Y164173D01*
Y165822D01*
X519202Y166372D01*
X520301D01*
X520851Y165822D01*
Y164173D01*
X521951Y166922D02*
X522500Y167471D01*
X523600D01*
X524149Y166922D01*
Y166372D01*
X523600Y165822D01*
X523050D01*
X523600D01*
X524149Y165273D01*
Y164723D01*
X523600Y164173D01*
X522500D01*
X521951Y164723D01*
X535270Y166922D02*
X534720Y167471D01*
X533621D01*
X533071Y166922D01*
Y164723D01*
X533621Y164173D01*
X534720D01*
X535270Y164723D01*
X536369Y167471D02*
Y164173D01*
Y165822D01*
X536919Y166372D01*
X538018D01*
X538568Y165822D01*
Y164173D01*
X541316D02*
Y167471D01*
X539667Y165822D01*
X541866D01*
X552986Y166922D02*
X552436Y167471D01*
X551337D01*
X550787Y166922D01*
Y164723D01*
X551337Y164173D01*
X552436D01*
X552986Y164723D01*
X554085Y167471D02*
Y164173D01*
Y165822D01*
X554635Y166372D01*
X555735D01*
X556284Y165822D01*
Y164173D01*
X559582Y167471D02*
X557384D01*
Y165822D01*
X558483Y166372D01*
X559033D01*
X559582Y165822D01*
Y164723D01*
X559033Y164173D01*
X557933D01*
X557384Y164723D01*
X570703Y166922D02*
X570153Y167471D01*
X569054D01*
X568504Y166922D01*
Y164723D01*
X569054Y164173D01*
X570153D01*
X570703Y164723D01*
X571802Y167471D02*
Y164173D01*
Y165822D01*
X572352Y166372D01*
X573451D01*
X574001Y165822D01*
Y164173D01*
X577299Y167471D02*
X576200Y166922D01*
X575100Y165822D01*
Y164723D01*
X575650Y164173D01*
X576749D01*
X577299Y164723D01*
Y165273D01*
X576749Y165822D01*
X575100D01*
X588419Y166922D02*
X587870Y167471D01*
X586770D01*
X586221Y166922D01*
Y164723D01*
X586770Y164173D01*
X587870D01*
X588419Y164723D01*
X589519Y167471D02*
Y164173D01*
Y165822D01*
X590068Y166372D01*
X591168D01*
X591717Y165822D01*
Y164173D01*
X592817Y167471D02*
X595015D01*
Y166922D01*
X592817Y164723D01*
Y164173D01*
X606136Y166922D02*
X605586Y167471D01*
X604487D01*
X603937Y166922D01*
Y164723D01*
X604487Y164173D01*
X605586D01*
X606136Y164723D01*
X607235Y167471D02*
Y164173D01*
Y165822D01*
X607785Y166372D01*
X608884D01*
X609434Y165822D01*
Y164173D01*
X610533Y166922D02*
X611083Y167471D01*
X612182D01*
X612732Y166922D01*
Y166372D01*
X612182Y165822D01*
X612732Y165273D01*
Y164723D01*
X612182Y164173D01*
X611083D01*
X610533Y164723D01*
Y165273D01*
X611083Y165822D01*
X610533Y166372D01*
Y166922D01*
X611083Y165822D02*
X612182D01*
X623852Y166922D02*
X623303Y167471D01*
X622203D01*
X621654Y166922D01*
Y164723D01*
X622203Y164173D01*
X623303D01*
X623852Y164723D01*
X624952Y167471D02*
Y164173D01*
Y165822D01*
X625501Y166372D01*
X626601D01*
X627150Y165822D01*
Y164173D01*
X628250Y164723D02*
X628799Y164173D01*
X629899D01*
X630449Y164723D01*
Y166922D01*
X629899Y167471D01*
X628799D01*
X628250Y166922D01*
Y166372D01*
X628799Y165822D01*
X630449D01*
X638583Y243233D02*
X636384D01*
X637483Y242133D02*
Y244332D01*
X629297Y224811D02*
X629847Y224261D01*
X630946D01*
X631496Y224811D01*
Y227009D01*
X630946Y227559D01*
X629847D01*
X629297Y227009D01*
X628198Y224261D02*
Y227559D01*
Y225910D01*
X627648Y225360D01*
X626549D01*
X625999Y225910D01*
Y227559D01*
X624900D02*
X623800D01*
X624350D01*
Y224261D01*
X624900Y224811D01*
X622151D02*
X621602Y224261D01*
X620502D01*
X619953Y224811D01*
Y227009D01*
X620502Y227559D01*
X621602D01*
X622151Y227009D01*
Y224811D01*
X611187D02*
X611737Y224261D01*
X612836D01*
X613386Y224811D01*
Y227009D01*
X612836Y227559D01*
X611737D01*
X611187Y227009D01*
X610088Y224261D02*
Y227559D01*
Y225910D01*
X609538Y225360D01*
X608439D01*
X607889Y225910D01*
Y227559D01*
X606789D02*
X605690D01*
X606240D01*
Y224261D01*
X606789Y224811D01*
X604041Y227559D02*
X602942D01*
X603491D01*
Y224261D01*
X604041Y224811D01*
X594258D02*
X594808Y224261D01*
X595907D01*
X596457Y224811D01*
Y227009D01*
X595907Y227559D01*
X594808D01*
X594258Y227009D01*
X593159Y224261D02*
Y227559D01*
Y225910D01*
X592609Y225360D01*
X591509D01*
X590960Y225910D01*
Y227559D01*
X589860D02*
X588761D01*
X589311D01*
Y224261D01*
X589860Y224811D01*
X584913Y227559D02*
X587112D01*
X584913Y225360D01*
Y224811D01*
X585463Y224261D01*
X586562D01*
X587112Y224811D01*
X576541D02*
X577091Y224261D01*
X578191D01*
X578740Y224811D01*
Y227009D01*
X578191Y227559D01*
X577091D01*
X576541Y227009D01*
X575442Y224261D02*
Y227559D01*
Y225910D01*
X574892Y225360D01*
X573793D01*
X573243Y225910D01*
Y227559D01*
X572144D02*
X571044D01*
X571594D01*
Y224261D01*
X572144Y224811D01*
X569395D02*
X568846Y224261D01*
X567746D01*
X567197Y224811D01*
Y225360D01*
X567746Y225910D01*
X568296D01*
X567746D01*
X567197Y226460D01*
Y227009D01*
X567746Y227559D01*
X568846D01*
X569395Y227009D01*
X558825Y224811D02*
X559375Y224261D01*
X560474D01*
X561024Y224811D01*
Y227009D01*
X560474Y227559D01*
X559375D01*
X558825Y227009D01*
X557725Y224261D02*
Y227559D01*
Y225910D01*
X557176Y225360D01*
X556076D01*
X555527Y225910D01*
Y227559D01*
X554427D02*
X553328D01*
X553878D01*
Y224261D01*
X554427Y224811D01*
X550030Y227559D02*
Y224261D01*
X551679Y225910D01*
X549480D01*
X541108Y224811D02*
X541658Y224261D01*
X542757D01*
X543307Y224811D01*
Y227009D01*
X542757Y227559D01*
X541658D01*
X541108Y227009D01*
X540009Y224261D02*
Y227559D01*
Y225910D01*
X539459Y225360D01*
X538360D01*
X537810Y225910D01*
Y227559D01*
X536711D02*
X535611D01*
X536161D01*
Y224261D01*
X536711Y224811D01*
X531764Y224261D02*
X533962D01*
Y225910D01*
X532863Y225360D01*
X532313D01*
X531764Y225910D01*
Y227009D01*
X532313Y227559D01*
X533413D01*
X533962Y227009D01*
X523392Y224811D02*
X523942Y224261D01*
X525041D01*
X525591Y224811D01*
Y227009D01*
X525041Y227559D01*
X523942D01*
X523392Y227009D01*
X522292Y224261D02*
Y227559D01*
Y225910D01*
X521743Y225360D01*
X520643D01*
X520094Y225910D01*
Y227559D01*
X518994D02*
X517895D01*
X518445D01*
Y224261D01*
X518994Y224811D01*
X514047Y224261D02*
X515146Y224811D01*
X516246Y225910D01*
Y227009D01*
X515696Y227559D01*
X514597D01*
X514047Y227009D01*
Y226460D01*
X514597Y225910D01*
X516246D01*
X506069Y224811D02*
X506619Y224261D01*
X507718D01*
X508268Y224811D01*
Y227009D01*
X507718Y227559D01*
X506619D01*
X506069Y227009D01*
X504970Y224261D02*
Y227559D01*
Y225910D01*
X504420Y225360D01*
X503321D01*
X502771Y225910D01*
Y227559D01*
X501671D02*
X500572D01*
X501122D01*
Y224261D01*
X501671Y224811D01*
X498923Y224261D02*
X496724D01*
Y224811D01*
X498923Y227009D01*
Y227559D01*
X636221Y247318D02*
X638419D01*
X648425Y227165D02*
Y223867D01*
X646776D01*
X646226Y224417D01*
Y225516D01*
X646776Y226066D01*
X648425D01*
X645127Y223867D02*
Y227165D01*
X644028Y226066D01*
X642928Y227165D01*
Y223867D01*
X641829Y227165D02*
Y223867D01*
X640180D01*
X639630Y224417D01*
Y225516D01*
X640180Y226066D01*
X641829D01*
X640730D02*
X639630Y227165D01*
X494087Y192683D02*
X494637Y193233D01*
Y194332D01*
X494087Y194882D01*
X491888D01*
X491339Y194332D01*
Y193233D01*
X491888Y192683D01*
X491339Y191584D02*
X493537D01*
X494637Y190484D01*
X493537Y189385D01*
X491339D01*
X492988D01*
Y191584D01*
X491339Y188286D02*
X494637D01*
X491339Y186087D01*
X494637D01*
X490945Y205906D02*
X494243D01*
X490945Y203707D01*
X494243D01*
X491339Y176378D02*
X494637D01*
Y174729D01*
X494087Y174179D01*
X492988D01*
X492438Y174729D01*
Y176378D01*
M02*
