G04 Layer_Color=32768*
%FSLAX25Y25*%
%MOIN*%
G70*
G01*
G75*
%ADD41C,0.00472*%
D41*
X645827Y146653D02*
X645552Y147590D01*
X644814Y148229D01*
X643848Y148368D01*
X642960Y147963D01*
X642432Y147142D01*
Y146166D01*
X642960Y145344D01*
X643848Y144939D01*
X644814Y145078D01*
X645552Y145717D01*
X645827Y146653D01*
X649764D02*
X649678Y147638D01*
X649422Y148593D01*
X649004Y149488D01*
X648437Y150298D01*
X647739Y150996D01*
X646929Y151563D01*
X646033Y151981D01*
X645079Y152237D01*
X644095Y152323D01*
X643110Y152237D01*
X642156Y151981D01*
X641260Y151563D01*
X640450Y150996D01*
X639752Y150298D01*
X639185Y149488D01*
X638767Y148593D01*
X638511Y147638D01*
X638425Y146653D01*
X638511Y145669D01*
X638767Y144714D01*
X639185Y143819D01*
X639752Y143009D01*
X640450Y142311D01*
X641260Y141744D01*
X642156Y141326D01*
X643110Y141070D01*
X644095Y140984D01*
X645079Y141070D01*
X646033Y141326D01*
X646929Y141744D01*
X647739Y142311D01*
X648437Y143009D01*
X649004Y143819D01*
X649422Y144714D01*
X649678Y145669D01*
X649764Y146653D01*
X485591Y245079D02*
X485316Y246015D01*
X484578Y246655D01*
X483612Y246793D01*
X482724Y246388D01*
X482196Y245567D01*
Y244591D01*
X482724Y243770D01*
X483612Y243364D01*
X484578Y243503D01*
X485316Y244142D01*
X485591Y245079D01*
X489528D02*
X489441Y246063D01*
X489186Y247018D01*
X488768Y247913D01*
X488201Y248723D01*
X487502Y249422D01*
X486693Y249989D01*
X485797Y250406D01*
X484843Y250662D01*
X483858Y250748D01*
X482874Y250662D01*
X481919Y250406D01*
X481024Y249989D01*
X480214Y249422D01*
X479515Y248723D01*
X478948Y247913D01*
X478531Y247018D01*
X478275Y246063D01*
X478189Y245079D01*
X478275Y244094D01*
X478531Y243140D01*
X478948Y242244D01*
X479515Y241435D01*
X480214Y240736D01*
X481024Y240169D01*
X481919Y239751D01*
X482874Y239496D01*
X483858Y239409D01*
X484843Y239496D01*
X485797Y239751D01*
X486693Y240169D01*
X487502Y240736D01*
X488201Y241435D01*
X488768Y242244D01*
X489186Y243140D01*
X489441Y244094D01*
X489528Y245079D01*
X613779Y176378D02*
X627165D01*
X613779D02*
Y183465D01*
X627165D01*
Y176378D02*
Y183465D01*
X604134Y195079D02*
X630512D01*
X604134D02*
Y209646D01*
X630512D01*
Y195079D02*
Y209646D01*
X561811Y176969D02*
X581496D01*
Y215945D01*
X561811D02*
X581496D01*
X561811Y176969D02*
Y215945D01*
X591811Y208189D02*
X595590D01*
X591811Y201260D02*
Y208189D01*
Y201260D02*
X595590D01*
Y208189D01*
X591811Y196772D02*
X595590D01*
X591811Y189842D02*
Y196772D01*
Y189842D02*
X595590D01*
Y196772D01*
X512284Y213858D02*
Y217638D01*
Y213858D02*
X519213D01*
Y217638D01*
X512284D02*
X519213D01*
X521358Y188071D02*
Y205787D01*
X501279D02*
X521358D01*
X501279Y188071D02*
Y205787D01*
Y188071D02*
X521358D01*
X587087Y216220D02*
Y220000D01*
X594016D01*
Y216220D02*
Y220000D01*
X587087Y216220D02*
X594016D01*
X612402Y171653D02*
Y178740D01*
X598622Y171653D02*
X612402D01*
X598622D02*
Y178740D01*
X612402D01*
X610748Y190945D02*
Y198031D01*
X599488Y190945D02*
X610748D01*
X599488D02*
Y198031D01*
X610748D01*
Y181496D02*
Y188583D01*
X599488Y181496D02*
X610748D01*
X599488D02*
Y188583D01*
X610748D01*
X600984Y210039D02*
X607677D01*
X600984Y206496D02*
Y210039D01*
Y206496D02*
X607677D01*
Y210039D01*
X600591Y215945D02*
X607283D01*
X600591Y212402D02*
Y215945D01*
Y212402D02*
X607283D01*
Y215945D01*
X528465Y177520D02*
X548465D01*
X528465D02*
Y207520D01*
X548465D01*
Y177520D02*
Y207520D01*
X584842Y182874D02*
Y210827D01*
X556890Y182874D02*
X584842D01*
X556890D02*
Y210827D01*
X584842D01*
X528819Y171339D02*
Y175118D01*
X535748D01*
Y171339D02*
Y175118D01*
X528819Y171339D02*
X535748D01*
X565433D02*
Y175118D01*
X572362D01*
Y171339D02*
Y175118D01*
X565433Y171339D02*
X572362D01*
X502638Y194390D02*
Y220374D01*
Y194390D02*
X520354D01*
Y220374D01*
X502638D02*
X520354D01*
X519488Y173425D02*
Y192717D01*
X504134D02*
X519488D01*
X504134Y173425D02*
Y192717D01*
Y173425D02*
X519488D01*
X487992Y228150D02*
Y231693D01*
X481299Y228150D02*
X487992D01*
X481299D02*
Y231693D01*
X487992D01*
X606378Y183386D02*
X610157D01*
X606378Y176457D02*
Y183386D01*
Y176457D02*
X610157D01*
Y183386D01*
X493504Y193898D02*
X497047D01*
X493504Y187205D02*
Y193898D01*
Y187205D02*
X497047D01*
Y193898D01*
X480905Y167520D02*
Y171063D01*
Y167520D02*
X487598D01*
Y171063D01*
X480905D02*
X487598D01*
X498622Y167520D02*
Y171063D01*
Y167520D02*
X505315D01*
Y171063D01*
X498622D02*
X505315D01*
X516339Y167520D02*
Y171063D01*
Y167520D02*
X523032D01*
Y171063D01*
X516339D02*
X523032D01*
X534055Y167520D02*
Y171063D01*
Y167520D02*
X540748D01*
Y171063D01*
X534055D02*
X540748D01*
X551772Y167323D02*
Y170866D01*
Y167323D02*
X558465D01*
Y170866D01*
X551772D02*
X558465D01*
X569488Y167323D02*
Y170866D01*
Y167323D02*
X576181D01*
Y170866D01*
X569488D02*
X576181D01*
X587205Y167323D02*
Y170866D01*
Y167323D02*
X593898D01*
Y170866D01*
X587205D02*
X593898D01*
X604921Y167323D02*
Y170866D01*
Y167323D02*
X611614D01*
Y170866D01*
X604921D02*
X611614D01*
X622638Y167323D02*
Y170866D01*
Y167323D02*
X629331D01*
Y170866D01*
X622638D02*
X629331D01*
X622638Y223622D02*
Y227165D01*
Y223622D02*
X629331D01*
Y227165D01*
X622638D02*
X629331D01*
X604921Y223622D02*
Y227165D01*
Y223622D02*
X611614D01*
Y227165D01*
X604921D02*
X611614D01*
X587205Y223622D02*
Y227165D01*
Y223622D02*
X593898D01*
Y227165D01*
X587205D02*
X593898D01*
X569488Y223622D02*
Y227165D01*
Y223622D02*
X576181D01*
Y227165D01*
X569488D02*
X576181D01*
X551772Y223425D02*
Y226969D01*
Y223425D02*
X558465D01*
Y226969D01*
X551772D02*
X558465D01*
X534055Y223425D02*
Y226969D01*
Y223425D02*
X540748D01*
Y226969D01*
X534055D02*
X540748D01*
X516339Y223425D02*
Y226969D01*
Y223425D02*
X523032D01*
Y226969D01*
X516339D02*
X523032D01*
X498622Y223425D02*
Y226969D01*
Y223425D02*
X505315D01*
Y226969D01*
X498622D02*
X505315D01*
X601772Y204134D02*
X608465D01*
X601772Y200591D02*
Y204134D01*
Y200591D02*
X608465D01*
Y204134D01*
X531181Y215827D02*
Y219606D01*
X538110D01*
Y215827D02*
Y219606D01*
X531181Y215827D02*
X538110D01*
X541417Y212992D02*
X554646D01*
Y218740D01*
X541417D02*
X554646D01*
X541417Y212992D02*
Y218740D01*
X531299Y210039D02*
Y213583D01*
X537992D01*
Y210039D02*
Y213583D01*
X531299Y210039D02*
X537992D01*
X482047Y211496D02*
X487795D01*
X482047D02*
Y224724D01*
X487795D01*
Y211496D02*
Y224724D01*
M02*
