G04 Layer_Color=32768*
%FSLAX25Y25*%
%MOIN*%
G70*
G01*
G75*
%ADD68C,0.00197*%
%ADD69C,0.00394*%
D68*
X621457Y179921D02*
X620965Y180774D01*
X619980D01*
X619488Y179921D01*
X619980Y179069D01*
X620965D01*
X621457Y179921D01*
X618307Y202362D02*
X617815Y203215D01*
X616831D01*
X616339Y202362D01*
X616831Y201510D01*
X617815D01*
X618307Y202362D01*
X572638Y196457D02*
X572146Y197309D01*
X571161D01*
X570669Y196457D01*
X571161Y195604D01*
X572146D01*
X572638Y196457D01*
X594685Y204724D02*
X594193Y205577D01*
X593209D01*
X592717Y204724D01*
X593209Y203872D01*
X594193D01*
X594685Y204724D01*
Y193307D02*
X594193Y194159D01*
X593209D01*
X592717Y193307D01*
X593209Y192455D01*
X594193D01*
X594685Y193307D01*
X516732Y215748D02*
X516240Y216600D01*
X515256D01*
X514764Y215748D01*
X515256Y214896D01*
X516240D01*
X516732Y215748D01*
X512303Y196929D02*
X511811Y197782D01*
X510827D01*
X510335Y196929D01*
X510827Y196077D01*
X511811D01*
X512303Y196929D01*
X591535Y218110D02*
X591043Y218963D01*
X590059D01*
X589567Y218110D01*
X590059Y217258D01*
X591043D01*
X591535Y218110D01*
X606496Y175197D02*
X606004Y176049D01*
X605020D01*
X604528Y175197D01*
X605020Y174345D01*
X606004D01*
X606496Y175197D01*
X606102Y194488D02*
X605610Y195341D01*
X604626D01*
X604134Y194488D01*
X604626Y193636D01*
X605610D01*
X606102Y194488D01*
Y185039D02*
X605610Y185892D01*
X604626D01*
X604134Y185039D01*
X604626Y184187D01*
X605610D01*
X606102Y185039D01*
X605315Y208268D02*
X604823Y209120D01*
X603839D01*
X603346Y208268D01*
X603839Y207415D01*
X604823D01*
X605315Y208268D01*
X604921Y214173D02*
X604429Y215026D01*
X603445D01*
X602953Y214173D01*
X603445Y213321D01*
X604429D01*
X604921Y214173D01*
X544449Y182520D02*
X543957Y183372D01*
X542972D01*
X542480Y182520D01*
X542972Y181667D01*
X543957D01*
X544449Y182520D01*
X571850Y196850D02*
X571358Y197703D01*
X570374D01*
X569882Y196850D01*
X570374Y195998D01*
X571358D01*
X571850Y196850D01*
X533268Y173228D02*
X532776Y174081D01*
X531791D01*
X531299Y173228D01*
X531791Y172376D01*
X532776D01*
X533268Y173228D01*
X569882D02*
X569390Y174081D01*
X568405D01*
X567913Y173228D01*
X568405Y172376D01*
X569390D01*
X569882Y173228D01*
X512480Y207382D02*
X511988Y208234D01*
X511004D01*
X510512Y207382D01*
X511004Y206529D01*
X511988D01*
X512480Y207382D01*
X512795Y183071D02*
X512303Y183923D01*
X511319D01*
X510827Y183071D01*
X511319Y182219D01*
X512303D01*
X512795Y183071D01*
X485630Y229921D02*
X485138Y230774D01*
X484154D01*
X483661Y229921D01*
X484154Y229069D01*
X485138D01*
X485630Y229921D01*
X609252Y179921D02*
X608760Y180774D01*
X607776D01*
X607283Y179921D01*
X607776Y179069D01*
X608760D01*
X609252Y179921D01*
X496260Y190551D02*
X495768Y191404D01*
X494783D01*
X494291Y190551D01*
X494783Y189699D01*
X495768D01*
X496260Y190551D01*
X485236Y169291D02*
X484744Y170144D01*
X483760D01*
X483268Y169291D01*
X483760Y168439D01*
X484744D01*
X485236Y169291D01*
X502953Y169291D02*
X502461Y170144D01*
X501476D01*
X500984Y169291D01*
X501476Y168439D01*
X502461D01*
X502953Y169291D01*
X520669D02*
X520177Y170144D01*
X519193D01*
X518701Y169291D01*
X519193Y168439D01*
X520177D01*
X520669Y169291D01*
X538386D02*
X537894Y170144D01*
X536909D01*
X536417Y169291D01*
X536909Y168439D01*
X537894D01*
X538386Y169291D01*
X556102Y169095D02*
X555610Y169947D01*
X554626D01*
X554134Y169095D01*
X554626Y168242D01*
X555610D01*
X556102Y169095D01*
X573819D02*
X573327Y169947D01*
X572342D01*
X571850Y169095D01*
X572342Y168242D01*
X573327D01*
X573819Y169095D01*
X591535D02*
X591043Y169947D01*
X590059D01*
X589567Y169095D01*
X590059Y168242D01*
X591043D01*
X591535Y169095D01*
X609252D02*
X608760Y169947D01*
X607776D01*
X607283Y169095D01*
X607776Y168242D01*
X608760D01*
X609252Y169095D01*
X626968D02*
X626476Y169947D01*
X625492D01*
X625000Y169095D01*
X625492Y168242D01*
X626476D01*
X626968Y169095D01*
Y225394D02*
X626476Y226246D01*
X625492D01*
X625000Y225394D01*
X625492Y224541D01*
X626476D01*
X626968Y225394D01*
X609252D02*
X608760Y226246D01*
X607776D01*
X607283Y225394D01*
X607776Y224541D01*
X608760D01*
X609252Y225394D01*
X591535D02*
X591043Y226246D01*
X590059D01*
X589567Y225394D01*
X590059Y224541D01*
X591043D01*
X591535Y225394D01*
X573819D02*
X573327Y226246D01*
X572342D01*
X571850Y225394D01*
X572342Y224541D01*
X573327D01*
X573819Y225394D01*
X556102Y225197D02*
X555610Y226049D01*
X554626D01*
X554134Y225197D01*
X554626Y224344D01*
X555610D01*
X556102Y225197D01*
X538386D02*
X537894Y226049D01*
X536909D01*
X536417Y225197D01*
X536909Y224344D01*
X537894D01*
X538386Y225197D01*
X520669D02*
X520177Y226049D01*
X519193D01*
X518701Y225197D01*
X519193Y224344D01*
X520177D01*
X520669Y225197D01*
X502953D02*
X502461Y226049D01*
X501476D01*
X500984Y225197D01*
X501476Y224344D01*
X502461D01*
X502953Y225197D01*
X606102Y202362D02*
X605610Y203215D01*
X604626D01*
X604134Y202362D01*
X604626Y201510D01*
X605610D01*
X606102Y202362D01*
X535630Y217717D02*
X535138Y218569D01*
X534154D01*
X533661Y217717D01*
X534154Y216864D01*
X535138D01*
X535630Y217717D01*
X549016Y215866D02*
X548524Y216719D01*
X547539D01*
X547047Y215866D01*
X547539Y215014D01*
X548524D01*
X549016Y215866D01*
X535630Y211811D02*
X535138Y212663D01*
X534154D01*
X533661Y211811D01*
X534154Y210959D01*
X535138D01*
X535630Y211811D01*
X485906Y218110D02*
X485413Y218963D01*
X484429D01*
X483937Y218110D01*
X484429Y217258D01*
X485413D01*
X485906Y218110D01*
X652756Y146653D02*
X652697Y147659D01*
X652522Y148651D01*
X652234Y149616D01*
X651835Y150541D01*
X651331Y151413D01*
X650730Y152221D01*
X650038Y152954D01*
X649267Y153601D01*
X648425Y154155D01*
X647525Y154607D01*
X646579Y154951D01*
X645599Y155183D01*
X644598Y155300D01*
X643591D01*
X642590Y155183D01*
X641610Y154951D01*
X640664Y154607D01*
X639764Y154155D01*
X638922Y153601D01*
X638151Y152954D01*
X637460Y152221D01*
X636858Y151413D01*
X636354Y150541D01*
X635955Y149616D01*
X635667Y148651D01*
X635492Y147659D01*
X635433Y146653D01*
X635492Y145648D01*
X635667Y144656D01*
X635955Y143691D01*
X636354Y142766D01*
X636858Y141894D01*
X637460Y141086D01*
X638151Y140353D01*
X638922Y139706D01*
X639764Y139153D01*
X640664Y138700D01*
X641610Y138356D01*
X642591Y138124D01*
X643591Y138007D01*
X644598D01*
X645599Y138124D01*
X646579Y138356D01*
X647525Y138700D01*
X648425Y139153D01*
X649267Y139706D01*
X650038Y140353D01*
X650730Y141086D01*
X651331Y141894D01*
X651835Y142766D01*
X652234Y143691D01*
X652522Y144656D01*
X652697Y145648D01*
X652756Y146653D01*
X645079Y146653D02*
X644587Y147506D01*
X643602D01*
X643110Y146653D01*
X643602Y145801D01*
X644587D01*
X645079Y146653D01*
X492520Y245079D02*
X492461Y246084D01*
X492286Y247076D01*
X491997Y248041D01*
X491598Y248966D01*
X491095Y249838D01*
X490493Y250646D01*
X489802Y251379D01*
X489031Y252026D01*
X488189Y252580D01*
X487289Y253032D01*
X486342Y253376D01*
X485362Y253609D01*
X484362Y253726D01*
X483355D01*
X482354Y253609D01*
X481374Y253376D01*
X480428Y253032D01*
X479528Y252580D01*
X478686Y252026D01*
X477914Y251379D01*
X477223Y250646D01*
X476622Y249838D01*
X476118Y248966D01*
X475719Y248041D01*
X475430Y247076D01*
X475255Y246084D01*
X475197Y245079D01*
X475255Y244073D01*
X475430Y243081D01*
X475719Y242116D01*
X476118Y241192D01*
X476622Y240319D01*
X477223Y239511D01*
X477914Y238779D01*
X478686Y238131D01*
X479528Y237578D01*
X480428Y237126D01*
X481374Y236781D01*
X482354Y236549D01*
X483355Y236432D01*
X484362D01*
X485362Y236549D01*
X486342Y236781D01*
X487289Y237126D01*
X488189Y237578D01*
X489031Y238131D01*
X489802Y238779D01*
X490493Y239511D01*
X491095Y240319D01*
X491598Y241192D01*
X491997Y242116D01*
X492286Y243081D01*
X492461Y244073D01*
X492520Y245079D01*
X484842Y245079D02*
X484350Y245931D01*
X483366D01*
X482874Y245079D01*
X483366Y244226D01*
X484350D01*
X484842Y245079D01*
X620472Y178543D02*
Y181299D01*
X619095Y179921D02*
X621850D01*
X611575Y175551D02*
X629370D01*
X611575D02*
Y184291D01*
X629370D01*
Y175551D02*
Y184291D01*
X603346Y194291D02*
X605532D01*
Y186201D02*
Y194291D01*
Y186201D02*
X629114D01*
Y194291D01*
X631299D01*
Y210433D01*
X624508D02*
X631299D01*
X624508D02*
Y218524D01*
X610138D02*
X624508D01*
X610138Y210433D02*
Y218524D01*
X603346Y210433D02*
X610138D01*
X603346Y194291D02*
Y210433D01*
X615945Y202362D02*
X618701D01*
X617323Y200984D02*
Y203740D01*
X570276Y196457D02*
X573032D01*
X571654Y195079D02*
Y197835D01*
X559842Y217913D02*
X583465D01*
Y214744D02*
Y217913D01*
Y214744D02*
X589390D01*
Y178169D02*
Y214744D01*
X583465Y178169D02*
X589390D01*
X583465Y175000D02*
Y178169D01*
X559842Y175000D02*
X583465D01*
X559842D02*
Y178169D01*
X553917D02*
X559842D01*
X553917D02*
Y214744D01*
X559842D01*
Y217913D01*
X590984Y210197D02*
X596417D01*
X590984Y199252D02*
Y210197D01*
Y199252D02*
X596417D01*
Y210197D01*
X593701Y203366D02*
Y206083D01*
X592343Y204724D02*
X595059D01*
X590984Y198779D02*
X596417D01*
X590984Y187835D02*
Y198779D01*
Y187835D02*
X596417D01*
Y198779D01*
X593701Y191949D02*
Y194665D01*
X592343Y193307D02*
X595059D01*
X510276Y213032D02*
Y218465D01*
Y213032D02*
X521220D01*
Y218465D01*
X510276D02*
X521220D01*
X514390Y215748D02*
X517106D01*
X515748Y214390D02*
Y217106D01*
X511319Y195551D02*
Y198307D01*
X509941Y196929D02*
X512697D01*
X500492Y187284D02*
Y206575D01*
X500807D01*
Y211319D01*
X521831D01*
Y206575D02*
Y211319D01*
Y206575D02*
X522146D01*
Y187284D02*
Y206575D01*
X521831Y187284D02*
X522146D01*
X521831Y182539D02*
Y187284D01*
X500807Y182539D02*
X521831D01*
X500807D02*
Y187284D01*
X500492D02*
X500807D01*
X585079Y215394D02*
Y220827D01*
X596024D01*
Y215394D02*
Y220827D01*
X585079Y215394D02*
X596024D01*
X589193Y218110D02*
X591910D01*
X590551Y216752D02*
Y219468D01*
X614606Y170827D02*
Y179567D01*
X596417Y170827D02*
X614606D01*
X596417D02*
Y179567D01*
X614606D01*
X604134Y175197D02*
X606890D01*
X605512Y173819D02*
Y176575D01*
X603740Y194488D02*
X606496D01*
X605118Y193110D02*
Y195866D01*
X598701Y198819D02*
X611535D01*
X598701Y196949D02*
Y198819D01*
X595630Y196949D02*
X598701D01*
X595630Y192028D02*
Y196949D01*
Y192028D02*
X598701D01*
Y190157D02*
Y192028D01*
Y190157D02*
X611535D01*
Y192028D01*
X614606D01*
Y196949D01*
X611535D02*
X614606D01*
X611535D02*
Y198819D01*
X603740Y185039D02*
X606496D01*
X605118Y183661D02*
Y186417D01*
X598701Y189370D02*
X611535D01*
X598701Y187500D02*
Y189370D01*
X595630Y187500D02*
X598701D01*
X595630Y182579D02*
Y187500D01*
Y182579D02*
X598701D01*
Y180709D02*
Y182579D01*
Y180709D02*
X611535D01*
Y182579D01*
X614606D01*
Y187500D01*
X611535D02*
X614606D01*
X611535D02*
Y189370D01*
X604331Y206949D02*
Y209587D01*
X603012Y208268D02*
X605650D01*
X598937Y210906D02*
X609724D01*
X598937Y205630D02*
Y210906D01*
Y205630D02*
X609724D01*
Y210906D01*
X603937Y212854D02*
Y215492D01*
X602618Y214173D02*
X605256D01*
X598543Y216811D02*
X609331D01*
X598543Y211535D02*
Y216811D01*
Y211535D02*
X609331D01*
Y216811D01*
X527480Y176535D02*
X549449D01*
X527480D02*
Y208504D01*
X549449D01*
Y176535D02*
Y208504D01*
X543465Y181142D02*
Y183898D01*
X542087Y182520D02*
X544842D01*
X570866Y195473D02*
Y198228D01*
X569488Y196850D02*
X572244D01*
X556102Y209784D02*
Y211614D01*
X550866Y209784D02*
X556102D01*
X550866Y183917D02*
Y209784D01*
Y183917D02*
X556102D01*
Y182087D02*
Y183917D01*
Y182087D02*
X557933D01*
Y176850D02*
Y182087D01*
Y176850D02*
X583799D01*
Y182087D01*
X585630D01*
Y183917D01*
X590866D01*
Y209784D01*
X585630D02*
X590866D01*
X585630D02*
Y211614D01*
X583799D02*
X585630D01*
X583799D02*
Y216850D01*
X557933D02*
X583799D01*
X557933Y211614D02*
Y216850D01*
X556102Y211614D02*
X557933D01*
X526811Y170512D02*
Y175945D01*
X537756D01*
Y170512D02*
Y175945D01*
X526811Y170512D02*
X537756D01*
X530925Y173228D02*
X533642D01*
X532283Y171870D02*
Y174587D01*
X563425Y170512D02*
Y175945D01*
X574370D01*
Y170512D02*
Y175945D01*
X563425Y170512D02*
X574370D01*
X567539Y173228D02*
X570256D01*
X568898Y171870D02*
Y174587D01*
X501850Y193602D02*
Y194311D01*
X497106D02*
X501850D01*
X497106D02*
Y220453D01*
X501850D01*
Y221161D01*
X521142D01*
Y220453D02*
Y221161D01*
Y220453D02*
X525886D01*
Y194311D02*
Y220453D01*
X521142Y194311D02*
X525886D01*
X521142Y193602D02*
Y194311D01*
X501850Y193602D02*
X521142D01*
X511496Y206004D02*
Y208760D01*
X510118Y207382D02*
X512874D01*
X520276Y192283D02*
Y193504D01*
Y192283D02*
X526004D01*
Y173858D02*
Y192283D01*
X520276Y173858D02*
X526004D01*
X520276Y172638D02*
Y173858D01*
X503346Y172638D02*
X520276D01*
X503346D02*
Y173858D01*
X497618D02*
X503346D01*
X497618D02*
Y192283D01*
X503346D01*
Y193504D01*
X520276D01*
X511811Y181693D02*
Y184449D01*
X510433Y183071D02*
X513189D01*
X490039Y227284D02*
Y232559D01*
X479252Y227284D02*
X490039D01*
X479252D02*
Y232559D01*
X490039D01*
X483327Y229921D02*
X485965D01*
X484646Y228602D02*
Y231240D01*
X605551Y185394D02*
X610984D01*
X605551Y174449D02*
Y185394D01*
Y174449D02*
X610984D01*
Y185394D01*
X608268Y178563D02*
Y181280D01*
X606910Y179921D02*
X609626D01*
X492638Y195945D02*
X497913D01*
X492638Y185158D02*
Y195945D01*
Y185158D02*
X497913D01*
Y195945D01*
X495276Y189232D02*
Y191870D01*
X493957Y190551D02*
X496594D01*
X478858Y166654D02*
Y171929D01*
Y166654D02*
X489646D01*
Y171929D01*
X478858D02*
X489646D01*
X482933Y169291D02*
X485571D01*
X484252Y167972D02*
Y170610D01*
X496575Y166654D02*
Y171929D01*
Y166654D02*
X507362D01*
Y171929D01*
X496575D02*
X507362D01*
X500650Y169291D02*
X503287D01*
X501968Y167972D02*
Y170610D01*
X514291Y166654D02*
Y171929D01*
Y166654D02*
X525079D01*
Y171929D01*
X514291D02*
X525079D01*
X518366Y169291D02*
X521004D01*
X519685Y167972D02*
Y170610D01*
X532008Y166654D02*
Y171929D01*
Y166654D02*
X542795D01*
Y171929D01*
X532008D02*
X542795D01*
X536083Y169291D02*
X538721D01*
X537402Y167972D02*
Y170610D01*
X549724Y166457D02*
Y171732D01*
Y166457D02*
X560512D01*
Y171732D01*
X549724D02*
X560512D01*
X553799Y169095D02*
X556437D01*
X555118Y167776D02*
Y170413D01*
X567441Y166457D02*
Y171732D01*
Y166457D02*
X578228D01*
Y171732D01*
X567441D02*
X578228D01*
X571516Y169095D02*
X574154D01*
X572835Y167776D02*
Y170413D01*
X585157Y166457D02*
Y171732D01*
Y166457D02*
X595945D01*
Y171732D01*
X585157D02*
X595945D01*
X589232Y169095D02*
X591870D01*
X590551Y167776D02*
Y170413D01*
X602874Y166457D02*
Y171732D01*
Y166457D02*
X613661D01*
Y171732D01*
X602874D02*
X613661D01*
X606949Y169095D02*
X609587D01*
X608268Y167776D02*
Y170413D01*
X620590Y166457D02*
Y171732D01*
Y166457D02*
X631378D01*
Y171732D01*
X620590D02*
X631378D01*
X624665Y169095D02*
X627303D01*
X625984Y167776D02*
Y170413D01*
X620590Y222756D02*
Y228031D01*
Y222756D02*
X631378D01*
Y228031D01*
X620590D02*
X631378D01*
X624665Y225394D02*
X627303D01*
X625984Y224075D02*
Y226713D01*
X602874Y222756D02*
Y228031D01*
Y222756D02*
X613661D01*
Y228031D01*
X602874D02*
X613661D01*
X606949Y225394D02*
X609587D01*
X608268Y224075D02*
Y226713D01*
X585157Y222756D02*
Y228031D01*
Y222756D02*
X595945D01*
Y228031D01*
X585157D02*
X595945D01*
X589232Y225394D02*
X591870D01*
X590551Y224075D02*
Y226713D01*
X567441Y222756D02*
Y228031D01*
Y222756D02*
X578228D01*
Y228031D01*
X567441D02*
X578228D01*
X571516Y225394D02*
X574154D01*
X572835Y224075D02*
Y226713D01*
X549724Y222559D02*
Y227835D01*
Y222559D02*
X560512D01*
Y227835D01*
X549724D02*
X560512D01*
X553799Y225197D02*
X556437D01*
X555118Y223878D02*
Y226516D01*
X532008Y222559D02*
Y227835D01*
Y222559D02*
X542795D01*
Y227835D01*
X532008D02*
X542795D01*
X536083Y225197D02*
X538721D01*
X537402Y223878D02*
Y226516D01*
X514291Y222559D02*
Y227835D01*
Y222559D02*
X525079D01*
Y227835D01*
X514291D02*
X525079D01*
X518366Y225197D02*
X521004D01*
X519685Y223878D02*
Y226516D01*
X496575Y222559D02*
Y227835D01*
Y222559D02*
X507362D01*
Y227835D01*
X496575D02*
X507362D01*
X500650Y225197D02*
X503287D01*
X501968Y223878D02*
Y226516D01*
X605118Y201043D02*
Y203681D01*
X603799Y202362D02*
X606437D01*
X599724Y205000D02*
X610512D01*
X599724Y199724D02*
Y205000D01*
Y199724D02*
X610512D01*
Y205000D01*
X529173Y215000D02*
Y220433D01*
X540118D01*
Y215000D02*
Y220433D01*
X529173Y215000D02*
X540118D01*
X533287Y217717D02*
X536004D01*
X534646Y216358D02*
Y219075D01*
X554468Y212205D02*
X555433D01*
X554468Y210413D02*
Y212205D01*
X541595Y210413D02*
X554468D01*
X541595D02*
Y212205D01*
X540630D02*
X541595D01*
X540630D02*
Y219528D01*
X541595D01*
Y221319D01*
X554468D01*
Y219528D02*
Y221319D01*
Y219528D02*
X555433D01*
Y212205D02*
Y219528D01*
X546654Y215866D02*
X549409D01*
X548032Y214488D02*
Y217244D01*
X529252Y209173D02*
Y214449D01*
X540039D01*
Y209173D02*
Y214449D01*
X529252Y209173D02*
X540039D01*
X533327Y211811D02*
X535965D01*
X534646Y210492D02*
Y213130D01*
X483543Y218110D02*
X486299D01*
X484921Y216732D02*
Y219488D01*
X481260Y225512D02*
X488583D01*
X481260Y224547D02*
Y225512D01*
X479468Y224547D02*
X481260D01*
X479468Y211673D02*
Y224547D01*
Y211673D02*
X481260D01*
Y210709D02*
Y211673D01*
Y210709D02*
X488583D01*
Y211673D01*
X490374D01*
Y224547D01*
X488583D02*
X490374D01*
X488583D02*
Y225512D01*
X642717Y146653D02*
X645472D01*
X644095Y145276D02*
Y148031D01*
X482480Y245079D02*
X485236D01*
X483858Y243701D02*
Y246457D01*
D69*
X641457Y173779D02*
X652756D01*
X641457D02*
Y180157D01*
X652756Y173779D02*
Y180315D01*
X659370D01*
Y211890D01*
X652795D02*
X659370D01*
X652795D02*
Y218228D01*
X641535D02*
X652795D01*
X641535Y211890D02*
Y218228D01*
X631142Y211890D02*
X641535D01*
X631142D02*
Y218268D01*
X620000D02*
X631142D01*
X620000Y208976D02*
Y218268D01*
X621969Y188031D02*
X622008Y187992D01*
Y183110D02*
Y187992D01*
X620000Y208976D02*
X622008D01*
Y204016D02*
Y208976D01*
X620000Y204016D02*
X622008D01*
X620000Y188031D02*
Y204016D01*
Y188031D02*
X621969D01*
X619961Y183110D02*
X622008D01*
X619961Y173898D02*
Y183110D01*
Y173898D02*
X631220D01*
Y180157D01*
X641457D01*
M02*
