G04 Layer_Color=32896*
%FSLAX25Y25*%
%MOIN*%
G70*
G01*
G75*
%ADD41C,0.00472*%
%ADD43C,0.00701*%
%ADD66R,0.09449X0.19685*%
D41*
X617658Y176378D02*
X623287D01*
X617658Y183465D02*
X623287D01*
X629035Y187224D02*
Y195079D01*
X624429Y209646D02*
X630512D01*
Y195079D02*
Y209646D01*
X629035Y195079D02*
X630512D01*
X604134Y209646D02*
X610217D01*
X604134Y195079D02*
Y209646D01*
Y195079D02*
X605610D01*
X560630Y214665D02*
Y217126D01*
X582677D01*
Y214665D02*
Y217126D01*
X560630Y175787D02*
Y178248D01*
Y175787D02*
X582677D01*
Y178248D01*
X554941D02*
X560630D01*
X591811Y204193D02*
Y205256D01*
X595590Y204193D02*
Y205256D01*
X591811Y192776D02*
Y193839D01*
X595590Y192776D02*
Y193839D01*
X515216Y213858D02*
X516280D01*
X515216Y217638D02*
X516280D01*
X521752Y188071D02*
Y205787D01*
X500886Y188071D02*
Y205787D01*
X521752Y183563D02*
Y188071D01*
X606378Y179390D02*
Y180453D01*
X610157Y179390D02*
Y180453D01*
X493504Y189902D02*
Y191201D01*
X497047Y189902D02*
Y191201D01*
X483602Y167520D02*
X484902D01*
X483602Y171063D02*
X484902D01*
X501319Y167520D02*
X502618D01*
X501319Y171063D02*
X502618D01*
X519035Y167520D02*
X520335D01*
X519035Y171063D02*
X520335D01*
X536752Y167520D02*
X538051D01*
X536752Y171063D02*
X538051D01*
X554468Y167323D02*
X555768D01*
X554468Y170866D02*
X555768D01*
X572185Y167323D02*
X573484D01*
X572185Y170866D02*
X573484D01*
X589902Y167323D02*
X591201D01*
X589902Y170866D02*
X591201D01*
X607618Y167323D02*
X608917D01*
X607618Y170866D02*
X608917D01*
X625335Y167323D02*
X626634D01*
X625335Y170866D02*
X626634D01*
X625335Y223622D02*
X626634D01*
X625335Y227165D02*
X626634D01*
X607618Y223622D02*
X608917D01*
X607618Y227165D02*
X608917D01*
X589902Y223622D02*
X591201D01*
X589902Y227165D02*
X591201D01*
X572185Y223622D02*
X573484D01*
X572185Y227165D02*
X573484D01*
X554468Y223425D02*
X555768D01*
X554468Y226969D02*
X555768D01*
X536752Y223425D02*
X538051D01*
X536752Y226969D02*
X538051D01*
X519035Y223425D02*
X520335D01*
X519035Y226969D02*
X520335D01*
X501319Y223425D02*
X502618D01*
X501319Y226969D02*
X502618D01*
D43*
X640837Y218360D02*
Y220559D01*
X642486D01*
Y219460D01*
Y220559D01*
X644135D01*
X640837Y215062D02*
Y217261D01*
X644135D01*
Y215062D01*
X642486Y217261D02*
Y216161D01*
X641387Y211764D02*
X640837Y212314D01*
Y213413D01*
X641387Y213963D01*
X641936D01*
X642486Y213413D01*
Y212314D01*
X643036Y211764D01*
X643585D01*
X644135Y212314D01*
Y213413D01*
X643585Y213963D01*
X640837Y210665D02*
X644135D01*
Y209016D01*
X643585Y208466D01*
X643036D01*
X642486Y209016D01*
Y210665D01*
Y209016D01*
X641936Y208466D01*
X641387D01*
X640837Y209016D01*
Y210665D01*
X644135Y204068D02*
X640837D01*
Y202419D01*
X641387Y201870D01*
X642486D01*
X643036Y202419D01*
Y204068D01*
Y202969D02*
X644135Y201870D01*
X641936Y200220D02*
Y199121D01*
X642486Y198572D01*
X644135D01*
Y200220D01*
X643585Y200770D01*
X643036Y200220D01*
Y198572D01*
X641936Y195273D02*
Y196922D01*
X642486Y197472D01*
X643585D01*
X644135Y196922D01*
Y195273D01*
Y194174D02*
Y193075D01*
Y193624D01*
X641936D01*
Y194174D01*
X644135Y191426D02*
X641936D01*
Y189776D01*
X642486Y189227D01*
X644135D01*
X645234Y187028D02*
Y186478D01*
X644685Y185929D01*
X641936D01*
Y187578D01*
X642486Y188127D01*
X643585D01*
X644135Y187578D01*
Y185929D01*
X648126Y218360D02*
X647576Y218910D01*
Y220009D01*
X648126Y220559D01*
X648675D01*
X649225Y220009D01*
Y218910D01*
X649775Y218360D01*
X650324D01*
X650874Y218910D01*
Y220009D01*
X650324Y220559D01*
X647576Y217261D02*
X650874D01*
X649775Y216161D01*
X650874Y215062D01*
X647576D01*
X648126Y208466D02*
X647576Y209016D01*
Y210115D01*
X648126Y210665D01*
X650324D01*
X650874Y210115D01*
Y209016D01*
X650324Y208466D01*
X650874Y207366D02*
X648675D01*
X647576Y206267D01*
X648675Y205168D01*
X650874D01*
X649225D01*
Y207366D01*
X650874Y204068D02*
X647576D01*
X650874Y201870D01*
X647576D01*
Y197472D02*
X649775D01*
X650874Y196373D01*
X649775Y195273D01*
X647576D01*
X650874Y194174D02*
Y193075D01*
Y193624D01*
X647576D01*
X648126Y194174D01*
X650874Y191426D02*
X650324D01*
Y190876D01*
X650874D01*
Y191426D01*
X648126Y188677D02*
X647576Y188127D01*
Y187028D01*
X648126Y186478D01*
X650324D01*
X650874Y187028D01*
Y188127D01*
X650324Y188677D01*
X648126D01*
X650874Y179882D02*
Y182081D01*
X648675Y179882D01*
X648126D01*
X647576Y180432D01*
Y181531D01*
X648126Y182081D01*
Y178783D02*
X647576Y178233D01*
Y177134D01*
X648126Y176584D01*
X650324D01*
X650874Y177134D01*
Y178233D01*
X650324Y178783D01*
X648126D01*
X650874Y175485D02*
Y174385D01*
Y174935D01*
X647576D01*
X648126Y175485D01*
X650324Y172736D02*
X650874Y172186D01*
Y171087D01*
X650324Y170537D01*
X648126D01*
X647576Y171087D01*
Y172186D01*
X648126Y172736D01*
X648675D01*
X649225Y172186D01*
Y170537D01*
X632670Y179758D02*
X633219Y179208D01*
Y178109D01*
X632670Y177559D01*
X630471D01*
X629921Y178109D01*
Y179208D01*
X630471Y179758D01*
X629921Y180857D02*
Y181957D01*
Y181407D01*
X633219D01*
X632670Y180857D01*
X631890Y215109D02*
Y212361D01*
X631340Y211811D01*
X630241D01*
X629691Y212361D01*
Y215109D01*
X628592Y214560D02*
X628042Y215109D01*
X626943D01*
X626393Y214560D01*
Y214010D01*
X626943Y213460D01*
X627492D01*
X626943D01*
X626393Y212910D01*
Y212361D01*
X626943Y211811D01*
X628042D01*
X628592Y212361D01*
X566142Y221802D02*
Y219054D01*
X565592Y218504D01*
X564493D01*
X563943Y219054D01*
Y221802D01*
X560645D02*
X561744Y221252D01*
X562844Y220153D01*
Y219054D01*
X562294Y218504D01*
X561195D01*
X560645Y219054D01*
Y219603D01*
X561195Y220153D01*
X562844D01*
X600386Y204167D02*
X600936Y203618D01*
Y202518D01*
X600386Y201969D01*
X598187D01*
X597638Y202518D01*
Y203618D01*
X598187Y204167D01*
X600386Y205267D02*
X600936Y205816D01*
Y206916D01*
X600386Y207465D01*
X599837D01*
X599287Y206916D01*
Y206366D01*
Y206916D01*
X598737Y207465D01*
X598187D01*
X597638Y206916D01*
Y205816D01*
X598187Y205267D01*
X600386Y192750D02*
X600936Y192200D01*
Y191101D01*
X600386Y190551D01*
X598187D01*
X597638Y191101D01*
Y192200D01*
X598187Y192750D01*
X600936Y196048D02*
Y193849D01*
X599287D01*
X599837Y194949D01*
Y195498D01*
X599287Y196048D01*
X598187D01*
X597638Y195498D01*
Y194399D01*
X598187Y193849D01*
X525754Y216626D02*
X526304Y217176D01*
X527403D01*
X527953Y216626D01*
Y214428D01*
X527403Y213878D01*
X526304D01*
X525754Y214428D01*
X524655D02*
X524105Y213878D01*
X523006D01*
X522456Y214428D01*
Y216626D01*
X523006Y217176D01*
X524105D01*
X524655Y216626D01*
Y216077D01*
X524105Y215527D01*
X522456D01*
X495422Y206988D02*
X498171D01*
X498721Y206438D01*
Y205339D01*
X498171Y204789D01*
X495422D01*
X498721Y202041D02*
X495422D01*
X497071Y203690D01*
Y201491D01*
X604323Y179364D02*
X604873Y178814D01*
Y177715D01*
X604323Y177165D01*
X602125D01*
X601575Y177715D01*
Y178814D01*
X602125Y179364D01*
X601575Y182662D02*
Y180464D01*
X603774Y182662D01*
X604323D01*
X604873Y182113D01*
Y181013D01*
X604323Y180464D01*
X497638Y180315D02*
Y183613D01*
X495989D01*
X495439Y183063D01*
Y181964D01*
X495989Y181414D01*
X497638D01*
X496538D02*
X495439Y180315D01*
X494340D02*
X493240D01*
X493790D01*
Y183613D01*
X494340Y183063D01*
X483472Y234809D02*
X482922Y235359D01*
Y236458D01*
X483472Y237008D01*
X484022D01*
X484571Y236458D01*
Y235359D01*
X485121Y234809D01*
X485671D01*
X486221Y235359D01*
Y236458D01*
X485671Y237008D01*
X486221Y233710D02*
X482922D01*
X486221Y231511D01*
X482922D01*
X484022Y230412D02*
Y229862D01*
X484571D01*
Y230412D01*
X484022D01*
X485671D02*
Y229862D01*
X486221D01*
Y230412D01*
X485671D01*
D66*
X484646Y218504D02*
D03*
M02*
