G04 Layer_Color=16711935*
%FSLAX25Y25*%
%MOIN*%
G70*
G01*
G75*
%ADD67C,0.00098*%
D67*
X614173Y176772D02*
X626772D01*
X614173D02*
Y183071D01*
X626772D01*
Y176772D02*
Y183071D01*
X614173Y176772D02*
X616142D01*
X614173D02*
Y183071D01*
X616142D01*
Y176772D02*
Y183071D01*
X624803D02*
X626772D01*
Y176772D02*
Y183071D01*
X624803Y176772D02*
X626772D01*
X624803D02*
Y183071D01*
X604528Y195473D02*
X630118D01*
X604528D02*
Y209252D01*
X630118D01*
Y195473D02*
Y209252D01*
X611417Y212992D02*
Y216142D01*
X623228D01*
Y212992D02*
Y216142D01*
X611417Y212992D02*
X623228D01*
X609744Y188583D02*
Y191732D01*
X606791Y188583D02*
X609744D01*
X606791D02*
Y191732D01*
X609744D01*
X618799Y188583D02*
Y191732D01*
X615846Y188583D02*
X618799D01*
X615846D02*
Y191732D01*
X618799D01*
X627854Y188583D02*
Y191732D01*
X624902Y188583D02*
X627854D01*
X624902D02*
Y191732D01*
X627854D01*
X559252Y179232D02*
Y180413D01*
X556299D02*
X559252D01*
X556299Y179232D02*
Y180413D01*
Y179232D02*
X559252D01*
Y181791D02*
Y182973D01*
X556299D02*
X559252D01*
X556299Y181791D02*
Y182973D01*
Y181791D02*
X559252D01*
Y184350D02*
Y185531D01*
X556299D02*
X559252D01*
X556299Y184350D02*
Y185531D01*
Y184350D02*
X559252D01*
Y186909D02*
Y188091D01*
X556299D02*
X559252D01*
X556299Y186909D02*
Y188091D01*
Y186909D02*
X559252D01*
Y189469D02*
Y190650D01*
X556299D02*
X559252D01*
X556299Y189469D02*
Y190650D01*
Y189469D02*
X559252D01*
Y192028D02*
Y193209D01*
X556299D02*
X559252D01*
X556299Y192028D02*
Y193209D01*
Y192028D02*
X559252D01*
Y194587D02*
Y195768D01*
X556299D02*
X559252D01*
X556299Y194587D02*
Y195768D01*
Y194587D02*
X559252D01*
Y197146D02*
Y198327D01*
X556299D02*
X559252D01*
X556299Y197146D02*
Y198327D01*
Y197146D02*
X559252D01*
Y199705D02*
Y200886D01*
X556299D02*
X559252D01*
X556299Y199705D02*
Y200886D01*
Y199705D02*
X559252D01*
Y202264D02*
Y203445D01*
X556299D02*
X559252D01*
X556299Y202264D02*
Y203445D01*
Y202264D02*
X559252D01*
Y204823D02*
Y206004D01*
X556299D02*
X559252D01*
X556299Y204823D02*
Y206004D01*
Y204823D02*
X559252D01*
Y207382D02*
Y208563D01*
X556299D02*
X559252D01*
X556299Y207382D02*
Y208563D01*
Y207382D02*
X559252D01*
Y209941D02*
Y211122D01*
X556299D02*
X559252D01*
X556299Y209941D02*
Y211122D01*
Y209941D02*
X559252D01*
Y212500D02*
Y213681D01*
X556299D02*
X559252D01*
X556299Y212500D02*
Y213681D01*
Y212500D02*
X559252D01*
X584055D02*
Y213681D01*
Y212500D02*
X587008D01*
Y213681D01*
X584055D02*
X587008D01*
X584055Y209941D02*
Y211122D01*
Y209941D02*
X587008D01*
Y211122D01*
X584055D02*
X587008D01*
X584055Y207382D02*
Y208563D01*
Y207382D02*
X587008D01*
Y208563D01*
X584055D02*
X587008D01*
X584055Y204823D02*
Y206004D01*
Y204823D02*
X587008D01*
Y206004D01*
X584055D02*
X587008D01*
X584055Y202264D02*
Y203445D01*
Y202264D02*
X587008D01*
Y203445D01*
X584055D02*
X587008D01*
X584055Y199705D02*
Y200886D01*
Y199705D02*
X587008D01*
Y200886D01*
X584055D02*
X587008D01*
X584055Y197146D02*
Y198327D01*
Y197146D02*
X587008D01*
Y198327D01*
X584055D02*
X587008D01*
X584055Y194587D02*
Y195768D01*
Y194587D02*
X587008D01*
Y195768D01*
X584055D02*
X587008D01*
X584055Y192028D02*
Y193209D01*
Y192028D02*
X587008D01*
Y193209D01*
X584055D02*
X587008D01*
X584055Y189469D02*
Y190650D01*
Y189469D02*
X587008D01*
Y190650D01*
X584055D02*
X587008D01*
X584055Y186909D02*
Y188091D01*
Y186909D02*
X587008D01*
Y188091D01*
X584055D02*
X587008D01*
X584055Y184350D02*
Y185531D01*
Y184350D02*
X587008D01*
Y185531D01*
X584055D02*
X587008D01*
X584055Y181791D02*
Y182973D01*
Y181791D02*
X587008D01*
Y182973D01*
X584055D02*
X587008D01*
X584055Y179232D02*
Y180413D01*
Y179232D02*
X587008D01*
Y180413D01*
X584055D02*
X587008D01*
X561221Y176378D02*
X582087D01*
Y216535D01*
X561221D02*
X582087D01*
X561221Y176378D02*
Y216535D01*
X592126Y206496D02*
X595276D01*
Y207874D01*
X592126D02*
X595276D01*
X592126Y206496D02*
Y207874D01*
Y202953D02*
X595276D01*
X592126Y201575D02*
Y202953D01*
Y201575D02*
X595276D01*
Y202953D01*
X592126Y207874D02*
X595276D01*
X592126Y201575D02*
Y207874D01*
Y201575D02*
X595276D01*
Y207874D01*
X592126Y195079D02*
X595276D01*
Y196457D01*
X592126D02*
X595276D01*
X592126Y195079D02*
Y196457D01*
Y191535D02*
X595276D01*
X592126Y190157D02*
Y191535D01*
Y190157D02*
X595276D01*
Y191535D01*
X592126Y196457D02*
X595276D01*
X592126Y190157D02*
Y196457D01*
Y190157D02*
X595276D01*
Y196457D01*
X513976Y214173D02*
Y217323D01*
X512598D02*
X513976D01*
X512598Y214173D02*
Y217323D01*
Y214173D02*
X513976D01*
X517520D02*
Y217323D01*
Y214173D02*
X518898D01*
Y217323D01*
X517520D02*
X518898D01*
X512598Y214173D02*
Y217323D01*
Y214173D02*
X518898D01*
Y217323D01*
X512598D02*
X518898D01*
X519793Y186693D02*
X520758D01*
X519793Y184331D02*
Y186693D01*
Y184331D02*
X520758D01*
Y186693D01*
X517234D02*
X518199D01*
X517234Y184331D02*
Y186693D01*
Y184331D02*
X518199D01*
Y186693D01*
X514675D02*
X515640D01*
X514675Y184331D02*
Y186693D01*
Y184331D02*
X515640D01*
Y186693D01*
X512116D02*
X513081D01*
X512116Y184331D02*
Y186693D01*
Y184331D02*
X513081D01*
Y186693D01*
X509557D02*
X510522D01*
X509557Y184331D02*
Y186693D01*
Y184331D02*
X510522D01*
Y186693D01*
X506998D02*
X507963D01*
X506998Y184331D02*
Y186693D01*
Y184331D02*
X507963D01*
Y186693D01*
X504439D02*
X505404D01*
X504439Y184331D02*
Y186693D01*
Y184331D02*
X505404D01*
Y186693D01*
X501880D02*
X502844D01*
X501880Y184331D02*
Y186693D01*
Y184331D02*
X502844D01*
Y186693D01*
X501880Y207165D02*
X502844D01*
Y209528D01*
X501880D02*
X502844D01*
X501880Y207165D02*
Y209528D01*
X504439Y207165D02*
X505404D01*
Y209528D01*
X504439D02*
X505404D01*
X504439Y207165D02*
Y209528D01*
X506998Y207165D02*
X507963D01*
Y209528D01*
X506998D02*
X507963D01*
X506998Y207165D02*
Y209528D01*
X509557Y207165D02*
X510522D01*
Y209528D01*
X509557D02*
X510522D01*
X509557Y207165D02*
Y209528D01*
X512116Y207165D02*
X513081D01*
Y209528D01*
X512116D02*
X513081D01*
X512116Y207165D02*
Y209528D01*
X514675Y207165D02*
X515640D01*
Y209528D01*
X514675D02*
X515640D01*
X514675Y207165D02*
Y209528D01*
X517234Y207165D02*
X518199D01*
Y209528D01*
X517234D02*
X518199D01*
X517234Y207165D02*
Y209528D01*
X519793Y207165D02*
X520758D01*
Y209528D01*
X519793D02*
X520758D01*
X519793Y207165D02*
Y209528D01*
X521161Y188268D02*
Y205591D01*
X501476D02*
X521161D01*
X501476Y188268D02*
Y205591D01*
Y188268D02*
X521161D01*
X588779Y216535D02*
Y219685D01*
X587402Y216535D02*
X588779D01*
X587402D02*
Y219685D01*
X588779D01*
X592323Y216535D02*
Y219685D01*
X593701D01*
Y216535D02*
Y219685D01*
X592323Y216535D02*
X593701D01*
X587402D02*
Y219685D01*
X593701D01*
Y216535D02*
Y219685D01*
X587402Y216535D02*
X593701D01*
X610236Y171949D02*
Y178445D01*
X611909D01*
Y171949D02*
Y178445D01*
X610236Y171949D02*
X611909D01*
X600787D02*
Y178445D01*
X599114Y171949D02*
X600787D01*
X599114D02*
Y178445D01*
X600787D01*
X611909Y171949D02*
Y178445D01*
X599114Y171949D02*
X611909D01*
X599114D02*
Y178445D01*
X611909D01*
X611260Y193307D02*
Y195669D01*
X612500D01*
Y193307D02*
Y195669D01*
X611260Y193307D02*
X612500D01*
X598976D02*
Y195669D01*
X597736Y193307D02*
X598976D01*
X597736D02*
Y195669D01*
X598976D01*
X610433Y191339D02*
Y197638D01*
X599803Y191339D02*
X610433D01*
X599803D02*
Y197638D01*
X610433D01*
X611260Y183858D02*
Y186221D01*
X612500D01*
Y183858D02*
Y186221D01*
X611260Y183858D02*
X612500D01*
X598976D02*
Y186221D01*
X597736Y183858D02*
X598976D01*
X597736D02*
Y186221D01*
X598976D01*
X610433Y181890D02*
Y188189D01*
X599803Y181890D02*
X610433D01*
X599803D02*
Y188189D01*
X610433D01*
X601181Y209842D02*
X607480D01*
X601181Y206693D02*
Y209842D01*
Y206693D02*
X607480D01*
Y209842D01*
X601181D02*
X602362D01*
X601181Y206693D02*
Y209842D01*
Y206693D02*
X602362D01*
Y209842D01*
X606299Y206693D02*
X607480D01*
Y209842D01*
X606299D02*
X607480D01*
X606299Y206693D02*
Y209842D01*
X600787Y215748D02*
X607087D01*
X600787Y212598D02*
Y215748D01*
Y212598D02*
X607087D01*
Y215748D01*
X600787D02*
X601968D01*
X600787Y212598D02*
Y215748D01*
Y212598D02*
X601968D01*
Y215748D01*
X605905Y212598D02*
X607087D01*
Y215748D01*
X605905D02*
X607087D01*
X605905Y212598D02*
Y215748D01*
X542205Y181260D02*
X544724D01*
X542205D02*
Y183780D01*
X544724D01*
Y181260D02*
Y183780D01*
X532205Y181260D02*
X534724D01*
X532205D02*
Y183780D01*
X534724D01*
Y181260D02*
Y183780D01*
X542205Y191260D02*
X544724D01*
X542205D02*
Y193780D01*
X544724D01*
Y191260D02*
Y193780D01*
X532205Y191260D02*
X534724D01*
X532205D02*
Y193780D01*
X534724D01*
Y191260D02*
Y193780D01*
X542205Y201260D02*
X544724D01*
X542205D02*
Y203780D01*
X544724D01*
Y201260D02*
Y203780D01*
X532205Y201260D02*
X534724D01*
X532205D02*
Y203780D01*
X534724D01*
Y201260D02*
Y203780D01*
X528465Y177520D02*
X548465D01*
X528465D02*
Y207520D01*
X548465D01*
Y177520D02*
Y207520D01*
X581152Y212205D02*
X582628D01*
X581152D02*
Y214567D01*
X582628D01*
Y212205D02*
Y214567D01*
X578002Y212205D02*
X579478D01*
X578002D02*
Y214567D01*
X579478D01*
Y212205D02*
Y214567D01*
X574852Y212205D02*
X576329D01*
X574852D02*
Y214567D01*
X576329D01*
Y212205D02*
Y214567D01*
X571703Y212205D02*
X573179D01*
X571703D02*
Y214567D01*
X573179D01*
Y212205D02*
Y214567D01*
X568553Y212205D02*
X570029D01*
X568553D02*
Y214567D01*
X570029D01*
Y212205D02*
Y214567D01*
X565404Y212205D02*
X566880D01*
X565404D02*
Y214567D01*
X566880D01*
Y212205D02*
Y214567D01*
X562254Y212205D02*
X563730D01*
X562254D02*
Y214567D01*
X563730D01*
Y212205D02*
Y214567D01*
X559104Y212205D02*
X560581D01*
X559104D02*
Y214567D01*
X560581D01*
Y212205D02*
Y214567D01*
X555512Y207136D02*
Y208612D01*
X553150Y207136D02*
X555512D01*
X553150D02*
Y208612D01*
X555512D01*
Y203986D02*
Y205463D01*
X553150Y203986D02*
X555512D01*
X553150D02*
Y205463D01*
X555512D01*
Y200837D02*
Y202313D01*
X553150Y200837D02*
X555512D01*
X553150D02*
Y202313D01*
X555512D01*
Y197687D02*
Y199163D01*
X553150Y197687D02*
X555512D01*
X553150D02*
Y199163D01*
X555512D01*
Y194537D02*
Y196014D01*
X553150Y194537D02*
X555512D01*
X553150D02*
Y196014D01*
X555512D01*
Y191388D02*
Y192864D01*
X553150Y191388D02*
X555512D01*
X553150D02*
Y192864D01*
X555512D01*
Y188238D02*
Y189715D01*
X553150Y188238D02*
X555512D01*
X553150D02*
Y189715D01*
X555512D01*
Y185089D02*
Y186565D01*
X553150Y185089D02*
X555512D01*
X553150D02*
Y186565D01*
X555512D01*
X559104Y181496D02*
X560581D01*
Y179134D02*
Y181496D01*
X559104Y179134D02*
X560581D01*
X559104D02*
Y181496D01*
X562254D02*
X563730D01*
Y179134D02*
Y181496D01*
X562254Y179134D02*
X563730D01*
X562254D02*
Y181496D01*
X565404D02*
X566880D01*
Y179134D02*
Y181496D01*
X565404Y179134D02*
X566880D01*
X565404D02*
Y181496D01*
X568553D02*
X570029D01*
Y179134D02*
Y181496D01*
X568553Y179134D02*
X570029D01*
X568553D02*
Y181496D01*
X571703D02*
X573179D01*
Y179134D02*
Y181496D01*
X571703Y179134D02*
X573179D01*
X571703D02*
Y181496D01*
X574852D02*
X576329D01*
Y179134D02*
Y181496D01*
X574852Y179134D02*
X576329D01*
X574852D02*
Y181496D01*
X578002D02*
X579478D01*
Y179134D02*
Y181496D01*
X578002Y179134D02*
X579478D01*
X578002D02*
Y181496D01*
X581152D02*
X582628D01*
Y179134D02*
Y181496D01*
X581152Y179134D02*
X582628D01*
X581152D02*
Y181496D01*
X586221Y185089D02*
Y186565D01*
X588583D01*
Y185089D02*
Y186565D01*
X586221Y185089D02*
X588583D01*
X586221Y188238D02*
Y189715D01*
X588583D01*
Y188238D02*
Y189715D01*
X586221Y188238D02*
X588583D01*
X586221Y191388D02*
Y192864D01*
X588583D01*
Y191388D02*
Y192864D01*
X586221Y191388D02*
X588583D01*
X586221Y194537D02*
Y196014D01*
X588583D01*
Y194537D02*
Y196014D01*
X586221Y194537D02*
X588583D01*
X586221Y197687D02*
Y199163D01*
X588583D01*
Y197687D02*
Y199163D01*
X586221Y197687D02*
X588583D01*
X586221Y200837D02*
Y202313D01*
X588583D01*
Y200837D02*
Y202313D01*
X586221Y200837D02*
X588583D01*
X586221Y203986D02*
Y205463D01*
X588583D01*
Y203986D02*
Y205463D01*
X586221Y203986D02*
X588583D01*
X586221Y207136D02*
Y208612D01*
X588583D01*
Y207136D02*
Y208612D01*
X586221Y207136D02*
X588583D01*
X584646Y183071D02*
Y210630D01*
X557087Y183071D02*
X584646D01*
X557087D02*
Y210630D01*
X584646D01*
X530512Y171653D02*
Y174803D01*
X529134Y171653D02*
X530512D01*
X529134D02*
Y174803D01*
X530512D01*
X534055Y171653D02*
Y174803D01*
X535433D01*
Y171653D02*
Y174803D01*
X534055Y171653D02*
X535433D01*
X529134D02*
Y174803D01*
X535433D01*
Y171653D02*
Y174803D01*
X529134Y171653D02*
X535433D01*
X567126D02*
Y174803D01*
X565748Y171653D02*
X567126D01*
X565748D02*
Y174803D01*
X567126D01*
X570669Y171653D02*
Y174803D01*
X572047D01*
Y171653D02*
Y174803D01*
X570669Y171653D02*
X572047D01*
X565748D02*
Y174803D01*
X572047D01*
Y171653D02*
Y174803D01*
X565748Y171653D02*
X572047D01*
X502835Y194587D02*
Y220177D01*
Y194587D02*
X520157D01*
Y220177D01*
X502835D02*
X520157D01*
X521732Y218415D02*
X524094D01*
Y219380D01*
X521732D02*
X524094D01*
X521732Y218415D02*
Y219380D01*
Y215856D02*
X524094D01*
Y216821D01*
X521732D02*
X524094D01*
X521732Y215856D02*
Y216821D01*
Y213297D02*
X524094D01*
Y214262D01*
X521732D02*
X524094D01*
X521732Y213297D02*
Y214262D01*
Y210738D02*
X524094D01*
Y211703D01*
X521732D02*
X524094D01*
X521732Y210738D02*
Y211703D01*
Y208179D02*
X524094D01*
Y209144D01*
X521732D02*
X524094D01*
X521732Y208179D02*
Y209144D01*
Y205620D02*
X524094D01*
Y206585D01*
X521732D02*
X524094D01*
X521732Y205620D02*
Y206585D01*
Y203061D02*
X524094D01*
Y204026D01*
X521732D02*
X524094D01*
X521732Y203061D02*
Y204026D01*
Y200502D02*
X524094D01*
Y201466D01*
X521732D02*
X524094D01*
X521732Y200502D02*
Y201466D01*
Y197943D02*
X524094D01*
Y198907D01*
X521732D02*
X524094D01*
X521732Y197943D02*
Y198907D01*
Y195384D02*
X524094D01*
Y196348D01*
X521732D02*
X524094D01*
X521732Y195384D02*
Y196348D01*
X498898D02*
X501260D01*
X498898Y195384D02*
Y196348D01*
Y195384D02*
X501260D01*
Y196348D01*
X498898Y198907D02*
X501260D01*
X498898Y197943D02*
Y198907D01*
Y197943D02*
X501260D01*
Y198907D01*
X498898Y201466D02*
X501260D01*
X498898Y200502D02*
Y201466D01*
Y200502D02*
X501260D01*
Y201466D01*
X498898Y204026D02*
X501260D01*
X498898Y203061D02*
Y204026D01*
Y203061D02*
X501260D01*
Y204026D01*
X498898Y206585D02*
X501260D01*
X498898Y205620D02*
Y206585D01*
Y205620D02*
X501260D01*
Y206585D01*
X498898Y209144D02*
X501260D01*
X498898Y208179D02*
Y209144D01*
Y208179D02*
X501260D01*
Y209144D01*
X498898Y211703D02*
X501260D01*
X498898Y210738D02*
Y211703D01*
Y210738D02*
X501260D01*
Y211703D01*
X498898Y214262D02*
X501260D01*
X498898Y213297D02*
Y214262D01*
Y213297D02*
X501260D01*
Y214262D01*
X498898Y216821D02*
X501260D01*
X498898Y215856D02*
Y216821D01*
Y215856D02*
X501260D01*
Y216821D01*
X498898Y219380D02*
X501260D01*
X498898Y218415D02*
Y219380D01*
Y218415D02*
X501260D01*
Y219380D01*
X519488Y173425D02*
Y192717D01*
X504134D02*
X519488D01*
X504134Y173425D02*
Y192717D01*
Y173425D02*
X519488D01*
X500000Y176053D02*
X503287D01*
X500000Y175089D02*
Y176053D01*
Y175089D02*
X503287D01*
Y176053D01*
X500000Y181053D02*
X503287D01*
X500000Y180089D02*
Y181053D01*
Y180089D02*
X503287D01*
Y181053D01*
X500000Y186053D02*
X503287D01*
X500000Y185089D02*
Y186053D01*
Y185089D02*
X503287D01*
Y186053D01*
X500000Y191053D02*
X503287D01*
X500000Y190089D02*
Y191053D01*
Y190089D02*
X503287D01*
Y191053D01*
X520335Y190089D02*
X523622D01*
Y191053D01*
X520335D02*
X523622D01*
X520335Y190089D02*
Y191053D01*
Y185089D02*
X523622D01*
Y186053D01*
X520335D02*
X523622D01*
X520335Y185089D02*
Y186053D01*
Y180089D02*
X523622D01*
Y181053D01*
X520335D02*
X523622D01*
X520335Y180089D02*
Y181053D01*
Y175089D02*
X523622D01*
Y176053D01*
X520335D02*
X523622D01*
X520335Y175089D02*
Y176053D01*
X486614Y228346D02*
Y231496D01*
X487795D01*
Y228346D02*
Y231496D01*
X486614Y228346D02*
X487795D01*
X482677D02*
Y231496D01*
X481496Y228346D02*
X482677D01*
X481496D02*
Y231496D01*
X482677D01*
X487795Y228346D02*
Y231496D01*
X481496Y228346D02*
X487795D01*
X481496D02*
Y231496D01*
X487795D01*
X606693Y181693D02*
X609842D01*
Y183071D01*
X606693D02*
X609842D01*
X606693Y181693D02*
Y183071D01*
Y178150D02*
X609842D01*
X606693Y176772D02*
Y178150D01*
Y176772D02*
X609842D01*
Y178150D01*
X606693Y183071D02*
X609842D01*
X606693Y176772D02*
Y183071D01*
Y176772D02*
X609842D01*
Y183071D01*
X493701Y192520D02*
X496850D01*
Y193701D01*
X493701D02*
X496850D01*
X493701Y192520D02*
Y193701D01*
Y188583D02*
X496850D01*
X493701Y187402D02*
Y188583D01*
Y187402D02*
X496850D01*
Y188583D01*
X493701Y193701D02*
X496850D01*
X493701Y187402D02*
Y193701D01*
Y187402D02*
X496850D01*
Y193701D01*
X482283Y167717D02*
Y170866D01*
X481102D02*
X482283D01*
X481102Y167717D02*
Y170866D01*
Y167717D02*
X482283D01*
X486221D02*
Y170866D01*
Y167717D02*
X487402D01*
Y170866D01*
X486221D02*
X487402D01*
X481102Y167717D02*
Y170866D01*
Y167717D02*
X487402D01*
Y170866D01*
X481102D02*
X487402D01*
X500000Y167717D02*
Y170866D01*
X498819D02*
X500000D01*
X498819Y167717D02*
Y170866D01*
Y167717D02*
X500000D01*
X503937D02*
Y170866D01*
Y167717D02*
X505118D01*
Y170866D01*
X503937D02*
X505118D01*
X498819Y167717D02*
Y170866D01*
Y167717D02*
X505118D01*
Y170866D01*
X498819D02*
X505118D01*
X517717Y167717D02*
Y170866D01*
X516535D02*
X517717D01*
X516535Y167717D02*
Y170866D01*
Y167717D02*
X517717D01*
X521654D02*
Y170866D01*
Y167717D02*
X522835D01*
Y170866D01*
X521654D02*
X522835D01*
X516535Y167717D02*
Y170866D01*
Y167717D02*
X522835D01*
Y170866D01*
X516535D02*
X522835D01*
X535433Y167717D02*
Y170866D01*
X534252D02*
X535433D01*
X534252Y167717D02*
Y170866D01*
Y167717D02*
X535433D01*
X539370D02*
Y170866D01*
Y167717D02*
X540551D01*
Y170866D01*
X539370D02*
X540551D01*
X534252Y167717D02*
Y170866D01*
Y167717D02*
X540551D01*
Y170866D01*
X534252D02*
X540551D01*
X553150Y167520D02*
Y170669D01*
X551968D02*
X553150D01*
X551968Y167520D02*
Y170669D01*
Y167520D02*
X553150D01*
X557087D02*
Y170669D01*
Y167520D02*
X558268D01*
Y170669D01*
X557087D02*
X558268D01*
X551968Y167520D02*
Y170669D01*
Y167520D02*
X558268D01*
Y170669D01*
X551968D02*
X558268D01*
X570866Y167520D02*
Y170669D01*
X569685D02*
X570866D01*
X569685Y167520D02*
Y170669D01*
Y167520D02*
X570866D01*
X574803D02*
Y170669D01*
Y167520D02*
X575984D01*
Y170669D01*
X574803D02*
X575984D01*
X569685Y167520D02*
Y170669D01*
Y167520D02*
X575984D01*
Y170669D01*
X569685D02*
X575984D01*
X588583Y167520D02*
Y170669D01*
X587402D02*
X588583D01*
X587402Y167520D02*
Y170669D01*
Y167520D02*
X588583D01*
X592520D02*
Y170669D01*
Y167520D02*
X593701D01*
Y170669D01*
X592520D02*
X593701D01*
X587402Y167520D02*
Y170669D01*
Y167520D02*
X593701D01*
Y170669D01*
X587402D02*
X593701D01*
X606299Y167520D02*
Y170669D01*
X605118D02*
X606299D01*
X605118Y167520D02*
Y170669D01*
Y167520D02*
X606299D01*
X610236D02*
Y170669D01*
Y167520D02*
X611417D01*
Y170669D01*
X610236D02*
X611417D01*
X605118Y167520D02*
Y170669D01*
Y167520D02*
X611417D01*
Y170669D01*
X605118D02*
X611417D01*
X624016Y167520D02*
Y170669D01*
X622835D02*
X624016D01*
X622835Y167520D02*
Y170669D01*
Y167520D02*
X624016D01*
X627953D02*
Y170669D01*
Y167520D02*
X629134D01*
Y170669D01*
X627953D02*
X629134D01*
X622835Y167520D02*
Y170669D01*
Y167520D02*
X629134D01*
Y170669D01*
X622835D02*
X629134D01*
X624016Y223819D02*
Y226969D01*
X622835D02*
X624016D01*
X622835Y223819D02*
Y226969D01*
Y223819D02*
X624016D01*
X627953D02*
Y226969D01*
Y223819D02*
X629134D01*
Y226969D01*
X627953D02*
X629134D01*
X622835Y223819D02*
Y226969D01*
Y223819D02*
X629134D01*
Y226969D01*
X622835D02*
X629134D01*
X606299Y223819D02*
Y226969D01*
X605118D02*
X606299D01*
X605118Y223819D02*
Y226969D01*
Y223819D02*
X606299D01*
X610236D02*
Y226969D01*
Y223819D02*
X611417D01*
Y226969D01*
X610236D02*
X611417D01*
X605118Y223819D02*
Y226969D01*
Y223819D02*
X611417D01*
Y226969D01*
X605118D02*
X611417D01*
X588583Y223819D02*
Y226969D01*
X587402D02*
X588583D01*
X587402Y223819D02*
Y226969D01*
Y223819D02*
X588583D01*
X592520D02*
Y226969D01*
Y223819D02*
X593701D01*
Y226969D01*
X592520D02*
X593701D01*
X587402Y223819D02*
Y226969D01*
Y223819D02*
X593701D01*
Y226969D01*
X587402D02*
X593701D01*
X570866Y223819D02*
Y226969D01*
X569685D02*
X570866D01*
X569685Y223819D02*
Y226969D01*
Y223819D02*
X570866D01*
X574803D02*
Y226969D01*
Y223819D02*
X575984D01*
Y226969D01*
X574803D02*
X575984D01*
X569685Y223819D02*
Y226969D01*
Y223819D02*
X575984D01*
Y226969D01*
X569685D02*
X575984D01*
X553150Y223622D02*
Y226772D01*
X551968D02*
X553150D01*
X551968Y223622D02*
Y226772D01*
Y223622D02*
X553150D01*
X557087D02*
Y226772D01*
Y223622D02*
X558268D01*
Y226772D01*
X557087D02*
X558268D01*
X551968Y223622D02*
Y226772D01*
Y223622D02*
X558268D01*
Y226772D01*
X551968D02*
X558268D01*
X535433Y223622D02*
Y226772D01*
X534252D02*
X535433D01*
X534252Y223622D02*
Y226772D01*
Y223622D02*
X535433D01*
X539370D02*
Y226772D01*
Y223622D02*
X540551D01*
Y226772D01*
X539370D02*
X540551D01*
X534252Y223622D02*
Y226772D01*
Y223622D02*
X540551D01*
Y226772D01*
X534252D02*
X540551D01*
X517717Y223622D02*
Y226772D01*
X516535D02*
X517717D01*
X516535Y223622D02*
Y226772D01*
Y223622D02*
X517717D01*
X521654D02*
Y226772D01*
Y223622D02*
X522835D01*
Y226772D01*
X521654D02*
X522835D01*
X516535Y223622D02*
Y226772D01*
Y223622D02*
X522835D01*
Y226772D01*
X516535D02*
X522835D01*
X500000Y223622D02*
Y226772D01*
X498819D02*
X500000D01*
X498819Y223622D02*
Y226772D01*
Y223622D02*
X500000D01*
X503937D02*
Y226772D01*
Y223622D02*
X505118D01*
Y226772D01*
X503937D02*
X505118D01*
X498819Y223622D02*
Y226772D01*
Y223622D02*
X505118D01*
Y226772D01*
X498819D02*
X505118D01*
X601968Y203937D02*
X608268D01*
X601968Y200787D02*
Y203937D01*
Y200787D02*
X608268D01*
Y203937D01*
X601968D02*
X603150D01*
X601968Y200787D02*
Y203937D01*
Y200787D02*
X603150D01*
Y203937D01*
X607087Y200787D02*
X608268D01*
Y203937D01*
X607087D02*
X608268D01*
X607087Y200787D02*
Y203937D01*
X532874Y216142D02*
Y219291D01*
X531496Y216142D02*
X532874D01*
X531496D02*
Y219291D01*
X532874D01*
X536417Y216142D02*
Y219291D01*
X537795D01*
Y216142D02*
Y219291D01*
X536417Y216142D02*
X537795D01*
X531496D02*
Y219291D01*
X537795D01*
Y216142D02*
Y219291D01*
X531496Y216142D02*
X537795D01*
X541732Y213307D02*
X554331D01*
Y218425D01*
X541732D02*
X554331D01*
X541732Y213307D02*
Y218425D01*
X544095Y213307D02*
Y218425D01*
X542520D02*
X544095D01*
X542520Y213307D02*
Y218425D01*
Y213307D02*
X544095D01*
X548819D02*
Y218425D01*
X547244D02*
X548819D01*
X547244Y213307D02*
Y218425D01*
Y213307D02*
X548819D01*
X553543D02*
Y218425D01*
X551968D02*
X553543D01*
X551968Y213307D02*
Y218425D01*
Y213307D02*
X553543D01*
X551968D02*
Y218425D01*
Y213307D02*
X553543D01*
Y218425D01*
X551968D02*
X553543D01*
X547244Y213307D02*
Y218425D01*
Y213307D02*
X548819D01*
Y218425D01*
X547244D02*
X548819D01*
X542520Y213307D02*
Y218425D01*
Y213307D02*
X544095D01*
Y218425D01*
X542520D02*
X544095D01*
X532677Y210236D02*
Y213386D01*
X531496Y210236D02*
X532677D01*
X531496D02*
Y213386D01*
X532677D01*
X536614Y210236D02*
Y213386D01*
X537795D01*
Y210236D02*
Y213386D01*
X536614Y210236D02*
X537795D01*
X531496D02*
Y213386D01*
X537795D01*
Y210236D02*
Y213386D01*
X531496Y210236D02*
X537795D01*
X482362Y212598D02*
Y214173D01*
X487480D01*
Y212598D02*
Y214173D01*
X482362Y212598D02*
X487480D01*
X482362Y217323D02*
Y218898D01*
X487480D01*
Y217323D02*
Y218898D01*
X482362Y217323D02*
X487480D01*
X482362Y222047D02*
Y223622D01*
X487480D01*
Y222047D02*
Y223622D01*
X482362Y222047D02*
X487480D01*
Y223622D01*
X482362Y222047D02*
X487480D01*
X482362D02*
Y223622D01*
X487480D01*
Y217323D02*
Y218898D01*
X482362Y217323D02*
X487480D01*
X482362D02*
Y218898D01*
X487480D01*
Y212598D02*
Y214173D01*
X482362Y212598D02*
X487480D01*
X482362D02*
Y214173D01*
X487480D01*
X482362Y211811D02*
X487480D01*
X482362D02*
Y224410D01*
X487480D01*
Y211811D02*
Y224410D01*
M02*
