M48
;Layer_Color=9474304
;FILE_FORMAT=2:5
INCH,TZ
;TYPE=PLATED
T1F00S00C0.01181
T2F00S00C0.03543
T3F00S00C0.04173
T4F00S00C0.07874
T5F00S00C0.11811
%
T01
X632972Y193012
X632776Y197047
X629134Y220472
X623012Y220689
X604724Y219685
X597243Y209448
X611811Y204331
X615354Y200000
X603543Y185039
X579528Y185827
X580315Y188976
X579831Y192035
X577559Y195669
X571654
X570079Y198425
X568504Y201575
X573622Y202362
X574803Y205512
X564961Y204331
X563386Y206299
X566535Y208268
X578740Y218110
X581890
X527559Y205512
X526772Y200787
X528740Y195669
X511811Y190157
X526170Y171043
X535433Y177559
X550394Y180709
X554331Y175591
X616142Y171260
X505512Y218504
T02
X635433Y187402
Y204724
T03
X533465Y182520
X543465
Y192520
X533465
Y202520
X543465
T04
X484252Y137795
X501968
Y155512
X484252
X519685
Y137795
X537402
Y155512
X555118
Y137795
X572835
X590551
Y155512
X572835
X608268
Y137795
X625984
Y155512
Y236221
X643701
Y253937
X625984
X608268
X590551
X572835
X555118
X537402
X519685
X501968
Y236221
X519685
X537402
X555118
X572835
X590551
X608268
X483858Y199213
Y181496
T05
X644095Y146653
X483858Y245079
M30
