G04 Layer_Color=16711935*
%FSLAX25Y25*%
%MOIN*%
G70*
G01*
G75*
%ADD27R,0.06260X0.06260*%
%ADD28C,0.06260*%
%ADD29C,0.13780*%
%ADD30C,0.03543*%
%ADD31C,0.03937*%
%ADD32C,0.01968*%
G04:AMPARAMS|DCode=44|XSize=42.28mil|YSize=46.22mil|CornerRadius=12.75mil|HoleSize=0mil|Usage=FLASHONLY|Rotation=180.000|XOffset=0mil|YOffset=0mil|HoleType=Round|Shape=RoundedRectangle|*
%AMROUNDEDRECTD44*
21,1,0.04228,0.02072,0,0,180.0*
21,1,0.01678,0.04622,0,0,180.0*
1,1,0.02550,-0.00839,0.01036*
1,1,0.02550,0.00839,0.01036*
1,1,0.02550,0.00839,-0.01036*
1,1,0.02550,-0.00839,-0.01036*
%
%ADD44ROUNDEDRECTD44*%
G04:AMPARAMS|DCode=47|XSize=40.31mil|YSize=44.65mil|CornerRadius=12.25mil|HoleSize=0mil|Usage=FLASHONLY|Rotation=180.000|XOffset=0mil|YOffset=0mil|HoleType=Round|Shape=RoundedRectangle|*
%AMROUNDEDRECTD47*
21,1,0.04031,0.02015,0,0,180.0*
21,1,0.01582,0.04465,0,0,180.0*
1,1,0.02450,-0.00791,0.01007*
1,1,0.02450,0.00791,0.01007*
1,1,0.02450,0.00791,-0.01007*
1,1,0.02450,-0.00791,-0.01007*
%
%ADD47ROUNDEDRECTD47*%
%ADD58C,0.02772*%
G04:AMPARAMS|DCode=59|XSize=53.7mil|YSize=79.69mil|CornerRadius=13.84mil|HoleSize=0mil|Usage=FLASHONLY|Rotation=180.000|XOffset=0mil|YOffset=0mil|HoleType=Round|Shape=RoundedRectangle|*
%AMROUNDEDRECTD59*
21,1,0.05370,0.05202,0,0,180.0*
21,1,0.02603,0.07969,0,0,180.0*
1,1,0.02767,-0.01302,0.02601*
1,1,0.02767,0.01302,0.02601*
1,1,0.02767,0.01302,-0.02601*
1,1,0.02767,-0.01302,-0.02601*
%
%ADD59ROUNDEDRECTD59*%
G04:AMPARAMS|DCode=60|XSize=75.35mil|YSize=135.98mil|CornerRadius=13.78mil|HoleSize=0mil|Usage=FLASHONLY|Rotation=90.000|XOffset=0mil|YOffset=0mil|HoleType=Round|Shape=RoundedRectangle|*
%AMROUNDEDRECTD60*
21,1,0.07535,0.10843,0,0,90.0*
21,1,0.04780,0.13598,0,0,90.0*
1,1,0.02755,0.05422,0.02390*
1,1,0.02755,0.05422,-0.02390*
1,1,0.02755,-0.05422,-0.02390*
1,1,0.02755,-0.05422,0.02390*
%
%ADD60ROUNDEDRECTD60*%
G04:AMPARAMS|DCode=61|XSize=75.35mil|YSize=47.01mil|CornerRadius=13.96mil|HoleSize=0mil|Usage=FLASHONLY|Rotation=270.000|XOffset=0mil|YOffset=0mil|HoleType=Round|Shape=RoundedRectangle|*
%AMROUNDEDRECTD61*
21,1,0.07535,0.01910,0,0,270.0*
21,1,0.04745,0.04701,0,0,270.0*
1,1,0.02791,-0.00955,-0.02372*
1,1,0.02791,-0.00955,0.02372*
1,1,0.02791,0.00955,0.02372*
1,1,0.02791,0.00955,-0.02372*
%
%ADD61ROUNDEDRECTD61*%
G04:AMPARAMS|DCode=62|XSize=74.96mil|YSize=25.35mil|CornerRadius=8.35mil|HoleSize=0mil|Usage=FLASHONLY|Rotation=180.000|XOffset=0mil|YOffset=0mil|HoleType=Round|Shape=RoundedRectangle|*
%AMROUNDEDRECTD62*
21,1,0.07496,0.00866,0,0,180.0*
21,1,0.05827,0.02535,0,0,180.0*
1,1,0.01669,-0.02913,0.00433*
1,1,0.01669,0.02913,0.00433*
1,1,0.01669,0.02913,-0.00433*
1,1,0.01669,-0.02913,-0.00433*
%
%ADD62ROUNDEDRECTD62*%
G04:AMPARAMS|DCode=63|XSize=42.28mil|YSize=46.22mil|CornerRadius=12.75mil|HoleSize=0mil|Usage=FLASHONLY|Rotation=90.000|XOffset=0mil|YOffset=0mil|HoleType=Round|Shape=RoundedRectangle|*
%AMROUNDEDRECTD63*
21,1,0.04228,0.02072,0,0,90.0*
21,1,0.01678,0.04622,0,0,90.0*
1,1,0.02550,0.01036,0.00839*
1,1,0.02550,0.01036,-0.00839*
1,1,0.02550,-0.01036,-0.00839*
1,1,0.02550,-0.01036,0.00839*
%
%ADD63ROUNDEDRECTD63*%
G04:AMPARAMS|DCode=64|XSize=58.03mil|YSize=23.39mil|CornerRadius=7.93mil|HoleSize=0mil|Usage=FLASHONLY|Rotation=270.000|XOffset=0mil|YOffset=0mil|HoleType=Round|Shape=RoundedRectangle|*
%AMROUNDEDRECTD64*
21,1,0.05803,0.00752,0,0,270.0*
21,1,0.04217,0.02339,0,0,270.0*
1,1,0.01586,-0.00376,-0.02108*
1,1,0.01586,-0.00376,0.02108*
1,1,0.01586,0.00376,0.02108*
1,1,0.01586,0.00376,-0.02108*
%
%ADD64ROUNDEDRECTD64*%
G04:AMPARAMS|DCode=65|XSize=40.31mil|YSize=44.65mil|CornerRadius=12.25mil|HoleSize=0mil|Usage=FLASHONLY|Rotation=90.000|XOffset=0mil|YOffset=0mil|HoleType=Round|Shape=RoundedRectangle|*
%AMROUNDEDRECTD65*
21,1,0.04031,0.02015,0,0,90.0*
21,1,0.01582,0.04465,0,0,90.0*
1,1,0.02450,0.01007,0.00791*
1,1,0.02450,0.01007,-0.00791*
1,1,0.02450,-0.01007,-0.00791*
1,1,0.02450,-0.01007,0.00791*
%
%ADD65ROUNDEDRECTD65*%
D27*
X543465Y182520D02*
D03*
D28*
X533465D02*
D03*
X543465Y192520D02*
D03*
X533465D02*
D03*
X543465Y202520D02*
D03*
X533465D02*
D03*
D29*
X483858Y181496D02*
D03*
X501968Y137795D02*
D03*
X519685D02*
D03*
X537402D02*
D03*
X484252D02*
D03*
X555118D02*
D03*
X608268D02*
D03*
X572835D02*
D03*
X590551D02*
D03*
X625984D02*
D03*
X501968Y253937D02*
D03*
X519685D02*
D03*
X537402D02*
D03*
X555118D02*
D03*
X572835D02*
D03*
X590551D02*
D03*
X608268D02*
D03*
X643701D02*
D03*
X572835Y236221D02*
D03*
X590551D02*
D03*
X555118Y155512D02*
D03*
X572835D02*
D03*
X590551D02*
D03*
X608268D02*
D03*
X625984D02*
D03*
Y236221D02*
D03*
X608268D02*
D03*
X643701D02*
D03*
X483858Y199213D02*
D03*
X537402Y155512D02*
D03*
X519685D02*
D03*
X501968D02*
D03*
X484252D02*
D03*
X555118Y236221D02*
D03*
X537402D02*
D03*
X519685D02*
D03*
X501968D02*
D03*
X625984Y253937D02*
D03*
D30*
X635433Y204724D02*
D03*
Y187402D02*
D03*
D31*
X644095Y146653D02*
D03*
X483858Y245079D02*
D03*
D32*
X597243Y209448D02*
D03*
X554331Y175591D02*
D03*
X526170Y171043D02*
D03*
X550394Y180709D02*
D03*
X611811Y204331D02*
D03*
X623012Y220689D02*
D03*
X604724Y219685D02*
D03*
X580315Y188976D02*
D03*
X579528Y185827D02*
D03*
X577559Y195669D02*
D03*
X579831Y192035D02*
D03*
X528740Y195669D02*
D03*
X527559Y205512D02*
D03*
X570079Y198425D02*
D03*
X632776Y197047D02*
D03*
X632972Y193012D02*
D03*
X615354Y200000D02*
D03*
X603543Y185039D02*
D03*
X526772Y200787D02*
D03*
X629134Y220472D02*
D03*
X616142Y171260D02*
D03*
X505512Y218504D02*
D03*
X511811Y190157D02*
D03*
X574803Y205512D02*
D03*
X571654Y195669D02*
D03*
X568504Y201575D02*
D03*
X578740Y218110D02*
D03*
X581890D02*
D03*
X573622Y202362D02*
D03*
X564961Y204331D02*
D03*
X563386Y206299D02*
D03*
D44*
X512795Y215748D02*
D03*
X518701D02*
D03*
D47*
X481280Y169291D02*
D03*
X487224D02*
D03*
X498996Y169291D02*
D03*
X504941D02*
D03*
X516713D02*
D03*
X522657D02*
D03*
X534429D02*
D03*
X540374D02*
D03*
X552146Y169095D02*
D03*
X558090D02*
D03*
X569862D02*
D03*
X575807D02*
D03*
X587579D02*
D03*
X593524D02*
D03*
X605295D02*
D03*
X611240D02*
D03*
X623012D02*
D03*
X628957D02*
D03*
X623012Y225394D02*
D03*
X628957D02*
D03*
X605295D02*
D03*
X611240D02*
D03*
X587579D02*
D03*
X593524D02*
D03*
X569862D02*
D03*
X575807D02*
D03*
X552146Y225197D02*
D03*
X558090D02*
D03*
X534429D02*
D03*
X540374D02*
D03*
X516713D02*
D03*
X522657D02*
D03*
X498996D02*
D03*
X504941D02*
D03*
D58*
X535433Y177559D02*
D03*
X566535Y208268D02*
D03*
D59*
X614665Y179921D02*
D03*
X626279D02*
D03*
D60*
X617323Y214370D02*
D03*
D61*
X608268Y190354D02*
D03*
X617323D02*
D03*
X626378D02*
D03*
D62*
X558051Y179823D02*
D03*
Y182382D02*
D03*
Y184941D02*
D03*
Y187500D02*
D03*
Y190059D02*
D03*
Y192618D02*
D03*
Y195177D02*
D03*
Y197736D02*
D03*
Y200295D02*
D03*
Y202854D02*
D03*
Y205413D02*
D03*
Y207972D02*
D03*
Y210531D02*
D03*
Y213091D02*
D03*
X585256D02*
D03*
Y210531D02*
D03*
Y207972D02*
D03*
Y205413D02*
D03*
Y202854D02*
D03*
Y200295D02*
D03*
Y197736D02*
D03*
Y195177D02*
D03*
Y192618D02*
D03*
Y190059D02*
D03*
Y187500D02*
D03*
Y184941D02*
D03*
Y182382D02*
D03*
Y179823D02*
D03*
D63*
X593701Y207677D02*
D03*
Y201772D02*
D03*
Y196260D02*
D03*
Y190354D02*
D03*
X608268Y182874D02*
D03*
Y176969D02*
D03*
D64*
X520276Y185827D02*
D03*
X517717D02*
D03*
X515158D02*
D03*
X512598D02*
D03*
X510039D02*
D03*
X507480D02*
D03*
X504921D02*
D03*
X502362D02*
D03*
Y208032D02*
D03*
X504921D02*
D03*
X507480D02*
D03*
X510039D02*
D03*
X512598D02*
D03*
X515158D02*
D03*
X517717D02*
D03*
X520276D02*
D03*
D65*
X495276Y193524D02*
D03*
Y187579D02*
D03*
M02*
