G04 Layer_Color=8388736*
%FSLAX25Y25*%
%MOIN*%
G70*
G01*
G75*
%ADD27R,0.06260X0.06260*%
%ADD28C,0.06260*%
%ADD29C,0.13780*%
%ADD30C,0.03543*%
%ADD31C,0.03937*%
%ADD32C,0.01968*%
G04:AMPARAMS|DCode=44|XSize=42.28mil|YSize=46.22mil|CornerRadius=12.75mil|HoleSize=0mil|Usage=FLASHONLY|Rotation=180.000|XOffset=0mil|YOffset=0mil|HoleType=Round|Shape=RoundedRectangle|*
%AMROUNDEDRECTD44*
21,1,0.04228,0.02072,0,0,180.0*
21,1,0.01678,0.04622,0,0,180.0*
1,1,0.02550,-0.00839,0.01036*
1,1,0.02550,0.00839,0.01036*
1,1,0.02550,0.00839,-0.01036*
1,1,0.02550,-0.00839,-0.01036*
%
%ADD44ROUNDEDRECTD44*%
G04:AMPARAMS|DCode=45|XSize=54.09mil|YSize=79.69mil|CornerRadius=13.92mil|HoleSize=0mil|Usage=FLASHONLY|Rotation=0.000|XOffset=0mil|YOffset=0mil|HoleType=Round|Shape=RoundedRectangle|*
%AMROUNDEDRECTD45*
21,1,0.05409,0.05185,0,0,0.0*
21,1,0.02626,0.07969,0,0,0.0*
1,1,0.02784,0.01313,-0.02592*
1,1,0.02784,-0.01313,-0.02592*
1,1,0.02784,-0.01313,0.02592*
1,1,0.02784,0.01313,0.02592*
%
%ADD45ROUNDEDRECTD45*%
G04:AMPARAMS|DCode=46|XSize=51.34mil|YSize=41.5mil|CornerRadius=12.21mil|HoleSize=0mil|Usage=FLASHONLY|Rotation=0.000|XOffset=0mil|YOffset=0mil|HoleType=Round|Shape=RoundedRectangle|*
%AMROUNDEDRECTD46*
21,1,0.05134,0.01707,0,0,0.0*
21,1,0.02691,0.04150,0,0,0.0*
1,1,0.02443,0.01346,-0.00853*
1,1,0.02443,-0.01346,-0.00853*
1,1,0.02443,-0.01346,0.00853*
1,1,0.02443,0.01346,0.00853*
%
%ADD46ROUNDEDRECTD46*%
G04:AMPARAMS|DCode=47|XSize=40.31mil|YSize=44.65mil|CornerRadius=12.25mil|HoleSize=0mil|Usage=FLASHONLY|Rotation=180.000|XOffset=0mil|YOffset=0mil|HoleType=Round|Shape=RoundedRectangle|*
%AMROUNDEDRECTD47*
21,1,0.04031,0.02015,0,0,180.0*
21,1,0.01582,0.04465,0,0,180.0*
1,1,0.02450,-0.00791,0.01007*
1,1,0.02450,0.00791,0.01007*
1,1,0.02450,0.00791,-0.01007*
1,1,0.02450,-0.00791,-0.01007*
%
%ADD47ROUNDEDRECTD47*%
G04:AMPARAMS|DCode=48|XSize=67.09mil|YSize=30.47mil|CornerRadius=9.51mil|HoleSize=0mil|Usage=FLASHONLY|Rotation=90.000|XOffset=0mil|YOffset=0mil|HoleType=Round|Shape=RoundedRectangle|*
%AMROUNDEDRECTD48*
21,1,0.06709,0.01145,0,0,90.0*
21,1,0.04806,0.03047,0,0,90.0*
1,1,0.01903,0.00572,0.02403*
1,1,0.01903,0.00572,-0.02403*
1,1,0.01903,-0.00572,-0.02403*
1,1,0.01903,-0.00572,0.02403*
%
%ADD48ROUNDEDRECTD48*%
G04:AMPARAMS|DCode=49|XSize=67.09mil|YSize=30.47mil|CornerRadius=9.51mil|HoleSize=0mil|Usage=FLASHONLY|Rotation=180.000|XOffset=0mil|YOffset=0mil|HoleType=Round|Shape=RoundedRectangle|*
%AMROUNDEDRECTD49*
21,1,0.06709,0.01145,0,0,180.0*
21,1,0.04806,0.03047,0,0,180.0*
1,1,0.01903,-0.02403,0.00572*
1,1,0.01903,0.02403,0.00572*
1,1,0.01903,0.02403,-0.00572*
1,1,0.01903,-0.02403,-0.00572*
%
%ADD49ROUNDEDRECTD49*%
G04:AMPARAMS|DCode=50|XSize=58.03mil|YSize=23.39mil|CornerRadius=7.93mil|HoleSize=0mil|Usage=FLASHONLY|Rotation=0.000|XOffset=0mil|YOffset=0mil|HoleType=Round|Shape=RoundedRectangle|*
%AMROUNDEDRECTD50*
21,1,0.05803,0.00752,0,0,0.0*
21,1,0.04217,0.02339,0,0,0.0*
1,1,0.01586,0.02108,-0.00376*
1,1,0.01586,-0.02108,-0.00376*
1,1,0.01586,-0.02108,0.00376*
1,1,0.01586,0.02108,0.00376*
%
%ADD50ROUNDEDRECTD50*%
G04:AMPARAMS|DCode=51|XSize=86.77mil|YSize=26.53mil|CornerRadius=8.73mil|HoleSize=0mil|Usage=FLASHONLY|Rotation=180.000|XOffset=0mil|YOffset=0mil|HoleType=Round|Shape=RoundedRectangle|*
%AMROUNDEDRECTD51*
21,1,0.08677,0.00907,0,0,180.0*
21,1,0.06930,0.02653,0,0,180.0*
1,1,0.01747,-0.03465,0.00453*
1,1,0.01747,0.03465,0.00453*
1,1,0.01747,0.03465,-0.00453*
1,1,0.01747,-0.03465,-0.00453*
%
%ADD51ROUNDEDRECTD51*%
G04:AMPARAMS|DCode=52|XSize=51.73mil|YSize=26.53mil|CornerRadius=8.73mil|HoleSize=0mil|Usage=FLASHONLY|Rotation=90.000|XOffset=0mil|YOffset=0mil|HoleType=Round|Shape=RoundedRectangle|*
%AMROUNDEDRECTD52*
21,1,0.05173,0.00907,0,0,90.0*
21,1,0.03426,0.02653,0,0,90.0*
1,1,0.01747,0.00453,0.01713*
1,1,0.01747,0.00453,-0.01713*
1,1,0.01747,-0.00453,-0.01713*
1,1,0.01747,-0.00453,0.01713*
%
%ADD52ROUNDEDRECTD52*%
G04:AMPARAMS|DCode=53|XSize=51.73mil|YSize=26.53mil|CornerRadius=8.73mil|HoleSize=0mil|Usage=FLASHONLY|Rotation=90.000|XOffset=0mil|YOffset=0mil|HoleType=Round|Shape=RoundedRectangle|*
%AMROUNDEDRECTD53*
21,1,0.05173,0.00907,0,0,90.0*
21,1,0.03426,0.02653,0,0,90.0*
1,1,0.01747,0.00453,0.01713*
1,1,0.01747,0.00453,-0.01713*
1,1,0.01747,-0.00453,-0.01713*
1,1,0.01747,-0.00453,0.01713*
%
%ADD53ROUNDEDRECTD53*%
%ADD54R,0.10646X0.02772*%
%ADD55R,0.10646X0.08677*%
G04:AMPARAMS|DCode=56|XSize=51.73mil|YSize=26.53mil|CornerRadius=8.73mil|HoleSize=0mil|Usage=FLASHONLY|Rotation=0.000|XOffset=0mil|YOffset=0mil|HoleType=Round|Shape=RoundedRectangle|*
%AMROUNDEDRECTD56*
21,1,0.05173,0.00907,0,0,0.0*
21,1,0.03426,0.02653,0,0,0.0*
1,1,0.01747,0.01713,-0.00453*
1,1,0.01747,-0.01713,-0.00453*
1,1,0.01747,-0.01713,0.00453*
1,1,0.01747,0.01713,0.00453*
%
%ADD56ROUNDEDRECTD56*%
G04:AMPARAMS|DCode=57|XSize=51.73mil|YSize=26.53mil|CornerRadius=8.73mil|HoleSize=0mil|Usage=FLASHONLY|Rotation=180.000|XOffset=0mil|YOffset=0mil|HoleType=Round|Shape=RoundedRectangle|*
%AMROUNDEDRECTD57*
21,1,0.05173,0.00907,0,0,180.0*
21,1,0.03426,0.02653,0,0,180.0*
1,1,0.01747,-0.01713,0.00453*
1,1,0.01747,0.01713,0.00453*
1,1,0.01747,0.01713,-0.00453*
1,1,0.01747,-0.01713,-0.00453*
%
%ADD57ROUNDEDRECTD57*%
%ADD58C,0.02772*%
D27*
X543465Y182520D02*
D03*
D28*
X533465D02*
D03*
X543465Y192520D02*
D03*
X533465D02*
D03*
X543465Y202520D02*
D03*
X533465D02*
D03*
D29*
X483858Y181496D02*
D03*
X501968Y137795D02*
D03*
X519685D02*
D03*
X537402D02*
D03*
X484252D02*
D03*
X555118D02*
D03*
X608268D02*
D03*
X572835D02*
D03*
X590551D02*
D03*
X625984D02*
D03*
X501968Y253937D02*
D03*
X519685D02*
D03*
X537402D02*
D03*
X555118D02*
D03*
X572835D02*
D03*
X590551D02*
D03*
X608268D02*
D03*
X643701D02*
D03*
X572835Y236221D02*
D03*
X590551D02*
D03*
X555118Y155512D02*
D03*
X572835D02*
D03*
X590551D02*
D03*
X608268D02*
D03*
X625984D02*
D03*
Y236221D02*
D03*
X608268D02*
D03*
X643701D02*
D03*
X483858Y199213D02*
D03*
X537402Y155512D02*
D03*
X519685D02*
D03*
X501968D02*
D03*
X484252D02*
D03*
X555118Y236221D02*
D03*
X537402D02*
D03*
X519685D02*
D03*
X501968D02*
D03*
X625984Y253937D02*
D03*
D30*
X635433Y204724D02*
D03*
Y187402D02*
D03*
D31*
X644095Y146653D02*
D03*
X483858Y245079D02*
D03*
D32*
X597243Y209448D02*
D03*
X554331Y175591D02*
D03*
X526170Y171043D02*
D03*
X550394Y180709D02*
D03*
X611811Y204331D02*
D03*
X623012Y220689D02*
D03*
X604724Y219685D02*
D03*
X580315Y188976D02*
D03*
X579528Y185827D02*
D03*
X577559Y195669D02*
D03*
X579831Y192035D02*
D03*
X528740Y195669D02*
D03*
X527559Y205512D02*
D03*
X570079Y198425D02*
D03*
X632776Y197047D02*
D03*
X632972Y193012D02*
D03*
X615354Y200000D02*
D03*
X603543Y185039D02*
D03*
X526772Y200787D02*
D03*
X629134Y220472D02*
D03*
X616142Y171260D02*
D03*
X505512Y218504D02*
D03*
X511811Y190157D02*
D03*
X574803Y205512D02*
D03*
X571654Y195669D02*
D03*
X568504Y201575D02*
D03*
X578740Y218110D02*
D03*
X581890D02*
D03*
X573622Y202362D02*
D03*
X564961Y204331D02*
D03*
X563386Y206299D02*
D03*
D44*
X587598Y218110D02*
D03*
X593504D02*
D03*
X529331Y173228D02*
D03*
X535236D02*
D03*
X565945D02*
D03*
X571850D02*
D03*
X531693Y217717D02*
D03*
X537598D02*
D03*
D45*
X611496Y175197D02*
D03*
X599528D02*
D03*
D46*
X611654Y194488D02*
D03*
X598583D02*
D03*
X611654Y185039D02*
D03*
X598583D02*
D03*
D47*
X601358Y208268D02*
D03*
X607303D02*
D03*
X600965Y214173D02*
D03*
X606910D02*
D03*
X487618Y229921D02*
D03*
X481673D02*
D03*
X602146Y202362D02*
D03*
X608090D02*
D03*
X531673Y211811D02*
D03*
X537618D02*
D03*
D48*
X581890Y213110D02*
D03*
X578740D02*
D03*
X575591D02*
D03*
X572441D02*
D03*
X569291D02*
D03*
X566142D02*
D03*
X562992D02*
D03*
X559842D02*
D03*
Y180591D02*
D03*
X562992D02*
D03*
X566142D02*
D03*
X569291D02*
D03*
X572441D02*
D03*
X575591D02*
D03*
X578740D02*
D03*
X581890D02*
D03*
D49*
X554606Y207874D02*
D03*
Y204724D02*
D03*
Y201575D02*
D03*
Y198425D02*
D03*
Y195276D02*
D03*
Y192126D02*
D03*
Y188976D02*
D03*
Y185827D02*
D03*
X587126D02*
D03*
Y188976D02*
D03*
Y192126D02*
D03*
Y195276D02*
D03*
Y198425D02*
D03*
Y201575D02*
D03*
Y204724D02*
D03*
Y207874D02*
D03*
D50*
X522598Y218898D02*
D03*
Y216339D02*
D03*
Y213779D02*
D03*
Y211221D02*
D03*
Y208661D02*
D03*
Y206102D02*
D03*
Y203543D02*
D03*
Y200984D02*
D03*
Y198425D02*
D03*
Y195866D02*
D03*
X500394D02*
D03*
Y198425D02*
D03*
Y200984D02*
D03*
Y203543D02*
D03*
Y206102D02*
D03*
Y208661D02*
D03*
Y211221D02*
D03*
Y213779D02*
D03*
Y216339D02*
D03*
Y218898D02*
D03*
D51*
X502343Y175571D02*
D03*
Y180571D02*
D03*
Y185571D02*
D03*
Y190571D02*
D03*
X521279D02*
D03*
Y185571D02*
D03*
Y180571D02*
D03*
Y175571D02*
D03*
D52*
X543307Y218347D02*
D03*
X552756D02*
D03*
Y213386D02*
D03*
X548032D02*
D03*
X543307D02*
D03*
D53*
X548032Y218347D02*
D03*
D54*
X625551Y202362D02*
D03*
Y199213D02*
D03*
Y196063D02*
D03*
Y192913D02*
D03*
Y189764D02*
D03*
D55*
Y213622D02*
D03*
X647126D02*
D03*
Y178504D02*
D03*
X625551D02*
D03*
D56*
X487402Y213386D02*
D03*
Y218110D02*
D03*
Y222835D02*
D03*
X482441D02*
D03*
Y213386D02*
D03*
D57*
Y218110D02*
D03*
D58*
X535433Y177559D02*
D03*
X566535Y208268D02*
D03*
M02*
