G04*
G04 #@! TF.GenerationSoftware,Altium Limited,Altium Designer,20.2.5 (213)*
G04*
G04 Layer_Color=8388736*
%FSLAX25Y25*%
%MOIN*%
G70*
G04*
G04 #@! TF.SameCoordinates,E7457EF0-435F-4A9A-9950-3147239DC6E2*
G04*
G04*
G04 #@! TF.FilePolarity,Negative*
G04*
G01*
G75*
G04:AMPARAMS|DCode=24|XSize=42.25mil|YSize=46.19mil|CornerRadius=12.73mil|HoleSize=0mil|Usage=FLASHONLY|Rotation=180.000|XOffset=0mil|YOffset=0mil|HoleType=Round|Shape=RoundedRectangle|*
%AMROUNDEDRECTD24*
21,1,0.04225,0.02072,0,0,180.0*
21,1,0.01678,0.04619,0,0,180.0*
1,1,0.02547,-0.00839,0.01036*
1,1,0.02547,0.00839,0.01036*
1,1,0.02547,0.00839,-0.01036*
1,1,0.02547,-0.00839,-0.01036*
%
%ADD24ROUNDEDRECTD24*%
G04:AMPARAMS|DCode=25|XSize=42.25mil|YSize=46.19mil|CornerRadius=12.73mil|HoleSize=0mil|Usage=FLASHONLY|Rotation=270.000|XOffset=0mil|YOffset=0mil|HoleType=Round|Shape=RoundedRectangle|*
%AMROUNDEDRECTD25*
21,1,0.04225,0.02072,0,0,270.0*
21,1,0.01678,0.04619,0,0,270.0*
1,1,0.02547,-0.01036,-0.00839*
1,1,0.02547,-0.01036,0.00839*
1,1,0.02547,0.01036,0.00839*
1,1,0.02547,0.01036,-0.00839*
%
%ADD25ROUNDEDRECTD25*%
G04:AMPARAMS|DCode=26|XSize=89.5mil|YSize=33.98mil|CornerRadius=10.76mil|HoleSize=0mil|Usage=FLASHONLY|Rotation=180.000|XOffset=0mil|YOffset=0mil|HoleType=Round|Shape=RoundedRectangle|*
%AMROUNDEDRECTD26*
21,1,0.08950,0.01247,0,0,180.0*
21,1,0.06798,0.03398,0,0,180.0*
1,1,0.02151,-0.03399,0.00624*
1,1,0.02151,0.03399,0.00624*
1,1,0.02151,0.03399,-0.00624*
1,1,0.02151,-0.03399,-0.00624*
%
%ADD26ROUNDEDRECTD26*%
G04:AMPARAMS|DCode=27|XSize=80.83mil|YSize=33.59mil|CornerRadius=10.27mil|HoleSize=0mil|Usage=FLASHONLY|Rotation=90.000|XOffset=0mil|YOffset=0mil|HoleType=Round|Shape=RoundedRectangle|*
%AMROUNDEDRECTD27*
21,1,0.08083,0.01305,0,0,90.0*
21,1,0.06030,0.03359,0,0,90.0*
1,1,0.02054,0.00653,0.03015*
1,1,0.02054,0.00653,-0.03015*
1,1,0.02054,-0.00653,-0.03015*
1,1,0.02054,-0.00653,0.03015*
%
%ADD27ROUNDEDRECTD27*%
G04:AMPARAMS|DCode=28|XSize=77.69mil|YSize=91.86mil|CornerRadius=21.42mil|HoleSize=0mil|Usage=FLASHONLY|Rotation=90.000|XOffset=0mil|YOffset=0mil|HoleType=Round|Shape=RoundedRectangle|*
%AMROUNDEDRECTD28*
21,1,0.07769,0.04902,0,0,90.0*
21,1,0.03484,0.09186,0,0,90.0*
1,1,0.04284,0.02451,0.01742*
1,1,0.04284,0.02451,-0.01742*
1,1,0.04284,-0.02451,-0.01742*
1,1,0.04284,-0.02451,0.01742*
%
%ADD28ROUNDEDRECTD28*%
G04:AMPARAMS|DCode=29|XSize=77.69mil|YSize=64.3mil|CornerRadius=18.08mil|HoleSize=0mil|Usage=FLASHONLY|Rotation=270.000|XOffset=0mil|YOffset=0mil|HoleType=Round|Shape=RoundedRectangle|*
%AMROUNDEDRECTD29*
21,1,0.07769,0.02815,0,0,270.0*
21,1,0.04153,0.06430,0,0,270.0*
1,1,0.03615,-0.01408,-0.02077*
1,1,0.03615,-0.01408,0.02077*
1,1,0.03615,0.01408,0.02077*
1,1,0.03615,0.01408,-0.02077*
%
%ADD29ROUNDEDRECTD29*%
G04:AMPARAMS|DCode=30|XSize=40.28mil|YSize=44.61mil|CornerRadius=12.23mil|HoleSize=0mil|Usage=FLASHONLY|Rotation=180.000|XOffset=0mil|YOffset=0mil|HoleType=Round|Shape=RoundedRectangle|*
%AMROUNDEDRECTD30*
21,1,0.04028,0.02015,0,0,180.0*
21,1,0.01582,0.04461,0,0,180.0*
1,1,0.02447,-0.00791,0.01007*
1,1,0.02447,0.00791,0.01007*
1,1,0.02447,0.00791,-0.01007*
1,1,0.02447,-0.00791,-0.01007*
%
%ADD30ROUNDEDRECTD30*%
G04:AMPARAMS|DCode=31|XSize=41.07mil|YSize=44.61mil|CornerRadius=12.27mil|HoleSize=0mil|Usage=FLASHONLY|Rotation=0.000|XOffset=0mil|YOffset=0mil|HoleType=Round|Shape=RoundedRectangle|*
%AMROUNDEDRECTD31*
21,1,0.04107,0.02008,0,0,0.0*
21,1,0.01654,0.04461,0,0,0.0*
1,1,0.02454,0.00827,-0.01004*
1,1,0.02454,-0.00827,-0.01004*
1,1,0.02454,-0.00827,0.01004*
1,1,0.02454,0.00827,0.01004*
%
%ADD31ROUNDEDRECTD31*%
G04:AMPARAMS|DCode=32|XSize=40.28mil|YSize=44.61mil|CornerRadius=12.23mil|HoleSize=0mil|Usage=FLASHONLY|Rotation=270.000|XOffset=0mil|YOffset=0mil|HoleType=Round|Shape=RoundedRectangle|*
%AMROUNDEDRECTD32*
21,1,0.04028,0.02015,0,0,270.0*
21,1,0.01582,0.04461,0,0,270.0*
1,1,0.02447,-0.01007,-0.00791*
1,1,0.02447,-0.01007,0.00791*
1,1,0.02447,0.01007,0.00791*
1,1,0.02447,0.01007,-0.00791*
%
%ADD32ROUNDEDRECTD32*%
G04:AMPARAMS|DCode=33|XSize=47.76mil|YSize=32.02mil|CornerRadius=9.88mil|HoleSize=0mil|Usage=FLASHONLY|Rotation=90.000|XOffset=0mil|YOffset=0mil|HoleType=Round|Shape=RoundedRectangle|*
%AMROUNDEDRECTD33*
21,1,0.04776,0.01225,0,0,90.0*
21,1,0.02800,0.03202,0,0,90.0*
1,1,0.01977,0.00612,0.01400*
1,1,0.01977,0.00612,-0.01400*
1,1,0.01977,-0.00612,-0.01400*
1,1,0.01977,-0.00612,0.01400*
%
%ADD33ROUNDEDRECTD33*%
G04:AMPARAMS|DCode=34|XSize=37.13mil|YSize=44.61mil|CornerRadius=11.43mil|HoleSize=0mil|Usage=FLASHONLY|Rotation=0.000|XOffset=0mil|YOffset=0mil|HoleType=Round|Shape=RoundedRectangle|*
%AMROUNDEDRECTD34*
21,1,0.03713,0.02176,0,0,0.0*
21,1,0.01428,0.04461,0,0,0.0*
1,1,0.02286,0.00714,-0.01088*
1,1,0.02286,-0.00714,-0.01088*
1,1,0.02286,-0.00714,0.01088*
1,1,0.02286,0.00714,0.01088*
%
%ADD34ROUNDEDRECTD34*%
G04:AMPARAMS|DCode=35|XSize=122.96mil|YSize=70.21mil|CornerRadius=13.95mil|HoleSize=0mil|Usage=FLASHONLY|Rotation=180.000|XOffset=0mil|YOffset=0mil|HoleType=Round|Shape=RoundedRectangle|*
%AMROUNDEDRECTD35*
21,1,0.12296,0.04230,0,0,180.0*
21,1,0.09506,0.07021,0,0,180.0*
1,1,0.02791,-0.04753,0.02115*
1,1,0.02791,0.04753,0.02115*
1,1,0.02791,0.04753,-0.02115*
1,1,0.02791,-0.04753,-0.02115*
%
%ADD35ROUNDEDRECTD35*%
G04:AMPARAMS|DCode=36|XSize=54.06mil|YSize=51.7mil|CornerRadius=13.83mil|HoleSize=0mil|Usage=FLASHONLY|Rotation=0.000|XOffset=0mil|YOffset=0mil|HoleType=Round|Shape=RoundedRectangle|*
%AMROUNDEDRECTD36*
21,1,0.05406,0.02404,0,0,0.0*
21,1,0.02640,0.05170,0,0,0.0*
1,1,0.02766,0.01320,-0.01202*
1,1,0.02766,-0.01320,-0.01202*
1,1,0.02766,-0.01320,0.01202*
1,1,0.02766,0.01320,0.01202*
%
%ADD36ROUNDEDRECTD36*%
%ADD37C,0.11036*%
%ADD38C,0.15603*%
%ADD39C,0.06800*%
D24*
X123425Y100394D02*
D03*
X129331D02*
D03*
X147835Y2559D02*
D03*
X153740D02*
D03*
D25*
X105905Y24213D02*
D03*
Y30118D02*
D03*
X103150Y59252D02*
D03*
Y65158D02*
D03*
X120472Y51161D02*
D03*
Y45256D02*
D03*
D26*
X75906Y21673D02*
D03*
Y16673D02*
D03*
Y11673D02*
D03*
Y6673D02*
D03*
X94961D02*
D03*
Y11673D02*
D03*
Y16673D02*
D03*
Y21673D02*
D03*
Y59075D02*
D03*
Y54075D02*
D03*
Y49075D02*
D03*
Y44075D02*
D03*
X75906D02*
D03*
Y49075D02*
D03*
Y54075D02*
D03*
Y59075D02*
D03*
X128268Y44862D02*
D03*
Y49862D02*
D03*
Y54862D02*
D03*
Y59862D02*
D03*
X147323D02*
D03*
Y54862D02*
D03*
Y49862D02*
D03*
Y44862D02*
D03*
D27*
X152913Y29921D02*
D03*
X147913D02*
D03*
X142913D02*
D03*
X137913D02*
D03*
X132913D02*
D03*
X127913D02*
D03*
X122913D02*
D03*
Y9961D02*
D03*
X127913D02*
D03*
X132913D02*
D03*
X137913D02*
D03*
X142913D02*
D03*
X147913D02*
D03*
X152913D02*
D03*
X122795Y93051D02*
D03*
X127795D02*
D03*
X132795D02*
D03*
X137795D02*
D03*
X142795D02*
D03*
X147795D02*
D03*
X152795D02*
D03*
Y73091D02*
D03*
X147795D02*
D03*
X142795D02*
D03*
X137795D02*
D03*
X132795D02*
D03*
X127795D02*
D03*
X122795D02*
D03*
D28*
X56299Y-48622D02*
D03*
X134646D02*
D03*
X95276D02*
D03*
D29*
X61221Y-60039D02*
D03*
X51378D02*
D03*
X139567D02*
D03*
X129724D02*
D03*
X90354D02*
D03*
X100197D02*
D03*
D30*
X39154Y158386D02*
D03*
X45098D02*
D03*
X145059Y126772D02*
D03*
X151004D02*
D03*
X77342Y37795D02*
D03*
X83287D02*
D03*
X39016Y178661D02*
D03*
X44961D02*
D03*
X94311Y31102D02*
D03*
X88366D02*
D03*
X94705Y37795D02*
D03*
X88760D02*
D03*
X83287Y31102D02*
D03*
X77342D02*
D03*
X109272Y45276D02*
D03*
X103327D02*
D03*
D31*
X83031Y65354D02*
D03*
X76811D02*
D03*
X94449D02*
D03*
X88228D02*
D03*
D32*
X116535Y80492D02*
D03*
Y86437D02*
D03*
D33*
X148031Y139980D02*
D03*
X151772Y132461D02*
D03*
X144291D02*
D03*
D34*
X45256Y152874D02*
D03*
X38996D02*
D03*
X45118Y173150D02*
D03*
X38858D02*
D03*
D35*
X75787Y85433D02*
D03*
X95079D02*
D03*
D36*
X112598Y38189D02*
D03*
X100787D02*
D03*
D37*
X134252Y140551D02*
D03*
Y110630D02*
D03*
X74252D02*
D03*
X84252Y140551D02*
D03*
D38*
X48228Y34744D02*
D03*
Y52244D02*
D03*
Y73740D02*
D03*
Y91240D02*
D03*
X23228D02*
D03*
Y73740D02*
D03*
Y52244D02*
D03*
Y34744D02*
D03*
D39*
X-787Y62992D02*
D03*
X44213Y116496D02*
D03*
Y9488D02*
D03*
M02*
