G04*
G04 #@! TF.GenerationSoftware,Altium Limited,Altium Designer,20.2.5 (213)*
G04*
G04 Layer_Physical_Order=1*
G04 Layer_Color=255*
%FSLAX25Y25*%
%MOIN*%
G70*
G04*
G04 #@! TF.SameCoordinates,E7457EF0-435F-4A9A-9950-3147239DC6E2*
G04*
G04*
G04 #@! TF.FilePolarity,Positive*
G04*
G01*
G75*
G04:AMPARAMS|DCode=40|XSize=34.25mil|YSize=38.19mil|CornerRadius=8.73mil|HoleSize=0mil|Usage=FLASHONLY|Rotation=180.000|XOffset=0mil|YOffset=0mil|HoleType=Round|Shape=RoundedRectangle|*
%AMROUNDEDRECTD40*
21,1,0.03425,0.02072,0,0,180.0*
21,1,0.01678,0.03819,0,0,180.0*
1,1,0.01747,-0.00839,0.01036*
1,1,0.01747,0.00839,0.01036*
1,1,0.01747,0.00839,-0.01036*
1,1,0.01747,-0.00839,-0.01036*
%
%ADD40ROUNDEDRECTD40*%
G04:AMPARAMS|DCode=41|XSize=34.25mil|YSize=38.19mil|CornerRadius=8.73mil|HoleSize=0mil|Usage=FLASHONLY|Rotation=270.000|XOffset=0mil|YOffset=0mil|HoleType=Round|Shape=RoundedRectangle|*
%AMROUNDEDRECTD41*
21,1,0.03425,0.02072,0,0,270.0*
21,1,0.01678,0.03819,0,0,270.0*
1,1,0.01747,-0.01036,-0.00839*
1,1,0.01747,-0.01036,0.00839*
1,1,0.01747,0.01036,0.00839*
1,1,0.01747,0.01036,-0.00839*
%
%ADD41ROUNDEDRECTD41*%
G04:AMPARAMS|DCode=42|XSize=81.5mil|YSize=25.98mil|CornerRadius=6.76mil|HoleSize=0mil|Usage=FLASHONLY|Rotation=180.000|XOffset=0mil|YOffset=0mil|HoleType=Round|Shape=RoundedRectangle|*
%AMROUNDEDRECTD42*
21,1,0.08150,0.01247,0,0,180.0*
21,1,0.06798,0.02598,0,0,180.0*
1,1,0.01351,-0.03399,0.00624*
1,1,0.01351,0.03399,0.00624*
1,1,0.01351,0.03399,-0.00624*
1,1,0.01351,-0.03399,-0.00624*
%
%ADD42ROUNDEDRECTD42*%
G04:AMPARAMS|DCode=43|XSize=72.84mil|YSize=25.59mil|CornerRadius=6.27mil|HoleSize=0mil|Usage=FLASHONLY|Rotation=90.000|XOffset=0mil|YOffset=0mil|HoleType=Round|Shape=RoundedRectangle|*
%AMROUNDEDRECTD43*
21,1,0.07284,0.01305,0,0,90.0*
21,1,0.06030,0.02559,0,0,90.0*
1,1,0.01254,0.00653,0.03015*
1,1,0.01254,0.00653,-0.03015*
1,1,0.01254,-0.00653,-0.03015*
1,1,0.01254,-0.00653,0.03015*
%
%ADD43ROUNDEDRECTD43*%
G04:AMPARAMS|DCode=44|XSize=69.69mil|YSize=83.86mil|CornerRadius=17.42mil|HoleSize=0mil|Usage=FLASHONLY|Rotation=90.000|XOffset=0mil|YOffset=0mil|HoleType=Round|Shape=RoundedRectangle|*
%AMROUNDEDRECTD44*
21,1,0.06969,0.04902,0,0,90.0*
21,1,0.03484,0.08386,0,0,90.0*
1,1,0.03484,0.02451,0.01742*
1,1,0.03484,0.02451,-0.01742*
1,1,0.03484,-0.02451,-0.01742*
1,1,0.03484,-0.02451,0.01742*
%
%ADD44ROUNDEDRECTD44*%
G04:AMPARAMS|DCode=45|XSize=69.69mil|YSize=56.3mil|CornerRadius=14.08mil|HoleSize=0mil|Usage=FLASHONLY|Rotation=270.000|XOffset=0mil|YOffset=0mil|HoleType=Round|Shape=RoundedRectangle|*
%AMROUNDEDRECTD45*
21,1,0.06969,0.02815,0,0,270.0*
21,1,0.04153,0.05630,0,0,270.0*
1,1,0.02815,-0.01408,-0.02077*
1,1,0.02815,-0.01408,0.02077*
1,1,0.02815,0.01408,0.02077*
1,1,0.02815,0.01408,-0.02077*
%
%ADD45ROUNDEDRECTD45*%
G04:AMPARAMS|DCode=46|XSize=32.28mil|YSize=36.61mil|CornerRadius=8.23mil|HoleSize=0mil|Usage=FLASHONLY|Rotation=180.000|XOffset=0mil|YOffset=0mil|HoleType=Round|Shape=RoundedRectangle|*
%AMROUNDEDRECTD46*
21,1,0.03228,0.02015,0,0,180.0*
21,1,0.01582,0.03661,0,0,180.0*
1,1,0.01647,-0.00791,0.01007*
1,1,0.01647,0.00791,0.01007*
1,1,0.01647,0.00791,-0.01007*
1,1,0.01647,-0.00791,-0.01007*
%
%ADD46ROUNDEDRECTD46*%
G04:AMPARAMS|DCode=47|XSize=33.07mil|YSize=36.61mil|CornerRadius=8.27mil|HoleSize=0mil|Usage=FLASHONLY|Rotation=0.000|XOffset=0mil|YOffset=0mil|HoleType=Round|Shape=RoundedRectangle|*
%AMROUNDEDRECTD47*
21,1,0.03307,0.02008,0,0,0.0*
21,1,0.01654,0.03661,0,0,0.0*
1,1,0.01654,0.00827,-0.01004*
1,1,0.01654,-0.00827,-0.01004*
1,1,0.01654,-0.00827,0.01004*
1,1,0.01654,0.00827,0.01004*
%
%ADD47ROUNDEDRECTD47*%
G04:AMPARAMS|DCode=48|XSize=32.28mil|YSize=36.61mil|CornerRadius=8.23mil|HoleSize=0mil|Usage=FLASHONLY|Rotation=270.000|XOffset=0mil|YOffset=0mil|HoleType=Round|Shape=RoundedRectangle|*
%AMROUNDEDRECTD48*
21,1,0.03228,0.02015,0,0,270.0*
21,1,0.01582,0.03661,0,0,270.0*
1,1,0.01647,-0.01007,-0.00791*
1,1,0.01647,-0.01007,0.00791*
1,1,0.01647,0.01007,0.00791*
1,1,0.01647,0.01007,-0.00791*
%
%ADD48ROUNDEDRECTD48*%
G04:AMPARAMS|DCode=49|XSize=39.76mil|YSize=24.02mil|CornerRadius=5.88mil|HoleSize=0mil|Usage=FLASHONLY|Rotation=90.000|XOffset=0mil|YOffset=0mil|HoleType=Round|Shape=RoundedRectangle|*
%AMROUNDEDRECTD49*
21,1,0.03976,0.01225,0,0,90.0*
21,1,0.02800,0.02402,0,0,90.0*
1,1,0.01177,0.00612,0.01400*
1,1,0.01177,0.00612,-0.01400*
1,1,0.01177,-0.00612,-0.01400*
1,1,0.01177,-0.00612,0.01400*
%
%ADD49ROUNDEDRECTD49*%
G04:AMPARAMS|DCode=50|XSize=29.13mil|YSize=36.61mil|CornerRadius=7.43mil|HoleSize=0mil|Usage=FLASHONLY|Rotation=0.000|XOffset=0mil|YOffset=0mil|HoleType=Round|Shape=RoundedRectangle|*
%AMROUNDEDRECTD50*
21,1,0.02913,0.02176,0,0,0.0*
21,1,0.01428,0.03661,0,0,0.0*
1,1,0.01486,0.00714,-0.01088*
1,1,0.01486,-0.00714,-0.01088*
1,1,0.01486,-0.00714,0.01088*
1,1,0.01486,0.00714,0.01088*
%
%ADD50ROUNDEDRECTD50*%
G04:AMPARAMS|DCode=51|XSize=114.96mil|YSize=62.21mil|CornerRadius=9.95mil|HoleSize=0mil|Usage=FLASHONLY|Rotation=180.000|XOffset=0mil|YOffset=0mil|HoleType=Round|Shape=RoundedRectangle|*
%AMROUNDEDRECTD51*
21,1,0.11496,0.04230,0,0,180.0*
21,1,0.09506,0.06221,0,0,180.0*
1,1,0.01991,-0.04753,0.02115*
1,1,0.01991,0.04753,0.02115*
1,1,0.01991,0.04753,-0.02115*
1,1,0.01991,-0.04753,-0.02115*
%
%ADD51ROUNDEDRECTD51*%
G04:AMPARAMS|DCode=52|XSize=46.06mil|YSize=43.7mil|CornerRadius=9.83mil|HoleSize=0mil|Usage=FLASHONLY|Rotation=0.000|XOffset=0mil|YOffset=0mil|HoleType=Round|Shape=RoundedRectangle|*
%AMROUNDEDRECTD52*
21,1,0.04606,0.02404,0,0,0.0*
21,1,0.02640,0.04370,0,0,0.0*
1,1,0.01967,0.01320,-0.01202*
1,1,0.01967,-0.01320,-0.01202*
1,1,0.01967,-0.01320,0.01202*
1,1,0.01967,0.01320,0.01202*
%
%ADD52ROUNDEDRECTD52*%
%ADD53C,0.01968*%
%ADD54C,0.01181*%
%ADD55R,0.06299X0.06299*%
%ADD56R,0.06693X0.05906*%
%ADD57R,0.06693X0.06299*%
%ADD58R,0.06299X0.06299*%
%ADD59C,0.10236*%
%ADD60C,0.14803*%
%ADD61C,0.06000*%
%ADD62C,0.01968*%
G36*
X130841Y101776D02*
X130893Y101610D01*
X130992Y101463D01*
X131140Y101336D01*
X131334Y101229D01*
X131576Y101141D01*
X131865Y101072D01*
X132201Y101023D01*
X132585Y100994D01*
X133017Y100984D01*
X132946Y99016D01*
X132609Y99011D01*
X131722Y98941D01*
X131467Y98898D01*
X131234Y98847D01*
X131021Y98786D01*
X130828Y98715D01*
X130657Y98635D01*
X130506Y98546D01*
X130836Y101962D01*
X130841Y101776D01*
D02*
G37*
G36*
X155901Y199000D02*
X156807Y198625D01*
X157623Y198080D01*
X158316Y197386D01*
X158861Y196571D01*
X159236Y195665D01*
X159428Y194703D01*
Y194213D01*
Y81882D01*
X159256Y81822D01*
X158928Y81799D01*
X158627Y82249D01*
X157052Y83824D01*
X156526Y84175D01*
X155905Y84299D01*
X149605D01*
X149337Y84799D01*
X149507Y85053D01*
X149661Y85827D01*
Y88125D01*
X149674Y88304D01*
X149730Y88748D01*
X149761Y88903D01*
X149797Y89036D01*
X149831Y89136D01*
X149832Y89138D01*
X150786D01*
X150970Y88863D01*
X151508Y88504D01*
X152143Y88378D01*
X153448D01*
X154083Y88504D01*
X154621Y88863D01*
X154980Y89402D01*
X155107Y90036D01*
Y96066D01*
X154980Y96701D01*
X154621Y97239D01*
X154083Y97598D01*
X153448Y97725D01*
X152143D01*
X151508Y97598D01*
X150970Y97239D01*
X150865Y97083D01*
X149725D01*
X149621Y97239D01*
X149083Y97598D01*
X148448Y97725D01*
X147143D01*
X146508Y97598D01*
X145970Y97239D01*
X145610Y96701D01*
X145550Y96399D01*
X145040D01*
X144980Y96701D01*
X144621Y97239D01*
X144083Y97598D01*
X143448Y97725D01*
X142143D01*
X141508Y97598D01*
X140970Y97239D01*
X140610Y96701D01*
X140550Y96399D01*
X140040D01*
X139980Y96701D01*
X139621Y97239D01*
X139083Y97598D01*
X138448Y97725D01*
X137143D01*
X136508Y97598D01*
X135970Y97239D01*
X135610Y96701D01*
X135550Y96399D01*
X135040D01*
X134980Y96701D01*
X134621Y97239D01*
X134260Y97480D01*
X134257Y97654D01*
X134379Y98002D01*
X135026Y98131D01*
X135683Y98569D01*
X136121Y99226D01*
X136275Y100000D01*
X136121Y100774D01*
X135683Y101431D01*
X135026Y101869D01*
X134252Y102023D01*
X132500D01*
X132314Y102037D01*
X132056Y102075D01*
X131947Y102101D01*
X131935Y102161D01*
X131521Y102780D01*
X130901Y103194D01*
X130170Y103340D01*
X128491D01*
X127761Y103194D01*
X127141Y102780D01*
X126727Y102161D01*
X126581Y101430D01*
Y99358D01*
X126727Y98627D01*
X127007Y98208D01*
X126830Y97674D01*
X126817Y97660D01*
X126508Y97598D01*
X125970Y97239D01*
X125610Y96701D01*
X125484Y96066D01*
Y90036D01*
X125549Y89709D01*
X125548Y89702D01*
X125555Y89680D01*
X125610Y89402D01*
X125660Y89328D01*
X125662Y89321D01*
X125674Y89297D01*
X125675Y89295D01*
X125692Y89226D01*
X125708Y89136D01*
X125772Y88139D01*
Y85984D01*
X125926Y85210D01*
X126201Y84799D01*
X125934Y84299D01*
X120967D01*
X119685Y85581D01*
X119501Y85779D01*
X119402Y85902D01*
Y87228D01*
X119260Y87939D01*
X118857Y88542D01*
X118254Y88945D01*
X117543Y89087D01*
X115528D01*
X114817Y88945D01*
X114214Y88542D01*
X113811Y87939D01*
X113669Y87228D01*
Y87055D01*
X101866D01*
Y87548D01*
X101711Y88327D01*
X101270Y88986D01*
X100610Y89428D01*
X99831Y89582D01*
X90326D01*
X89547Y89428D01*
X88888Y88986D01*
X88446Y88327D01*
X88292Y87548D01*
Y83318D01*
X88446Y82540D01*
X88888Y81880D01*
X89547Y81439D01*
X90326Y81284D01*
X99831D01*
X100610Y81439D01*
X101270Y81880D01*
X101711Y82540D01*
X101866Y83318D01*
Y83811D01*
X115406D01*
X115528Y83787D01*
X116532D01*
X116641Y83642D01*
X116392Y83142D01*
X115528D01*
X114817Y83000D01*
X114214Y82598D01*
X113811Y81994D01*
X113669Y81283D01*
Y79701D01*
X113811Y78990D01*
X114214Y78387D01*
X114817Y77984D01*
X115528Y77842D01*
X117543D01*
X118254Y77984D01*
X118857Y78387D01*
X119045Y78668D01*
X119288Y78693D01*
X132005D01*
X132473Y78226D01*
X132281Y77764D01*
X132143D01*
X131508Y77638D01*
X130970Y77278D01*
X130610Y76740D01*
X130550Y76439D01*
X130040D01*
X129980Y76740D01*
X129621Y77278D01*
X129083Y77638D01*
X128448Y77764D01*
X127143D01*
X126508Y77638D01*
X125970Y77278D01*
X125610Y76740D01*
X125550Y76439D01*
X125040D01*
X124980Y76740D01*
X124621Y77278D01*
X124083Y77638D01*
X123448Y77764D01*
X122143D01*
X121508Y77638D01*
X120970Y77278D01*
X120610Y76740D01*
X120484Y76105D01*
Y74712D01*
X73091D01*
X72470Y74589D01*
X71944Y74237D01*
X67357Y69651D01*
X67006Y69125D01*
X66882Y68504D01*
Y61417D01*
X67006Y60797D01*
X67357Y60271D01*
X69700Y57928D01*
X70226Y57577D01*
X70846Y57453D01*
X71152D01*
X71157Y57453D01*
X71158Y57453D01*
X71298Y57243D01*
X71852Y56873D01*
X72069Y56830D01*
Y56320D01*
X71852Y56277D01*
X71298Y55906D01*
X70928Y55352D01*
X70798Y54698D01*
Y53451D01*
X70928Y52797D01*
X71298Y52243D01*
X71852Y51873D01*
X72069Y51830D01*
Y51320D01*
X71852Y51277D01*
X71541Y51068D01*
X71522Y51062D01*
X71492Y51036D01*
X71298Y50906D01*
X71236Y50814D01*
X71222Y50801D01*
X71196Y50768D01*
X71189Y50764D01*
X71156Y50750D01*
X71100Y50732D01*
X71021Y50714D01*
X70919Y50699D01*
X70886Y50696D01*
X59535D01*
X59281Y50721D01*
X58964Y50815D01*
X58641Y50982D01*
X58302Y51236D01*
X57949Y51591D01*
X57589Y52052D01*
X57228Y52624D01*
X56871Y53306D01*
X56523Y54097D01*
X56179Y55020D01*
X56154Y55060D01*
X56028Y55475D01*
X55248Y56934D01*
X54198Y58214D01*
X52919Y59263D01*
X51459Y60044D01*
X49875Y60524D01*
X48228Y60686D01*
X46581Y60524D01*
X44998Y60044D01*
X43538Y59263D01*
X42259Y58214D01*
X41209Y56934D01*
X40429Y55475D01*
X39948Y53891D01*
X39786Y52244D01*
X39948Y50597D01*
X40429Y49013D01*
X41209Y47554D01*
X42259Y46275D01*
X43538Y45225D01*
X44998Y44445D01*
X46581Y43964D01*
X48228Y43802D01*
X49875Y43964D01*
X51459Y44445D01*
X51593Y44516D01*
X59205Y47453D01*
X70886D01*
X70919Y47450D01*
X71021Y47435D01*
X71100Y47417D01*
X71156Y47400D01*
X71189Y47386D01*
X71196Y47381D01*
X71222Y47348D01*
X71236Y47336D01*
X71298Y47243D01*
X71492Y47114D01*
X71522Y47087D01*
X71541Y47081D01*
X71852Y46873D01*
X71954Y46853D01*
X71970Y46810D01*
X71879Y46398D01*
X71807Y46286D01*
X71672Y46189D01*
X71654Y46184D01*
X71565Y46167D01*
X70549Y46098D01*
X68504D01*
X67730Y45944D01*
X67073Y45505D01*
X66635Y44849D01*
X66481Y44075D01*
X66635Y43301D01*
X67073Y42644D01*
X67730Y42206D01*
X68504Y42052D01*
X70798D01*
X71154Y42032D01*
X71541Y41987D01*
X71654Y41965D01*
X71727Y41947D01*
X71736Y41943D01*
X71766Y41927D01*
X71775Y41924D01*
X71852Y41873D01*
X72120Y41820D01*
X72147Y41811D01*
X72156Y41812D01*
X72506Y41743D01*
X75721D01*
Y40531D01*
X75715Y40457D01*
X75712Y40434D01*
X75237Y40117D01*
X74834Y39514D01*
X74693Y38803D01*
Y36788D01*
X74834Y36076D01*
X75237Y35473D01*
X75840Y35070D01*
X76552Y34929D01*
X78133D01*
X78845Y35070D01*
X79448Y35473D01*
X79851Y36076D01*
X79992Y36788D01*
Y38803D01*
X79851Y39514D01*
X79448Y40117D01*
X78974Y40434D01*
X78970Y40457D01*
X78964Y40531D01*
Y41743D01*
X79305D01*
X79958Y41873D01*
X80513Y42243D01*
X80883Y42797D01*
X81013Y43451D01*
Y44698D01*
X80883Y45352D01*
X80513Y45906D01*
X79958Y46277D01*
X79742Y46320D01*
Y46830D01*
X79958Y46873D01*
X80270Y47081D01*
X80289Y47087D01*
X80319Y47114D01*
X80513Y47243D01*
X80535Y47277D01*
X80905Y47339D01*
X81081Y47334D01*
X81666Y46749D01*
Y40531D01*
X81660Y40457D01*
X81656Y40434D01*
X81182Y40117D01*
X80779Y39514D01*
X80638Y38803D01*
Y36788D01*
X80779Y36076D01*
X81182Y35473D01*
X81785Y35070D01*
X82497Y34929D01*
X84078D01*
X84790Y35070D01*
X85393Y35473D01*
X85754Y36014D01*
X86024Y36048D01*
X86293Y36014D01*
X86654Y35473D01*
X87257Y35070D01*
X87969Y34929D01*
X89551D01*
X90262Y35070D01*
X90865Y35473D01*
X91268Y36076D01*
X91410Y36788D01*
Y38803D01*
X91321Y39248D01*
X91322Y39276D01*
X91307Y39317D01*
X91268Y39514D01*
X91196Y39623D01*
X91186Y39649D01*
X91099Y39792D01*
X91037Y39915D01*
X90980Y40054D01*
X90927Y40212D01*
X90880Y40390D01*
X90840Y40586D01*
X90809Y40790D01*
X90783Y41119D01*
Y41401D01*
X91283Y41798D01*
X91561Y41743D01*
X93083D01*
Y40531D01*
X93077Y40457D01*
X93074Y40434D01*
X92599Y40117D01*
X92196Y39514D01*
X92055Y38803D01*
Y36788D01*
X92196Y36076D01*
X92599Y35473D01*
X93202Y35070D01*
X93914Y34929D01*
X95236D01*
X95513Y34694D01*
X95883Y34323D01*
X95637Y33862D01*
X95102Y33969D01*
X93520D01*
X92809Y33827D01*
X92206Y33424D01*
X91803Y32821D01*
X91661Y32110D01*
Y30095D01*
X91803Y29384D01*
X92130Y28893D01*
X91953Y28393D01*
X90724D01*
X90547Y28893D01*
X90874Y29384D01*
X91016Y30095D01*
Y32110D01*
X90874Y32821D01*
X90472Y33424D01*
X89868Y33827D01*
X89157Y33969D01*
X87575D01*
X86864Y33827D01*
X86261Y33424D01*
X86127Y33225D01*
X85526D01*
X85393Y33424D01*
X84790Y33827D01*
X84078Y33969D01*
X82497D01*
X81785Y33827D01*
X81182Y33424D01*
X80779Y32821D01*
X80638Y32110D01*
Y30095D01*
X80779Y29384D01*
X81182Y28780D01*
X81656Y28463D01*
X81660Y28440D01*
X81666Y28366D01*
Y20586D01*
X81318Y20304D01*
X80917Y20565D01*
X81013Y21050D01*
Y22297D01*
X80883Y22951D01*
X80513Y23505D01*
X79958Y23875D01*
X79305Y24005D01*
X78964D01*
Y28366D01*
X78970Y28440D01*
X78974Y28463D01*
X79448Y28780D01*
X79851Y29384D01*
X79992Y30095D01*
Y32110D01*
X79851Y32821D01*
X79448Y33424D01*
X78845Y33827D01*
X78133Y33969D01*
X76552D01*
X75840Y33827D01*
X75237Y33424D01*
X74834Y32821D01*
X74693Y32110D01*
Y30095D01*
X74834Y29384D01*
X75237Y28780D01*
X75712Y28463D01*
X75715Y28440D01*
X75721Y28366D01*
Y24005D01*
X72506D01*
X71852Y23875D01*
X71541Y23667D01*
X71522Y23661D01*
X71492Y23634D01*
X71298Y23505D01*
X71236Y23412D01*
X71222Y23400D01*
X71196Y23367D01*
X71189Y23362D01*
X71156Y23348D01*
X71100Y23331D01*
X71021Y23313D01*
X70919Y23298D01*
X70886Y23295D01*
X70013D01*
X69672Y23523D01*
X68898Y23677D01*
X68123Y23523D01*
X67467Y23084D01*
X67028Y22428D01*
X66874Y21654D01*
X67028Y20879D01*
X67467Y20223D01*
X68123Y19784D01*
X68898Y19630D01*
X69672Y19784D01*
X70072Y20052D01*
X70886D01*
X70919Y20049D01*
X71021Y20034D01*
X71100Y20016D01*
X71156Y19998D01*
X71189Y19984D01*
X71196Y19980D01*
X71222Y19947D01*
X71236Y19934D01*
X71298Y19842D01*
X71492Y19712D01*
X71522Y19686D01*
X71541Y19680D01*
X71852Y19471D01*
X72069Y19428D01*
Y18918D01*
X71852Y18875D01*
X71298Y18505D01*
X70928Y17951D01*
X70798Y17297D01*
Y16050D01*
X70928Y15396D01*
X71298Y14842D01*
X71852Y14471D01*
X72069Y14428D01*
Y13918D01*
X71852Y13875D01*
X71541Y13667D01*
X71522Y13661D01*
X71492Y13634D01*
X71298Y13505D01*
X71236Y13412D01*
X71222Y13400D01*
X71196Y13367D01*
X71189Y13362D01*
X71156Y13348D01*
X71100Y13331D01*
X71021Y13313D01*
X70919Y13298D01*
X70886Y13295D01*
X66951D01*
X63433Y16814D01*
Y29528D01*
X63309Y30148D01*
X62958Y30674D01*
X57741Y35891D01*
X57215Y36242D01*
X56595Y36366D01*
X56511D01*
X56508Y36391D01*
X56028Y37975D01*
X55248Y39434D01*
X54198Y40714D01*
X52919Y41763D01*
X51459Y42544D01*
X49875Y43024D01*
X48228Y43186D01*
X46581Y43024D01*
X44998Y42544D01*
X43538Y41763D01*
X42259Y40714D01*
X41209Y39434D01*
X40429Y37975D01*
X39948Y36391D01*
X39786Y34744D01*
X39948Y33097D01*
X40429Y31513D01*
X41209Y30054D01*
X42259Y28774D01*
X43538Y27725D01*
X44998Y26945D01*
X46581Y26464D01*
X48228Y26302D01*
X49875Y26464D01*
X51459Y26945D01*
X52919Y27725D01*
X54198Y28774D01*
X55248Y30054D01*
X56028Y31513D01*
X56237Y32202D01*
X56722Y32323D01*
X60189Y28856D01*
Y16142D01*
X60313Y15521D01*
X60664Y14995D01*
X65133Y10526D01*
X65659Y10175D01*
X66280Y10052D01*
X70886D01*
X70919Y10049D01*
X71021Y10034D01*
X71100Y10016D01*
X71156Y9998D01*
X71189Y9984D01*
X71196Y9980D01*
X71222Y9947D01*
X71236Y9934D01*
X71298Y9842D01*
X71492Y9712D01*
X71522Y9686D01*
X71541Y9680D01*
X71852Y9471D01*
X71954Y9451D01*
X71970Y9408D01*
X71879Y8996D01*
X71807Y8884D01*
X71672Y8787D01*
X71654Y8783D01*
X71565Y8766D01*
X70549Y8696D01*
X68917D01*
X68143Y8542D01*
X67487Y8104D01*
X67048Y7447D01*
X66894Y6673D01*
X67048Y5899D01*
X67487Y5243D01*
X68143Y4804D01*
X68917Y4650D01*
X70798D01*
X71154Y4630D01*
X71541Y4585D01*
X71654Y4564D01*
X71727Y4545D01*
X71736Y4542D01*
X71766Y4526D01*
X71775Y4523D01*
X71852Y4471D01*
X72120Y4418D01*
X72147Y4410D01*
X72156Y4411D01*
X72506Y4341D01*
X79305D01*
X79958Y4471D01*
X80513Y4842D01*
X80883Y5396D01*
X81013Y6050D01*
Y7297D01*
X80883Y7951D01*
X80513Y8505D01*
X79958Y8875D01*
X79742Y8918D01*
Y9428D01*
X79958Y9471D01*
X80513Y9842D01*
X80883Y10396D01*
X81013Y11050D01*
Y11743D01*
X81282Y12059D01*
X86974Y17751D01*
X87325Y18277D01*
X87449Y18898D01*
Y23738D01*
X88861Y25150D01*
X99606D01*
X100227Y25273D01*
X100753Y25625D01*
X102934Y27806D01*
X103017Y27931D01*
X103366Y27931D01*
X103587Y27883D01*
X104139Y27514D01*
X104869Y27369D01*
X106941D01*
X107412Y27462D01*
X107442Y27461D01*
X107483Y27477D01*
X107673Y27514D01*
X107786Y27590D01*
X107815Y27601D01*
X107990Y27709D01*
X108143Y27790D01*
X108306Y27863D01*
X108478Y27927D01*
X108662Y27982D01*
X108857Y28028D01*
X109051Y28063D01*
X109385Y28095D01*
X110827D01*
X111601Y28249D01*
X112257Y28688D01*
X112696Y29344D01*
X112850Y30118D01*
X112696Y30892D01*
X112257Y31549D01*
X111601Y31987D01*
X110827Y32141D01*
X109368D01*
X109271Y32146D01*
X109064Y32171D01*
X108857Y32208D01*
X108661Y32254D01*
X108478Y32309D01*
X108306Y32373D01*
X108143Y32446D01*
X107990Y32527D01*
X107815Y32635D01*
X107786Y32646D01*
X107673Y32722D01*
X107483Y32760D01*
X107442Y32775D01*
X107412Y32774D01*
X106941Y32867D01*
X104869D01*
X104139Y32722D01*
X103848Y32528D01*
X103292Y32758D01*
X103286Y32789D01*
X102934Y33316D01*
X101747Y34503D01*
X101938Y34965D01*
X102107D01*
X102881Y35119D01*
X103299Y35398D01*
X103320Y35405D01*
X103351Y35433D01*
X103537Y35557D01*
X103602Y35654D01*
X103618Y35669D01*
X103712Y35792D01*
X103776Y35857D01*
X103853Y35917D01*
X103947Y35975D01*
X104064Y36030D01*
X104208Y36080D01*
X104379Y36123D01*
X104579Y36156D01*
X104685Y36166D01*
X105118D01*
X105892Y36320D01*
X106549Y36758D01*
X106987Y37415D01*
X107092Y37942D01*
X107627Y38114D01*
X108201Y37540D01*
X109039Y36671D01*
X109351Y36308D01*
X109406Y36236D01*
X109410Y36213D01*
X109528Y36037D01*
X109547Y35998D01*
X109565Y35981D01*
X109849Y35557D01*
X110505Y35119D01*
X111278Y34965D01*
X113918D01*
X114692Y35119D01*
X115348Y35557D01*
X115787Y36213D01*
X115940Y36987D01*
Y39391D01*
X115787Y40165D01*
X115348Y40821D01*
X114692Y41259D01*
X113918Y41413D01*
X111278D01*
X110810Y41320D01*
X110801Y41320D01*
X110777Y41313D01*
X110692Y41296D01*
X110649Y41294D01*
X110626Y41283D01*
X110505Y41259D01*
X110429Y41208D01*
X110421Y41206D01*
X110415Y41203D01*
X110408Y41205D01*
X110323Y41244D01*
X110200Y41317D01*
X110047Y41428D01*
X109975Y41489D01*
X106713Y44750D01*
X106386Y45102D01*
X106150Y45397D01*
X105977Y45644D01*
Y46283D01*
X105835Y46995D01*
X105432Y47598D01*
X104829Y48000D01*
X104118Y48142D01*
X103457D01*
X103290Y48260D01*
X102698Y48766D01*
X100958Y50505D01*
X100302Y50944D01*
X99528Y51098D01*
X99281D01*
X99014Y51277D01*
X98797Y51320D01*
Y51830D01*
X99014Y51873D01*
X99326Y52081D01*
X99344Y52087D01*
X99374Y52114D01*
X99568Y52243D01*
X99630Y52336D01*
X99644Y52348D01*
X99670Y52381D01*
X99677Y52386D01*
X99710Y52400D01*
X99766Y52417D01*
X99845Y52435D01*
X99947Y52450D01*
X99980Y52453D01*
X101080D01*
X101450Y52206D01*
X102224Y52052D01*
X102999Y52206D01*
X103655Y52644D01*
X104094Y53301D01*
X104247Y54075D01*
X104094Y54849D01*
X103655Y55505D01*
X102999Y55944D01*
X102224Y56098D01*
X101450Y55944D01*
X101080Y55697D01*
X101078Y55696D01*
X99980D01*
X99947Y55699D01*
X99845Y55714D01*
X99766Y55732D01*
X99711Y55750D01*
X99677Y55764D01*
X99670Y55768D01*
X99644Y55801D01*
X99630Y55814D01*
X99568Y55906D01*
X99374Y56036D01*
X99344Y56062D01*
X99326Y56068D01*
X99014Y56277D01*
X98360Y56407D01*
X91561D01*
X90908Y56277D01*
X90353Y55906D01*
X89983Y55352D01*
X89853Y54698D01*
Y53451D01*
X89983Y52797D01*
X90353Y52243D01*
X90908Y51873D01*
X91124Y51830D01*
Y51320D01*
X90908Y51277D01*
X90353Y50906D01*
X89983Y50352D01*
X89853Y49698D01*
Y48451D01*
X89983Y47797D01*
X90353Y47243D01*
X90908Y46873D01*
X91124Y46830D01*
Y46320D01*
X90908Y46277D01*
X90353Y45906D01*
X89983Y45352D01*
X89873Y44798D01*
X89411Y44552D01*
X88438Y45525D01*
X87782Y45964D01*
X87008Y46118D01*
X86234Y45964D01*
X85577Y45525D01*
X85409Y45273D01*
X84909Y45425D01*
Y47421D01*
X84786Y48042D01*
X84434Y48568D01*
X82781Y50222D01*
X82254Y50573D01*
X81634Y50696D01*
X80925D01*
X80892Y50699D01*
X80790Y50714D01*
X80711Y50732D01*
X80655Y50750D01*
X80622Y50764D01*
X80615Y50768D01*
X80589Y50801D01*
X80575Y50814D01*
X80513Y50906D01*
X80319Y51036D01*
X80289Y51062D01*
X80270Y51068D01*
X79958Y51277D01*
X79742Y51320D01*
Y51830D01*
X79958Y51873D01*
X80513Y52243D01*
X80653Y52453D01*
X80847D01*
X81467Y52577D01*
X81993Y52928D01*
X84178Y55113D01*
X84530Y55639D01*
X84653Y56260D01*
Y62612D01*
X84659Y62681D01*
X84660Y62689D01*
X85175Y63033D01*
X85329Y63264D01*
X85931D01*
X86085Y63033D01*
X86689Y62630D01*
X87402Y62488D01*
X89055D01*
X89768Y62630D01*
X90372Y63033D01*
X90776Y63638D01*
X90918Y64350D01*
Y66358D01*
X90776Y67071D01*
X90372Y67675D01*
X89768Y68079D01*
X89055Y68221D01*
X87402D01*
X86689Y68079D01*
X86085Y67675D01*
X85931Y67445D01*
X85329D01*
X85175Y67675D01*
X84571Y68079D01*
X83858Y68221D01*
X82205D01*
X81492Y68079D01*
X80888Y67675D01*
X80484Y67071D01*
X80342Y66358D01*
Y64350D01*
X80484Y63638D01*
X80888Y63033D01*
X81403Y62689D01*
X81404Y62681D01*
X81410Y62612D01*
Y60267D01*
X80910Y60218D01*
X80883Y60352D01*
X80513Y60906D01*
X79958Y61277D01*
X79305Y61407D01*
X72506D01*
X71852Y61277D01*
X71304Y60910D01*
X70126Y62089D01*
Y63759D01*
X70617Y63924D01*
X71273Y63485D01*
X72047Y63331D01*
X73696D01*
X73780Y63328D01*
X74008Y63304D01*
X74209Y63272D01*
X74369Y63235D01*
X74485Y63197D01*
X74557Y63166D01*
X74579Y63153D01*
X74610Y63114D01*
X74617Y63109D01*
X74667Y63033D01*
X74899Y62879D01*
X74918Y62863D01*
X74926Y62860D01*
X75271Y62630D01*
X75984Y62488D01*
X77638D01*
X78351Y62630D01*
X78955Y63033D01*
X79359Y63638D01*
X79500Y64350D01*
Y66358D01*
X79359Y67071D01*
X78955Y67675D01*
X78351Y68079D01*
X77638Y68221D01*
X75984D01*
X75271Y68079D01*
X74926Y67848D01*
X74918Y67846D01*
X74899Y67830D01*
X74667Y67675D01*
X74617Y67600D01*
X74610Y67594D01*
X74579Y67556D01*
X74557Y67543D01*
X74485Y67511D01*
X74369Y67474D01*
X74209Y67437D01*
X74021Y67406D01*
X73658Y67377D01*
X72047D01*
X71273Y67223D01*
X70617Y66785D01*
X70126Y66950D01*
Y67832D01*
X73762Y71469D01*
X120484D01*
Y70076D01*
X120610Y69441D01*
X120970Y68903D01*
X121508Y68543D01*
X122143Y68417D01*
X123448D01*
X124083Y68543D01*
X124621Y68903D01*
X124980Y69441D01*
X125040Y69743D01*
X125550D01*
X125610Y69441D01*
X125808Y69145D01*
X125814Y69127D01*
X125840Y69096D01*
X125970Y68903D01*
X126062Y68841D01*
X126075Y68827D01*
X126105Y68803D01*
X126108Y68798D01*
X126122Y68766D01*
X126139Y68712D01*
X126156Y68635D01*
X126171Y68535D01*
X126174Y68504D01*
Y66657D01*
X126084Y66522D01*
X125930Y65748D01*
X126084Y64974D01*
X126522Y64318D01*
X127179Y63879D01*
X127953Y63725D01*
X128727Y63879D01*
X129383Y64318D01*
X129822Y64974D01*
X129976Y65748D01*
X129822Y66522D01*
X129417Y67128D01*
Y68504D01*
X129420Y68535D01*
X129434Y68635D01*
X129452Y68712D01*
X129469Y68766D01*
X129482Y68798D01*
X129485Y68803D01*
X129516Y68827D01*
X129528Y68841D01*
X129621Y68903D01*
X129750Y69096D01*
X129777Y69127D01*
X129783Y69145D01*
X129980Y69441D01*
X130040Y69743D01*
X130550D01*
X130610Y69441D01*
X130970Y68903D01*
X131161Y68775D01*
X131174Y68646D01*
Y68386D01*
X131297Y67765D01*
X131649Y67239D01*
X132712Y66176D01*
X133238Y65825D01*
X133858Y65701D01*
X141575D01*
X142195Y65825D01*
X142721Y66176D01*
X143942Y67397D01*
X144293Y67923D01*
X144417Y68543D01*
Y68767D01*
X144621Y68903D01*
X144980Y69441D01*
X145040Y69743D01*
X145550D01*
X145610Y69441D01*
X145794Y69166D01*
X145796Y69160D01*
X145808Y69145D01*
X145970Y68903D01*
X145978Y68897D01*
X145988Y68851D01*
X146002Y68761D01*
X146016Y68572D01*
Y66892D01*
X145769Y66522D01*
X145615Y65748D01*
X145769Y64974D01*
X146207Y64318D01*
X146864Y63879D01*
X147638Y63725D01*
X148412Y63879D01*
X149068Y64318D01*
X149507Y64974D01*
X149661Y65748D01*
X149507Y66522D01*
X149260Y66892D01*
X149259Y66894D01*
Y68556D01*
X149266Y68636D01*
X149270Y68669D01*
X149621Y68903D01*
X149980Y69441D01*
X150040Y69743D01*
X150550D01*
X150610Y69441D01*
X150970Y68903D01*
X151508Y68543D01*
X152143Y68417D01*
X153448D01*
X154083Y68543D01*
X154621Y68903D01*
X154980Y69441D01*
X155107Y70076D01*
Y76105D01*
X155042Y76433D01*
X155042Y76440D01*
X155036Y76462D01*
X154980Y76740D01*
X154931Y76814D01*
X154929Y76821D01*
X154917Y76844D01*
X154916Y76847D01*
X154899Y76916D01*
X154883Y77006D01*
X154818Y78003D01*
Y78701D01*
X154664Y79475D01*
X154226Y80131D01*
X153591Y80555D01*
X153584Y80593D01*
X153737Y81055D01*
X155234D01*
X155859Y80431D01*
Y61438D01*
X155397Y61283D01*
X155359Y61282D01*
X155348Y61293D01*
X154692Y61731D01*
X153917Y61885D01*
X152430D01*
X152075Y61905D01*
X151687Y61950D01*
X151574Y61972D01*
X151502Y61990D01*
X151492Y61994D01*
X151462Y62010D01*
X151453Y62013D01*
X151376Y62064D01*
X151108Y62117D01*
X151081Y62125D01*
X151072Y62125D01*
X150722Y62194D01*
X143924D01*
X143270Y62064D01*
X142716Y61694D01*
X142345Y61140D01*
X142215Y60486D01*
Y59239D01*
X142345Y58585D01*
X142716Y58030D01*
X143270Y57660D01*
X143487Y57617D01*
Y57107D01*
X143270Y57064D01*
X142958Y56856D01*
X142940Y56850D01*
X142909Y56823D01*
X142716Y56694D01*
X142654Y56601D01*
X142639Y56589D01*
X142614Y56556D01*
X142606Y56551D01*
X142573Y56537D01*
X142518Y56520D01*
X142439Y56502D01*
X142336Y56487D01*
X142303Y56484D01*
X141870D01*
X141250Y56361D01*
X140723Y56009D01*
X138617Y53903D01*
X138297Y53424D01*
X138109Y53409D01*
X137777Y53477D01*
X137719Y53770D01*
X137367Y54296D01*
X135655Y56009D01*
X135128Y56361D01*
X134508Y56484D01*
X133287D01*
X133254Y56487D01*
X133152Y56502D01*
X133073Y56520D01*
X133018Y56537D01*
X132984Y56551D01*
X132977Y56556D01*
X132951Y56589D01*
X132937Y56601D01*
X132875Y56694D01*
X132681Y56823D01*
X132651Y56850D01*
X132633Y56856D01*
X132321Y57064D01*
X132104Y57107D01*
Y57617D01*
X132321Y57660D01*
X132875Y58030D01*
X133245Y58585D01*
X133375Y59239D01*
Y60486D01*
X133245Y61140D01*
X132875Y61694D01*
X132321Y62064D01*
X131667Y62194D01*
X124869D01*
X124491Y62119D01*
X124467Y62120D01*
X124431Y62108D01*
X124392Y62107D01*
X124360Y62093D01*
X124215Y62064D01*
X124114Y61997D01*
X124091Y61989D01*
X124044Y61961D01*
X124025Y61952D01*
X123983Y61937D01*
X123918Y61918D01*
X123832Y61900D01*
X123746Y61885D01*
X123396Y61858D01*
X120711D01*
X120341Y62105D01*
X119567Y62259D01*
X118792Y62105D01*
X118136Y61667D01*
X117697Y61010D01*
X117543Y60236D01*
X117697Y59462D01*
X118136Y58806D01*
X118792Y58367D01*
X119567Y58213D01*
X120341Y58367D01*
X120711Y58614D01*
X120713Y58614D01*
X123284D01*
X123290Y58585D01*
X123661Y58030D01*
X124215Y57660D01*
X124431Y57617D01*
Y57107D01*
X124215Y57064D01*
X123661Y56694D01*
X123290Y56140D01*
X123160Y55486D01*
Y54239D01*
X123209Y53993D01*
X123174Y53921D01*
X122773Y53622D01*
X122657Y53675D01*
X122592Y53737D01*
X122561Y53856D01*
X122529Y54037D01*
X122496Y54410D01*
Y55689D01*
X122342Y56463D01*
X121903Y57120D01*
X121247Y57558D01*
X120472Y57712D01*
X119698Y57558D01*
X119042Y57120D01*
X118603Y56463D01*
X118449Y55689D01*
Y54397D01*
X118444Y54270D01*
X118419Y54050D01*
X118384Y53856D01*
X118344Y53700D01*
X118303Y53585D01*
X118267Y53509D01*
X118243Y53472D01*
X118236Y53464D01*
X118175Y53415D01*
X118167Y53406D01*
X118086Y53351D01*
X117941Y53135D01*
X117920Y53110D01*
X117917Y53098D01*
X117672Y52732D01*
X117526Y52001D01*
Y50322D01*
X117672Y49591D01*
X118086Y48972D01*
X118705Y48557D01*
X119436Y48412D01*
X121509D01*
X122239Y48557D01*
X122722Y48880D01*
X123160Y48765D01*
X123269Y48690D01*
X123290Y48585D01*
X123661Y48030D01*
X124215Y47660D01*
X124869Y47530D01*
X130412D01*
X130519Y47457D01*
X130798Y47224D01*
X134937Y43085D01*
X135074Y42880D01*
X142897Y35057D01*
X142706Y34595D01*
X142261D01*
X141626Y34469D01*
X141088Y34109D01*
X140728Y33571D01*
X140668Y33269D01*
X140158D01*
X140099Y33571D01*
X139739Y34109D01*
X139201Y34469D01*
X138566Y34595D01*
X137261D01*
X136626Y34469D01*
X136088Y34109D01*
X135728Y33571D01*
X135668Y33269D01*
X135159D01*
X135099Y33571D01*
X134739Y34109D01*
X134201Y34469D01*
X133566Y34595D01*
X132261D01*
X131626Y34469D01*
X131088Y34109D01*
X131076Y34090D01*
X129751D01*
X129739Y34109D01*
X129201Y34469D01*
X128566Y34595D01*
X127261D01*
X126626Y34469D01*
X126088Y34109D01*
X125728Y33571D01*
X125668Y33269D01*
X125159D01*
X125099Y33571D01*
X124739Y34109D01*
X124201Y34469D01*
X123566Y34595D01*
X122261D01*
X121626Y34469D01*
X121088Y34109D01*
X120728Y33571D01*
X120602Y32936D01*
Y26906D01*
X120667Y26579D01*
X120666Y26572D01*
X120673Y26550D01*
X120728Y26272D01*
X120778Y26198D01*
X120780Y26191D01*
X120792Y26168D01*
X120793Y26165D01*
X120810Y26096D01*
X120826Y26006D01*
X120890Y25009D01*
Y23150D01*
X121044Y22375D01*
X121161Y22200D01*
X120894Y21700D01*
X114035D01*
X113415Y21577D01*
X112889Y21226D01*
X109958Y18295D01*
X99980D01*
X99947Y18298D01*
X99845Y18313D01*
X99766Y18331D01*
X99711Y18348D01*
X99677Y18362D01*
X99670Y18367D01*
X99644Y18400D01*
X99630Y18412D01*
X99568Y18505D01*
X99374Y18634D01*
X99344Y18661D01*
X99326Y18667D01*
X99014Y18875D01*
X98360Y19005D01*
X91561D01*
X90908Y18875D01*
X90353Y18505D01*
X89983Y17951D01*
X89853Y17297D01*
Y16050D01*
X89983Y15396D01*
X90353Y14842D01*
X90908Y14471D01*
X91124Y14428D01*
Y13918D01*
X90908Y13875D01*
X90353Y13505D01*
X89983Y12951D01*
X89853Y12297D01*
Y11050D01*
X89983Y10396D01*
X90353Y9842D01*
X90908Y9471D01*
X91124Y9428D01*
Y8918D01*
X90908Y8875D01*
X90353Y8505D01*
X89983Y7951D01*
X89853Y7297D01*
Y6050D01*
X89983Y5396D01*
X90353Y4842D01*
X90908Y4471D01*
X91561Y4341D01*
X93339D01*
Y2739D01*
X92927Y2657D01*
X92270Y2218D01*
X91832Y1562D01*
X91678Y787D01*
X91832Y13D01*
X92270Y-643D01*
X92927Y-1082D01*
X93701Y-1236D01*
X94475Y-1082D01*
X95131Y-643D01*
X95570Y13D01*
X95657Y450D01*
X95658Y451D01*
X96107Y900D01*
X96459Y1427D01*
X96582Y2047D01*
Y4341D01*
X98360D01*
X99014Y4471D01*
X99568Y4842D01*
X99938Y5396D01*
X100068Y6050D01*
Y7297D01*
X99938Y7951D01*
X99568Y8505D01*
X99014Y8875D01*
X98797Y8918D01*
Y9428D01*
X99014Y9471D01*
X99326Y9680D01*
X99344Y9686D01*
X99374Y9712D01*
X99568Y9842D01*
X99630Y9934D01*
X99644Y9947D01*
X99670Y9980D01*
X99677Y9984D01*
X99710Y9998D01*
X99766Y10016D01*
X99845Y10034D01*
X99947Y10049D01*
X99980Y10052D01*
X100647D01*
X101134Y9565D01*
Y3821D01*
X91848Y-5465D01*
X72835D01*
X72214Y-5588D01*
X71688Y-5940D01*
X55152Y-22475D01*
X54801Y-23001D01*
X54677Y-23622D01*
Y-44114D01*
X53848D01*
X53133Y-44208D01*
X52465Y-44485D01*
X51893Y-44924D01*
X51453Y-45497D01*
X51177Y-46164D01*
X51083Y-46880D01*
Y-50364D01*
X51177Y-51080D01*
X51453Y-51747D01*
X51893Y-52320D01*
X52465Y-52759D01*
X53133Y-53036D01*
X53848Y-53130D01*
X54803D01*
X54955Y-53630D01*
X54869Y-53688D01*
X53501Y-55055D01*
X53288Y-55245D01*
X52990Y-55483D01*
X52917Y-55534D01*
X52785Y-55508D01*
X49970D01*
X49031Y-55695D01*
X48235Y-56227D01*
X47703Y-57023D01*
X47516Y-57963D01*
Y-62116D01*
X47703Y-63055D01*
X48235Y-63852D01*
X49031Y-64384D01*
X49970Y-64571D01*
X52785D01*
X53725Y-64384D01*
X54521Y-63852D01*
X55053Y-63055D01*
X55240Y-62116D01*
Y-59242D01*
X55299Y-59138D01*
X55461Y-58903D01*
X55906Y-58372D01*
X57730Y-56549D01*
X58168Y-55892D01*
X58322Y-55118D01*
X58168Y-54344D01*
X57730Y-53688D01*
X57644Y-53630D01*
X57795Y-53130D01*
X58750D01*
X59466Y-53036D01*
X60133Y-52759D01*
X60706Y-52320D01*
X61145Y-51747D01*
X61422Y-51080D01*
X61516Y-50364D01*
Y-46880D01*
X61422Y-46164D01*
X61145Y-45497D01*
X60706Y-44924D01*
X60133Y-44485D01*
X59466Y-44208D01*
X58750Y-44114D01*
X57921D01*
Y-24294D01*
X73506Y-8708D01*
X92520D01*
X93140Y-8585D01*
X93252Y-8510D01*
X93703Y-8811D01*
X93654Y-9055D01*
Y-44114D01*
X92825D01*
X92109Y-44208D01*
X91442Y-44485D01*
X90869Y-44924D01*
X90430Y-45497D01*
X90153Y-46164D01*
X90059Y-46880D01*
Y-50364D01*
X90153Y-51080D01*
X90430Y-51747D01*
X90869Y-52320D01*
X91442Y-52759D01*
X92109Y-53036D01*
X92825Y-53130D01*
X93779D01*
X93931Y-53630D01*
X93845Y-53688D01*
X92477Y-55055D01*
X92264Y-55245D01*
X91966Y-55483D01*
X91893Y-55534D01*
X91762Y-55508D01*
X88947D01*
X88007Y-55695D01*
X87211Y-56227D01*
X86679Y-57023D01*
X86492Y-57963D01*
Y-62116D01*
X86679Y-63055D01*
X87211Y-63852D01*
X88007Y-64384D01*
X88947Y-64571D01*
X91762D01*
X92701Y-64384D01*
X93498Y-63852D01*
X94030Y-63055D01*
X94216Y-62116D01*
Y-59242D01*
X94276Y-59138D01*
X94438Y-58903D01*
X94883Y-58372D01*
X96706Y-56549D01*
X97145Y-55892D01*
X97299Y-55118D01*
X97145Y-54344D01*
X96706Y-53688D01*
X96620Y-53630D01*
X96772Y-53130D01*
X97726D01*
X98442Y-53036D01*
X99109Y-52759D01*
X99682Y-52320D01*
X100122Y-51747D01*
X100398Y-51080D01*
X100492Y-50364D01*
Y-46880D01*
X100398Y-46164D01*
X100122Y-45497D01*
X99682Y-44924D01*
X99109Y-44485D01*
X98442Y-44208D01*
X97726Y-44114D01*
X96897D01*
Y-9727D01*
X120214Y13590D01*
X120675Y13344D01*
X120602Y12975D01*
Y6946D01*
X120667Y6619D01*
X120666Y6611D01*
X120673Y6589D01*
X120728Y6311D01*
X120778Y6237D01*
X120780Y6230D01*
X120792Y6207D01*
X120793Y6204D01*
X120810Y6135D01*
X120826Y6046D01*
X120890Y5048D01*
Y3228D01*
X121044Y2454D01*
X121483Y1798D01*
X122139Y1359D01*
X122913Y1205D01*
X123688Y1359D01*
X124344Y1798D01*
X124783Y2454D01*
X124936Y3228D01*
Y5303D01*
X124954Y5637D01*
X124958Y5673D01*
X126237D01*
X126626Y5413D01*
X127261Y5287D01*
X128566D01*
X129201Y5413D01*
X129739Y5773D01*
X130098Y6311D01*
X130158Y6613D01*
X130668D01*
X130728Y6311D01*
X131088Y5773D01*
X131626Y5413D01*
X132261Y5287D01*
X133566D01*
X134201Y5413D01*
X134739Y5773D01*
X135099Y6311D01*
X135159Y6613D01*
X135668D01*
X135728Y6311D01*
X136088Y5773D01*
X136626Y5413D01*
X137261Y5287D01*
X138566D01*
X139201Y5413D01*
X139739Y5773D01*
X140099Y6311D01*
X140158Y6613D01*
X140609Y6618D01*
X140666Y6611D01*
X140673Y6589D01*
X140728Y6311D01*
X140778Y6237D01*
X140780Y6230D01*
X140792Y6207D01*
X140793Y6204D01*
X140810Y6135D01*
X140826Y6046D01*
X140890Y5049D01*
Y3150D01*
X141044Y2375D01*
X141483Y1719D01*
X142139Y1280D01*
X142913Y1127D01*
X143688Y1280D01*
X144344Y1719D01*
X144585Y2080D01*
X145085Y1929D01*
Y1523D01*
X145176Y1068D01*
X145175Y1043D01*
X145189Y1003D01*
X145208Y906D01*
X145210Y884D01*
X145214Y878D01*
X145231Y792D01*
X145298Y691D01*
X145306Y668D01*
X145370Y560D01*
X145410Y473D01*
X145454Y356D01*
X145496Y209D01*
X145535Y32D01*
X145565Y-153D01*
X145615Y-773D01*
Y-2165D01*
X145769Y-2940D01*
X146207Y-3596D01*
X146864Y-4034D01*
X147638Y-4188D01*
X148412Y-4034D01*
X149068Y-3596D01*
X149507Y-2940D01*
X149661Y-2165D01*
Y-874D01*
X149666Y-746D01*
X149692Y-527D01*
X149727Y-332D01*
X149767Y-177D01*
X149807Y-61D01*
X149843Y14D01*
X149868Y52D01*
X149875Y60D01*
X149935Y109D01*
X149940Y114D01*
X149947Y118D01*
X149951Y123D01*
X150024Y172D01*
X150169Y389D01*
X150190Y414D01*
X150192Y421D01*
X150197Y428D01*
X150199Y434D01*
X150439Y792D01*
X150584Y1523D01*
Y3595D01*
X150439Y4326D01*
X150024Y4946D01*
X149713Y5154D01*
Y5755D01*
X149739Y5773D01*
X150099Y6311D01*
X150225Y6946D01*
Y12975D01*
X150099Y13610D01*
X149739Y14148D01*
X149342Y14414D01*
X149494Y14914D01*
X150787D01*
X151408Y15037D01*
X151934Y15389D01*
X155397Y18851D01*
X155859Y18660D01*
Y-14683D01*
X133499Y-37042D01*
X133147Y-37568D01*
X133024Y-38189D01*
Y-44114D01*
X132195D01*
X131479Y-44208D01*
X130812Y-44485D01*
X130239Y-44924D01*
X129800Y-45497D01*
X129523Y-46164D01*
X129429Y-46880D01*
Y-50364D01*
X129523Y-51080D01*
X129800Y-51747D01*
X130239Y-52320D01*
X130812Y-52759D01*
X131479Y-53036D01*
X132195Y-53130D01*
X133150D01*
X133301Y-53630D01*
X133215Y-53688D01*
X131847Y-55055D01*
X131634Y-55245D01*
X131337Y-55483D01*
X131263Y-55534D01*
X131132Y-55508D01*
X128317D01*
X127378Y-55695D01*
X126581Y-56227D01*
X126049Y-57023D01*
X125862Y-57963D01*
Y-62116D01*
X126049Y-63055D01*
X126581Y-63852D01*
X127378Y-64384D01*
X128317Y-64571D01*
X131132D01*
X132071Y-64384D01*
X132868Y-63852D01*
X133400Y-63055D01*
X133587Y-62116D01*
Y-59242D01*
X133646Y-59138D01*
X133808Y-58903D01*
X134253Y-58372D01*
X136076Y-56549D01*
X136515Y-55892D01*
X136669Y-55118D01*
X136515Y-54344D01*
X136076Y-53688D01*
X135990Y-53630D01*
X136142Y-53130D01*
X137097D01*
X137812Y-53036D01*
X138479Y-52759D01*
X139052Y-52320D01*
X139492Y-51747D01*
X139768Y-51080D01*
X139862Y-50364D01*
Y-46880D01*
X139768Y-46164D01*
X139492Y-45497D01*
X139052Y-44924D01*
X138479Y-44485D01*
X137812Y-44208D01*
X137097Y-44114D01*
X136267D01*
Y-38861D01*
X158627Y-16501D01*
X158928Y-16051D01*
X159256Y-16073D01*
X159428Y-16134D01*
Y-67835D01*
Y-68325D01*
X159236Y-69287D01*
X158861Y-70193D01*
X158316Y-71008D01*
X157623Y-71702D01*
X156807Y-72247D01*
X155901Y-72622D01*
X154939Y-72813D01*
X154449D01*
X-32283Y-72813D01*
X-32283Y-72813D01*
X-32283Y-72813D01*
X-32774Y-72813D01*
X-33735Y-72621D01*
X-34640Y-72246D01*
X-35455Y-71701D01*
X-36148Y-71007D01*
X-36692Y-70192D01*
X-37067Y-69286D01*
X-37258Y-68325D01*
Y-67835D01*
Y144213D01*
X-37262Y144225D01*
Y194213D01*
Y194703D01*
X-37071Y195665D01*
X-36696Y196571D01*
X-36151Y197386D01*
X-35457Y198080D01*
X-34642Y198625D01*
X-33736Y199000D01*
X-32774Y199191D01*
X154939D01*
X155901Y199000D01*
D02*
G37*
G36*
X145615Y88121D02*
Y85827D01*
X145769Y85053D01*
X145938Y84799D01*
X145671Y84299D01*
X129657D01*
X129390Y84799D01*
X129664Y85210D01*
X129818Y85984D01*
Y88350D01*
X133465D01*
X133855Y88428D01*
X133920Y88471D01*
X134083Y88504D01*
X134621Y88863D01*
X134980Y89402D01*
X135040Y89703D01*
X135550D01*
X135610Y89402D01*
X135970Y88863D01*
X136508Y88504D01*
X137143Y88378D01*
X138448D01*
X139083Y88504D01*
X139621Y88863D01*
X139980Y89402D01*
X140040Y89703D01*
X140550D01*
X140610Y89402D01*
X140970Y88863D01*
X141508Y88504D01*
X142143Y88378D01*
X143448D01*
X144083Y88504D01*
X144621Y88863D01*
X144980Y89402D01*
X145040Y89703D01*
X145546Y89724D01*
X145615Y88121D01*
D02*
G37*
G36*
X128980Y89707D02*
X128938Y89588D01*
X128901Y89439D01*
X128869Y89259D01*
X128819Y88810D01*
X128789Y88240D01*
X128780Y87550D01*
X126811Y87550D01*
X126809Y87910D01*
X126722Y89259D01*
X126690Y89439D01*
X126653Y89588D01*
X126611Y89707D01*
X126563Y89797D01*
X129027D01*
X128980Y89707D01*
D02*
G37*
G36*
X148950Y89664D02*
X148881Y89510D01*
X148821Y89333D01*
X148768Y89134D01*
X148723Y88913D01*
X148659Y88405D01*
X148638Y88117D01*
X148622Y87476D01*
X146654Y87693D01*
X146563Y89797D01*
X149027D01*
X148950Y89664D01*
D02*
G37*
G36*
X115211Y84882D02*
X115212Y84874D01*
X115191Y84868D01*
X115148Y84862D01*
X115082Y84857D01*
X114426Y84843D01*
X114228Y84842D01*
X113520Y86024D01*
X113777Y86029D01*
X114004Y86047D01*
X114200Y86077D01*
X114365Y86118D01*
X114499Y86171D01*
X114603Y86236D01*
X114677Y86313D01*
X114719Y86402D01*
X114732Y86502D01*
X114713Y86614D01*
X115211Y84882D01*
D02*
G37*
G36*
X100834Y86502D02*
X100870Y86402D01*
X100929Y86313D01*
X101013Y86236D01*
X101120Y86171D01*
X101251Y86118D01*
X101407Y86077D01*
X101586Y86047D01*
X101788Y86029D01*
X102015Y86024D01*
Y84842D01*
X101788Y84837D01*
X101586Y84819D01*
X101407Y84789D01*
X101251Y84748D01*
X101120Y84695D01*
X101013Y84630D01*
X100929Y84553D01*
X100870Y84465D01*
X100834Y84364D01*
X100822Y84252D01*
Y86614D01*
X100834Y86502D01*
D02*
G37*
G36*
X118282Y86192D02*
X118242Y86093D01*
X118236Y85975D01*
X118265Y85839D01*
X118328Y85685D01*
X118427Y85512D01*
X118561Y85321D01*
X118729Y85111D01*
X119171Y84637D01*
X118154Y83984D01*
X117920Y84209D01*
X117497Y84566D01*
X117308Y84698D01*
X117133Y84798D01*
X116974Y84867D01*
X116829Y84905D01*
X116699Y84912D01*
X116584Y84887D01*
X116483Y84831D01*
X118358Y86273D01*
X118282Y86192D01*
D02*
G37*
G36*
X118320Y81382D02*
X118350Y81282D01*
X118407Y81194D01*
X118491Y81117D01*
X118601Y81053D01*
X118738Y81000D01*
X118902Y80958D01*
X119091Y80929D01*
X119308Y80911D01*
X119551Y80905D01*
Y79724D01*
X119289Y79719D01*
X118845Y79672D01*
X118664Y79631D01*
X118508Y79578D01*
X118379Y79514D01*
X118277Y79438D01*
X118201Y79351D01*
X118152Y79251D01*
X118130Y79141D01*
X118316Y81494D01*
X118320Y81382D01*
D02*
G37*
G36*
X152007Y80593D02*
X151999Y80555D01*
X151365Y80131D01*
X150926Y79475D01*
X150772Y78701D01*
Y77749D01*
X150755Y77414D01*
X150712Y77029D01*
X150692Y76916D01*
X150675Y76847D01*
X150674Y76844D01*
X150662Y76821D01*
X150660Y76814D01*
X150610Y76740D01*
X150555Y76462D01*
X150548Y76440D01*
X150491Y76433D01*
X150040Y76439D01*
X149980Y76740D01*
X149621Y77278D01*
X149083Y77638D01*
X148448Y77764D01*
X147143D01*
X146508Y77638D01*
X145970Y77278D01*
X145610Y76740D01*
X145550Y76439D01*
X145040D01*
X144980Y76740D01*
X144621Y77278D01*
X144083Y77638D01*
X143448Y77764D01*
X142143D01*
X141508Y77638D01*
X140970Y77278D01*
X140610Y76740D01*
X140550Y76439D01*
X140040D01*
X139980Y76740D01*
X139621Y77278D01*
X139083Y77638D01*
X138448Y77764D01*
X137565D01*
X137269Y78017D01*
X134692Y80594D01*
X134883Y81055D01*
X151853D01*
X152007Y80593D01*
D02*
G37*
G36*
X136521Y77315D02*
X136969Y76932D01*
X137165Y76794D01*
X137340Y76693D01*
X137497Y76627D01*
X137634Y76596D01*
X137752Y76602D01*
X137851Y76643D01*
X137930Y76720D01*
X136528Y74806D01*
X136582Y74908D01*
X136605Y75025D01*
X136598Y75156D01*
X136559Y75301D01*
X136490Y75461D01*
X136390Y75635D01*
X136259Y75824D01*
X136097Y76027D01*
X135680Y76476D01*
X136268Y77560D01*
X136521Y77315D01*
D02*
G37*
G36*
X121528Y71909D02*
X121516Y72022D01*
X121480Y72122D01*
X121420Y72211D01*
X121337Y72287D01*
X121229Y72352D01*
X121098Y72405D01*
X120943Y72447D01*
X120764Y72476D01*
X120561Y72494D01*
X120335Y72500D01*
Y73681D01*
X120561Y73687D01*
X120764Y73705D01*
X120943Y73734D01*
X121098Y73776D01*
X121229Y73829D01*
X121337Y73894D01*
X121420Y73971D01*
X121480Y74059D01*
X121516Y74159D01*
X121528Y74272D01*
Y71909D01*
D02*
G37*
G36*
X143635Y69505D02*
X143583Y69476D01*
X143537Y69428D01*
X143497Y69360D01*
X143463Y69272D01*
X143435Y69165D01*
X143414Y69039D01*
X143398Y68893D01*
X143386Y68543D01*
X142205D01*
X142202Y68728D01*
X142177Y69039D01*
X142155Y69165D01*
X142128Y69272D01*
X142094Y69360D01*
X142054Y69428D01*
X142007Y69476D01*
X141955Y69505D01*
X141896Y69515D01*
X143694D01*
X143635Y69505D01*
D02*
G37*
G36*
X133763Y69608D02*
X133684Y69571D01*
X133614Y69509D01*
X133554Y69423D01*
X133502Y69312D01*
X133460Y69176D01*
X133428Y69015D01*
X133405Y68830D01*
X133390Y68620D01*
X133386Y68386D01*
X132205D01*
X132200Y68620D01*
X132163Y69015D01*
X132130Y69176D01*
X132088Y69312D01*
X132037Y69423D01*
X131976Y69509D01*
X131907Y69571D01*
X131827Y69608D01*
X131739Y69620D01*
X133852D01*
X133763Y69608D01*
D02*
G37*
G36*
X148812Y69594D02*
X148701Y69583D01*
X148602Y69544D01*
X148514Y69479D01*
X148439Y69387D01*
X148374Y69268D01*
X148322Y69122D01*
X148281Y68949D01*
X148252Y68749D01*
X148234Y68522D01*
X148228Y68268D01*
X147047Y68287D01*
X147044Y68501D01*
X147016Y68875D01*
X146992Y69036D01*
X146960Y69180D01*
X146922Y69305D01*
X146877Y69414D01*
X146825Y69504D01*
X146765Y69577D01*
X146699Y69632D01*
X148812Y69594D01*
D02*
G37*
G36*
X128795Y69558D02*
X128709Y69470D01*
X128633Y69368D01*
X128568Y69252D01*
X128512Y69122D01*
X128467Y68979D01*
X128431Y68822D01*
X128406Y68651D01*
X128391Y68466D01*
X128386Y68268D01*
X127205D01*
X127200Y68466D01*
X127184Y68651D01*
X127159Y68822D01*
X127124Y68979D01*
X127078Y69122D01*
X127023Y69252D01*
X126957Y69368D01*
X126881Y69470D01*
X126795Y69558D01*
X126699Y69632D01*
X128891D01*
X128795Y69558D01*
D02*
G37*
G36*
X148229Y67015D02*
X148253Y66668D01*
X148264Y66605D01*
X148277Y66552D01*
X148291Y66509D01*
X148308Y66475D01*
X148327Y66451D01*
X146949D01*
X146967Y66475D01*
X146984Y66509D01*
X146999Y66552D01*
X147012Y66605D01*
X147023Y66668D01*
X147038Y66822D01*
X147046Y67015D01*
X147047Y67126D01*
X148228D01*
X148229Y67015D01*
D02*
G37*
G36*
X128387Y67112D02*
X128407Y66839D01*
X128419Y66767D01*
X128434Y66705D01*
X128452Y66652D01*
X128472Y66609D01*
X128495Y66576D01*
X128520Y66552D01*
X127160Y66332D01*
X127169Y66349D01*
X127176Y66377D01*
X127183Y66415D01*
X127189Y66464D01*
X127201Y66674D01*
X127205Y66978D01*
X128386Y67222D01*
X128387Y67112D01*
D02*
G37*
G36*
X86618Y64176D02*
X86606Y64287D01*
X86569Y64387D01*
X86507Y64476D01*
X86421Y64552D01*
X86311Y64617D01*
X86176Y64670D01*
X86016Y64711D01*
X85832Y64740D01*
X85630Y64757D01*
X85428Y64740D01*
X85244Y64711D01*
X85084Y64670D01*
X84949Y64617D01*
X84838Y64552D01*
X84753Y64476D01*
X84691Y64387D01*
X84654Y64287D01*
X84642Y64176D01*
Y66533D01*
X84654Y66421D01*
X84691Y66321D01*
X84753Y66233D01*
X84838Y66157D01*
X84949Y66092D01*
X85084Y66039D01*
X85244Y65998D01*
X85428Y65968D01*
X85630Y65951D01*
X85832Y65968D01*
X86016Y65998D01*
X86176Y66039D01*
X86311Y66092D01*
X86421Y66157D01*
X86507Y66233D01*
X86569Y66321D01*
X86606Y66421D01*
X86618Y66533D01*
Y64176D01*
D02*
G37*
G36*
X75397Y63763D02*
X75302Y63878D01*
X75179Y63981D01*
X75027Y64073D01*
X74848Y64152D01*
X74641Y64218D01*
X74406Y64273D01*
X74143Y64315D01*
X73852Y64346D01*
X73185Y64370D01*
Y66339D01*
X73532Y66345D01*
X74143Y66393D01*
X74406Y66436D01*
X74641Y66490D01*
X74848Y66557D01*
X75027Y66636D01*
X75179Y66727D01*
X75302Y66830D01*
X75397Y66946D01*
Y63763D01*
D02*
G37*
G36*
X84095Y63604D02*
X83996Y63566D01*
X83908Y63502D01*
X83832Y63413D01*
X83768Y63297D01*
X83715Y63157D01*
X83675Y62991D01*
X83645Y62799D01*
X83628Y62581D01*
X83622Y62339D01*
X82441D01*
X82435Y62581D01*
X82418Y62799D01*
X82388Y62991D01*
X82348Y63157D01*
X82295Y63297D01*
X82231Y63413D01*
X82155Y63502D01*
X82067Y63566D01*
X81968Y63604D01*
X81857Y63617D01*
X84206D01*
X84095Y63604D01*
D02*
G37*
G36*
X120293Y60906D02*
X120327Y60890D01*
X120371Y60875D01*
X120424Y60862D01*
X120486Y60851D01*
X120641Y60836D01*
X120834Y60828D01*
X120944Y60827D01*
Y59646D01*
X120834Y59645D01*
X120486Y59621D01*
X120424Y59610D01*
X120371Y59597D01*
X120327Y59583D01*
X120293Y59566D01*
X120269Y59547D01*
Y60925D01*
X120293Y60906D01*
D02*
G37*
G36*
X124240Y59057D02*
X124247Y59169D01*
X124225Y59269D01*
X124174Y59357D01*
X124094Y59434D01*
X123986Y59499D01*
X123848Y59552D01*
X123682Y59593D01*
X123487Y59622D01*
X123263Y59640D01*
X123011Y59646D01*
X123117Y60827D01*
X123324Y60830D01*
X123868Y60872D01*
X124024Y60898D01*
X124167Y60929D01*
X124297Y60966D01*
X124414Y61009D01*
X124518Y61057D01*
X124610Y61111D01*
X124240Y59057D01*
D02*
G37*
G36*
X151075Y61061D02*
X151198Y61016D01*
X151351Y60976D01*
X151534Y60942D01*
X151987Y60889D01*
X152558Y60857D01*
X153248Y60847D01*
Y58878D01*
X152888Y58875D01*
X151534Y58783D01*
X151351Y58748D01*
X151198Y58709D01*
X151075Y58664D01*
X150981Y58614D01*
Y61111D01*
X151075Y61061D01*
D02*
G37*
G36*
X71959Y58098D02*
X71947Y58172D01*
X71914Y58237D01*
X71858Y58295D01*
X71781Y58345D01*
X71680Y58388D01*
X71558Y58422D01*
X71414Y58450D01*
X71247Y58469D01*
X71058Y58480D01*
X70846Y58484D01*
Y59665D01*
X71058Y59669D01*
X71414Y59700D01*
X71558Y59727D01*
X71680Y59762D01*
X71781Y59804D01*
X71858Y59855D01*
X71914Y59912D01*
X71947Y59978D01*
X71959Y60051D01*
Y58098D01*
D02*
G37*
G36*
X143445Y53760D02*
X143370Y53857D01*
X143281Y53944D01*
X143177Y54021D01*
X143061Y54088D01*
X142929Y54144D01*
X142785Y54190D01*
X142626Y54226D01*
X142453Y54251D01*
X142266Y54267D01*
X142066Y54272D01*
Y55453D01*
X142266Y55458D01*
X142453Y55473D01*
X142626Y55499D01*
X142785Y55535D01*
X142929Y55581D01*
X143061Y55637D01*
X143177Y55703D01*
X143281Y55780D01*
X143370Y55867D01*
X143445Y55964D01*
Y53760D01*
D02*
G37*
G36*
X132221Y55867D02*
X132310Y55780D01*
X132413Y55703D01*
X132530Y55637D01*
X132661Y55581D01*
X132806Y55535D01*
X132965Y55499D01*
X133137Y55473D01*
X133324Y55458D01*
X133525Y55453D01*
Y54272D01*
X133324Y54267D01*
X133137Y54251D01*
X132965Y54226D01*
X132806Y54190D01*
X132661Y54144D01*
X132530Y54088D01*
X132413Y54021D01*
X132310Y53944D01*
X132221Y53857D01*
X132145Y53760D01*
Y55964D01*
X132221Y55867D01*
D02*
G37*
G36*
X101522Y53386D02*
X101497Y53404D01*
X101464Y53421D01*
X101420Y53436D01*
X101367Y53449D01*
X101304Y53460D01*
X101150Y53475D01*
X100957Y53483D01*
X100847Y53484D01*
Y54665D01*
X100957Y54666D01*
X101304Y54690D01*
X101367Y54701D01*
X101420Y54714D01*
X101464Y54728D01*
X101497Y54745D01*
X101522Y54764D01*
Y53386D01*
D02*
G37*
G36*
X79931Y54886D02*
X79958Y54840D01*
X80005Y54799D01*
X80070Y54763D01*
X80153Y54733D01*
X80255Y54709D01*
X80375Y54690D01*
X80514Y54676D01*
X80847Y54665D01*
Y53484D01*
X80671Y53482D01*
X80375Y53460D01*
X80255Y53441D01*
X80153Y53416D01*
X80070Y53386D01*
X80005Y53351D01*
X79958Y53310D01*
X79931Y53264D01*
X79922Y53212D01*
Y54938D01*
X79931Y54886D01*
D02*
G37*
G36*
X98914Y55080D02*
X99003Y54993D01*
X99106Y54916D01*
X99223Y54849D01*
X99354Y54793D01*
X99499Y54747D01*
X99658Y54711D01*
X99830Y54686D01*
X100017Y54671D01*
X100217Y54665D01*
Y53484D01*
X100017Y53479D01*
X99830Y53464D01*
X99658Y53438D01*
X99499Y53402D01*
X99354Y53356D01*
X99223Y53300D01*
X99106Y53234D01*
X99003Y53157D01*
X98914Y53070D01*
X98838Y52973D01*
Y55177D01*
X98914Y55080D01*
D02*
G37*
G36*
X121463Y54505D02*
X121517Y53901D01*
X121564Y53639D01*
X121625Y53403D01*
X121699Y53194D01*
X121786Y53011D01*
X121887Y52855D01*
X122002Y52725D01*
X122129Y52622D01*
X118815D01*
X118943Y52725D01*
X119058Y52855D01*
X119158Y53011D01*
X119246Y53194D01*
X119320Y53403D01*
X119380Y53639D01*
X119428Y53901D01*
X119461Y54190D01*
X119488Y54847D01*
X121457D01*
X121463Y54505D01*
D02*
G37*
G36*
X151276Y50867D02*
X151365Y50780D01*
X151468Y50703D01*
X151585Y50637D01*
X151716Y50581D01*
X151861Y50535D01*
X152020Y50499D01*
X152193Y50473D01*
X152379Y50458D01*
X152580Y50453D01*
Y49272D01*
X152379Y49266D01*
X152193Y49251D01*
X152020Y49226D01*
X151861Y49190D01*
X151716Y49144D01*
X151585Y49088D01*
X151468Y49021D01*
X151365Y48944D01*
X151276Y48857D01*
X151200Y48760D01*
Y50964D01*
X151276Y50867D01*
D02*
G37*
G36*
X79858Y50080D02*
X79948Y49993D01*
X80051Y49916D01*
X80168Y49850D01*
X80299Y49793D01*
X80444Y49747D01*
X80603Y49711D01*
X80775Y49686D01*
X80962Y49670D01*
X81162Y49665D01*
Y48484D01*
X80962Y48479D01*
X80775Y48464D01*
X80603Y48438D01*
X80444Y48402D01*
X80299Y48356D01*
X80168Y48300D01*
X80051Y48234D01*
X79948Y48157D01*
X79858Y48070D01*
X79783Y47973D01*
Y50177D01*
X79858Y50080D01*
D02*
G37*
G36*
X72028Y47973D02*
X71953Y48070D01*
X71863Y48157D01*
X71760Y48234D01*
X71643Y48300D01*
X71512Y48356D01*
X71367Y48402D01*
X71209Y48438D01*
X71036Y48464D01*
X70849Y48479D01*
X70649Y48484D01*
Y49665D01*
X70849Y49670D01*
X71036Y49686D01*
X71209Y49711D01*
X71367Y49747D01*
X71512Y49793D01*
X71643Y49850D01*
X71760Y49916D01*
X71863Y49993D01*
X71953Y50080D01*
X72028Y50177D01*
Y47973D01*
D02*
G37*
G36*
X132238Y49578D02*
X132183Y49494D01*
X132164Y49389D01*
X132183Y49263D01*
X132239Y49117D01*
X132333Y48949D01*
X132463Y48761D01*
X132631Y48552D01*
X133079Y48072D01*
X131753Y47727D01*
X131536Y47936D01*
X131135Y48270D01*
X130952Y48396D01*
X130779Y48495D01*
X130618Y48566D01*
X130467Y48609D01*
X130328Y48625D01*
X130200Y48613D01*
X130083Y48574D01*
X132332Y49642D01*
X132238Y49578D01*
D02*
G37*
G36*
X55578Y53713D02*
X55952Y52864D01*
X56344Y52114D01*
X56754Y51464D01*
X57183Y50915D01*
X57631Y50465D01*
X58097Y50115D01*
X58582Y49865D01*
X59085Y49715D01*
X59607Y49665D01*
X59045Y48484D01*
X50888Y45337D01*
X55224Y54663D01*
X55578Y53713D01*
D02*
G37*
G36*
X153608Y44173D02*
X153584Y44192D01*
X153550Y44209D01*
X153507Y44223D01*
X153454Y44236D01*
X153391Y44247D01*
X153237Y44263D01*
X153044Y44271D01*
X152933Y44272D01*
Y45453D01*
X153044Y45454D01*
X153391Y45477D01*
X153454Y45488D01*
X153507Y45501D01*
X153550Y45516D01*
X153584Y45533D01*
X153608Y45551D01*
Y44173D01*
D02*
G37*
G36*
X101914Y48094D02*
X102664Y47454D01*
X102993Y47222D01*
X103290Y47049D01*
X103557Y46933D01*
X103792Y46877D01*
X103997Y46879D01*
X104171Y46940D01*
X104313Y47059D01*
X101760Y44073D01*
X101860Y44235D01*
X101905Y44423D01*
X101897Y44639D01*
X101834Y44881D01*
X101717Y45149D01*
X101545Y45445D01*
X101319Y45767D01*
X101040Y46116D01*
X100317Y46894D01*
X101492Y48502D01*
X101914Y48094D01*
D02*
G37*
G36*
X151276Y45867D02*
X151365Y45780D01*
X151468Y45703D01*
X151585Y45637D01*
X151716Y45581D01*
X151861Y45535D01*
X152020Y45499D01*
X152193Y45473D01*
X152379Y45458D01*
X152580Y45453D01*
Y44272D01*
X152379Y44267D01*
X152193Y44251D01*
X152020Y44226D01*
X151861Y44190D01*
X151716Y44144D01*
X151585Y44087D01*
X151468Y44021D01*
X151365Y43944D01*
X151276Y43857D01*
X151200Y43760D01*
Y45964D01*
X151276Y45867D01*
D02*
G37*
G36*
X76563Y44813D02*
X76616Y44782D01*
X76672Y44755D01*
X76733Y44731D01*
X76798Y44711D01*
X76867Y44695D01*
X76941Y44682D01*
X77018Y44673D01*
X77185Y44665D01*
Y43484D01*
X77099Y43482D01*
X76941Y43468D01*
X76867Y43455D01*
X76798Y43439D01*
X76733Y43418D01*
X76672Y43395D01*
X76616Y43367D01*
X76563Y43336D01*
X76514Y43301D01*
Y44848D01*
X76563Y44813D01*
D02*
G37*
G36*
X159256Y51643D02*
X159428Y51582D01*
Y35426D01*
X159256Y35365D01*
X158928Y35342D01*
X158627Y35792D01*
X152722Y41698D01*
X152195Y42049D01*
X151575Y42173D01*
X151503D01*
X151387Y42635D01*
X151395Y42673D01*
X151688Y42869D01*
X151706Y42875D01*
X151736Y42901D01*
X151930Y43031D01*
X151992Y43123D01*
X152006Y43136D01*
X152032Y43169D01*
X152040Y43173D01*
X152073Y43187D01*
X152128Y43205D01*
X152207Y43223D01*
X152309Y43238D01*
X152342Y43240D01*
X153166D01*
X153537Y42993D01*
X154311Y42839D01*
X155085Y42993D01*
X155742Y43432D01*
X156180Y44088D01*
X156334Y44862D01*
X156180Y45636D01*
X155742Y46293D01*
X155085Y46731D01*
X154311Y46885D01*
X153537Y46731D01*
X153167Y46484D01*
X153165Y46484D01*
X152342D01*
X152309Y46487D01*
X152207Y46502D01*
X152128Y46520D01*
X152073Y46537D01*
X152040Y46551D01*
X152032Y46556D01*
X152006Y46589D01*
X151992Y46601D01*
X151930Y46694D01*
X151736Y46823D01*
X151706Y46850D01*
X151688Y46856D01*
X151376Y47064D01*
X151159Y47107D01*
Y47617D01*
X151376Y47660D01*
X151688Y47869D01*
X151706Y47875D01*
X151736Y47901D01*
X151930Y48030D01*
X151992Y48123D01*
X152006Y48136D01*
X152032Y48169D01*
X152040Y48173D01*
X152073Y48187D01*
X152128Y48205D01*
X152207Y48223D01*
X152309Y48238D01*
X152342Y48241D01*
X154980D01*
X155601Y48364D01*
X156127Y48715D01*
X158627Y51215D01*
X158928Y51665D01*
X159256Y51643D01*
D02*
G37*
G36*
X72247Y42826D02*
X72154Y42876D01*
X72030Y42921D01*
X71877Y42961D01*
X71695Y42995D01*
X71241Y43048D01*
X70670Y43080D01*
X69981Y43091D01*
Y45059D01*
X70340Y45062D01*
X71695Y45154D01*
X71877Y45189D01*
X72030Y45228D01*
X72154Y45273D01*
X72247Y45324D01*
Y42826D01*
D02*
G37*
G36*
X104794Y46316D02*
X104748Y46128D01*
X104757Y45913D01*
X104820Y45671D01*
X104937Y45402D01*
X105108Y45106D01*
X105334Y44784D01*
X105614Y44435D01*
X106337Y43657D01*
X105161Y42049D01*
X104740Y42457D01*
X103990Y43097D01*
X103661Y43329D01*
X103363Y43503D01*
X103097Y43618D01*
X102861Y43674D01*
X102657Y43672D01*
X102483Y43611D01*
X102340Y43492D01*
X104894Y46478D01*
X104794Y46316D01*
D02*
G37*
G36*
X95774Y42775D02*
X95673Y42739D01*
X95585Y42679D01*
X95508Y42596D01*
X95443Y42488D01*
X95390Y42357D01*
X95348Y42202D01*
X95319Y42023D01*
X95301Y41820D01*
X95295Y41594D01*
X94114D01*
X94108Y41820D01*
X94090Y42023D01*
X94061Y42202D01*
X94020Y42357D01*
X93967Y42488D01*
X93902Y42596D01*
X93825Y42679D01*
X93736Y42739D01*
X93636Y42775D01*
X93524Y42787D01*
X95886D01*
X95774Y42775D01*
D02*
G37*
G36*
X78411D02*
X78311Y42739D01*
X78223Y42679D01*
X78146Y42596D01*
X78081Y42488D01*
X78028Y42357D01*
X77986Y42202D01*
X77957Y42023D01*
X77939Y41820D01*
X77933Y41594D01*
X76752D01*
X76746Y41820D01*
X76728Y42023D01*
X76699Y42202D01*
X76657Y42357D01*
X76604Y42488D01*
X76539Y42596D01*
X76463Y42679D01*
X76374Y42739D01*
X76274Y42775D01*
X76161Y42787D01*
X78524D01*
X78411Y42775D01*
D02*
G37*
G36*
X95301Y40563D02*
X95319Y40342D01*
X95348Y40146D01*
X95389Y39977D01*
X95441Y39834D01*
X95505Y39716D01*
X95581Y39625D01*
X95669Y39560D01*
X95768Y39521D01*
X95879Y39508D01*
X93530D01*
X93641Y39521D01*
X93740Y39560D01*
X93828Y39625D01*
X93904Y39716D01*
X93968Y39834D01*
X94021Y39977D01*
X94062Y40146D01*
X94091Y40342D01*
X94108Y40563D01*
X94114Y40811D01*
X95295D01*
X95301Y40563D01*
D02*
G37*
G36*
X83884D02*
X83901Y40342D01*
X83930Y40146D01*
X83971Y39977D01*
X84024Y39834D01*
X84088Y39716D01*
X84164Y39625D01*
X84252Y39560D01*
X84351Y39521D01*
X84462Y39508D01*
X82113D01*
X82224Y39521D01*
X82323Y39560D01*
X82411Y39625D01*
X82487Y39716D01*
X82551Y39834D01*
X82603Y39977D01*
X82644Y40146D01*
X82674Y40342D01*
X82691Y40563D01*
X82697Y40811D01*
X83878D01*
X83884Y40563D01*
D02*
G37*
G36*
X77939D02*
X77956Y40342D01*
X77986Y40146D01*
X78026Y39977D01*
X78079Y39834D01*
X78143Y39716D01*
X78219Y39625D01*
X78307Y39560D01*
X78406Y39521D01*
X78517Y39508D01*
X76168D01*
X76279Y39521D01*
X76378Y39560D01*
X76466Y39625D01*
X76542Y39716D01*
X76606Y39834D01*
X76659Y39977D01*
X76699Y40146D01*
X76729Y40342D01*
X76746Y40563D01*
X76752Y40811D01*
X77933D01*
X77939Y40563D01*
D02*
G37*
G36*
X89750Y41250D02*
X89796Y40674D01*
X89835Y40408D01*
X89887Y40157D01*
X89950Y39920D01*
X90024Y39698D01*
X90109Y39490D01*
X90206Y39298D01*
X90315Y39119D01*
X87205D01*
X87313Y39298D01*
X87410Y39490D01*
X87496Y39698D01*
X87570Y39920D01*
X87633Y40157D01*
X87684Y40408D01*
X87724Y40674D01*
X87770Y41250D01*
X87776Y41560D01*
X89744D01*
X89750Y41250D01*
D02*
G37*
G36*
X109189Y40818D02*
X109419Y40624D01*
X109639Y40465D01*
X109849Y40339D01*
X110049Y40248D01*
X110239Y40191D01*
X110419Y40169D01*
X110589Y40180D01*
X110749Y40226D01*
X110900Y40306D01*
X110364Y36608D01*
X110331Y36686D01*
X110258Y36800D01*
X110144Y36950D01*
X109793Y37358D01*
X108200Y39010D01*
X108949Y41046D01*
X109189Y40818D01*
D02*
G37*
G36*
X102940Y39917D02*
X103094Y39761D01*
X103268Y39623D01*
X103463Y39504D01*
X103679Y39403D01*
X103915Y39320D01*
X104172Y39256D01*
X104449Y39210D01*
X104747Y39182D01*
X105066Y39173D01*
Y37205D01*
X104747Y37196D01*
X104449Y37168D01*
X104172Y37122D01*
X103915Y37058D01*
X103679Y36975D01*
X103463Y36874D01*
X103268Y36755D01*
X103094Y36617D01*
X102940Y36461D01*
X102807Y36287D01*
Y40091D01*
X102940Y39917D01*
D02*
G37*
G36*
X96255Y37747D02*
X96230Y37632D01*
X96237Y37502D01*
X96275Y37357D01*
X96344Y37197D01*
X96444Y37023D01*
X96576Y36834D01*
X96738Y36630D01*
X97158Y36177D01*
X96505Y35160D01*
X96258Y35398D01*
X95821Y35770D01*
X95630Y35903D01*
X95457Y36002D01*
X95302Y36066D01*
X95166Y36095D01*
X95049Y36089D01*
X94950Y36048D01*
X94869Y35973D01*
X96311Y37848D01*
X96255Y37747D01*
D02*
G37*
G36*
X55569Y35768D02*
X55612Y35677D01*
X55673Y35597D01*
X55752Y35527D01*
X55848Y35468D01*
X55962Y35420D01*
X56093Y35383D01*
X56243Y35356D01*
X56410Y35340D01*
X56595Y35335D01*
Y34154D01*
X56410Y34148D01*
X56243Y34132D01*
X56093Y34105D01*
X55962Y34068D01*
X55848Y34020D01*
X55752Y33961D01*
X55673Y33891D01*
X55612Y33811D01*
X55569Y33720D01*
X55544Y33619D01*
Y35869D01*
X55569Y35768D01*
D02*
G37*
G36*
X146925Y34165D02*
X147358Y33799D01*
X147549Y33664D01*
X147725Y33563D01*
X147884Y33495D01*
X148026Y33460D01*
X148152Y33457D01*
X148261Y33488D01*
X148354Y33551D01*
X146646Y31943D01*
X146714Y32032D01*
X146748Y32137D01*
X146748Y32261D01*
X146714Y32402D01*
X146646Y32560D01*
X146544Y32736D01*
X146409Y32929D01*
X146239Y33140D01*
X145799Y33613D01*
X146684Y34398D01*
X146925Y34165D01*
D02*
G37*
G36*
X86794Y29924D02*
X86782Y30035D01*
X86745Y30135D01*
X86684Y30224D01*
X86598Y30300D01*
X86488Y30365D01*
X86352Y30418D01*
X86193Y30459D01*
X86009Y30488D01*
X85827Y30504D01*
X85645Y30488D01*
X85461Y30459D01*
X85301Y30418D01*
X85166Y30365D01*
X85056Y30300D01*
X84970Y30224D01*
X84908Y30135D01*
X84871Y30035D01*
X84859Y29924D01*
Y32281D01*
X84871Y32169D01*
X84908Y32069D01*
X84970Y31981D01*
X85056Y31905D01*
X85166Y31840D01*
X85301Y31787D01*
X85461Y31746D01*
X85645Y31716D01*
X85827Y31701D01*
X86009Y31716D01*
X86193Y31746D01*
X86352Y31787D01*
X86488Y31840D01*
X86598Y31905D01*
X86684Y31981D01*
X86745Y32069D01*
X86782Y32169D01*
X86794Y32281D01*
Y29924D01*
D02*
G37*
G36*
X95782Y32579D02*
X95905Y32476D01*
X96056Y32385D01*
X96236Y32305D01*
X96443Y32239D01*
X96678Y32184D01*
X96941Y32141D01*
X97232Y32111D01*
X97898Y32087D01*
Y30118D01*
X97551Y30112D01*
X96941Y30063D01*
X96678Y30021D01*
X96443Y29966D01*
X96236Y29899D01*
X96056Y29820D01*
X95905Y29729D01*
X95782Y29626D01*
X95687Y29510D01*
Y32695D01*
X95782Y32579D01*
D02*
G37*
G36*
X107482Y31642D02*
X107696Y31529D01*
X107920Y31429D01*
X108153Y31342D01*
X108397Y31269D01*
X108650Y31209D01*
X108913Y31162D01*
X109185Y31129D01*
X109759Y31102D01*
Y29134D01*
X109467Y29127D01*
X108913Y29074D01*
X108650Y29027D01*
X108397Y28967D01*
X108153Y28894D01*
X107920Y28807D01*
X107696Y28707D01*
X107482Y28594D01*
X107278Y28468D01*
Y31769D01*
X107482Y31642D01*
D02*
G37*
G36*
X84351Y29377D02*
X84252Y29338D01*
X84164Y29273D01*
X84088Y29181D01*
X84024Y29064D01*
X83971Y28921D01*
X83930Y28751D01*
X83901Y28556D01*
X83884Y28334D01*
X83878Y28087D01*
X82697D01*
X82691Y28334D01*
X82674Y28556D01*
X82644Y28751D01*
X82603Y28921D01*
X82551Y29064D01*
X82487Y29181D01*
X82411Y29273D01*
X82323Y29338D01*
X82224Y29377D01*
X82113Y29390D01*
X84462D01*
X84351Y29377D01*
D02*
G37*
G36*
X78406D02*
X78307Y29338D01*
X78219Y29273D01*
X78143Y29181D01*
X78079Y29064D01*
X78026Y28921D01*
X77986Y28751D01*
X77956Y28556D01*
X77939Y28334D01*
X77933Y28087D01*
X76752D01*
X76746Y28334D01*
X76729Y28556D01*
X76699Y28751D01*
X76659Y28921D01*
X76606Y29064D01*
X76542Y29181D01*
X76466Y29273D01*
X76378Y29338D01*
X76279Y29377D01*
X76168Y29390D01*
X78517D01*
X78406Y29377D01*
D02*
G37*
G36*
X153913Y26389D02*
X153827Y26300D01*
X153752Y26199D01*
X153686Y26083D01*
X153630Y25953D01*
X153585Y25810D01*
X153549Y25653D01*
X153524Y25482D01*
X153509Y25297D01*
X153504Y25098D01*
X152323D01*
X152318Y25297D01*
X152303Y25482D01*
X152277Y25653D01*
X152242Y25810D01*
X152197Y25953D01*
X152141Y26083D01*
X152075Y26199D01*
X151999Y26300D01*
X151913Y26389D01*
X151818Y26463D01*
X154009D01*
X153913Y26389D01*
D02*
G37*
G36*
X143913D02*
X143827Y26300D01*
X143752Y26199D01*
X143686Y26083D01*
X143630Y25953D01*
X143585Y25810D01*
X143549Y25653D01*
X143524Y25482D01*
X143509Y25297D01*
X143504Y25098D01*
X142323D01*
X142318Y25297D01*
X142303Y25482D01*
X142277Y25653D01*
X142242Y25810D01*
X142197Y25953D01*
X142141Y26083D01*
X142075Y26199D01*
X141999Y26300D01*
X141913Y26389D01*
X141817Y26463D01*
X144009D01*
X143913Y26389D01*
D02*
G37*
G36*
X134098Y26577D02*
X134056Y26458D01*
X134019Y26309D01*
X133987Y26129D01*
X133937Y25680D01*
X133908Y25110D01*
X133898Y24420D01*
X131929D01*
X131927Y24780D01*
X131840Y26129D01*
X131808Y26309D01*
X131771Y26458D01*
X131729Y26577D01*
X131682Y26667D01*
X134145D01*
X134098Y26577D01*
D02*
G37*
G36*
X124098D02*
X124056Y26458D01*
X124019Y26309D01*
X123987Y26129D01*
X123937Y25680D01*
X123908Y25110D01*
X123898Y24420D01*
X121929D01*
X121927Y24780D01*
X121840Y26129D01*
X121808Y26309D01*
X121771Y26458D01*
X121729Y26577D01*
X121682Y26667D01*
X124145D01*
X124098Y26577D01*
D02*
G37*
G36*
X143505Y24102D02*
X143529Y23755D01*
X143539Y23692D01*
X143552Y23639D01*
X143567Y23595D01*
X143584Y23562D01*
X143602Y23538D01*
X142224D01*
X142243Y23562D01*
X142260Y23595D01*
X142275Y23639D01*
X142287Y23692D01*
X142298Y23755D01*
X142314Y23909D01*
X142322Y24102D01*
X142323Y24213D01*
X143504D01*
X143505Y24102D01*
D02*
G37*
G36*
X69610Y22339D02*
X69644Y22323D01*
X69687Y22309D01*
X69740Y22297D01*
X69802Y22287D01*
X69956Y22272D01*
X70149Y22265D01*
X70260Y22264D01*
X70290Y21083D01*
X70179Y21082D01*
X69832Y21057D01*
X69769Y21045D01*
X69716Y21032D01*
X69673Y21016D01*
X69639Y20999D01*
X69614Y20979D01*
X69587Y22356D01*
X69610Y22339D01*
D02*
G37*
G36*
X72028Y20571D02*
X71953Y20668D01*
X71863Y20755D01*
X71760Y20832D01*
X71643Y20899D01*
X71512Y20955D01*
X71367Y21001D01*
X71209Y21037D01*
X71036Y21062D01*
X70849Y21078D01*
X70649Y21083D01*
Y22264D01*
X70849Y22269D01*
X71036Y22284D01*
X71209Y22310D01*
X71367Y22346D01*
X71512Y22392D01*
X71643Y22448D01*
X71760Y22514D01*
X71863Y22591D01*
X71953Y22678D01*
X72028Y22775D01*
Y20571D01*
D02*
G37*
G36*
X98914Y17678D02*
X99003Y17591D01*
X99106Y17514D01*
X99223Y17448D01*
X99354Y17392D01*
X99499Y17346D01*
X99658Y17310D01*
X99830Y17284D01*
X100017Y17269D01*
X100217Y17264D01*
Y16083D01*
X100017Y16078D01*
X99830Y16062D01*
X99658Y16037D01*
X99499Y16001D01*
X99354Y15955D01*
X99223Y15899D01*
X99106Y15832D01*
X99003Y15755D01*
X98914Y15668D01*
X98838Y15571D01*
Y17775D01*
X98914Y17678D01*
D02*
G37*
G36*
X80817Y13052D02*
X80578Y12805D01*
X80203Y12365D01*
X80067Y12171D01*
X79966Y11995D01*
X79898Y11837D01*
X79865Y11697D01*
X79865Y11574D01*
X79900Y11469D01*
X79969Y11382D01*
X78232Y12961D01*
X78327Y12899D01*
X78437Y12870D01*
X78564Y12873D01*
X78706Y12909D01*
X78865Y12977D01*
X79040Y13078D01*
X79232Y13212D01*
X79439Y13378D01*
X79903Y13809D01*
X80817Y13052D01*
D02*
G37*
G36*
X98914Y12678D02*
X99003Y12591D01*
X99106Y12514D01*
X99223Y12448D01*
X99354Y12392D01*
X99499Y12346D01*
X99658Y12310D01*
X99830Y12284D01*
X100017Y12269D01*
X100217Y12264D01*
Y11083D01*
X100017Y11078D01*
X99830Y11062D01*
X99658Y11037D01*
X99499Y11001D01*
X99354Y10955D01*
X99223Y10898D01*
X99106Y10832D01*
X99003Y10755D01*
X98914Y10668D01*
X98838Y10571D01*
Y12775D01*
X98914Y12678D01*
D02*
G37*
G36*
X72028Y10571D02*
X71953Y10668D01*
X71863Y10755D01*
X71760Y10832D01*
X71643Y10898D01*
X71512Y10955D01*
X71367Y11001D01*
X71209Y11037D01*
X71036Y11062D01*
X70849Y11078D01*
X70649Y11083D01*
Y12264D01*
X70849Y12269D01*
X71036Y12284D01*
X71209Y12310D01*
X71367Y12346D01*
X71512Y12392D01*
X71643Y12448D01*
X71760Y12514D01*
X71863Y12591D01*
X71953Y12678D01*
X72028Y12775D01*
Y10571D01*
D02*
G37*
G36*
X72247Y5424D02*
X72154Y5475D01*
X72030Y5520D01*
X71877Y5559D01*
X71695Y5594D01*
X71241Y5647D01*
X70670Y5678D01*
X69981Y5689D01*
Y7658D01*
X70340Y7660D01*
X71695Y7753D01*
X71877Y7787D01*
X72030Y7827D01*
X72154Y7872D01*
X72247Y7922D01*
Y5424D01*
D02*
G37*
G36*
X124098Y6617D02*
X124056Y6498D01*
X124019Y6348D01*
X123987Y6169D01*
X123937Y5719D01*
X123908Y5150D01*
X123898Y4459D01*
X121929D01*
X121927Y4820D01*
X121840Y6169D01*
X121808Y6348D01*
X121771Y6498D01*
X121729Y6617D01*
X121682Y6706D01*
X124145D01*
X124098Y6617D01*
D02*
G37*
G36*
X96030Y5373D02*
X95929Y5337D01*
X95841Y5278D01*
X95764Y5194D01*
X95699Y5087D01*
X95646Y4955D01*
X95604Y4800D01*
X95575Y4621D01*
X95557Y4419D01*
X95551Y4192D01*
X94370D01*
X94364Y4419D01*
X94346Y4621D01*
X94317Y4800D01*
X94276Y4955D01*
X94222Y5087D01*
X94157Y5194D01*
X94081Y5278D01*
X93992Y5337D01*
X93892Y5373D01*
X93779Y5385D01*
X96142D01*
X96030Y5373D01*
D02*
G37*
G36*
X120131Y17957D02*
X119719Y17682D01*
X104813Y2776D01*
X104352Y3022D01*
X104378Y3150D01*
Y10236D01*
X104254Y10857D01*
X103903Y11383D01*
X102466Y12820D01*
X101939Y13171D01*
X101319Y13295D01*
X99980D01*
X99947Y13298D01*
X99845Y13313D01*
X99766Y13331D01*
X99711Y13348D01*
X99677Y13362D01*
X99670Y13367D01*
X99644Y13400D01*
X99630Y13412D01*
X99568Y13505D01*
X99374Y13634D01*
X99344Y13661D01*
X99326Y13667D01*
X99014Y13875D01*
X98797Y13918D01*
Y14428D01*
X99014Y14471D01*
X99326Y14680D01*
X99344Y14686D01*
X99374Y14712D01*
X99568Y14842D01*
X99630Y14934D01*
X99644Y14947D01*
X99670Y14980D01*
X99677Y14984D01*
X99710Y14998D01*
X99766Y15016D01*
X99845Y15034D01*
X99947Y15049D01*
X99980Y15052D01*
X110630D01*
X111250Y15175D01*
X111777Y15527D01*
X114707Y18457D01*
X120006D01*
X120131Y17957D01*
D02*
G37*
G36*
X95093Y1344D02*
X95015Y1265D01*
X94786Y1003D01*
X94750Y951D01*
X94721Y904D01*
X94701Y863D01*
X94689Y828D01*
X94685Y797D01*
X93711Y1772D01*
X93741Y1775D01*
X93777Y1788D01*
X93818Y1808D01*
X93864Y1836D01*
X93916Y1873D01*
X94037Y1971D01*
X94178Y2102D01*
X94258Y2179D01*
X95093Y1344D01*
D02*
G37*
G36*
X149295Y902D02*
X149167Y799D01*
X149053Y669D01*
X148952Y513D01*
X148864Y330D01*
X148790Y121D01*
X148730Y-115D01*
X148683Y-378D01*
X148649Y-666D01*
X148622Y-1324D01*
X146653Y-1253D01*
X146649Y-916D01*
X146578Y-29D01*
X146536Y226D01*
X146484Y459D01*
X146423Y672D01*
X146353Y864D01*
X146273Y1036D01*
X146184Y1187D01*
X149295Y902D01*
D02*
G37*
G36*
X135242Y-44181D02*
X135260Y-44383D01*
X135289Y-44562D01*
X135331Y-44717D01*
X135384Y-44849D01*
X135449Y-44956D01*
X135526Y-45039D01*
X135614Y-45099D01*
X135715Y-45135D01*
X135827Y-45147D01*
X133465D01*
X133577Y-45135D01*
X133677Y-45099D01*
X133766Y-45039D01*
X133843Y-44956D01*
X133907Y-44849D01*
X133961Y-44717D01*
X134002Y-44562D01*
X134031Y-44383D01*
X134049Y-44181D01*
X134055Y-43954D01*
X135236D01*
X135242Y-44181D01*
D02*
G37*
G36*
X95872D02*
X95890Y-44383D01*
X95919Y-44562D01*
X95961Y-44717D01*
X96014Y-44849D01*
X96079Y-44956D01*
X96156Y-45039D01*
X96244Y-45099D01*
X96345Y-45135D01*
X96457Y-45147D01*
X94095D01*
X94207Y-45135D01*
X94307Y-45099D01*
X94396Y-45039D01*
X94472Y-44956D01*
X94537Y-44849D01*
X94591Y-44717D01*
X94632Y-44562D01*
X94661Y-44383D01*
X94679Y-44181D01*
X94685Y-43954D01*
X95866D01*
X95872Y-44181D01*
D02*
G37*
G36*
X56896D02*
X56913Y-44383D01*
X56943Y-44562D01*
X56984Y-44717D01*
X57037Y-44849D01*
X57102Y-44956D01*
X57179Y-45039D01*
X57268Y-45099D01*
X57368Y-45135D01*
X57480Y-45147D01*
X55118D01*
X55230Y-45135D01*
X55331Y-45099D01*
X55419Y-45039D01*
X55496Y-44956D01*
X55561Y-44849D01*
X55614Y-44717D01*
X55655Y-44562D01*
X55685Y-44383D01*
X55703Y-44181D01*
X55709Y-43954D01*
X56890D01*
X56896Y-44181D01*
D02*
G37*
G36*
X133931Y-57224D02*
X133570Y-57599D01*
X132995Y-58284D01*
X132782Y-58595D01*
X132617Y-58884D01*
X132501Y-59152D01*
X132434Y-59398D01*
X132416Y-59623D01*
X132447Y-59826D01*
X132527Y-60008D01*
X130425Y-56567D01*
X130546Y-56709D01*
X130699Y-56790D01*
X130884Y-56812D01*
X131101Y-56774D01*
X131351Y-56676D01*
X131632Y-56519D01*
X131946Y-56301D01*
X132292Y-56024D01*
X132670Y-55688D01*
X133081Y-55291D01*
X133931Y-57224D01*
D02*
G37*
G36*
X94561D02*
X94200Y-57599D01*
X93625Y-58284D01*
X93411Y-58595D01*
X93247Y-58884D01*
X93131Y-59152D01*
X93064Y-59398D01*
X93046Y-59623D01*
X93077Y-59826D01*
X93157Y-60008D01*
X91055Y-56567D01*
X91176Y-56709D01*
X91328Y-56790D01*
X91514Y-56812D01*
X91731Y-56774D01*
X91980Y-56676D01*
X92262Y-56519D01*
X92576Y-56301D01*
X92922Y-56024D01*
X93300Y-55688D01*
X93711Y-55291D01*
X94561Y-57224D01*
D02*
G37*
G36*
X55585D02*
X55224Y-57599D01*
X54649Y-58284D01*
X54435Y-58595D01*
X54270Y-58884D01*
X54154Y-59152D01*
X54088Y-59398D01*
X54070Y-59623D01*
X54101Y-59826D01*
X54181Y-60008D01*
X52078Y-56567D01*
X52199Y-56709D01*
X52352Y-56790D01*
X52537Y-56812D01*
X52755Y-56774D01*
X53004Y-56676D01*
X53286Y-56519D01*
X53600Y-56301D01*
X53946Y-56024D01*
X54324Y-55688D01*
X54734Y-55291D01*
X55585Y-57224D01*
D02*
G37*
%LPC*%
G36*
X39807Y181528D02*
X38225D01*
X37513Y181386D01*
X36910Y180983D01*
X36507Y180380D01*
X36366Y179669D01*
Y177654D01*
X36507Y176943D01*
X36910Y176339D01*
X37157Y176175D01*
X37160Y175676D01*
X36888Y175494D01*
X36503Y174917D01*
X36367Y174237D01*
Y172062D01*
X36503Y171382D01*
X36888Y170805D01*
X37464Y170420D01*
X38144Y170285D01*
X39572D01*
X40252Y170420D01*
X40829Y170805D01*
X41214Y171382D01*
X41349Y172062D01*
Y174237D01*
X41214Y174917D01*
X40829Y175494D01*
X40790Y175520D01*
X40792Y176120D01*
X41121Y176339D01*
X41524Y176943D01*
X41666Y177654D01*
Y179669D01*
X41524Y180380D01*
X41121Y180983D01*
X40518Y181386D01*
X39807Y181528D01*
D02*
G37*
G36*
X39944Y161252D02*
X38363D01*
X37651Y161111D01*
X37048Y160708D01*
X36645Y160105D01*
X36504Y159393D01*
Y157378D01*
X36645Y156667D01*
X37048Y156064D01*
X37220Y155949D01*
Y155348D01*
X37026Y155218D01*
X36641Y154642D01*
X36505Y153962D01*
Y151786D01*
X36641Y151106D01*
X37026Y150530D01*
X37602Y150144D01*
X38282Y150009D01*
X39710D01*
X40390Y150144D01*
X40966Y150530D01*
X41352Y151106D01*
X41487Y151786D01*
Y153962D01*
X41352Y154642D01*
X41130Y154974D01*
X41124Y154991D01*
X41099Y155020D01*
X40966Y155218D01*
X40876Y155279D01*
X40865Y155292D01*
X40865Y155293D01*
X40846Y155788D01*
X41259Y156064D01*
X41662Y156667D01*
X41803Y157378D01*
Y159393D01*
X41662Y160105D01*
X41259Y160708D01*
X40656Y161111D01*
X39944Y161252D01*
D02*
G37*
G36*
X45832Y176014D02*
X44404D01*
X43724Y175879D01*
X43148Y175494D01*
X42763Y174917D01*
X42627Y174237D01*
Y172062D01*
X42763Y171382D01*
X43148Y170805D01*
X43724Y170420D01*
X44404Y170285D01*
X45652D01*
X45906Y170068D01*
X46410Y169564D01*
Y161991D01*
X45955Y161536D01*
X45757Y161351D01*
X45634Y161252D01*
X44308D01*
X43596Y161111D01*
X42993Y160708D01*
X42590Y160105D01*
X42448Y159393D01*
Y157378D01*
X42590Y156667D01*
X42993Y156064D01*
X43322Y155844D01*
X43324Y155244D01*
X43286Y155218D01*
X42900Y154642D01*
X42765Y153962D01*
Y151786D01*
X42900Y151106D01*
X43286Y150530D01*
X43862Y150144D01*
X44542Y150009D01*
X45221D01*
Y148150D01*
X45375Y147375D01*
X45814Y146719D01*
X46470Y146281D01*
X47244Y146126D01*
X48018Y146281D01*
X48675Y146719D01*
X49113Y147375D01*
X49267Y148150D01*
Y150886D01*
X49185Y151299D01*
X49646Y151545D01*
X52731Y148460D01*
X53257Y148108D01*
X53878Y147985D01*
X113221D01*
X128809Y132397D01*
X129335Y132045D01*
X129955Y131922D01*
X142059D01*
Y131061D01*
X142183Y130441D01*
X142534Y129916D01*
X142909Y129665D01*
X142971Y129169D01*
X142954Y129094D01*
X142551Y128491D01*
X142409Y127779D01*
Y125764D01*
X142551Y125053D01*
X142954Y124450D01*
X143235Y124262D01*
X143260Y124019D01*
Y123585D01*
X143013Y123215D01*
X142859Y122441D01*
X143013Y121667D01*
X143451Y121010D01*
X144108Y120572D01*
X144882Y120418D01*
X145656Y120572D01*
X146312Y121010D01*
X146751Y121667D01*
X146905Y122441D01*
X146751Y123215D01*
X146520Y123561D01*
X146524Y123615D01*
X146603Y124074D01*
X147164Y124450D01*
X147567Y125053D01*
X147693Y125684D01*
X148193Y125635D01*
Y125197D01*
X148271Y124807D01*
X148492Y124476D01*
X148885Y124082D01*
X149216Y123861D01*
X149606Y123784D01*
X156693D01*
X157083Y123861D01*
X157414Y124082D01*
X158201Y124870D01*
X158422Y125200D01*
X158500Y125591D01*
X158500Y133858D01*
X158422Y134248D01*
X158201Y134579D01*
X157414Y135367D01*
X157083Y135588D01*
X156693Y135665D01*
X150984D01*
X150594Y135588D01*
X150263Y135367D01*
X148492Y133595D01*
X148271Y133264D01*
X148193Y132874D01*
X148193Y127909D01*
X147693Y127859D01*
X147567Y128491D01*
X147164Y129094D01*
X146561Y129497D01*
X146504Y129508D01*
X146504Y129516D01*
Y130962D01*
X146523Y131061D01*
Y133860D01*
X146400Y134480D01*
X146049Y135006D01*
X145524Y135357D01*
X144904Y135480D01*
X143928D01*
X143721Y135980D01*
X144517Y136776D01*
X148819Y136776D01*
X149209Y136853D01*
X149540Y137074D01*
X150327Y137862D01*
X150548Y138192D01*
X150626Y138583D01*
X150626Y141339D01*
X150548Y141729D01*
X150327Y142060D01*
X149540Y142847D01*
X149209Y143068D01*
X148819Y143146D01*
X144123D01*
X140878Y146390D01*
X140548Y146611D01*
X140157Y146689D01*
X134353D01*
X134252Y146699D01*
X134150Y146689D01*
X130315D01*
X129925Y146611D01*
X129594Y146390D01*
X127232Y144028D01*
X127011Y143697D01*
X126933Y143307D01*
Y139512D01*
X126471Y139321D01*
X115039Y150753D01*
X114513Y151105D01*
X113892Y151228D01*
X54550D01*
X48078Y157700D01*
X47905Y157886D01*
X47787Y158034D01*
X47748Y158090D01*
Y158682D01*
X47779Y158726D01*
X48034Y159028D01*
X49178Y160172D01*
X49530Y160698D01*
X49653Y161319D01*
Y170236D01*
X49530Y170857D01*
X49178Y171383D01*
X47875Y172686D01*
X47787Y172786D01*
X47666Y172938D01*
X47609Y173020D01*
Y174237D01*
X47474Y174917D01*
X47089Y175494D01*
X46512Y175879D01*
X45832Y176014D01*
D02*
G37*
G36*
X84252Y146699D02*
X83053Y146581D01*
X81899Y146231D01*
X80836Y145663D01*
X79905Y144898D01*
X79140Y143967D01*
X78572Y142904D01*
X78222Y141751D01*
X78104Y140551D01*
X78222Y139352D01*
X78572Y138199D01*
X79140Y137136D01*
X79905Y136204D01*
X80836Y135440D01*
X81899Y134871D01*
X83053Y134522D01*
X84252Y134404D01*
X85451Y134522D01*
X86605Y134871D01*
X87667Y135440D01*
X88599Y136204D01*
X89364Y137136D01*
X89932Y138199D01*
X90282Y139352D01*
X90400Y140551D01*
X90282Y141751D01*
X89932Y142904D01*
X89364Y143967D01*
X88599Y144898D01*
X87667Y145663D01*
X86605Y146231D01*
X85451Y146581D01*
X84252Y146699D01*
D02*
G37*
G36*
X44213Y124468D02*
X42658Y124314D01*
X41162Y123861D01*
X39784Y123124D01*
X38576Y122133D01*
X37585Y120925D01*
X36848Y119547D01*
X36394Y118051D01*
X36241Y116496D01*
X36394Y114941D01*
X36848Y113445D01*
X37585Y112067D01*
X38576Y110859D01*
X39784Y109868D01*
X41162Y109131D01*
X42658Y108678D01*
X44213Y108525D01*
X45768Y108678D01*
X47263Y109131D01*
X48641Y109868D01*
X49849Y110859D01*
X50841Y112067D01*
X51577Y113445D01*
X52031Y114941D01*
X52184Y116496D01*
X52031Y118051D01*
X51577Y119547D01*
X50841Y120925D01*
X49849Y122133D01*
X48641Y123124D01*
X47263Y123861D01*
X45768Y124314D01*
X44213Y124468D01*
D02*
G37*
G36*
X74252Y116778D02*
X73053Y116659D01*
X71899Y116310D01*
X70837Y115742D01*
X69905Y114977D01*
X69140Y114045D01*
X68572Y112982D01*
X68222Y111829D01*
X68104Y110630D01*
X68222Y109431D01*
X68572Y108277D01*
X69140Y107214D01*
X69905Y106283D01*
X70837Y105518D01*
X71899Y104950D01*
X73053Y104600D01*
X74252Y104482D01*
X75451Y104600D01*
X76605Y104950D01*
X77667Y105518D01*
X78599Y106283D01*
X79364Y107214D01*
X79932Y108277D01*
X80282Y109431D01*
X80400Y110630D01*
X80282Y111829D01*
X79932Y112982D01*
X79364Y114045D01*
X78599Y114977D01*
X77667Y115742D01*
X76605Y116310D01*
X75451Y116659D01*
X74252Y116778D01*
D02*
G37*
G36*
X48228Y99682D02*
X46581Y99520D01*
X44998Y99040D01*
X43538Y98260D01*
X42259Y97210D01*
X41209Y95930D01*
X40429Y94471D01*
X39948Y92887D01*
X39786Y91240D01*
X39948Y89593D01*
X40429Y88010D01*
X41209Y86550D01*
X42259Y85271D01*
X43538Y84221D01*
X44998Y83441D01*
X46581Y82960D01*
X48228Y82798D01*
X49875Y82960D01*
X51459Y83441D01*
X52919Y84221D01*
X54198Y85271D01*
X55248Y86550D01*
X56028Y88010D01*
X56508Y89593D01*
X56671Y91240D01*
X56508Y92887D01*
X56028Y94471D01*
X55248Y95930D01*
X54198Y97210D01*
X52919Y98260D01*
X51459Y99040D01*
X49875Y99520D01*
X48228Y99682D01*
D02*
G37*
G36*
X23228D02*
X21581Y99520D01*
X19998Y99040D01*
X18538Y98260D01*
X17259Y97210D01*
X16209Y95930D01*
X15429Y94471D01*
X14948Y92887D01*
X14786Y91240D01*
X14948Y89593D01*
X15429Y88010D01*
X16209Y86550D01*
X17259Y85271D01*
X18538Y84221D01*
X19998Y83441D01*
X21581Y82960D01*
X23228Y82798D01*
X24875Y82960D01*
X26459Y83441D01*
X27919Y84221D01*
X29198Y85271D01*
X30248Y86550D01*
X31028Y88010D01*
X31508Y89593D01*
X31671Y91240D01*
X31508Y92887D01*
X31028Y94471D01*
X30248Y95930D01*
X29198Y97210D01*
X27919Y98260D01*
X26459Y99040D01*
X24875Y99520D01*
X23228Y99682D01*
D02*
G37*
G36*
X80540Y89582D02*
X71035D01*
X70256Y89428D01*
X69596Y88986D01*
X69155Y88327D01*
X69000Y87548D01*
Y83318D01*
X69155Y82540D01*
X69596Y81880D01*
X70256Y81439D01*
X71035Y81284D01*
X73679D01*
X73717Y81142D01*
X73751Y80932D01*
X73764Y80786D01*
Y78543D01*
X73918Y77769D01*
X74357Y77113D01*
X75013Y76674D01*
X75787Y76520D01*
X76562Y76674D01*
X77218Y77113D01*
X77657Y77769D01*
X77811Y78543D01*
Y80786D01*
X77823Y80932D01*
X77858Y81142D01*
X77896Y81284D01*
X80540D01*
X81319Y81439D01*
X81979Y81880D01*
X82420Y82540D01*
X82574Y83318D01*
Y83324D01*
X82717Y83363D01*
X82926Y83397D01*
X83072Y83410D01*
X85433D01*
X86207Y83564D01*
X86864Y84003D01*
X87302Y84659D01*
X87456Y85433D01*
X87302Y86207D01*
X86864Y86864D01*
X86207Y87302D01*
X85433Y87456D01*
X83072D01*
X82926Y87469D01*
X82717Y87504D01*
X82574Y87542D01*
Y87548D01*
X82420Y88327D01*
X81979Y88986D01*
X81319Y89428D01*
X80540Y89582D01*
D02*
G37*
G36*
X104186Y67907D02*
X102114D01*
X101644Y67813D01*
X101613Y67814D01*
X101572Y67799D01*
X101383Y67761D01*
X101269Y67686D01*
X101241Y67675D01*
X101066Y67567D01*
X100912Y67485D01*
X100750Y67413D01*
X100577Y67349D01*
X100393Y67293D01*
X100198Y67247D01*
X100004Y67213D01*
X99670Y67181D01*
X98622D01*
X97848Y67027D01*
X97192Y66588D01*
X96753Y65932D01*
X96599Y65158D01*
X96753Y64383D01*
X97192Y63727D01*
X97848Y63288D01*
X98622Y63134D01*
X99688D01*
X99784Y63130D01*
X99991Y63105D01*
X100198Y63068D01*
X100394Y63022D01*
X100577Y62966D01*
X100750Y62902D01*
X100912Y62830D01*
X101066Y62748D01*
X101241Y62640D01*
X101269Y62629D01*
X101383Y62554D01*
X101572Y62516D01*
X101613Y62501D01*
X101644Y62502D01*
X102114Y62408D01*
X104186D01*
X104917Y62554D01*
X105536Y62968D01*
X105950Y63587D01*
X106096Y64318D01*
Y65997D01*
X105950Y66728D01*
X105536Y67347D01*
X104917Y67761D01*
X104186Y67907D01*
D02*
G37*
G36*
X48228Y82182D02*
X46581Y82020D01*
X44998Y81540D01*
X43538Y80760D01*
X42259Y79710D01*
X41209Y78430D01*
X40429Y76971D01*
X39948Y75387D01*
X39786Y73740D01*
X39948Y72093D01*
X40429Y70509D01*
X41209Y69050D01*
X42259Y67771D01*
X43538Y66721D01*
X44998Y65941D01*
X46581Y65460D01*
X48228Y65298D01*
X49875Y65460D01*
X51459Y65941D01*
X52919Y66721D01*
X54198Y67771D01*
X55248Y69050D01*
X56028Y70509D01*
X56508Y72093D01*
X56671Y73740D01*
X56508Y75387D01*
X56028Y76971D01*
X55248Y78430D01*
X54198Y79710D01*
X52919Y80760D01*
X51459Y81540D01*
X49875Y82020D01*
X48228Y82182D01*
D02*
G37*
G36*
X23228D02*
X21581Y82020D01*
X19998Y81540D01*
X18538Y80760D01*
X17259Y79710D01*
X16209Y78430D01*
X15429Y76971D01*
X14948Y75387D01*
X14786Y73740D01*
X14948Y72093D01*
X15429Y70509D01*
X16209Y69050D01*
X17259Y67771D01*
X18538Y66721D01*
X19998Y65941D01*
X21581Y65460D01*
X23228Y65298D01*
X24875Y65460D01*
X26459Y65941D01*
X27919Y66721D01*
X29198Y67771D01*
X30248Y69050D01*
X31028Y70509D01*
X31508Y72093D01*
X31671Y73740D01*
X31508Y75387D01*
X31028Y76971D01*
X30248Y78430D01*
X29198Y79710D01*
X27919Y80760D01*
X26459Y81540D01*
X24875Y82020D01*
X23228Y82182D01*
D02*
G37*
G36*
X-787Y70964D02*
X-2342Y70810D01*
X-3838Y70357D01*
X-5216Y69620D01*
X-6424Y68629D01*
X-7415Y67421D01*
X-8152Y66043D01*
X-8606Y64547D01*
X-8759Y62992D01*
X-8606Y61437D01*
X-8152Y59942D01*
X-7415Y58563D01*
X-6424Y57355D01*
X-5216Y56364D01*
X-3838Y55628D01*
X-2342Y55174D01*
X-787Y55021D01*
X768Y55174D01*
X2263Y55628D01*
X3641Y56364D01*
X4849Y57355D01*
X5841Y58563D01*
X6577Y59942D01*
X7031Y61437D01*
X7184Y62992D01*
X7031Y64547D01*
X6577Y66043D01*
X5841Y67421D01*
X4849Y68629D01*
X3641Y69620D01*
X2263Y70357D01*
X768Y70810D01*
X-787Y70964D01*
D02*
G37*
G36*
X23228Y43186D02*
X21581Y43024D01*
X19998Y42544D01*
X18538Y41763D01*
X17259Y40714D01*
X16209Y39434D01*
X15429Y37975D01*
X14948Y36391D01*
X14786Y34744D01*
X14948Y33097D01*
X15429Y31513D01*
X16209Y30054D01*
X17259Y28774D01*
X18538Y27725D01*
X19998Y26945D01*
X21581Y26464D01*
X23228Y26302D01*
X24875Y26464D01*
X26459Y26945D01*
X27919Y27725D01*
X29198Y28774D01*
X30248Y30054D01*
X31028Y31513D01*
X31508Y33097D01*
X31671Y34744D01*
X31508Y36391D01*
X31028Y37975D01*
X30248Y39434D01*
X29198Y40714D01*
X27919Y41763D01*
X26459Y42544D01*
X24875Y43024D01*
X23228Y43186D01*
D02*
G37*
G36*
X44213Y17460D02*
X42658Y17307D01*
X41162Y16853D01*
X39784Y16116D01*
X38576Y15125D01*
X37585Y13917D01*
X36848Y12539D01*
X36394Y11043D01*
X36241Y9488D01*
X36394Y7933D01*
X36848Y6438D01*
X37585Y5060D01*
X38576Y3852D01*
X39784Y2860D01*
X41162Y2124D01*
X42658Y1670D01*
X44213Y1517D01*
X45768Y1670D01*
X47263Y2124D01*
X48641Y2860D01*
X49849Y3852D01*
X50841Y5060D01*
X51577Y6438D01*
X52031Y7933D01*
X52184Y9488D01*
X52031Y11043D01*
X51577Y12539D01*
X50841Y13917D01*
X49849Y15125D01*
X48641Y16116D01*
X47263Y16853D01*
X45768Y17307D01*
X44213Y17460D01*
D02*
G37*
%LPD*%
G36*
X40037Y176885D02*
X39925Y176880D01*
X39825Y176849D01*
X39737Y176791D01*
X39661Y176707D01*
X39596Y176596D01*
X39543Y176459D01*
X39502Y176295D01*
X39472Y176105D01*
X39455Y175896D01*
X39472Y175671D01*
X39501Y175465D01*
X39542Y175287D01*
X39595Y175137D01*
X39659Y175013D01*
X39735Y174917D01*
X39823Y174849D01*
X39922Y174808D01*
X40033Y174794D01*
X37684D01*
X37795Y174808D01*
X37894Y174849D01*
X37982Y174917D01*
X38058Y175013D01*
X38122Y175137D01*
X38174Y175287D01*
X38215Y175465D01*
X38244Y175671D01*
X38262Y175903D01*
X38262Y175905D01*
X38262Y175906D01*
X38244Y176139D01*
X38215Y176346D01*
X38174Y176527D01*
X38122Y176681D01*
X38058Y176809D01*
X37982Y176910D01*
X37894Y176984D01*
X37795Y177032D01*
X37684Y177054D01*
X40037Y176885D01*
D02*
G37*
G36*
X40217Y156660D02*
X40118Y156621D01*
X40030Y156556D01*
X39954Y156465D01*
X39890Y156348D01*
X39838Y156204D01*
X39797Y156035D01*
X39768Y155839D01*
X39752Y155641D01*
X39764Y155485D01*
X39788Y155309D01*
X39823Y155148D01*
X39867Y155001D01*
X39922Y154870D01*
X39985Y154752D01*
X40059Y154650D01*
X40143Y154562D01*
X40237Y154489D01*
X37979Y154624D01*
X38090Y154630D01*
X38189Y154663D01*
X38277Y154723D01*
X38353Y154809D01*
X38417Y154922D01*
X38470Y155062D01*
X38510Y155229D01*
X38540Y155422D01*
X38556Y155630D01*
X38540Y155839D01*
X38510Y156035D01*
X38470Y156204D01*
X38417Y156348D01*
X38353Y156465D01*
X38277Y156556D01*
X38189Y156621D01*
X38090Y156660D01*
X37979Y156673D01*
X40328D01*
X40217Y156660D01*
D02*
G37*
G36*
X46516Y173253D02*
X46497Y173133D01*
X46507Y172999D01*
X46548Y172852D01*
X46617Y172691D01*
X46717Y172518D01*
X46846Y172331D01*
X47005Y172131D01*
X47194Y171917D01*
X47412Y171691D01*
X46904Y170528D01*
X46653Y170771D01*
X46210Y171148D01*
X46018Y171283D01*
X45846Y171381D01*
X45693Y171443D01*
X45561Y171468D01*
X45448Y171458D01*
X45354Y171411D01*
X45281Y171329D01*
X46565Y173361D01*
X46516Y173253D01*
D02*
G37*
G36*
X47552Y160004D02*
X47326Y159770D01*
X46969Y159347D01*
X46838Y159158D01*
X46737Y158984D01*
X46668Y158824D01*
X46630Y158679D01*
X46624Y158549D01*
X46648Y158434D01*
X46671Y158394D01*
X46705Y158438D01*
X46675Y158386D01*
X46705Y158334D01*
X46671Y158378D01*
X46648Y158338D01*
X46624Y158222D01*
X46630Y158092D01*
X46668Y157948D01*
X46737Y157788D01*
X46838Y157613D01*
X46969Y157424D01*
X47132Y157220D01*
X47552Y156768D01*
X46898Y155751D01*
X46652Y155989D01*
X46215Y156360D01*
X46023Y156494D01*
X45851Y156593D01*
X45696Y156657D01*
X45560Y156685D01*
X45443Y156680D01*
X45344Y156639D01*
X45263Y156563D01*
X46664Y158386D01*
X45263Y160208D01*
X45344Y160133D01*
X45443Y160092D01*
X45560Y160086D01*
X45696Y160115D01*
X45851Y160179D01*
X46023Y160278D01*
X46215Y160411D01*
X46424Y160580D01*
X46898Y161021D01*
X47552Y160004D01*
D02*
G37*
G36*
X143701Y142126D02*
X148819D01*
X149606Y141339D01*
X149606Y138583D01*
X148819Y137795D01*
X144095Y137795D01*
X141732Y135433D01*
X130315D01*
X127953Y137795D01*
Y143307D01*
X130315Y145669D01*
X140157D01*
X143701Y142126D01*
D02*
G37*
G36*
X143103Y132362D02*
X143110Y132474D01*
X143088Y132575D01*
X143038Y132663D01*
X142961Y132740D01*
X142856Y132805D01*
X142722Y132858D01*
X142561Y132900D01*
X142372Y132929D01*
X142155Y132947D01*
X141910Y132953D01*
X141987Y134134D01*
X142193Y134137D01*
X142732Y134177D01*
X142886Y134201D01*
X143153Y134266D01*
X143266Y134306D01*
X143367Y134352D01*
X143454Y134403D01*
X143103Y132362D01*
D02*
G37*
G36*
X145452Y130832D02*
X145456Y130806D01*
X145460Y130757D01*
X145470Y130337D01*
X145472Y129787D01*
X145472D01*
X145478Y129544D01*
X145496Y129328D01*
X145525Y129138D01*
X145567Y128974D01*
X145619Y128838D01*
X145684Y128727D01*
X145761Y128644D01*
X145849Y128587D01*
X145949Y128556D01*
X146061Y128552D01*
X143708Y128366D01*
X143818Y128388D01*
X143918Y128437D01*
X144005Y128513D01*
X144081Y128615D01*
X144145Y128744D01*
X144198Y128900D01*
X144239Y129082D01*
X144268Y129290D01*
X144286Y129526D01*
X144286Y129532D01*
X144285Y129540D01*
X144268Y129760D01*
X144238Y129950D01*
X144197Y130113D01*
X144144Y130246D01*
X144079Y130351D01*
X144002Y130428D01*
X143913Y130475D01*
X143813Y130495D01*
X143701Y130485D01*
X145447Y130836D01*
X145452Y130832D01*
D02*
G37*
G36*
X157480Y133858D02*
X157480Y125591D01*
X156693Y124803D01*
X149606D01*
X149213Y125197D01*
X149213Y132874D01*
X150984Y134646D01*
X156693D01*
X157480Y133858D01*
D02*
G37*
G36*
X146061Y124991D02*
X145949Y124987D01*
X145849Y124957D01*
X145761Y124900D01*
X145684Y124816D01*
X145619Y124706D01*
X145567Y124569D01*
X145525Y124406D01*
X145496Y124216D01*
X145478Y123999D01*
X145473Y123773D01*
X145473Y123708D01*
X145497Y123361D01*
X145508Y123298D01*
X145521Y123245D01*
X145535Y123202D01*
X145552Y123168D01*
X145571Y123144D01*
X144193D01*
X144212Y123168D01*
X144228Y123202D01*
X144243Y123245D01*
X144256Y123298D01*
X144267Y123361D01*
X144282Y123515D01*
X144290Y123708D01*
X144291Y123774D01*
X144286Y124018D01*
X144239Y124462D01*
X144198Y124644D01*
X144145Y124799D01*
X144081Y124928D01*
X144005Y125030D01*
X143918Y125106D01*
X143818Y125155D01*
X143708Y125178D01*
X146061Y124991D01*
D02*
G37*
G36*
X81551Y87215D02*
X81610Y87047D01*
X81709Y86900D01*
X81848Y86772D01*
X82026Y86663D01*
X82244Y86575D01*
X82501Y86506D01*
X82798Y86457D01*
X83135Y86427D01*
X83511Y86417D01*
Y84449D01*
X83135Y84439D01*
X82798Y84409D01*
X82501Y84360D01*
X82244Y84291D01*
X82026Y84203D01*
X81848Y84095D01*
X81709Y83966D01*
X81610Y83819D01*
X81551Y83652D01*
X81531Y83465D01*
Y87402D01*
X81551Y87215D01*
D02*
G37*
G36*
X77569Y82308D02*
X77402Y82248D01*
X77254Y82149D01*
X77126Y82011D01*
X77018Y81832D01*
X76929Y81615D01*
X76860Y81357D01*
X76811Y81060D01*
X76781Y80723D01*
X76772Y80347D01*
X74803D01*
X74793Y80723D01*
X74764Y81060D01*
X74715Y81357D01*
X74646Y81615D01*
X74557Y81832D01*
X74449Y82011D01*
X74321Y82149D01*
X74173Y82248D01*
X74006Y82308D01*
X73819Y82328D01*
X77756D01*
X77569Y82308D01*
D02*
G37*
G36*
X101778Y63507D02*
X101573Y63634D01*
X101359Y63747D01*
X101135Y63847D01*
X100902Y63933D01*
X100658Y64007D01*
X100405Y64067D01*
X100143Y64113D01*
X99870Y64147D01*
X99296Y64173D01*
Y66142D01*
X99588Y66148D01*
X100143Y66202D01*
X100405Y66248D01*
X100658Y66308D01*
X100902Y66382D01*
X101135Y66468D01*
X101359Y66568D01*
X101573Y66681D01*
X101778Y66808D01*
Y63507D01*
D02*
G37*
D40*
X123425Y100394D02*
D03*
X129331D02*
D03*
X147835Y2559D02*
D03*
X153740D02*
D03*
D41*
X105905Y24213D02*
D03*
Y30118D02*
D03*
X103150Y59252D02*
D03*
Y65158D02*
D03*
X120472Y51161D02*
D03*
Y45256D02*
D03*
D42*
X75906Y21673D02*
D03*
Y16673D02*
D03*
Y11673D02*
D03*
Y6673D02*
D03*
X94961D02*
D03*
Y11673D02*
D03*
Y16673D02*
D03*
Y21673D02*
D03*
Y59075D02*
D03*
Y54075D02*
D03*
Y49075D02*
D03*
Y44075D02*
D03*
X75906D02*
D03*
Y49075D02*
D03*
Y54075D02*
D03*
Y59075D02*
D03*
X128268Y44862D02*
D03*
Y49862D02*
D03*
Y54862D02*
D03*
Y59862D02*
D03*
X147323D02*
D03*
Y54862D02*
D03*
Y49862D02*
D03*
Y44862D02*
D03*
D43*
X152913Y29921D02*
D03*
X147913D02*
D03*
X142913D02*
D03*
X137913D02*
D03*
X132913D02*
D03*
X127913D02*
D03*
X122913D02*
D03*
Y9961D02*
D03*
X127913D02*
D03*
X132913D02*
D03*
X137913D02*
D03*
X142913D02*
D03*
X147913D02*
D03*
X152913D02*
D03*
X122795Y93051D02*
D03*
X127795D02*
D03*
X132795D02*
D03*
X137795D02*
D03*
X142795D02*
D03*
X147795D02*
D03*
X152795D02*
D03*
Y73091D02*
D03*
X147795D02*
D03*
X142795D02*
D03*
X137795D02*
D03*
X132795D02*
D03*
X127795D02*
D03*
X122795D02*
D03*
D44*
X56299Y-48622D02*
D03*
X134646D02*
D03*
X95276D02*
D03*
D45*
X61221Y-60039D02*
D03*
X51378D02*
D03*
X139567D02*
D03*
X129724D02*
D03*
X90354D02*
D03*
X100197D02*
D03*
D46*
X39154Y158386D02*
D03*
X45098D02*
D03*
X145059Y126772D02*
D03*
X151004D02*
D03*
X77342Y37795D02*
D03*
X83287D02*
D03*
X39016Y178661D02*
D03*
X44961D02*
D03*
X94311Y31102D02*
D03*
X88366D02*
D03*
X94705Y37795D02*
D03*
X88760D02*
D03*
X83287Y31102D02*
D03*
X77342D02*
D03*
X109272Y45276D02*
D03*
X103327D02*
D03*
D47*
X83031Y65354D02*
D03*
X76811D02*
D03*
X94449D02*
D03*
X88228D02*
D03*
D48*
X116535Y80492D02*
D03*
Y86437D02*
D03*
D49*
X148031Y139980D02*
D03*
X151772Y132461D02*
D03*
X144291D02*
D03*
D50*
X45256Y152874D02*
D03*
X38996D02*
D03*
X45118Y173150D02*
D03*
X38858D02*
D03*
D51*
X75787Y85433D02*
D03*
X95079D02*
D03*
D52*
X112598Y38189D02*
D03*
X100787D02*
D03*
D53*
X122795Y92264D02*
Y99370D01*
X152795Y72303D02*
Y78701D01*
X142913Y3150D02*
Y11417D01*
X51378Y-60039D02*
X56299Y-55118D01*
X90354Y-60039D02*
X95276Y-55118D01*
X129724Y-60039D02*
X134646Y-55118D01*
X122913Y23150D02*
Y29921D01*
X147638Y-2165D02*
Y2362D01*
X147835Y2559D01*
X75787Y85433D02*
X85433D01*
X122913Y3228D02*
Y9961D01*
X75787Y78543D02*
Y85433D01*
X153917Y59862D02*
X153937Y59842D01*
X147323Y59862D02*
X153917D01*
X47244Y148150D02*
Y150886D01*
X105905Y30118D02*
X110827D01*
X147638Y85827D02*
Y92106D01*
X127795Y85984D02*
Y92264D01*
X94311Y31102D02*
X99213D01*
X132913Y22992D02*
Y29921D01*
X98622Y65158D02*
X103150D01*
X120472Y51161D02*
Y55689D01*
X122795Y99370D02*
X123425Y100000D01*
X129331D02*
X134252D01*
X100787Y38189D02*
X105118D01*
X94961Y49075D02*
X99528D01*
X103327Y45276D01*
X110413Y38189D01*
X112598D01*
X72047Y65354D02*
X76811D01*
X68917Y6673D02*
X75906D01*
X68504Y44075D02*
X75906D01*
X87008Y44094D02*
X88760Y42342D01*
Y37795D02*
Y42342D01*
X45256Y152874D02*
X47244Y150886D01*
D54*
X118307Y80315D02*
Y81226D01*
X144882Y122441D02*
Y131870D01*
X129955Y133543D02*
X143209D01*
X144291Y132461D01*
X127795Y65905D02*
Y73091D01*
Y65905D02*
X127953Y65748D01*
X94961Y54075D02*
X102224D01*
X93701Y787D02*
X94961Y2047D01*
Y6673D01*
X92520Y-7087D02*
X102756Y3150D01*
X72835Y-7087D02*
X92520D01*
X56299Y-23622D02*
X72835Y-7087D01*
X56299Y-48622D02*
Y-23622D01*
X61811Y16142D02*
Y29528D01*
X66280Y11673D02*
X75906D01*
X48228Y34744D02*
X56595D01*
X61811Y29528D01*
Y16142D02*
X66280Y11673D01*
X45098Y158386D02*
X48031Y161319D01*
Y170236D01*
X45118Y173150D02*
X48031Y170236D01*
X113892Y149606D02*
X129955Y133543D01*
X144291Y132461D02*
X144882Y131870D01*
X147323Y44862D02*
X154311D01*
X155905Y82677D02*
X157480Y81102D01*
Y52362D02*
Y81102D01*
X154980Y49862D02*
X157480Y52362D01*
X137992Y44761D02*
X143973Y38780D01*
X95276Y-9055D02*
X120866Y16535D01*
X143973Y38780D02*
X150591D01*
X155709Y33661D01*
Y21457D02*
Y33661D01*
X150787Y16535D02*
X155709Y21457D01*
X120866Y16535D02*
X150787D01*
X95276Y-48622D02*
Y-9055D01*
X148031Y20079D02*
X152913Y24961D01*
X114035Y20079D02*
X148031D01*
X94961Y16673D02*
X110630D01*
X114035Y20079D01*
X136220Y44027D02*
X147638Y32609D01*
X144707Y40551D02*
X151575D01*
X157480Y34646D01*
Y-15354D02*
Y34646D01*
X134646Y-38189D02*
X157480Y-15354D01*
X134646Y-48622D02*
Y-38189D01*
X102756Y3150D02*
Y10236D01*
X147323Y49862D02*
X154980D01*
X120295Y82677D02*
X155905D01*
X116535Y86437D02*
X120295Y82677D01*
X95079Y85433D02*
X115532D01*
X116535Y86437D01*
X118307Y80315D02*
X132677D01*
X137795Y75197D01*
Y73091D02*
Y75197D01*
X70846Y59075D02*
X75906D01*
X68504Y61417D02*
X70846Y59075D01*
X68504Y61417D02*
Y68504D01*
X73091Y73091D01*
X122795D01*
X133858Y67323D02*
X141575D01*
X132795Y68386D02*
X133858Y67323D01*
X132795Y68386D02*
Y73091D01*
X142795Y68543D02*
Y73091D01*
X141575Y67323D02*
X142795Y68543D01*
X127894Y60236D02*
X128268Y59862D01*
X119567Y60236D02*
X127894D01*
X147638Y72933D02*
X147795Y73091D01*
X147638Y65748D02*
Y72933D01*
X142913Y22835D02*
Y29921D01*
X139764Y45494D02*
X144707Y40551D01*
X139764Y45494D02*
Y52756D01*
X136220Y44027D02*
Y44095D01*
X136221Y46600D02*
Y53150D01*
X134508Y54862D02*
X136221Y53150D01*
X128268Y54862D02*
X134508D01*
X136221Y46600D02*
X137992Y44828D01*
Y44761D02*
Y44828D01*
X130453Y49862D02*
X136220Y44095D01*
X38858Y178504D02*
X39016Y178661D01*
X38858Y173150D02*
Y178504D01*
X38996Y152874D02*
X39154Y153032D01*
Y158386D01*
X141870Y54862D02*
X147323D01*
X139764Y52756D02*
X141870Y54862D01*
X128268Y49862D02*
X130453D01*
X152913Y24961D02*
Y29921D01*
X101787Y28953D02*
Y32169D01*
X98425Y34075D02*
X99882D01*
X101787Y32169D01*
X99606Y26772D02*
X101787Y28953D01*
X88189Y26772D02*
X99606D01*
X85827Y24409D02*
X88189Y26772D01*
X94705Y37795D02*
X98425Y34075D01*
X85827Y18898D02*
Y24409D01*
X78602Y11673D02*
X85827Y18898D01*
X75906Y11673D02*
X78602D01*
X94961D02*
X101319D01*
X102756Y10236D01*
X68917Y21673D02*
X75906D01*
X68898Y21654D02*
X68917Y21673D01*
X83287Y31102D02*
X88366D01*
X83287Y19902D02*
Y31102D01*
X80059Y16673D02*
X83287Y19902D01*
X75906Y16673D02*
X80059D01*
X94705Y43819D02*
X94961Y44075D01*
X94705Y37795D02*
Y43819D01*
X75906Y21673D02*
X77342Y23110D01*
Y31102D01*
X48228Y52244D02*
X51398Y49075D01*
X75906D01*
X83031Y65354D02*
X88228D01*
X83031Y56260D02*
Y65354D01*
X80847Y54075D02*
X83031Y56260D01*
X75906Y54075D02*
X80847D01*
X77342Y37795D02*
Y43917D01*
X77185Y44075D02*
X77342Y43917D01*
X75906Y44075D02*
X77185D01*
X75906Y49075D02*
X81634D01*
X83287Y47421D01*
Y37795D02*
Y47421D01*
X45098Y158386D02*
X53878Y149606D01*
X113892D01*
D55*
X125276Y9843D02*
D03*
X145276D02*
D03*
D56*
X150197Y93110D02*
D03*
D57*
X130118Y92520D02*
D03*
D58*
X130315Y29921D02*
D03*
D59*
X134252Y140551D02*
D03*
Y110630D02*
D03*
X74252D02*
D03*
X84252Y140551D02*
D03*
D60*
X48228Y34744D02*
D03*
Y52244D02*
D03*
Y73740D02*
D03*
Y91240D02*
D03*
X23228D02*
D03*
Y73740D02*
D03*
Y52244D02*
D03*
Y34744D02*
D03*
D61*
X-787Y62992D02*
D03*
X44213Y116496D02*
D03*
Y9488D02*
D03*
D62*
X127953Y65748D02*
D03*
X102224Y54075D02*
D03*
X93701Y787D02*
D03*
X56299Y-55118D02*
D03*
X95276D02*
D03*
X134646D02*
D03*
X122913Y23150D02*
D03*
X144882Y122441D02*
D03*
X154311Y44862D02*
D03*
X142913Y3150D02*
D03*
X147638Y-2165D02*
D03*
X85433Y85433D02*
D03*
X122913Y3228D02*
D03*
X75787Y78543D02*
D03*
X119567Y60236D02*
D03*
X147638Y65748D02*
D03*
X142913Y22835D02*
D03*
X153937Y59842D02*
D03*
X47244Y148150D02*
D03*
X110827Y30118D02*
D03*
X152795Y78701D02*
D03*
X147638Y85827D02*
D03*
X127795Y85984D02*
D03*
X99213Y31102D02*
D03*
X132913Y22992D02*
D03*
X98622Y65158D02*
D03*
X68898Y21654D02*
D03*
X120472Y55689D02*
D03*
X134252Y100000D02*
D03*
X105118Y38189D02*
D03*
X72047Y65354D02*
D03*
X68917Y6673D02*
D03*
X87008Y44094D02*
D03*
X68504Y44075D02*
D03*
X154724Y126378D02*
D03*
Y129921D02*
D03*
Y133465D02*
D03*
M02*
