M48
;Layer_Color=9474304
;FILE_FORMAT=2:5
INCH,TZ
;TYPE=PLATED
T1F00S00C0.01181
T2F00S00C0.05118
T3F00S00C0.07402
;TYPE=NON_PLATED
T4F00S00C0.13504
%
T01
X56299Y-55118
X95276
X134646
X147638Y-2165
X142913Y3150
X142913Y22835
X132913Y22992
X122913Y23150
X110827Y30118
X99213Y31102
X105118Y38189
X102224Y54075
X120472Y55689
X154311Y44862
X87008Y44094
X68504Y44075
X68898Y21654
X68917Y6673
X93701Y787
X122913Y3228
X119567Y60236
X127953Y65748
X147638
X153937Y59842
X152795Y78701
X147638Y85827
X127795Y85984
X134252Y100000
X144882Y122441
X154724Y126378
Y129921
Y133465
X85433Y85433
X75787Y78543
X72047Y65354
X98622Y65158
X47244Y148150
T02
X74252Y110630
X84252Y140551
X134252
Y110630
T03
X23228Y34744
Y52244
X48228
Y34744
Y73740
Y91240
X23228
Y73740
T04
X44213Y9488
Y116496
X-787Y62992
M30
