G04*
G04 #@! TF.GenerationSoftware,Altium Limited,Altium Designer,20.2.5 (213)*
G04*
G04 Layer_Physical_Order=2*
G04 Layer_Color=16711680*
%FSLAX25Y25*%
%MOIN*%
G70*
G04*
G04 #@! TF.SameCoordinates,E7457EF0-435F-4A9A-9950-3147239DC6E2*
G04*
G04*
G04 #@! TF.FilePolarity,Positive*
G04*
G01*
G75*
%ADD54C,0.01181*%
%ADD59C,0.10236*%
%ADD60C,0.14803*%
%ADD61C,0.06000*%
%ADD62C,0.01968*%
G04:AMPARAMS|DCode=63|XSize=72.05mil|YSize=75.59mil|CornerRadius=9.73mil|HoleSize=0mil|Usage=FLASHONLY|Rotation=0.000|XOffset=0mil|YOffset=0mil|HoleType=Round|Shape=RoundedRectangle|*
%AMROUNDEDRECTD63*
21,1,0.07205,0.05614,0,0,0.0*
21,1,0.05259,0.07559,0,0,0.0*
1,1,0.01945,0.02630,-0.02807*
1,1,0.01945,-0.02630,-0.02807*
1,1,0.01945,-0.02630,0.02807*
1,1,0.01945,0.02630,0.02807*
%
%ADD63ROUNDEDRECTD63*%
G04:AMPARAMS|DCode=64|XSize=72.05mil|YSize=75.59mil|CornerRadius=9.73mil|HoleSize=0mil|Usage=FLASHONLY|Rotation=270.000|XOffset=0mil|YOffset=0mil|HoleType=Round|Shape=RoundedRectangle|*
%AMROUNDEDRECTD64*
21,1,0.07205,0.05614,0,0,270.0*
21,1,0.05259,0.07559,0,0,270.0*
1,1,0.01945,-0.02807,-0.02630*
1,1,0.01945,-0.02807,0.02630*
1,1,0.01945,0.02807,0.02630*
1,1,0.01945,0.02807,-0.02630*
%
%ADD64ROUNDEDRECTD64*%
%ADD65C,0.07874*%
%ADD66C,0.09843*%
%ADD67C,0.06693*%
G36*
X155901Y199000D02*
X156807Y198625D01*
X157623Y198080D01*
X158316Y197386D01*
X158861Y196571D01*
X159236Y195665D01*
X159428Y194703D01*
Y194213D01*
Y137257D01*
X159292Y137162D01*
X158928Y137067D01*
X154867Y141127D01*
X154341Y141479D01*
X153720Y141602D01*
X146280D01*
X145659Y141479D01*
X145133Y141127D01*
X142554Y138548D01*
X142202Y138022D01*
X142079Y137402D01*
Y122441D01*
X142202Y121820D01*
X142554Y121294D01*
X143080Y120943D01*
X143701Y120819D01*
X143729Y120825D01*
X144108Y120572D01*
X144882Y120418D01*
X145656Y120572D01*
X146312Y121010D01*
X146751Y121667D01*
X146905Y122441D01*
X146751Y123215D01*
X146312Y123872D01*
X145656Y124310D01*
X145323Y124376D01*
Y136730D01*
X146951Y138359D01*
X153049D01*
X156252Y135155D01*
Y49097D01*
X153974Y46818D01*
X153537Y46731D01*
X152881Y46293D01*
X152442Y45636D01*
X152288Y44862D01*
X152442Y44088D01*
X152881Y43432D01*
X153537Y42993D01*
X154311Y42839D01*
X155085Y42993D01*
X155742Y43432D01*
X156180Y44088D01*
X156267Y44524D01*
X156268Y44526D01*
X158928Y47185D01*
X159292Y47089D01*
X159428Y46995D01*
Y-67835D01*
Y-68325D01*
X159236Y-69287D01*
X158861Y-70193D01*
X158316Y-71008D01*
X157623Y-71702D01*
X156807Y-72247D01*
X155901Y-72622D01*
X154939Y-72813D01*
X154449D01*
X-32283Y-72813D01*
X-32283Y-72813D01*
X-32283Y-72813D01*
X-32774Y-72813D01*
X-33735Y-72621D01*
X-34640Y-72246D01*
X-35455Y-71701D01*
X-36148Y-71007D01*
X-36692Y-70192D01*
X-37067Y-69286D01*
X-37258Y-68325D01*
Y-67835D01*
Y144213D01*
X-37262Y144225D01*
Y194213D01*
Y194703D01*
X-37071Y195665D01*
X-36696Y196571D01*
X-36151Y197386D01*
X-35457Y198080D01*
X-34642Y198625D01*
X-33736Y199000D01*
X-32774Y199191D01*
X154939D01*
X155901Y199000D01*
D02*
G37*
G36*
X155703Y45419D02*
X155625Y45340D01*
X155396Y45078D01*
X155360Y45026D01*
X155331Y44979D01*
X155311Y44938D01*
X155299Y44902D01*
X155295Y44872D01*
X154321Y45846D01*
X154351Y45850D01*
X154387Y45862D01*
X154428Y45882D01*
X154474Y45911D01*
X154526Y45948D01*
X154647Y46046D01*
X154789Y46176D01*
X154868Y46254D01*
X155703Y45419D01*
D02*
G37*
%LPC*%
G36*
X134252Y146699D02*
X133053Y146581D01*
X131899Y146231D01*
X130836Y145663D01*
X130052Y145019D01*
X128093Y144897D01*
X124843Y144969D01*
X124520Y144993D01*
X124391Y145010D01*
X124372Y145014D01*
X124338Y145024D01*
X124307Y145027D01*
X123673Y145153D01*
X118059D01*
X117290Y145000D01*
X116637Y144564D01*
X116201Y143911D01*
X116048Y143141D01*
Y137882D01*
X116201Y137112D01*
X116637Y136460D01*
X117290Y136024D01*
X118059Y135871D01*
X123673D01*
X124117Y135959D01*
X129342Y136100D01*
X129902Y136068D01*
X130083Y136047D01*
X130101Y136043D01*
X130836Y135440D01*
X131899Y134871D01*
X133053Y134522D01*
X134252Y134404D01*
X135451Y134522D01*
X136605Y134871D01*
X137668Y135440D01*
X138599Y136204D01*
X139364Y137136D01*
X139932Y138199D01*
X140281Y139352D01*
X140400Y140551D01*
X140281Y141751D01*
X139932Y142904D01*
X139364Y143967D01*
X138599Y144898D01*
X137668Y145663D01*
X136605Y146231D01*
X135451Y146581D01*
X134252Y146699D01*
D02*
G37*
G36*
X84252D02*
X83053Y146581D01*
X81899Y146231D01*
X80836Y145663D01*
X79905Y144898D01*
X79140Y143967D01*
X79011Y143725D01*
X52978Y117692D01*
X52613Y117246D01*
X52095Y117403D01*
X52031Y118051D01*
X51577Y119547D01*
X50841Y120925D01*
X49849Y122133D01*
X48641Y123124D01*
X47263Y123861D01*
X45768Y124314D01*
X44213Y124468D01*
X42658Y124314D01*
X41162Y123861D01*
X39784Y123124D01*
X38576Y122133D01*
X37585Y120925D01*
X36848Y119547D01*
X36394Y118051D01*
X36241Y116496D01*
X36394Y114941D01*
X36848Y113445D01*
X37585Y112067D01*
X38576Y110859D01*
X39784Y109868D01*
X41162Y109131D01*
X42658Y108678D01*
X44213Y108525D01*
X45768Y108678D01*
X47263Y109131D01*
X48641Y109868D01*
X49849Y110859D01*
X50735Y111939D01*
X51235Y111776D01*
Y102661D01*
X50297Y101723D01*
X48676Y100180D01*
X48136Y99721D01*
X48062Y99666D01*
X46581Y99520D01*
X44998Y99040D01*
X43538Y98260D01*
X42513Y97419D01*
X38394Y97190D01*
X32103D01*
X29866Y97245D01*
X29160Y97302D01*
X29068Y97316D01*
X27919Y98260D01*
X26459Y99040D01*
X24875Y99520D01*
X23228Y99682D01*
X21581Y99520D01*
X19998Y99040D01*
X18538Y98260D01*
X17259Y97210D01*
X16209Y95930D01*
X15429Y94471D01*
X14948Y92887D01*
X14786Y91240D01*
X14948Y89593D01*
X15429Y88010D01*
X16209Y86550D01*
X17259Y85271D01*
X18538Y84221D01*
X19998Y83441D01*
X21581Y82960D01*
X23228Y82798D01*
X24875Y82960D01*
X26459Y83441D01*
X27919Y84221D01*
X28943Y85062D01*
X33063Y85290D01*
X39354D01*
X41590Y85235D01*
X42297Y85178D01*
X42388Y85164D01*
X43538Y84221D01*
X44998Y83441D01*
X46581Y82960D01*
X48228Y82798D01*
X49875Y82960D01*
X49967Y82988D01*
X50212Y82540D01*
X50174Y82507D01*
X49870Y82276D01*
X49631Y82116D01*
X49520Y82055D01*
X48228Y82182D01*
X46581Y82020D01*
X44998Y81540D01*
X43538Y80760D01*
X42513Y79919D01*
X38394Y79690D01*
X32103D01*
X29866Y79745D01*
X29160Y79802D01*
X29068Y79816D01*
X27919Y80760D01*
X26459Y81540D01*
X24875Y82020D01*
X23228Y82182D01*
X21581Y82020D01*
X19998Y81540D01*
X18538Y80760D01*
X17259Y79710D01*
X16209Y78430D01*
X15429Y76971D01*
X14948Y75387D01*
X14786Y73740D01*
X14948Y72093D01*
X15429Y70509D01*
X16209Y69050D01*
X17259Y67771D01*
X18538Y66721D01*
X19998Y65941D01*
X21581Y65460D01*
X23228Y65298D01*
X24875Y65460D01*
X26459Y65941D01*
X27919Y66721D01*
X28943Y67562D01*
X33063Y67790D01*
X39354D01*
X41590Y67735D01*
X42297Y67678D01*
X42388Y67664D01*
X43538Y66721D01*
X44998Y65941D01*
X46581Y65460D01*
X48228Y65298D01*
X49875Y65460D01*
X51459Y65941D01*
X52919Y66721D01*
X54198Y67771D01*
X55248Y69050D01*
X56028Y70509D01*
X56402Y71742D01*
X56444Y71777D01*
X78459Y93792D01*
X79199Y94694D01*
X79749Y95722D01*
X80088Y96838D01*
X80202Y97999D01*
Y109168D01*
X80282Y109431D01*
X80400Y110630D01*
X80282Y111829D01*
X79932Y112982D01*
X79364Y114045D01*
X78599Y114977D01*
X77667Y115742D01*
X76605Y116310D01*
X75451Y116659D01*
X74252Y116778D01*
X73053Y116659D01*
X71899Y116310D01*
X70837Y115742D01*
X69905Y114977D01*
X69140Y114045D01*
X68572Y112982D01*
X68222Y111829D01*
X68104Y110630D01*
X68222Y109431D01*
X68302Y109168D01*
Y100464D01*
X56834Y88996D01*
X56405Y89253D01*
X56508Y89593D01*
X56638Y90912D01*
X59390Y93987D01*
X61392Y95990D01*
X62132Y96891D01*
X62682Y97920D01*
X63021Y99036D01*
X63135Y100197D01*
Y111020D01*
X87425Y135310D01*
X87667Y135440D01*
X88599Y136204D01*
X89364Y137136D01*
X89932Y138199D01*
X90282Y139352D01*
X90400Y140551D01*
X90282Y141751D01*
X89932Y142904D01*
X89364Y143967D01*
X88599Y144898D01*
X87667Y145663D01*
X86605Y146231D01*
X85451Y146581D01*
X84252Y146699D01*
D02*
G37*
G36*
X134252Y116778D02*
X133053Y116659D01*
X131899Y116310D01*
X130836Y115742D01*
X129905Y114977D01*
X129140Y114045D01*
X128572Y112982D01*
X128222Y111829D01*
X128104Y110630D01*
X128222Y109431D01*
X128572Y108277D01*
X129140Y107214D01*
X129905Y106283D01*
X130836Y105518D01*
X131899Y104950D01*
X133053Y104600D01*
X134252Y104482D01*
X135451Y104600D01*
X136605Y104950D01*
X137668Y105518D01*
X138599Y106283D01*
X139364Y107214D01*
X139932Y108277D01*
X140281Y109431D01*
X140400Y110630D01*
X140281Y111829D01*
X139932Y112982D01*
X139364Y114045D01*
X138599Y114977D01*
X137668Y115742D01*
X136605Y116310D01*
X135451Y116659D01*
X134252Y116778D01*
D02*
G37*
G36*
X119567Y62259D02*
X118792Y62105D01*
X118422Y61858D01*
X118420Y61858D01*
X72205D01*
X71584Y61734D01*
X71058Y61383D01*
X70860Y61185D01*
X69406Y59839D01*
X68631Y59214D01*
X67878Y58672D01*
X67158Y58217D01*
X66472Y57850D01*
X65823Y57568D01*
X65211Y57369D01*
X64638Y57249D01*
X64269Y57216D01*
X64213Y57224D01*
X58008D01*
X56788Y57308D01*
X56219Y57386D01*
X55709Y57486D01*
X55271Y57603D01*
X54905Y57734D01*
X54615Y57872D01*
X54397Y58010D01*
X54287Y58104D01*
X54198Y58214D01*
X52919Y59263D01*
X51459Y60044D01*
X49875Y60524D01*
X48228Y60686D01*
X46581Y60524D01*
X44998Y60044D01*
X43538Y59263D01*
X42259Y58214D01*
X41209Y56934D01*
X40429Y55475D01*
X39948Y53891D01*
X39786Y52244D01*
X39948Y50597D01*
X40429Y49013D01*
X41209Y47554D01*
X42259Y46275D01*
X43538Y45225D01*
X44998Y44445D01*
X46581Y43964D01*
X48228Y43802D01*
X49875Y43964D01*
X51459Y44445D01*
X52919Y45225D01*
X54198Y46275D01*
X54287Y46384D01*
X54397Y46479D01*
X54615Y46617D01*
X54905Y46755D01*
X55271Y46885D01*
X55709Y47002D01*
X56219Y47102D01*
X56788Y47180D01*
X58008Y47265D01*
X64213D01*
X65439Y47426D01*
X66842D01*
X67612Y47579D01*
X68265Y48015D01*
X68700Y48667D01*
X68854Y49437D01*
Y50547D01*
X69023Y50955D01*
X69192Y52244D01*
X69185Y52300D01*
X69217Y52669D01*
X69338Y53242D01*
X69537Y53854D01*
X69819Y54504D01*
X70186Y55190D01*
X70640Y55910D01*
X71175Y56652D01*
X72543Y58266D01*
X72878Y58614D01*
X118422D01*
X118792Y58367D01*
X119567Y58213D01*
X120341Y58367D01*
X120997Y58806D01*
X121436Y59462D01*
X121590Y60236D01*
X121436Y61010D01*
X120997Y61667D01*
X120341Y62105D01*
X119567Y62259D01*
D02*
G37*
G36*
X-787Y70964D02*
X-2342Y70810D01*
X-3838Y70357D01*
X-5216Y69620D01*
X-6424Y68629D01*
X-7415Y67421D01*
X-8152Y66043D01*
X-8606Y64547D01*
X-8759Y62992D01*
X-8606Y61437D01*
X-8152Y59942D01*
X-7415Y58563D01*
X-6424Y57355D01*
X-5216Y56364D01*
X-3838Y55628D01*
X-2342Y55174D01*
X-787Y55021D01*
X768Y55174D01*
X2263Y55628D01*
X3641Y56364D01*
X4849Y57355D01*
X5841Y58563D01*
X6577Y59942D01*
X7031Y61437D01*
X7184Y62992D01*
X7031Y64547D01*
X6577Y66043D01*
X5841Y67421D01*
X4849Y68629D01*
X3641Y69620D01*
X2263Y70357D01*
X768Y70810D01*
X-787Y70964D01*
D02*
G37*
G36*
X127953Y67771D02*
X127179Y67617D01*
X126522Y67179D01*
X126084Y66522D01*
X125930Y65748D01*
X126084Y64974D01*
X126331Y64604D01*
X126331Y64602D01*
Y58300D01*
X122015Y53984D01*
X104609D01*
X104180Y54412D01*
X104094Y54849D01*
X103655Y55505D01*
X102999Y55944D01*
X102224Y56098D01*
X101450Y55944D01*
X100794Y55505D01*
X100355Y54849D01*
X100201Y54075D01*
X100355Y53301D01*
X100794Y52644D01*
X101450Y52206D01*
X101887Y52119D01*
X101888Y52118D01*
X102790Y51215D01*
X103316Y50864D01*
X103937Y50740D01*
X122687D01*
X123308Y50864D01*
X123834Y51215D01*
X129100Y56481D01*
X129451Y57007D01*
X129575Y57628D01*
Y64604D01*
X129822Y64974D01*
X129976Y65748D01*
X129822Y66522D01*
X129383Y67179D01*
X128727Y67617D01*
X127953Y67771D01*
D02*
G37*
G36*
X23228Y60686D02*
X21581Y60524D01*
X19998Y60044D01*
X18538Y59263D01*
X17259Y58214D01*
X16209Y56934D01*
X16131Y56788D01*
X16024Y56652D01*
X15852Y56498D01*
X15613Y56343D01*
X15297Y56192D01*
X14904Y56053D01*
X14432Y55933D01*
X13897Y55838D01*
X12646Y55728D01*
X8661D01*
X7373Y55558D01*
X6965Y55389D01*
X5855D01*
X5085Y55236D01*
X4432Y54800D01*
X3996Y54147D01*
X3843Y53378D01*
Y51974D01*
X3682Y50748D01*
X3843Y49522D01*
Y48118D01*
X3996Y47349D01*
X4432Y46696D01*
X5085Y46260D01*
X5855Y46107D01*
X6965D01*
X7373Y45938D01*
X8661Y45768D01*
X14974D01*
X15972Y45730D01*
X17110Y45621D01*
X17554Y45552D01*
X17930Y45473D01*
X18221Y45390D01*
X18421Y45312D01*
X18456Y45292D01*
X18538Y45225D01*
X19998Y44445D01*
X21581Y43964D01*
X23228Y43802D01*
X24875Y43964D01*
X26459Y44445D01*
X27919Y45225D01*
X29198Y46275D01*
X30248Y47554D01*
X31028Y49013D01*
X31508Y50597D01*
X31671Y52244D01*
X31508Y53891D01*
X31028Y55475D01*
X30248Y56934D01*
X29198Y58214D01*
X27919Y59263D01*
X26459Y60044D01*
X24875Y60524D01*
X23228Y60686D01*
D02*
G37*
G36*
X48228Y43186D02*
X46581Y43024D01*
X44998Y42544D01*
X43538Y41763D01*
X42259Y40714D01*
X41209Y39434D01*
X40429Y37975D01*
X39948Y36391D01*
X39786Y34744D01*
X39948Y33097D01*
X40429Y31513D01*
X41209Y30054D01*
X42259Y28774D01*
X43538Y27725D01*
X44998Y26945D01*
X46581Y26464D01*
X48228Y26302D01*
X49875Y26464D01*
X51459Y26945D01*
X52919Y27725D01*
X54198Y28774D01*
X54407Y29029D01*
X54412Y29032D01*
X54625Y29231D01*
X54837Y29376D01*
X55121Y29520D01*
X55478Y29658D01*
X55910Y29781D01*
X56414Y29886D01*
X56976Y29969D01*
X58208Y30060D01*
X63858D01*
X65084Y30221D01*
X66488D01*
X67258Y30374D01*
X67910Y30810D01*
X68346Y31463D01*
X68499Y32232D01*
Y33343D01*
X68668Y33751D01*
X68838Y35039D01*
X68668Y36328D01*
X68499Y36736D01*
Y37846D01*
X68346Y38616D01*
X67910Y39268D01*
X67258Y39704D01*
X66488Y39858D01*
X65084D01*
X63858Y40019D01*
X57704D01*
X57253Y40040D01*
X55994Y40171D01*
X55490Y40263D01*
X55045Y40373D01*
X54674Y40495D01*
X54378Y40626D01*
X54157Y40755D01*
X53939Y40929D01*
X53930Y40934D01*
X52919Y41763D01*
X51459Y42544D01*
X49875Y43024D01*
X48228Y43186D01*
D02*
G37*
G36*
X147638Y67771D02*
X146864Y67617D01*
X146207Y67179D01*
X145769Y66522D01*
X145682Y66086D01*
X145681Y66084D01*
X141767Y62170D01*
X141415Y61644D01*
X141292Y61024D01*
Y23979D01*
X141044Y23609D01*
X140890Y22835D01*
X141044Y22061D01*
X141483Y21404D01*
X142139Y20966D01*
X142913Y20811D01*
X143688Y20966D01*
X144344Y21404D01*
X144782Y22061D01*
X144937Y22835D01*
X144782Y23609D01*
X144535Y23979D01*
X144535Y23981D01*
Y60352D01*
X147975Y63792D01*
X148412Y63879D01*
X149068Y64318D01*
X149507Y64974D01*
X149661Y65748D01*
X149507Y66522D01*
X149068Y67179D01*
X148412Y67617D01*
X147638Y67771D01*
D02*
G37*
G36*
X44213Y17460D02*
X42658Y17307D01*
X41162Y16853D01*
X39784Y16116D01*
X38576Y15125D01*
X37585Y13917D01*
X36848Y12539D01*
X36394Y11043D01*
X36241Y9488D01*
X36394Y7933D01*
X36848Y6438D01*
X37585Y5060D01*
X38576Y3852D01*
X39784Y2860D01*
X41162Y2124D01*
X42658Y1670D01*
X44213Y1517D01*
X45768Y1670D01*
X47263Y2124D01*
X48641Y2860D01*
X49849Y3852D01*
X50841Y5060D01*
X51577Y6438D01*
X52031Y7933D01*
X52184Y9488D01*
X52031Y11043D01*
X51577Y12539D01*
X50841Y13917D01*
X49849Y15125D01*
X48641Y16116D01*
X47263Y16853D01*
X45768Y17307D01*
X44213Y17460D01*
D02*
G37*
G36*
X68898Y23677D02*
X68123Y23523D01*
X67467Y23084D01*
X67028Y22428D01*
X66874Y21654D01*
X67028Y20879D01*
X67467Y20223D01*
X68123Y19784D01*
X68560Y19698D01*
X68561Y19696D01*
X88617Y-359D01*
X89143Y-711D01*
X89764Y-834D01*
X92556D01*
X92927Y-1082D01*
X93701Y-1236D01*
X94475Y-1082D01*
X95131Y-643D01*
X95570Y13D01*
X95724Y787D01*
X95570Y1562D01*
X95131Y2218D01*
X94475Y2657D01*
X93701Y2811D01*
X92927Y2657D01*
X92557Y2409D01*
X92555Y2409D01*
X90435D01*
X70854Y21991D01*
X70767Y22428D01*
X70328Y23084D01*
X69672Y23523D01*
X68898Y23677D01*
D02*
G37*
%LPD*%
G36*
X130571Y143860D02*
X131022Y143858D01*
Y137165D01*
X130623Y137155D01*
X130625Y136941D01*
X130552Y136983D01*
X130422Y137022D01*
X130235Y137055D01*
X129992Y137084D01*
X129357Y137120D01*
X124048Y136977D01*
Y144046D01*
X124168Y144011D01*
X124417Y143979D01*
X124794Y143950D01*
X128113Y143877D01*
X130361Y144017D01*
X130493Y144059D01*
X130570Y144106D01*
X130571Y143860D01*
D02*
G37*
G36*
X58758Y94810D02*
X55629Y91314D01*
X48302Y98641D01*
X48403Y98672D01*
X48559Y98765D01*
X48770Y98921D01*
X49358Y99422D01*
X51199Y101174D01*
X51798Y101769D01*
X58758Y94810D01*
D02*
G37*
G36*
X42943Y86059D02*
X42850Y86108D01*
X42674Y86153D01*
X42414Y86192D01*
X41644Y86254D01*
X39103Y86316D01*
X38259Y86319D01*
Y96161D01*
X42943Y96421D01*
Y86059D01*
D02*
G37*
G36*
X28607Y96372D02*
X28783Y96328D01*
X29043Y96289D01*
X29812Y96226D01*
X32354Y96164D01*
X33198Y96161D01*
Y86319D01*
X28514Y86059D01*
Y96421D01*
X28607Y96372D01*
D02*
G37*
G36*
X60890Y77677D02*
X55536Y72566D01*
X49549Y81023D01*
X49703Y81032D01*
X49907Y81105D01*
X50160Y81243D01*
X50463Y81446D01*
X50815Y81714D01*
X51667Y82443D01*
X53315Y84022D01*
X60890Y77677D01*
D02*
G37*
G36*
X42943Y68559D02*
X42850Y68608D01*
X42674Y68653D01*
X42414Y68692D01*
X41644Y68754D01*
X39103Y68816D01*
X38259Y68819D01*
Y78661D01*
X42943Y78921D01*
Y68559D01*
D02*
G37*
G36*
X28607Y78872D02*
X28783Y78828D01*
X29043Y78789D01*
X29812Y78726D01*
X32354Y78664D01*
X33198Y78661D01*
Y68819D01*
X28514Y68559D01*
Y78921D01*
X28607Y78872D01*
D02*
G37*
G36*
X118864Y59547D02*
X118840Y59566D01*
X118806Y59583D01*
X118762Y59597D01*
X118709Y59610D01*
X118647Y59621D01*
X118492Y59637D01*
X118299Y59645D01*
X118189Y59646D01*
Y60827D01*
X118299Y60828D01*
X118647Y60851D01*
X118709Y60862D01*
X118762Y60875D01*
X118806Y60890D01*
X118840Y60906D01*
X118864Y60925D01*
Y59547D01*
D02*
G37*
G36*
X72622Y59819D02*
X71786Y58950D01*
X70372Y57281D01*
X69795Y56481D01*
X69304Y55703D01*
X68900Y54948D01*
X68582Y54216D01*
X68351Y53506D01*
X68207Y52819D01*
X68149Y52155D01*
X64123Y56180D01*
X64788Y56238D01*
X65474Y56383D01*
X66184Y56614D01*
X66916Y56931D01*
X67671Y57336D01*
X68449Y57826D01*
X69249Y58403D01*
X70073Y59067D01*
X71787Y60654D01*
X72622Y59819D01*
D02*
G37*
G36*
X53788Y57189D02*
X54121Y56977D01*
X54514Y56791D01*
X54967Y56629D01*
X55480Y56492D01*
X56052Y56380D01*
X56683Y56293D01*
X58126Y56194D01*
X58937Y56181D01*
Y48307D01*
X58126Y48295D01*
X56683Y48195D01*
X56052Y48108D01*
X55480Y47996D01*
X54967Y47859D01*
X54514Y47697D01*
X54121Y47511D01*
X53788Y47299D01*
X53514Y47063D01*
Y57425D01*
X53788Y57189D01*
D02*
G37*
G36*
X128623Y65021D02*
X128606Y64987D01*
X128592Y64944D01*
X128579Y64891D01*
X128568Y64828D01*
X128552Y64674D01*
X128544Y64481D01*
X128543Y64370D01*
X127362D01*
X127361Y64481D01*
X127338Y64828D01*
X127327Y64891D01*
X127314Y64944D01*
X127299Y64987D01*
X127283Y65021D01*
X127264Y65045D01*
X128642D01*
X128623Y65021D01*
D02*
G37*
G36*
X103212Y54035D02*
X103225Y53999D01*
X103245Y53958D01*
X103273Y53911D01*
X103310Y53859D01*
X103408Y53739D01*
X103539Y53597D01*
X103616Y53518D01*
X102781Y52683D01*
X102702Y52761D01*
X102440Y52989D01*
X102388Y53026D01*
X102341Y53054D01*
X102300Y53075D01*
X102264Y53087D01*
X102234Y53091D01*
X103209Y54065D01*
X103212Y54035D01*
D02*
G37*
G36*
X19099Y46101D02*
X18856Y46236D01*
X18548Y46357D01*
X18175Y46463D01*
X17738Y46556D01*
X17237Y46634D01*
X16040Y46747D01*
X14585Y46804D01*
X13761Y46811D01*
X11800Y54685D01*
X12607Y54701D01*
X14031Y54826D01*
X14647Y54935D01*
X15200Y55076D01*
X15688Y55248D01*
X16113Y55452D01*
X16474Y55686D01*
X16771Y55953D01*
X17004Y56250D01*
X19099Y46101D01*
D02*
G37*
G36*
X53578Y39912D02*
X53913Y39716D01*
X54308Y39543D01*
X54762Y39392D01*
X55276Y39265D01*
X55850Y39161D01*
X57176Y39023D01*
X57929Y38988D01*
X58741Y38976D01*
X59113Y31102D01*
X58303Y31089D01*
X56864Y30983D01*
X56235Y30891D01*
X55665Y30771D01*
X55155Y30626D01*
X54706Y30453D01*
X54316Y30255D01*
X53986Y30030D01*
X53717Y29778D01*
X53303Y40132D01*
X53578Y39912D01*
D02*
G37*
G36*
X147628Y64764D02*
X147598Y64760D01*
X147562Y64748D01*
X147521Y64728D01*
X147474Y64699D01*
X147422Y64663D01*
X147302Y64565D01*
X147160Y64434D01*
X147081Y64356D01*
X146246Y65191D01*
X146324Y65270D01*
X146552Y65533D01*
X146589Y65584D01*
X146617Y65631D01*
X146638Y65672D01*
X146650Y65708D01*
X146654Y65738D01*
X147628Y64764D01*
D02*
G37*
G36*
X143505Y24102D02*
X143529Y23755D01*
X143539Y23692D01*
X143552Y23639D01*
X143567Y23595D01*
X143584Y23562D01*
X143602Y23538D01*
X142224D01*
X142243Y23562D01*
X142260Y23595D01*
X142275Y23639D01*
X142287Y23692D01*
X142298Y23755D01*
X142314Y23909D01*
X142322Y24102D01*
X142323Y24213D01*
X143504D01*
X143505Y24102D01*
D02*
G37*
G36*
X69886Y21613D02*
X69898Y21578D01*
X69918Y21537D01*
X69946Y21490D01*
X69983Y21438D01*
X70081Y21318D01*
X70212Y21176D01*
X70290Y21097D01*
X69454Y20262D01*
X69375Y20339D01*
X69113Y20568D01*
X69061Y20605D01*
X69015Y20633D01*
X68973Y20653D01*
X68938Y20665D01*
X68907Y20669D01*
X69882Y21644D01*
X69886Y21613D01*
D02*
G37*
G36*
X92998Y98D02*
X92974Y117D01*
X92940Y134D01*
X92897Y149D01*
X92844Y161D01*
X92781Y172D01*
X92627Y188D01*
X92434Y196D01*
X92323Y197D01*
Y1378D01*
X92434Y1379D01*
X92781Y1403D01*
X92844Y1413D01*
X92897Y1426D01*
X92940Y1441D01*
X92974Y1458D01*
X92998Y1476D01*
Y98D01*
D02*
G37*
D54*
X143701Y122441D02*
Y137402D01*
X127953Y57628D02*
Y65748D01*
X122687Y52362D02*
X127953Y57628D01*
X103937Y52362D02*
X122687D01*
X102224Y54075D02*
X103937Y52362D01*
X68898Y21654D02*
X89764Y787D01*
X93701D01*
X143701Y137402D02*
X146280Y139980D01*
X153720D01*
X64213Y52244D02*
X72205Y60236D01*
X119567D01*
X142913Y61024D02*
X147638Y65748D01*
X142913Y22835D02*
Y61024D01*
X154311Y44862D02*
X157874Y48425D01*
Y135827D01*
X153720Y139980D02*
X157874Y135827D01*
D59*
X134252Y140551D02*
D03*
Y110630D02*
D03*
X74252D02*
D03*
X84252Y140551D02*
D03*
D60*
X48228Y34744D02*
D03*
Y52244D02*
D03*
Y73740D02*
D03*
Y91240D02*
D03*
X23228D02*
D03*
Y73740D02*
D03*
Y52244D02*
D03*
Y34744D02*
D03*
D61*
X-787Y62992D02*
D03*
X44213Y116496D02*
D03*
Y9488D02*
D03*
D62*
X127953Y65748D02*
D03*
X102224Y54075D02*
D03*
X93701Y787D02*
D03*
X56299Y-55118D02*
D03*
X95276D02*
D03*
X134646D02*
D03*
X122913Y23150D02*
D03*
X144882Y122441D02*
D03*
X154311Y44862D02*
D03*
X142913Y3150D02*
D03*
X147638Y-2165D02*
D03*
X85433Y85433D02*
D03*
X122913Y3228D02*
D03*
X75787Y78543D02*
D03*
X119567Y60236D02*
D03*
X147638Y65748D02*
D03*
X142913Y22835D02*
D03*
X153937Y59842D02*
D03*
X47244Y148150D02*
D03*
X110827Y30118D02*
D03*
X152795Y78701D02*
D03*
X147638Y85827D02*
D03*
X127795Y85984D02*
D03*
X99213Y31102D02*
D03*
X132913Y22992D02*
D03*
X98622Y65158D02*
D03*
X68898Y21654D02*
D03*
X120472Y55689D02*
D03*
X134252Y100000D02*
D03*
X105118Y38189D02*
D03*
X72047Y65354D02*
D03*
X68917Y6673D02*
D03*
X87008Y44094D02*
D03*
X68504Y44075D02*
D03*
X154724Y126378D02*
D03*
Y129921D02*
D03*
Y133465D02*
D03*
D63*
X77953Y35039D02*
D03*
X63858D02*
D03*
X78307Y52244D02*
D03*
X64213D02*
D03*
D64*
X8661Y36654D02*
D03*
Y50748D02*
D03*
X120866Y126417D02*
D03*
Y140512D02*
D03*
D65*
X21732Y50748D02*
X23228Y52244D01*
X8661Y50748D02*
X21732D01*
X48228Y34744D02*
X48524Y35039D01*
X63858D01*
X48228Y52244D02*
X64213D01*
D66*
X23228Y91240D02*
X48228D01*
X57185Y100197D01*
Y113484D01*
X84252Y140551D01*
X52237Y75984D02*
X74252Y97999D01*
X50472Y75984D02*
X52237D01*
X48228Y73740D02*
X50472Y75984D01*
X74252Y97999D02*
Y110630D01*
X23228Y73740D02*
X48228D01*
D67*
X120866Y140512D02*
X133819D01*
M02*
