G04*
G04 #@! TF.GenerationSoftware,Altium Limited,Altium Designer,20.2.5 (213)*
G04*
G04 Layer_Color=16711935*
%FSLAX25Y25*%
%MOIN*%
G70*
G04*
G04 #@! TF.SameCoordinates,E7457EF0-435F-4A9A-9950-3147239DC6E2*
G04*
G04*
G04 #@! TF.FilePolarity,Negative*
G04*
G01*
G75*
%ADD37C,0.11036*%
%ADD38C,0.15603*%
%ADD39C,0.06800*%
G04:AMPARAMS|DCode=68|XSize=80.05mil|YSize=83.59mil|CornerRadius=13.73mil|HoleSize=0mil|Usage=FLASHONLY|Rotation=0.000|XOffset=0mil|YOffset=0mil|HoleType=Round|Shape=RoundedRectangle|*
%AMROUNDEDRECTD68*
21,1,0.08005,0.05614,0,0,0.0*
21,1,0.05259,0.08359,0,0,0.0*
1,1,0.02745,0.02630,-0.02807*
1,1,0.02745,-0.02630,-0.02807*
1,1,0.02745,-0.02630,0.02807*
1,1,0.02745,0.02630,0.02807*
%
%ADD68ROUNDEDRECTD68*%
G04:AMPARAMS|DCode=69|XSize=80.05mil|YSize=83.59mil|CornerRadius=13.73mil|HoleSize=0mil|Usage=FLASHONLY|Rotation=270.000|XOffset=0mil|YOffset=0mil|HoleType=Round|Shape=RoundedRectangle|*
%AMROUNDEDRECTD69*
21,1,0.08005,0.05614,0,0,270.0*
21,1,0.05259,0.08359,0,0,270.0*
1,1,0.02745,-0.02807,-0.02630*
1,1,0.02745,-0.02807,0.02630*
1,1,0.02745,0.02807,0.02630*
1,1,0.02745,0.02807,-0.02630*
%
%ADD69ROUNDEDRECTD69*%
D37*
X134252Y140551D02*
D03*
Y110630D02*
D03*
X74252D02*
D03*
X84252Y140551D02*
D03*
D38*
X48228Y34744D02*
D03*
Y52244D02*
D03*
Y73740D02*
D03*
Y91240D02*
D03*
X23228D02*
D03*
Y73740D02*
D03*
Y52244D02*
D03*
Y34744D02*
D03*
D39*
X-787Y62992D02*
D03*
X44213Y116496D02*
D03*
Y9488D02*
D03*
D68*
X77953Y35039D02*
D03*
X63858D02*
D03*
X78307Y52244D02*
D03*
X64213D02*
D03*
D69*
X8661Y36654D02*
D03*
Y50748D02*
D03*
X120866Y126417D02*
D03*
Y140512D02*
D03*
M02*
