G04 Layer_Color=65535*
%FSLAX25Y25*%
%MOIN*%
G70*
G01*
G75*
%ADD33C,0.00472*%
%ADD34C,0.00600*%
%ADD35C,0.00400*%
D33*
X105079Y8583D02*
X135079D01*
Y28583D01*
X105079D02*
X135079D01*
X105079Y8583D02*
Y28583D01*
X105433Y82146D02*
Y83209D01*
X101654Y82146D02*
Y83209D01*
X21719Y36046D02*
X27349D01*
X21719Y43133D02*
X27349D01*
X38462Y40965D02*
X39525D01*
X38462Y37185D02*
X39525D01*
X77224Y61043D02*
X78287D01*
X77224Y57264D02*
X78287D01*
X132047Y47815D02*
X133110D01*
X132047Y51595D02*
X133110D01*
X131850Y54902D02*
X132913D01*
X131850Y58681D02*
X132913D01*
X21016Y31120D02*
X22177D01*
X15090Y19860D02*
X16252D01*
X15090D02*
Y31120D01*
X16252D01*
X22177Y19860D02*
Y31120D01*
X21016Y19860D02*
X22177D01*
X17453Y34899D02*
X19815D01*
X32953Y24902D02*
X38898D01*
X32953Y31988D02*
X38898D01*
X113327Y81693D02*
X114626D01*
X113327Y78150D02*
X114626D01*
X39862Y53051D02*
X41339D01*
Y67618D01*
X35256D02*
X41339D01*
X14961Y53051D02*
X16437D01*
X14961D02*
Y67618D01*
X21043D01*
X16437Y45197D02*
Y53051D01*
X117846Y70873D02*
X118949D01*
Y69771D02*
Y70873D01*
X117846Y42921D02*
X118949D01*
Y44023D01*
X90996Y42921D02*
X92098D01*
X90996D02*
Y44023D01*
Y70873D02*
X92098D01*
X90996Y69771D02*
Y70873D01*
X86232Y69771D02*
X90996D01*
X67638Y43268D02*
X69961D01*
X67638Y32323D02*
X69961D01*
X54547Y36457D02*
X55886D01*
X54547Y32441D02*
X55886D01*
X82106Y39331D02*
X83445D01*
X82106Y43346D02*
X83445D01*
X77224Y54154D02*
X78287D01*
X77224Y50374D02*
X78287D01*
D34*
X140461Y12168D02*
X139128D01*
X139795D01*
Y8836D01*
X139128Y8169D01*
X138462D01*
X137795Y8836D01*
X141794Y8169D02*
X143127D01*
X142460D01*
Y12168D01*
X141794Y11502D01*
X103552Y92998D02*
X102885Y93664D01*
X101552D01*
X100886Y92998D01*
Y90332D01*
X101552Y89665D01*
X102885D01*
X103552Y90332D01*
X104885Y89665D02*
X106217D01*
X105551D01*
Y93664D01*
X104885Y92998D01*
X10244Y40832D02*
X9578Y41499D01*
X8245D01*
X7579Y40832D01*
Y38166D01*
X8245Y37500D01*
X9578D01*
X10244Y38166D01*
X14243Y37500D02*
X11577D01*
X14243Y40166D01*
Y40832D01*
X13577Y41499D01*
X12244D01*
X11577Y40832D01*
X44989Y45557D02*
X44322Y46223D01*
X42989D01*
X42323Y45557D01*
Y42891D01*
X42989Y42224D01*
X44322D01*
X44989Y42891D01*
X46321Y45557D02*
X46988Y46223D01*
X48321D01*
X48987Y45557D01*
Y44890D01*
X48321Y44224D01*
X47654D01*
X48321D01*
X48987Y43557D01*
Y42891D01*
X48321Y42224D01*
X46988D01*
X46321Y42891D01*
X67331Y60517D02*
X66665Y61184D01*
X65332D01*
X64665Y60517D01*
Y57851D01*
X65332Y57185D01*
X66665D01*
X67331Y57851D01*
X71330Y61184D02*
X68664D01*
Y59184D01*
X69997Y59851D01*
X70663D01*
X71330Y59184D01*
Y57851D01*
X70663Y57185D01*
X69331D01*
X68664Y57851D01*
X141544Y50675D02*
X140877Y51341D01*
X139544D01*
X138878Y50675D01*
Y48009D01*
X139544Y47343D01*
X140877D01*
X141544Y48009D01*
X145543Y51341D02*
X144210Y50675D01*
X142877Y49342D01*
Y48009D01*
X143543Y47343D01*
X144876D01*
X145543Y48009D01*
Y48675D01*
X144876Y49342D01*
X142877D01*
X141347Y57860D02*
X140681Y58526D01*
X139348D01*
X138681Y57860D01*
Y55194D01*
X139348Y54527D01*
X140681D01*
X141347Y55194D01*
X142680Y57860D02*
X143346Y58526D01*
X144679D01*
X145346Y57860D01*
Y57193D01*
X144679Y56527D01*
X145346Y55861D01*
Y55194D01*
X144679Y54527D01*
X143346D01*
X142680Y55194D01*
Y55861D01*
X143346Y56527D01*
X142680Y57193D01*
Y57860D01*
X143346Y56527D02*
X144679D01*
X8465Y27424D02*
Y23425D01*
X10464D01*
X11130Y24092D01*
Y26757D01*
X10464Y27424D01*
X8465D01*
X12463Y23425D02*
X13796D01*
X13130D01*
Y27424D01*
X12463Y26757D01*
X36130Y23487D02*
X33465D01*
Y21487D01*
X34797D01*
X33465D01*
Y19488D01*
X37463D02*
X38796D01*
X38130D01*
Y23487D01*
X37463Y22820D01*
X108957Y83366D02*
Y87365D01*
X110956D01*
X111623Y86698D01*
Y85365D01*
X110956Y84699D01*
X108957D01*
X110290D02*
X111623Y83366D01*
X112955D02*
X114288D01*
X113622D01*
Y87365D01*
X112955Y86698D01*
X118954Y83366D02*
X116288D01*
X118954Y86032D01*
Y86698D01*
X118287Y87365D01*
X116954D01*
X116288Y86698D01*
X42717Y63349D02*
Y60017D01*
X43383Y59350D01*
X44716D01*
X45382Y60017D01*
Y63349D01*
X49381Y59350D02*
X46715D01*
X49381Y62016D01*
Y62683D01*
X48715Y63349D01*
X47382D01*
X46715Y62683D01*
X118405Y41597D02*
Y38265D01*
X119072Y37598D01*
X120405D01*
X121071Y38265D01*
Y41597D01*
X124404Y37598D02*
Y41597D01*
X122404Y39598D01*
X125070D01*
X12034Y12789D02*
X14700D01*
X13367Y14122D02*
Y11456D01*
X12034Y6889D02*
X14700D01*
X52863Y41423D02*
X52196Y42089D01*
X50863D01*
X50197Y41423D01*
Y38757D01*
X50863Y38091D01*
X52196D01*
X52863Y38757D01*
X54196Y38091D02*
X55528D01*
X54862D01*
Y42089D01*
X54196Y41423D01*
X57528D02*
X58194Y42089D01*
X59527D01*
X60194Y41423D01*
Y38757D01*
X59527Y38091D01*
X58194D01*
X57528Y38757D01*
Y41423D01*
X81701Y37289D02*
X81035Y37955D01*
X79702D01*
X79035Y37289D01*
Y34623D01*
X79702Y33957D01*
X81035D01*
X81701Y34623D01*
X83034Y33957D02*
X84367D01*
X83701D01*
Y37955D01*
X83034Y37289D01*
X86366Y33957D02*
X87699D01*
X87033D01*
Y37955D01*
X86366Y37289D01*
X66043Y30573D02*
X68709Y26575D01*
Y30573D02*
X66043Y26575D01*
X70042D02*
X71375D01*
X70709D01*
Y30573D01*
X70042Y29907D01*
X67430Y53628D02*
X66763Y54294D01*
X65430D01*
X64764Y53628D01*
Y50962D01*
X65430Y50295D01*
X66763D01*
X67430Y50962D01*
X70762Y50295D02*
Y54294D01*
X68762Y52295D01*
X71428D01*
D35*
X3279Y69133D02*
X2779Y69633D01*
X1779D01*
X1280Y69133D01*
Y67134D01*
X1779Y66634D01*
X2779D01*
X3279Y67134D01*
X4279Y66634D02*
Y68633D01*
X5278Y69633D01*
X6278Y68633D01*
Y66634D01*
Y68133D01*
X4279D01*
X7278Y66634D02*
Y69633D01*
X9277Y66634D01*
Y69633D01*
X10277D02*
Y66634D01*
Y68133D01*
X12276D01*
Y69633D01*
Y66634D01*
X3574Y51712D02*
X3074Y52212D01*
X2075D01*
X1575Y51712D01*
Y49712D01*
X2075Y49213D01*
X3074D01*
X3574Y49712D01*
X4574Y49213D02*
Y51212D01*
X5573Y52212D01*
X6573Y51212D01*
Y49213D01*
Y50712D01*
X4574D01*
X7573Y49213D02*
Y52212D01*
X9572Y49213D01*
Y52212D01*
X10572D02*
Y49213D01*
X12571D01*
M02*
