G04 Layer_Color=32768*
%FSLAX25Y25*%
%MOIN*%
G70*
G01*
G75*
%ADD61C,0.00197*%
D61*
X111063Y13583D02*
X110571Y14435D01*
X109587D01*
X109095Y13583D01*
X109587Y12730D01*
X110571D01*
X111063Y13583D01*
X101496Y57091D02*
X101004Y57943D01*
X100020D01*
X99528Y57091D01*
X100020Y56238D01*
X101004D01*
X101496Y57091D01*
X24705Y72539D02*
X24213Y73392D01*
X23228D01*
X22736Y72539D01*
X23228Y71687D01*
X24213D01*
X24705Y72539D01*
X16437Y59153D02*
X15945Y60006D01*
X14961D01*
X14469Y59153D01*
X14961Y58301D01*
X15945D01*
X16437Y59153D01*
X34154D02*
X33661Y60006D01*
X32677D01*
X32185Y59153D01*
X32677Y58301D01*
X33661D01*
X34154Y59153D01*
X122244Y47638D02*
X121752Y48490D01*
X120768D01*
X120276Y47638D01*
X120768Y46785D01*
X121752D01*
X122244Y47638D01*
X81718Y24862D02*
X81226Y25715D01*
X80242D01*
X79750Y24862D01*
X80242Y24010D01*
X81226D01*
X81718Y24862D01*
X89618D02*
X89126Y25715D01*
X88142D01*
X87650Y24862D01*
X88142Y24010D01*
X89126D01*
X89618Y24862D01*
X97518D02*
X97026Y25715D01*
X96042D01*
X95550Y24862D01*
X96042Y24010D01*
X97026D01*
X97518Y24862D01*
X73618D02*
X73126Y25715D01*
X72142D01*
X71650Y24862D01*
X72142Y24010D01*
X73126D01*
X73618Y24862D01*
X65618D02*
X65126Y25715D01*
X64142D01*
X63650Y24862D01*
X64142Y24010D01*
X65126D01*
X65618Y24862D01*
X57818D02*
X57326Y25715D01*
X56342D01*
X55850Y24862D01*
X56342Y24010D01*
X57326D01*
X57818Y24862D01*
X34118D02*
X33626Y25715D01*
X32642D01*
X32150Y24862D01*
X32642Y24010D01*
X33626D01*
X34118Y24862D01*
X41818D02*
X41326Y25715D01*
X40342D01*
X39850Y24862D01*
X40342Y24010D01*
X41326D01*
X41818Y24862D01*
X49618D02*
X49126Y25715D01*
X48142D01*
X47650Y24862D01*
X48142Y24010D01*
X49126D01*
X49618Y24862D01*
X104527Y82677D02*
X104035Y83530D01*
X103051D01*
X102559Y82677D01*
X103051Y81825D01*
X104035D01*
X104527Y82677D01*
X25518Y39590D02*
X25026Y40442D01*
X24042D01*
X23550Y39590D01*
X24042Y38737D01*
X25026D01*
X25518Y39590D01*
X39977Y39075D02*
X39485Y39927D01*
X38501D01*
X38009Y39075D01*
X38501Y38222D01*
X39485D01*
X39977Y39075D01*
X78740Y59153D02*
X78248Y60006D01*
X77264D01*
X76772Y59153D01*
X77264Y58301D01*
X78248D01*
X78740Y59153D01*
X133563Y49705D02*
X133071Y50557D01*
X132087D01*
X131595Y49705D01*
X132087Y48852D01*
X133071D01*
X133563Y49705D01*
X133366Y56791D02*
X132874Y57644D01*
X131890D01*
X131398Y56791D01*
X131890Y55939D01*
X132874D01*
X133366Y56791D01*
X19618Y25490D02*
X19126Y26342D01*
X18142D01*
X17650Y25490D01*
X18142Y24637D01*
X19126D01*
X19618Y25490D01*
X36909Y28445D02*
X36417Y29297D01*
X35433D01*
X34941Y28445D01*
X35433Y27593D01*
X36417D01*
X36909Y28445D01*
X114961Y79921D02*
X114469Y80774D01*
X113484D01*
X112992Y79921D01*
X113484Y79069D01*
X114469D01*
X114961Y79921D01*
X29134Y60335D02*
X28642Y61187D01*
X27657D01*
X27165Y60335D01*
X27657Y59482D01*
X28642D01*
X29134Y60335D01*
X105957Y56897D02*
X105464Y57749D01*
X104480D01*
X103988Y56897D01*
X104480Y56045D01*
X105464D01*
X105957Y56897D01*
X115847Y40748D02*
X115354Y41600D01*
X114370D01*
X113878Y40748D01*
X114370Y39896D01*
X115354D01*
X115847Y40748D01*
X55118Y57087D02*
X54626Y57939D01*
X53642D01*
X53150Y57087D01*
X53642Y56234D01*
X54626D01*
X55118Y57087D01*
X69784Y37795D02*
X69291Y38648D01*
X68307D01*
X67815Y37795D01*
X68307Y36943D01*
X69291D01*
X69784Y37795D01*
X56201Y34449D02*
X55709Y35301D01*
X54724D01*
X54232Y34449D01*
X54724Y33596D01*
X55709D01*
X56201Y34449D01*
X83760Y41339D02*
X83268Y42191D01*
X82284D01*
X81791Y41339D01*
X82284Y40486D01*
X83268D01*
X83760Y41339D01*
X78740Y52264D02*
X78248Y53116D01*
X77264D01*
X76772Y52264D01*
X77264Y51411D01*
X78248D01*
X78740Y52264D01*
X75104Y71813D02*
X74612Y72665D01*
X73628D01*
X73136Y71813D01*
X73628Y70960D01*
X74612D01*
X75104Y71813D01*
X75295Y84449D02*
X74803Y85301D01*
X73819D01*
X73327Y84449D01*
X73819Y83596D01*
X74803D01*
X75295Y84449D01*
X65059Y70650D02*
X64567Y71502D01*
X63583D01*
X63090Y70650D01*
X63583Y69797D01*
X64567D01*
X65059Y70650D01*
X110079Y12205D02*
Y14961D01*
X108701Y13583D02*
X111457D01*
X104095Y7598D02*
X136063D01*
Y29567D01*
X104095D02*
X136063D01*
X104095Y7598D02*
Y29567D01*
X90866Y70161D02*
Y70870D01*
X86122Y70161D02*
X90866D01*
X86122Y44020D02*
Y70161D01*
Y44020D02*
X90866D01*
Y43311D02*
Y44020D01*
Y43311D02*
X110158D01*
Y44020D01*
X114902D01*
Y70161D01*
X110158D02*
X114902D01*
X110158D02*
Y70870D01*
X90866D02*
X110158D01*
X100512Y55713D02*
Y58469D01*
X99134Y57091D02*
X101890D01*
X29114Y69902D02*
Y75177D01*
X18327D02*
X29114D01*
X18327Y69902D02*
Y75177D01*
Y69902D02*
X29114D01*
X22402Y72539D02*
X25039D01*
X23720Y71220D02*
Y73858D01*
X12815Y64547D02*
X18091D01*
X12815Y53760D02*
Y64547D01*
Y53760D02*
X18091D01*
Y64547D01*
X15453Y57835D02*
Y60472D01*
X14134Y59153D02*
X16772D01*
X41634Y48720D02*
Y49941D01*
X47362D01*
Y68366D01*
X41634D02*
X47362D01*
X41634D02*
Y69587D01*
X24705D02*
X41634D01*
X24705Y68366D02*
Y69587D01*
X18976Y68366D02*
X24705D01*
X18976Y49941D02*
Y68366D01*
Y49941D02*
X24705D01*
Y48720D02*
Y49941D01*
Y48720D02*
X41634D01*
X33169Y57776D02*
Y60532D01*
X31791Y59153D02*
X34547D01*
X115866Y45000D02*
Y50276D01*
Y45000D02*
X126654D01*
Y50276D01*
X115866D02*
X126654D01*
X119941Y47638D02*
X122579D01*
X121260Y46319D02*
Y48957D01*
X79415Y24862D02*
X82053D01*
X80734Y23543D02*
Y26181D01*
X78096Y19468D02*
Y30256D01*
X83372D01*
Y19468D02*
Y30256D01*
X78096Y19468D02*
X83372D01*
X87315Y24862D02*
X89953D01*
X88634Y23543D02*
Y26181D01*
X85996Y19468D02*
Y30256D01*
X91272D01*
Y19468D02*
Y30256D01*
X85996Y19468D02*
X91272D01*
X95215Y24862D02*
X97853D01*
X96534Y23543D02*
Y26181D01*
X93896Y19468D02*
Y30256D01*
X99172D01*
Y19468D02*
Y30256D01*
X93896Y19468D02*
X99172D01*
X71315Y24862D02*
X73953D01*
X72634Y23543D02*
Y26181D01*
X69996Y19468D02*
Y30256D01*
X75272D01*
Y19468D02*
Y30256D01*
X69996Y19468D02*
X75272D01*
X63315Y24862D02*
X65953D01*
X64634Y23543D02*
Y26181D01*
X61996Y19468D02*
Y30256D01*
X67272D01*
Y19468D02*
Y30256D01*
X61996Y19468D02*
X67272D01*
X55515Y24862D02*
X58153D01*
X56834Y23543D02*
Y26181D01*
X54196Y19468D02*
Y30256D01*
X59472D01*
Y19468D02*
Y30256D01*
X54196Y19468D02*
X59472D01*
X31815Y24862D02*
X34453D01*
X33134Y23543D02*
Y26181D01*
X35772Y19468D02*
Y30256D01*
X30496Y19468D02*
X35772D01*
X30496D02*
Y30256D01*
X35772D01*
X39515Y24862D02*
X42153D01*
X40834Y23543D02*
Y26181D01*
X38196Y19468D02*
Y30256D01*
X43472D01*
Y19468D02*
Y30256D01*
X38196Y19468D02*
X43472D01*
X47315Y24862D02*
X49953D01*
X48634Y23543D02*
Y26181D01*
X45996Y19468D02*
Y30256D01*
X51272D01*
Y19468D02*
Y30256D01*
X45996Y19468D02*
X51272D01*
X102185Y82677D02*
X104902D01*
X103543Y81319D02*
Y84035D01*
X106260Y77205D02*
Y88150D01*
X100827D02*
X106260D01*
X100827Y77205D02*
Y88150D01*
Y77205D02*
X106260D01*
X33432Y35220D02*
Y43960D01*
X15636Y35220D02*
X33432D01*
X15636D02*
Y43960D01*
X33432D01*
X23156Y39590D02*
X25912D01*
X24534Y38212D02*
Y40968D01*
X38993Y37716D02*
Y40433D01*
X37635Y39075D02*
X40351D01*
X33521Y41791D02*
X44466D01*
X33521Y36358D02*
Y41791D01*
Y36358D02*
X44466D01*
Y41791D01*
X77756Y57795D02*
Y60512D01*
X76398Y59153D02*
X79114D01*
X72284Y61870D02*
X83228D01*
X72284Y56437D02*
Y61870D01*
Y56437D02*
X83228D01*
Y61870D01*
X132579Y48346D02*
Y51063D01*
X131220Y49705D02*
X133937D01*
X127106Y46988D02*
X138051D01*
Y52421D01*
X127106D02*
X138051D01*
X127106Y46988D02*
Y52421D01*
X132382Y55433D02*
Y58150D01*
X131024Y56791D02*
X133740D01*
X126909Y54075D02*
X137854D01*
Y59508D01*
X126909D02*
X137854D01*
X126909Y54075D02*
Y59508D01*
X18634Y24112D02*
Y26868D01*
X17256Y25490D02*
X20012D01*
X14303Y19072D02*
Y31907D01*
Y19072D02*
X16173D01*
Y16002D02*
Y19072D01*
Y16002D02*
X21094D01*
Y19072D01*
X22965D01*
Y31907D01*
X21094D02*
X22965D01*
X21094D02*
Y34978D01*
X16173D02*
X21094D01*
X16173Y31907D02*
Y34978D01*
X14303Y31907D02*
X16173D01*
X35925Y27067D02*
Y29823D01*
X34547Y28445D02*
X37303D01*
X26831Y24075D02*
X45020D01*
Y32815D01*
X26831D02*
X45020D01*
X26831Y24075D02*
Y32815D01*
X108583Y77284D02*
Y82559D01*
X119370D01*
Y77284D02*
Y82559D01*
X108583Y77284D02*
X119370D01*
X112657Y79921D02*
X115295D01*
X113976Y78602D02*
Y81240D01*
X28150Y58957D02*
Y61713D01*
X26772Y60335D02*
X29528D01*
X42126Y52264D02*
Y68405D01*
X35335D02*
X42126D01*
X35335D02*
Y76496D01*
X20965D02*
X35335D01*
X20965Y68405D02*
Y76496D01*
X14173Y68405D02*
X20965D01*
X14173Y52264D02*
Y68405D01*
Y52264D02*
X16358D01*
Y44173D02*
Y52264D01*
Y44173D02*
X39941D01*
Y52264D01*
X42126D01*
X90209Y42133D02*
Y43964D01*
X84972D02*
X90209D01*
X84972D02*
Y69830D01*
X90209D01*
Y71661D01*
X92039D01*
Y76897D01*
X117905D01*
Y71661D02*
Y76897D01*
Y71661D02*
X119736D01*
Y69830D02*
Y71661D01*
Y69830D02*
X124972D01*
Y43964D02*
Y69830D01*
X119736Y43964D02*
X124972D01*
X119736Y42133D02*
Y43964D01*
X117905Y42133D02*
X119736D01*
X117905Y36897D02*
Y42133D01*
X92039Y36897D02*
X117905D01*
X92039D02*
Y42133D01*
X90209D02*
X92039D01*
X104972Y55519D02*
Y58275D01*
X103595Y56897D02*
X106350D01*
X114862Y39390D02*
Y42106D01*
X113504Y40748D02*
X116220D01*
X109390Y43465D02*
X120335D01*
Y38032D02*
Y43465D01*
X109390Y38032D02*
X120335D01*
X109390D02*
Y43465D01*
X54134Y55728D02*
Y58445D01*
X52776Y57087D02*
X55492D01*
X48661Y59803D02*
X59606D01*
Y54370D02*
Y59803D01*
X48661Y54370D02*
X59606D01*
X48661D02*
Y59803D01*
X76437Y31535D02*
Y44055D01*
X61161Y31535D02*
X76437D01*
X61161D02*
Y44055D01*
X76437D01*
X68799Y36417D02*
Y39173D01*
X67421Y37795D02*
X70177D01*
X55216Y33071D02*
Y35827D01*
X53839Y34449D02*
X56595D01*
X49744Y37244D02*
X60689D01*
X49744Y31653D02*
Y37244D01*
Y31653D02*
X60689D01*
Y37244D01*
X82776Y39961D02*
Y42717D01*
X81398Y41339D02*
X84154D01*
X77303Y38543D02*
X88248D01*
Y44134D01*
X77303D02*
X88248D01*
X77303Y38543D02*
Y44134D01*
X77756Y50906D02*
Y53622D01*
X76398Y52264D02*
X79114D01*
X72284Y54980D02*
X83228D01*
X72284Y49547D02*
Y54980D01*
Y49547D02*
X83228D01*
Y54980D01*
X74120Y70435D02*
Y73191D01*
X72742Y71813D02*
X75498D01*
X67860Y64175D02*
Y79451D01*
X80380D01*
Y64175D02*
Y79451D01*
X67860Y64175D02*
X80380D01*
X79783Y81653D02*
Y87244D01*
X68839D02*
X79783D01*
X68839Y81653D02*
Y87244D01*
Y81653D02*
X79783D01*
X72933Y84449D02*
X75689D01*
X74311Y83071D02*
Y85827D01*
X61279Y65177D02*
X66870D01*
Y76122D01*
X61279D02*
X66870D01*
X61279Y65177D02*
Y76122D01*
X64075Y69272D02*
Y72027D01*
X62697Y70650D02*
X65453D01*
M02*
