G04 Layer_Physical_Order=1*
G04 Layer_Color=255*
%FSLAX25Y25*%
%MOIN*%
G70*
G01*
G75*
G04:AMPARAMS|DCode=10|XSize=34.25mil|YSize=38.19mil|CornerRadius=8.73mil|HoleSize=0mil|Usage=FLASHONLY|Rotation=90.000|XOffset=0mil|YOffset=0mil|HoleType=Round|Shape=RoundedRectangle|*
%AMROUNDEDRECTD10*
21,1,0.03425,0.02072,0,0,90.0*
21,1,0.01678,0.03819,0,0,90.0*
1,1,0.01747,0.01036,0.00839*
1,1,0.01747,0.01036,-0.00839*
1,1,0.01747,-0.01036,-0.00839*
1,1,0.01747,-0.01036,0.00839*
%
%ADD10ROUNDEDRECTD10*%
G04:AMPARAMS|DCode=11|XSize=45.67mil|YSize=71.65mil|CornerRadius=9.82mil|HoleSize=0mil|Usage=FLASHONLY|Rotation=0.000|XOffset=0mil|YOffset=0mil|HoleType=Round|Shape=RoundedRectangle|*
%AMROUNDEDRECTD11*
21,1,0.04567,0.05202,0,0,0.0*
21,1,0.02603,0.07165,0,0,0.0*
1,1,0.01964,0.01302,-0.02601*
1,1,0.01964,-0.01302,-0.02601*
1,1,0.01964,-0.01302,0.02601*
1,1,0.01964,0.01302,0.02601*
%
%ADD11ROUNDEDRECTD11*%
G04:AMPARAMS|DCode=12|XSize=34.25mil|YSize=38.19mil|CornerRadius=8.73mil|HoleSize=0mil|Usage=FLASHONLY|Rotation=180.000|XOffset=0mil|YOffset=0mil|HoleType=Round|Shape=RoundedRectangle|*
%AMROUNDEDRECTD12*
21,1,0.03425,0.02072,0,0,180.0*
21,1,0.01678,0.03819,0,0,180.0*
1,1,0.01747,-0.00839,0.01036*
1,1,0.01747,0.00839,0.01036*
1,1,0.01747,0.00839,-0.01036*
1,1,0.01747,-0.00839,-0.01036*
%
%ADD12ROUNDEDRECTD12*%
G04:AMPARAMS|DCode=13|XSize=43.31mil|YSize=33.47mil|CornerRadius=8.2mil|HoleSize=0mil|Usage=FLASHONLY|Rotation=90.000|XOffset=0mil|YOffset=0mil|HoleType=Round|Shape=RoundedRectangle|*
%AMROUNDEDRECTD13*
21,1,0.04331,0.01707,0,0,90.0*
21,1,0.02691,0.03347,0,0,90.0*
1,1,0.01640,0.00853,0.01346*
1,1,0.01640,0.00853,-0.01346*
1,1,0.01640,-0.00853,-0.01346*
1,1,0.01640,-0.00853,0.01346*
%
%ADD13ROUNDEDRECTD13*%
G04:AMPARAMS|DCode=14|XSize=46.06mil|YSize=71.65mil|CornerRadius=9.9mil|HoleSize=0mil|Usage=FLASHONLY|Rotation=0.000|XOffset=0mil|YOffset=0mil|HoleType=Round|Shape=RoundedRectangle|*
%AMROUNDEDRECTD14*
21,1,0.04606,0.05185,0,0,0.0*
21,1,0.02626,0.07165,0,0,0.0*
1,1,0.01981,0.01313,-0.02592*
1,1,0.01981,-0.01313,-0.02592*
1,1,0.01981,-0.01313,0.02592*
1,1,0.01981,0.01313,0.02592*
%
%ADD14ROUNDEDRECTD14*%
G04:AMPARAMS|DCode=15|XSize=32.28mil|YSize=36.61mil|CornerRadius=8.23mil|HoleSize=0mil|Usage=FLASHONLY|Rotation=180.000|XOffset=0mil|YOffset=0mil|HoleType=Round|Shape=RoundedRectangle|*
%AMROUNDEDRECTD15*
21,1,0.03228,0.02015,0,0,180.0*
21,1,0.01582,0.03661,0,0,180.0*
1,1,0.01647,-0.00791,0.01007*
1,1,0.01647,0.00791,0.01007*
1,1,0.01647,0.00791,-0.01007*
1,1,0.01647,-0.00791,-0.01007*
%
%ADD15ROUNDEDRECTD15*%
G04:AMPARAMS|DCode=16|XSize=67.32mil|YSize=38.98mil|CornerRadius=9.94mil|HoleSize=0mil|Usage=FLASHONLY|Rotation=270.000|XOffset=0mil|YOffset=0mil|HoleType=Round|Shape=RoundedRectangle|*
%AMROUNDEDRECTD16*
21,1,0.06732,0.01910,0,0,270.0*
21,1,0.04745,0.03898,0,0,270.0*
1,1,0.01988,-0.00955,-0.02372*
1,1,0.01988,-0.00955,0.02372*
1,1,0.01988,0.00955,0.02372*
1,1,0.01988,0.00955,-0.02372*
%
%ADD16ROUNDEDRECTD16*%
G04:AMPARAMS|DCode=17|XSize=67.32mil|YSize=127.95mil|CornerRadius=9.76mil|HoleSize=0mil|Usage=FLASHONLY|Rotation=90.000|XOffset=0mil|YOffset=0mil|HoleType=Round|Shape=RoundedRectangle|*
%AMROUNDEDRECTD17*
21,1,0.06732,0.10843,0,0,90.0*
21,1,0.04780,0.12795,0,0,90.0*
1,1,0.01952,0.05422,0.02390*
1,1,0.01952,0.05422,-0.02390*
1,1,0.01952,-0.05422,-0.02390*
1,1,0.01952,-0.05422,0.02390*
%
%ADD17ROUNDEDRECTD17*%
G04:AMPARAMS|DCode=18|XSize=59.05mil|YSize=22.44mil|CornerRadius=5.5mil|HoleSize=0mil|Usage=FLASHONLY|Rotation=90.000|XOffset=0mil|YOffset=0mil|HoleType=Round|Shape=RoundedRectangle|*
%AMROUNDEDRECTD18*
21,1,0.05905,0.01145,0,0,90.0*
21,1,0.04806,0.02244,0,0,90.0*
1,1,0.01100,0.00572,0.02403*
1,1,0.01100,0.00572,-0.02403*
1,1,0.01100,-0.00572,-0.02403*
1,1,0.01100,-0.00572,0.02403*
%
%ADD18ROUNDEDRECTD18*%
G04:AMPARAMS|DCode=19|XSize=59.05mil|YSize=22.44mil|CornerRadius=5.5mil|HoleSize=0mil|Usage=FLASHONLY|Rotation=0.000|XOffset=0mil|YOffset=0mil|HoleType=Round|Shape=RoundedRectangle|*
%AMROUNDEDRECTD19*
21,1,0.05905,0.01145,0,0,0.0*
21,1,0.04806,0.02244,0,0,0.0*
1,1,0.01100,0.02403,-0.00572*
1,1,0.01100,-0.02403,-0.00572*
1,1,0.01100,-0.02403,0.00572*
1,1,0.01100,0.02403,0.00572*
%
%ADD19ROUNDEDRECTD19*%
G04:AMPARAMS|DCode=20|XSize=41.73mil|YSize=49.61mil|CornerRadius=9.81mil|HoleSize=0mil|Usage=FLASHONLY|Rotation=90.000|XOffset=0mil|YOffset=0mil|HoleType=Round|Shape=RoundedRectangle|*
%AMROUNDEDRECTD20*
21,1,0.04173,0.02999,0,0,90.0*
21,1,0.02212,0.04961,0,0,90.0*
1,1,0.01961,0.01500,0.01106*
1,1,0.01961,0.01500,-0.01106*
1,1,0.01961,-0.01500,-0.01106*
1,1,0.01961,-0.01500,0.01106*
%
%ADD20ROUNDEDRECTD20*%
G04:AMPARAMS|DCode=21|XSize=33.07mil|YSize=40.16mil|CornerRadius=8.27mil|HoleSize=0mil|Usage=FLASHONLY|Rotation=180.000|XOffset=0mil|YOffset=0mil|HoleType=Round|Shape=RoundedRectangle|*
%AMROUNDEDRECTD21*
21,1,0.03307,0.02362,0,0,180.0*
21,1,0.01654,0.04016,0,0,180.0*
1,1,0.01654,-0.00827,0.01181*
1,1,0.01654,0.00827,0.01181*
1,1,0.01654,0.00827,-0.01181*
1,1,0.01654,-0.00827,-0.01181*
%
%ADD21ROUNDEDRECTD21*%
%ADD22C,0.01000*%
%ADD23C,0.01968*%
%ADD24C,0.06260*%
%ADD25C,0.04724*%
%ADD26C,0.01968*%
G36*
X164667Y98725D02*
X165577Y98348D01*
X166396Y97801D01*
X167092Y97105D01*
X167640Y96286D01*
X168017Y95376D01*
X168209Y94410D01*
Y93917D01*
Y5000D01*
Y4507D01*
X168017Y3542D01*
X167640Y2632D01*
X167092Y1813D01*
X166396Y1116D01*
X165577Y569D01*
X164667Y192D01*
X163701Y0D01*
X4436D01*
X3486Y189D01*
X2590Y560D01*
X1784Y1099D01*
X1099Y1784D01*
X560Y2590D01*
X189Y3486D01*
X0Y4436D01*
Y4921D01*
Y93996D01*
Y94481D01*
X189Y95432D01*
X560Y96327D01*
X1099Y97133D01*
X1784Y97819D01*
X2590Y98357D01*
X3486Y98728D01*
X4436Y98917D01*
X163701D01*
X164667Y98725D01*
D02*
G37*
%LPC*%
G36*
X20049Y52315D02*
X18140D01*
X17521Y52192D01*
X16997Y51841D01*
X16647Y51317D01*
X16524Y50699D01*
Y45954D01*
X16585Y45648D01*
X16579Y45637D01*
X16604Y45551D01*
X16647Y45336D01*
X16654Y45326D01*
X16667Y45243D01*
X16752Y45100D01*
X16818Y44963D01*
X16880Y44804D01*
X16933Y44631D01*
X17028Y44184D01*
X17031Y44157D01*
X17026Y44121D01*
X16972Y43891D01*
X16912Y43722D01*
X16894Y43688D01*
X16812Y43672D01*
X16372Y43378D01*
X16313Y43353D01*
X16304Y43333D01*
X16292Y43324D01*
X16279Y43306D01*
X16262Y43296D01*
X16254Y43268D01*
X15944Y42804D01*
X15822Y42191D01*
Y36989D01*
X15944Y36375D01*
X16220Y35962D01*
X16265Y35846D01*
X16313Y35826D01*
X16339Y35781D01*
X16482Y35672D01*
X16582Y35574D01*
X16673Y35460D01*
X16754Y35327D01*
X16827Y35173D01*
X16888Y34998D01*
X16873Y34930D01*
X16814Y34728D01*
X16746Y34539D01*
X16669Y34361D01*
X16583Y34196D01*
X16475Y34021D01*
X16462Y33935D01*
X16452Y33921D01*
X16428Y33801D01*
X16380Y33686D01*
X16397Y33645D01*
X16342Y33371D01*
Y30680D01*
X16452Y30129D01*
X16764Y29663D01*
X17230Y29351D01*
X17781Y29242D01*
X19487D01*
X20038Y29351D01*
X20504Y29663D01*
X20816Y30129D01*
X20925Y30680D01*
Y33371D01*
X20871Y33645D01*
X20887Y33686D01*
X20840Y33801D01*
X20816Y33921D01*
X20806Y33935D01*
X20792Y34021D01*
X20685Y34196D01*
X20598Y34361D01*
X20521Y34539D01*
X20453Y34728D01*
X20395Y34930D01*
X20373Y35026D01*
X20640Y35507D01*
X20642Y35508D01*
X20975Y35730D01*
X21039Y35756D01*
X21050Y35780D01*
X21162Y35855D01*
X21509Y36375D01*
X21632Y36989D01*
Y42191D01*
X21509Y42804D01*
X21199Y43268D01*
X21192Y43296D01*
X21174Y43306D01*
X21162Y43324D01*
X21149Y43333D01*
X21141Y43353D01*
X21082Y43378D01*
X20642Y43672D01*
X20488Y44043D01*
X20668Y44462D01*
X21021Y44698D01*
X21092Y44719D01*
X21112Y44757D01*
X21151Y44774D01*
X21157Y44789D01*
X21192Y44812D01*
X21542Y45336D01*
X21665Y45954D01*
Y50699D01*
X21542Y51317D01*
X21192Y51841D01*
X20668Y52192D01*
X20049Y52315D01*
D02*
G37*
G36*
X117740Y82370D02*
X116158D01*
X115606Y82261D01*
X115139Y81948D01*
X114826Y81480D01*
X114716Y80929D01*
Y78914D01*
X114826Y78362D01*
X115139Y77895D01*
X115606Y77582D01*
X116158Y77472D01*
X117740D01*
X118291Y77582D01*
X118661Y77829D01*
X118777Y77877D01*
X118789Y77907D01*
X118818Y77922D01*
X118876Y77992D01*
X118916Y78026D01*
X118990Y78071D01*
X119101Y78120D01*
X119251Y78168D01*
X119439Y78212D01*
X119655Y78247D01*
X120220Y78292D01*
X120547Y78298D01*
X120587Y78316D01*
X123449D01*
X128020Y73744D01*
Y69037D01*
X127520Y68740D01*
X127067Y68830D01*
X126453Y68708D01*
X126023Y68421D01*
X126016Y68418D01*
X126003Y68416D01*
X125984Y68414D01*
X125976Y68410D01*
X125968Y68409D01*
X125953Y68399D01*
X125949Y68397D01*
X125927Y68391D01*
X125892Y68383D01*
X125851Y68377D01*
X125704Y68365D01*
X125617Y68363D01*
X125555Y68336D01*
X125260D01*
X125199Y68363D01*
X124777Y68599D01*
X124709Y68938D01*
X124457Y69315D01*
X124080Y69567D01*
X123635Y69655D01*
X118829D01*
X118384Y69567D01*
X118007Y69315D01*
X117755Y68938D01*
X117667Y68493D01*
Y67348D01*
X117755Y66903D01*
X117896Y66692D01*
X117901Y66682D01*
X117947Y66423D01*
X117940Y66255D01*
X117919Y66170D01*
X117917Y66166D01*
X117437Y66022D01*
X116953Y66346D01*
X116339Y66468D01*
X115724Y66346D01*
X115203Y65998D01*
X114855Y65477D01*
X114733Y64862D01*
X114855Y64248D01*
X115203Y63727D01*
X115724Y63379D01*
X116339Y63257D01*
X116953Y63379D01*
X117234Y63566D01*
X117279Y63578D01*
X117307Y63581D01*
X117316Y63581D01*
X117319Y63582D01*
X117328Y63583D01*
X117347Y63594D01*
X117348Y63595D01*
X117353Y63596D01*
X117353Y63596D01*
X117361Y63599D01*
X117390Y63606D01*
X117418Y63611D01*
X117508Y63619D01*
X117521Y63618D01*
X117617Y63602D01*
X117697Y63583D01*
X117761Y63561D01*
X117810Y63539D01*
X117846Y63517D01*
X117873Y63497D01*
X117919Y63372D01*
X117940Y63287D01*
X117947Y63118D01*
X117900Y62855D01*
X117755Y62638D01*
X117667Y62194D01*
Y61049D01*
X117755Y60604D01*
X118007Y60227D01*
X118384Y59975D01*
X118829Y59886D01*
X123635D01*
X124080Y59975D01*
X124457Y60227D01*
X124709Y60604D01*
X124798Y61049D01*
Y62194D01*
X124709Y62638D01*
X124457Y63016D01*
Y63376D01*
X124709Y63754D01*
X124798Y64199D01*
Y65343D01*
X124748Y65592D01*
X124765Y65678D01*
X125011Y66010D01*
X125112Y66085D01*
X125156Y66085D01*
X125223Y66113D01*
X125546D01*
X125605Y66086D01*
X125790Y66079D01*
X125844Y66073D01*
X125892Y66066D01*
X125927Y66058D01*
X125949Y66051D01*
X125953Y66050D01*
X125968Y66040D01*
X125976Y66038D01*
X125984Y66035D01*
X126003Y66033D01*
X126016Y66031D01*
X126023Y66028D01*
X126453Y65741D01*
X127067Y65619D01*
X127520Y65709D01*
X128020Y65412D01*
Y60738D01*
X128003Y60700D01*
X127977Y60067D01*
X127948Y59821D01*
X127909Y59602D01*
X127861Y59416D01*
X127808Y59266D01*
X127753Y59150D01*
X127700Y59068D01*
X127653Y59015D01*
X127567Y58946D01*
X127565Y58941D01*
X127560Y58940D01*
X127514Y58852D01*
X127211Y58399D01*
X127097Y57827D01*
Y57118D01*
X126986Y57074D01*
X126778Y57023D01*
X126498Y56981D01*
X126152Y56955D01*
X125828Y56948D01*
X124469Y56969D01*
X124153Y56989D01*
X124073Y56999D01*
X124013Y57011D01*
X123948Y56997D01*
X123845Y57040D01*
X123804Y57023D01*
X123635Y57057D01*
X118829D01*
X118468Y56985D01*
X118017Y57287D01*
X117403Y57409D01*
X117403Y57409D01*
X105016D01*
X105016Y57409D01*
X104401Y57287D01*
X103880Y56938D01*
X103880Y56938D01*
X100720Y53778D01*
X93486D01*
X93445Y53796D01*
X91949Y53819D01*
X91633Y53840D01*
X91553Y53849D01*
X91493Y53861D01*
X91429Y53848D01*
X91325Y53891D01*
X91285Y53874D01*
X91115Y53907D01*
X86310D01*
X86140Y53874D01*
X86100Y53891D01*
X86018Y53857D01*
X86000Y53863D01*
X84308Y53755D01*
X84102Y53760D01*
X83837Y53781D01*
X83600Y53815D01*
X83393Y53861D01*
X83214Y53917D01*
X83065Y53979D01*
X82942Y54048D01*
X82843Y54120D01*
X82771Y54190D01*
X82694Y54334D01*
X82612Y54520D01*
X82539Y54715D01*
X82477Y54921D01*
X82426Y55138D01*
X82387Y55357D01*
X82352Y55717D01*
X82357Y55820D01*
X82385Y56052D01*
X82426Y56280D01*
X82477Y56496D01*
X82539Y56702D01*
X82577Y56804D01*
X83812Y56889D01*
X84036Y56891D01*
X84638Y56886D01*
X85416Y56858D01*
X85739Y56829D01*
X85819Y56816D01*
X85832Y56813D01*
X85839Y56809D01*
X85846Y56809D01*
X85886Y56799D01*
X85936Y56806D01*
X85963Y56806D01*
X85984Y56801D01*
X86100Y56754D01*
X86140Y56770D01*
X86310Y56737D01*
X91115D01*
X91561Y56825D01*
X91938Y57077D01*
X92190Y57455D01*
X92278Y57899D01*
Y59044D01*
X92190Y59489D01*
X91938Y59866D01*
X91561Y60118D01*
X91115Y60207D01*
X86310D01*
X86140Y60173D01*
X86100Y60190D01*
X86092Y60186D01*
X86084Y60189D01*
X84219Y60143D01*
X84014Y60148D01*
X83688Y60174D01*
X83420Y60215D01*
X83214Y60267D01*
X83074Y60321D01*
X83006Y60362D01*
X82994Y60425D01*
X82995Y60461D01*
X82977Y60507D01*
X82927Y60761D01*
X82876Y60838D01*
X82869Y60862D01*
X82853Y60872D01*
X82823Y60917D01*
X82822Y60919D01*
X82821Y60919D01*
X82603Y61245D01*
X82119Y61569D01*
X81548Y61682D01*
X79870D01*
X79298Y61569D01*
X78814Y61245D01*
X78491Y60761D01*
X78377Y60190D01*
Y58118D01*
X78436Y57822D01*
X78419Y57781D01*
X78467Y57666D01*
X78491Y57546D01*
X78501Y57531D01*
X78515Y57445D01*
X78630Y57259D01*
X78723Y57083D01*
X78806Y56897D01*
X78878Y56702D01*
X78940Y56496D01*
X78992Y56280D01*
X79031Y56060D01*
X79065Y55700D01*
X79060Y55597D01*
X79032Y55366D01*
X78992Y55138D01*
X78940Y54921D01*
X78878Y54715D01*
X78806Y54520D01*
X78723Y54334D01*
X78630Y54159D01*
X78515Y53973D01*
X78501Y53886D01*
X78491Y53871D01*
X78467Y53751D01*
X78419Y53636D01*
X78436Y53595D01*
X78377Y53300D01*
Y51228D01*
X78491Y50656D01*
X78814Y50172D01*
X79298Y49849D01*
X79870Y49735D01*
X80330D01*
X80537Y49235D01*
X78476Y47175D01*
X72170D01*
X71930Y47675D01*
X72153Y48008D01*
X72275Y48622D01*
X72153Y49237D01*
X71805Y49757D01*
X71284Y50106D01*
X70669Y50228D01*
X70055Y50106D01*
X69625Y49818D01*
X69618Y49816D01*
X69606Y49813D01*
X69586Y49812D01*
X69579Y49808D01*
X69570Y49806D01*
X69556Y49797D01*
X69552Y49795D01*
X69530Y49788D01*
X69494Y49781D01*
X69453Y49774D01*
X69306Y49763D01*
X69220Y49761D01*
X69157Y49734D01*
X61742D01*
X61701Y49757D01*
X61677Y49750D01*
X61654Y49761D01*
X61473Y49768D01*
X61425Y49774D01*
X61383Y49781D01*
X61355Y49788D01*
X61347Y49791D01*
X61342Y49795D01*
X61334Y49797D01*
X61320Y49806D01*
X61309Y49808D01*
X61309Y49808D01*
X61307Y49808D01*
X61305Y49808D01*
X61273Y49856D01*
X60752Y50204D01*
X60138Y50326D01*
X59523Y50204D01*
X59002Y49856D01*
X58654Y49335D01*
X58532Y48720D01*
X58654Y48106D01*
X59002Y47585D01*
X59523Y47237D01*
X60138Y47115D01*
X60752Y47237D01*
X61024Y47418D01*
X61068Y47429D01*
X61099Y47432D01*
X61107Y47432D01*
X61110Y47434D01*
X61118Y47434D01*
X61137Y47445D01*
X61138Y47446D01*
X61143Y47447D01*
X61144Y47447D01*
X61152Y47450D01*
X61182Y47457D01*
X61210Y47462D01*
X61435Y47482D01*
X61519Y47483D01*
X61718Y47388D01*
X61785Y47008D01*
X61773Y46810D01*
X57462Y42499D01*
X57221Y42138D01*
X57136Y41713D01*
X57136Y41713D01*
Y37538D01*
X57109Y37477D01*
X57104Y37297D01*
X57093Y37161D01*
X57077Y37057D01*
X57063Y37004D01*
X56868Y36965D01*
X56400Y36652D01*
X56086Y36183D01*
X55976Y35630D01*
Y33268D01*
X56086Y32715D01*
X56400Y32246D01*
X56868Y31933D01*
X57421Y31823D01*
X59075D01*
X59628Y31933D01*
X60097Y32246D01*
X60410Y32715D01*
X60489Y33112D01*
X60926Y33301D01*
X60940Y33303D01*
X61387Y33122D01*
X61469Y32710D01*
X61816Y32190D01*
X62336Y31843D01*
X62949Y31721D01*
X65948D01*
X66562Y31843D01*
X67081Y32190D01*
X67428Y32710D01*
X67550Y33323D01*
Y35535D01*
X67428Y36148D01*
X67081Y36668D01*
X66562Y37015D01*
X65948Y37137D01*
X62949D01*
X62336Y37015D01*
X61816Y36668D01*
X61469Y36148D01*
X61394Y35769D01*
X60941Y35595D01*
X60926Y35596D01*
X60489Y35785D01*
X60410Y36183D01*
X60097Y36652D01*
X59628Y36965D01*
X59433Y37004D01*
X59420Y37057D01*
X59403Y37161D01*
X59392Y37297D01*
X59387Y37477D01*
X59360Y37538D01*
Y41252D01*
X63059Y44951D01*
X78937D01*
X78937Y44951D01*
X79362Y45036D01*
X79723Y45277D01*
X82189Y47742D01*
X84700D01*
X84759Y47715D01*
X84892Y47711D01*
X84905Y47702D01*
X85039Y47574D01*
X85066Y47535D01*
X85144Y47333D01*
X85161Y47224D01*
X85017Y47046D01*
X84991Y47025D01*
X84889Y47016D01*
X84743Y47012D01*
X84683Y46985D01*
X84279D01*
X84279Y46985D01*
X83853Y46900D01*
X83492Y46659D01*
X83492Y46659D01*
X81273Y44440D01*
X81210Y44415D01*
X81017Y44229D01*
X80853Y44083D01*
X80713Y43972D01*
X80673Y43944D01*
X80571Y43965D01*
X80420D01*
X80401Y43975D01*
X80369Y43965D01*
X78917D01*
X78364Y43855D01*
X77895Y43541D01*
X77582Y43073D01*
X77472Y42520D01*
Y42333D01*
X77468Y42332D01*
X77371Y42316D01*
X77243Y42305D01*
X77070Y42300D01*
X77009Y42273D01*
X76714D01*
X76653Y42300D01*
X76481Y42305D01*
X76352Y42316D01*
X76255Y42332D01*
X76237Y42337D01*
X76129Y42880D01*
X75782Y43400D01*
X75262Y43747D01*
X74649Y43869D01*
X71650D01*
X71037Y43747D01*
X70517Y43400D01*
X70170Y42880D01*
X70048Y42267D01*
Y40056D01*
X70170Y39442D01*
X70517Y38923D01*
X71037Y38575D01*
X71650Y38454D01*
X74649D01*
X75262Y38575D01*
X75782Y38923D01*
X76129Y39442D01*
X76237Y39986D01*
X76255Y39991D01*
X76352Y40007D01*
X76481Y40018D01*
X76653Y40022D01*
X76714Y40049D01*
X77009D01*
X77070Y40022D01*
X77243Y40018D01*
X77371Y40007D01*
X77468Y39991D01*
X77508Y39980D01*
X77582Y39604D01*
X77895Y39136D01*
X78364Y38822D01*
X78917Y38712D01*
X78968D01*
X79173Y38671D01*
X79379Y38712D01*
X80571D01*
X81124Y38822D01*
X81593Y39136D01*
X81906Y39604D01*
X82016Y40157D01*
Y41873D01*
X82065Y41958D01*
X82142Y42070D01*
X82401Y42378D01*
X82569Y42553D01*
X82594Y42616D01*
X84722Y44744D01*
X84743Y44734D01*
X84889Y44730D01*
X85002Y44720D01*
X85098Y44705D01*
X85178Y44685D01*
X85242Y44664D01*
X85290Y44641D01*
X85326Y44620D01*
X85353Y44599D01*
X85373Y44579D01*
X85414Y44525D01*
X85453Y44502D01*
X85470Y44461D01*
X85585Y44414D01*
X85865Y44227D01*
X86310Y44138D01*
X91115D01*
X91561Y44227D01*
X91938Y44479D01*
X92190Y44856D01*
X92278Y45301D01*
Y46446D01*
X92190Y46890D01*
X92049Y47101D01*
X91976Y47448D01*
X92049Y47795D01*
X92190Y48006D01*
X92278Y48451D01*
Y49595D01*
X92199Y49992D01*
X92210Y50072D01*
X92480Y50506D01*
X93464Y50550D01*
X93501Y50567D01*
X101385D01*
X101385Y50567D01*
X101999Y50689D01*
X102520Y51037D01*
X103422Y51939D01*
X103964Y51774D01*
X104028Y51452D01*
X104376Y50932D01*
X104897Y50583D01*
X105265Y50510D01*
X105303Y50488D01*
X105323Y50473D01*
X105331Y50466D01*
X105335Y50464D01*
X105342Y50459D01*
X105362Y50454D01*
X105367Y50452D01*
X105369Y50451D01*
X105369Y50451D01*
X105374Y50448D01*
X105398Y50434D01*
X105432Y50411D01*
X105469Y50383D01*
X105585Y50282D01*
X105649Y50220D01*
X105713Y50195D01*
X107188Y48719D01*
X106997Y48258D01*
X104965D01*
X104907Y48284D01*
X104722Y48291D01*
X104668Y48297D01*
X104620Y48304D01*
X104584Y48312D01*
X104563Y48319D01*
X104559Y48320D01*
X104544Y48330D01*
X104535Y48332D01*
X104528Y48335D01*
X104508Y48337D01*
X104496Y48340D01*
X104489Y48342D01*
X104059Y48629D01*
X103445Y48751D01*
X102830Y48629D01*
X102310Y48281D01*
X101962Y47760D01*
X101839Y47146D01*
X101962Y46531D01*
X102310Y46010D01*
X102830Y45662D01*
X103445Y45540D01*
X104059Y45662D01*
X104489Y45949D01*
X104496Y45952D01*
X104508Y45954D01*
X104528Y45956D01*
X104535Y45960D01*
X104544Y45961D01*
X104559Y45971D01*
X104563Y45973D01*
X104584Y45979D01*
X104620Y45987D01*
X104661Y45993D01*
X104808Y46005D01*
X104895Y46007D01*
X104957Y46034D01*
X107217D01*
X108057Y45193D01*
Y44400D01*
X108053Y44389D01*
X107959Y44303D01*
X107589Y44126D01*
X107527Y44122D01*
X107120Y44203D01*
X105975D01*
X105530Y44114D01*
X105153Y43862D01*
X104792D01*
X104415Y44114D01*
X103970Y44203D01*
X102825D01*
X102380Y44114D01*
X102003Y43862D01*
X101642D01*
X101265Y44114D01*
X100820Y44203D01*
X99676D01*
X99231Y44114D01*
X98854Y43862D01*
X98493D01*
X98116Y44114D01*
X97671Y44203D01*
X96526D01*
X96081Y44114D01*
X95704Y43862D01*
X95343D01*
X94966Y44114D01*
X94521Y44203D01*
X93377D01*
X92932Y44114D01*
X92554Y43862D01*
X92302Y43485D01*
X92214Y43040D01*
Y38846D01*
X92201Y38813D01*
X92214Y38785D01*
Y38714D01*
X92213Y38708D01*
X92214Y38706D01*
Y38488D01*
X92166Y38420D01*
X91874Y38078D01*
X91680Y37878D01*
X91655Y37814D01*
X83004Y29163D01*
X64173D01*
X63748Y29079D01*
X63387Y28837D01*
X63387Y28837D01*
X50930Y16380D01*
X50874Y16361D01*
X50765Y16265D01*
X50667Y16197D01*
X50548Y16133D01*
X50406Y16074D01*
X50240Y16020D01*
X50049Y15975D01*
X49842Y15940D01*
X49323Y15898D01*
X49033Y15895D01*
X48962Y15865D01*
X48245Y15770D01*
X47527Y15473D01*
X46910Y15000D01*
X46437Y14383D01*
X46139Y13665D01*
X46038Y12894D01*
X46139Y12123D01*
X46437Y11405D01*
X46910Y10788D01*
X47527Y10315D01*
X48245Y10017D01*
X49016Y9916D01*
X49787Y10017D01*
X50505Y10315D01*
X51122Y10788D01*
X51595Y11405D01*
X51893Y12123D01*
X51985Y12827D01*
X52017Y12896D01*
X52036Y13480D01*
X52061Y13712D01*
X52097Y13927D01*
X52143Y14118D01*
X52196Y14284D01*
X52255Y14426D01*
X52319Y14545D01*
X52387Y14642D01*
X52483Y14752D01*
X52503Y14808D01*
X64634Y26939D01*
X67758D01*
X67772Y26918D01*
X67910Y26439D01*
X67816Y26377D01*
X67816Y26377D01*
X58119Y16679D01*
X58062Y16660D01*
X57973Y16581D01*
X57889Y16519D01*
X57588Y16346D01*
X57421Y16267D01*
X56353Y15869D01*
X56028Y15769D01*
X56028Y15769D01*
X56028Y15769D01*
X55941Y15697D01*
X55401Y15473D01*
X54784Y15000D01*
X54311Y14383D01*
X54013Y13665D01*
X53912Y12894D01*
X54013Y12123D01*
X54311Y11405D01*
X54784Y10788D01*
X55401Y10315D01*
X56119Y10017D01*
X56890Y9916D01*
X57661Y10017D01*
X58379Y10315D01*
X58996Y10788D01*
X59469Y11405D01*
X59767Y12123D01*
X59868Y12894D01*
X59767Y13665D01*
X59746Y13713D01*
X59755Y13787D01*
X59685Y14032D01*
X59642Y14239D01*
X59619Y14425D01*
X59614Y14590D01*
X59625Y14734D01*
X59650Y14860D01*
X59686Y14970D01*
X59734Y15068D01*
X59795Y15159D01*
X59898Y15277D01*
X59917Y15333D01*
X69063Y24479D01*
X74069D01*
X74276Y23979D01*
X66678Y16380D01*
X66622Y16361D01*
X66513Y16265D01*
X66415Y16197D01*
X66296Y16133D01*
X66154Y16074D01*
X65988Y16020D01*
X65797Y15975D01*
X65590Y15940D01*
X65071Y15898D01*
X64781Y15895D01*
X64710Y15865D01*
X63993Y15770D01*
X63275Y15473D01*
X62658Y15000D01*
X62185Y14383D01*
X61887Y13665D01*
X61786Y12894D01*
X61887Y12123D01*
X62185Y11405D01*
X62658Y10788D01*
X63275Y10315D01*
X63993Y10017D01*
X64764Y9916D01*
X65535Y10017D01*
X66253Y10315D01*
X66870Y10788D01*
X67343Y11405D01*
X67641Y12123D01*
X67733Y12827D01*
X67765Y12896D01*
X67784Y13480D01*
X67809Y13712D01*
X67845Y13927D01*
X67891Y14118D01*
X67944Y14284D01*
X68003Y14426D01*
X68067Y14545D01*
X68135Y14642D01*
X68231Y14752D01*
X68251Y14808D01*
X75756Y22313D01*
X79778D01*
X79985Y21813D01*
X74552Y16380D01*
X74496Y16361D01*
X74387Y16265D01*
X74289Y16197D01*
X74170Y16133D01*
X74028Y16074D01*
X73862Y16020D01*
X73671Y15975D01*
X73464Y15940D01*
X72945Y15898D01*
X72655Y15895D01*
X72584Y15865D01*
X71867Y15770D01*
X71149Y15473D01*
X70532Y15000D01*
X70059Y14383D01*
X69761Y13665D01*
X69660Y12894D01*
X69761Y12123D01*
X70059Y11405D01*
X70532Y10788D01*
X71149Y10315D01*
X71867Y10017D01*
X72638Y9916D01*
X73409Y10017D01*
X74127Y10315D01*
X74744Y10788D01*
X75217Y11405D01*
X75515Y12123D01*
X75607Y12827D01*
X75639Y12896D01*
X75658Y13480D01*
X75683Y13712D01*
X75719Y13927D01*
X75765Y14118D01*
X75818Y14284D01*
X75877Y14426D01*
X75941Y14545D01*
X76009Y14642D01*
X76105Y14752D01*
X76125Y14808D01*
X81630Y20313D01*
X88354D01*
X88354Y20313D01*
X88780Y20398D01*
X89141Y20639D01*
X89471Y20276D01*
X88910Y19714D01*
X86221D01*
X85795Y19630D01*
X85434Y19389D01*
X85434Y19389D01*
X82426Y16380D01*
X82370Y16361D01*
X82261Y16265D01*
X82163Y16197D01*
X82044Y16133D01*
X81902Y16074D01*
X81736Y16020D01*
X81545Y15975D01*
X81338Y15940D01*
X80819Y15898D01*
X80529Y15895D01*
X80458Y15865D01*
X79741Y15770D01*
X79023Y15473D01*
X78406Y15000D01*
X77933Y14383D01*
X77635Y13665D01*
X77534Y12894D01*
X77635Y12123D01*
X77933Y11405D01*
X78406Y10788D01*
X79023Y10315D01*
X79741Y10017D01*
X80512Y9916D01*
X81283Y10017D01*
X82001Y10315D01*
X82618Y10788D01*
X83091Y11405D01*
X83389Y12123D01*
X83481Y12827D01*
X83513Y12896D01*
X83532Y13480D01*
X83557Y13712D01*
X83593Y13927D01*
X83639Y14118D01*
X83692Y14284D01*
X83751Y14426D01*
X83815Y14545D01*
X83883Y14642D01*
X83979Y14752D01*
X83999Y14808D01*
X86681Y17490D01*
X89370D01*
X89370Y17490D01*
X89796Y17575D01*
X90156Y17816D01*
X107334Y34993D01*
X107574Y35354D01*
X107659Y35780D01*
X107659Y35780D01*
Y36608D01*
X107686Y36668D01*
X107690Y36813D01*
X107700Y36926D01*
X107716Y37022D01*
X107735Y37102D01*
X107757Y37166D01*
X107779Y37215D01*
X107801Y37251D01*
X107821Y37277D01*
X107946Y37323D01*
X108032Y37345D01*
X108200Y37351D01*
X108459Y37305D01*
X108469Y37301D01*
X108680Y37160D01*
X109125Y37071D01*
X110269D01*
X110714Y37160D01*
X110925Y37301D01*
X110935Y37305D01*
X111194Y37351D01*
X111362Y37345D01*
X111447Y37323D01*
X111572Y37277D01*
X111593Y37251D01*
X111614Y37215D01*
X111637Y37166D01*
X111659Y37102D01*
X111678Y37022D01*
X111693Y36926D01*
X111703Y36813D01*
X111707Y36668D01*
X111734Y36608D01*
Y35354D01*
X103249Y26869D01*
X103008Y26508D01*
X102924Y26083D01*
X102924Y26083D01*
Y9154D01*
X102924Y9154D01*
X103008Y8728D01*
X103249Y8367D01*
X105316Y6300D01*
X105316Y6300D01*
X105677Y6059D01*
X106102Y5975D01*
X113386D01*
X113386Y5975D01*
X113811Y6059D01*
X114172Y6300D01*
X116141Y8269D01*
X116382Y8630D01*
X116466Y9055D01*
X116466Y9055D01*
Y11358D01*
X116966Y11527D01*
X117425Y10929D01*
X118202Y10333D01*
X119107Y9958D01*
X120079Y9830D01*
X121050Y9958D01*
X121955Y10333D01*
X122732Y10929D01*
X123329Y11706D01*
X123703Y12611D01*
X123829Y13566D01*
X123848Y13610D01*
X123851Y14049D01*
X123901Y14825D01*
X123945Y15144D01*
X124003Y15432D01*
X124072Y15681D01*
X124148Y15891D01*
X124231Y16060D01*
X124315Y16191D01*
X124430Y16326D01*
X124448Y16379D01*
X125885Y17816D01*
X125885Y17816D01*
X126126Y18177D01*
X126210Y18602D01*
Y26673D01*
X126210Y26673D01*
X126126Y27099D01*
X125885Y27459D01*
X122344Y31000D01*
Y43675D01*
X122371Y43736D01*
X122376Y43909D01*
X122387Y44037D01*
X122403Y44134D01*
X122404Y44138D01*
X123635D01*
X124080Y44227D01*
X124457Y44479D01*
X124709Y44856D01*
X124798Y45301D01*
Y46446D01*
X124709Y46890D01*
X124594Y47064D01*
X124574Y47139D01*
X124596Y47356D01*
X124679Y47574D01*
X124746Y47667D01*
X124793Y47682D01*
X124979Y47732D01*
X125182Y47774D01*
X125394Y47807D01*
X125893Y47847D01*
X126058Y47850D01*
X126240Y47846D01*
X126758Y47800D01*
X126981Y47762D01*
X127198Y47713D01*
X127402Y47655D01*
X127594Y47586D01*
X127678Y47549D01*
X127723Y47449D01*
X127796Y47253D01*
X127858Y47047D01*
X127909Y46831D01*
X127948Y46611D01*
X127997Y46105D01*
X128003Y45836D01*
X128020Y45796D01*
Y41708D01*
X126522Y40210D01*
X126174Y39689D01*
X126052Y39075D01*
X126174Y38460D01*
X126522Y37939D01*
X127043Y37591D01*
X127657Y37469D01*
X128272Y37591D01*
X128793Y37939D01*
X130761Y39908D01*
X131109Y40429D01*
X131232Y41043D01*
X131232Y41043D01*
Y45785D01*
X131249Y45821D01*
X131274Y46371D01*
X131303Y46603D01*
X131343Y46831D01*
X131394Y47047D01*
X131456Y47253D01*
X131529Y47449D01*
X131612Y47634D01*
X131705Y47810D01*
X131820Y47996D01*
X131834Y48082D01*
X131844Y48098D01*
X131868Y48217D01*
X131916Y48333D01*
X131899Y48373D01*
X131958Y48669D01*
Y50741D01*
X131844Y51312D01*
X131541Y51765D01*
X131495Y51853D01*
X131490Y51855D01*
X131488Y51859D01*
X131402Y51928D01*
X131355Y51982D01*
X131302Y52064D01*
X131247Y52179D01*
X131194Y52329D01*
X131146Y52515D01*
X131108Y52726D01*
X131066Y53203D01*
X131077Y53458D01*
X131106Y53690D01*
X131146Y53917D01*
X131198Y54134D01*
X131260Y54340D01*
X131332Y54535D01*
X131415Y54721D01*
X131508Y54897D01*
X131623Y55082D01*
X131637Y55169D01*
X131647Y55184D01*
X131671Y55304D01*
X131719Y55419D01*
X131702Y55460D01*
X131761Y55755D01*
Y57827D01*
X131709Y58091D01*
X131716Y58105D01*
X131687Y58200D01*
X131647Y58399D01*
X131642Y58407D01*
X131630Y58489D01*
X131557Y58613D01*
X131502Y58731D01*
X131448Y58877D01*
X131399Y59048D01*
X131355Y59246D01*
X131320Y59457D01*
X131254Y60296D01*
X131249Y60612D01*
X131232Y60654D01*
Y74409D01*
X131232Y74410D01*
X131109Y75024D01*
X130761Y75545D01*
X130761Y75545D01*
X125250Y81057D01*
X124729Y81405D01*
X124114Y81527D01*
X124114Y81527D01*
X120597D01*
X120559Y81544D01*
X119915Y81568D01*
X119663Y81594D01*
X119439Y81630D01*
X119251Y81674D01*
X119101Y81722D01*
X118990Y81772D01*
X118916Y81816D01*
X118876Y81850D01*
X118818Y81920D01*
X118789Y81936D01*
X118777Y81966D01*
X118661Y82013D01*
X118291Y82261D01*
X117740Y82370D01*
D02*
G37*
G36*
X157274Y19242D02*
X156111D01*
X156051Y19217D01*
X155987Y19229D01*
X154846Y19002D01*
X154791Y18966D01*
X154726D01*
X153651Y18521D01*
X153605Y18474D01*
X153541Y18462D01*
X152573Y17815D01*
X152537Y17761D01*
X152476Y17736D01*
X151654Y16913D01*
X151629Y16853D01*
X151574Y16816D01*
X150928Y15849D01*
X150915Y15785D01*
X150869Y15739D01*
X150424Y14664D01*
Y14599D01*
X150387Y14544D01*
X150161Y13403D01*
X150173Y13339D01*
X150148Y13279D01*
Y12115D01*
X150173Y12055D01*
X150161Y11991D01*
X150387Y10850D01*
X150424Y10795D01*
Y10730D01*
X150869Y9655D01*
X150915Y9609D01*
X150928Y9544D01*
X151574Y8577D01*
X151629Y8541D01*
X151654Y8480D01*
X152476Y7658D01*
X152537Y7633D01*
X152573Y7578D01*
X153541Y6932D01*
X153605Y6919D01*
X153651Y6873D01*
X154726Y6428D01*
X154791D01*
X154846Y6391D01*
X155987Y6164D01*
X156051Y6177D01*
X156111Y6152D01*
X157274D01*
X157335Y6177D01*
X157399Y6164D01*
X158540Y6391D01*
X158595Y6428D01*
X158660D01*
X159735Y6873D01*
X159781Y6919D01*
X159845Y6932D01*
X160813Y7578D01*
X160849Y7633D01*
X160909Y7658D01*
X161732Y8480D01*
X161757Y8541D01*
X161811Y8577D01*
X162458Y9544D01*
X162471Y9609D01*
X162517Y9655D01*
X162962Y10730D01*
Y10795D01*
X162998Y10850D01*
X163225Y11991D01*
X163213Y12055D01*
X163238Y12115D01*
Y13279D01*
X163213Y13339D01*
X163225Y13403D01*
X162998Y14544D01*
X162962Y14599D01*
Y14664D01*
X162517Y15739D01*
X162471Y15785D01*
X162458Y15849D01*
X161811Y16816D01*
X161757Y16853D01*
X161732Y16913D01*
X160909Y17736D01*
X160849Y17761D01*
X160813Y17815D01*
X159845Y18462D01*
X159781Y18474D01*
X159735Y18521D01*
X158660Y18966D01*
X158595D01*
X158540Y19002D01*
X157399Y19229D01*
X157335Y19217D01*
X157274Y19242D01*
D02*
G37*
G36*
X91115Y69655D02*
X86310D01*
X85865Y69567D01*
X85585Y69380D01*
X85470Y69332D01*
X85453Y69291D01*
X85414Y69269D01*
X85373Y69215D01*
X85353Y69195D01*
X85326Y69174D01*
X85290Y69152D01*
X85242Y69130D01*
X85178Y69108D01*
X85098Y69089D01*
X85002Y69074D01*
X84889Y69064D01*
X84743Y69059D01*
X84683Y69032D01*
X59358D01*
X58932Y68948D01*
X58571Y68707D01*
X58571Y68707D01*
X44926Y55062D01*
X44685Y54701D01*
X44601Y54276D01*
X44601Y54276D01*
Y41222D01*
X44504Y41145D01*
X44443Y41122D01*
X44220Y41132D01*
X43872Y41279D01*
X43849Y41331D01*
X43776Y41526D01*
X43714Y41732D01*
X43663Y41949D01*
X43624Y42169D01*
X43575Y42675D01*
X43569Y42943D01*
X43551Y42983D01*
Y45259D01*
X43551Y45259D01*
X43429Y45873D01*
X43081Y46394D01*
X43081Y46394D01*
X41725Y47751D01*
X41708Y47792D01*
X41310Y48204D01*
X40646Y48973D01*
X40393Y49315D01*
X40180Y49639D01*
X40013Y49938D01*
X39891Y50210D01*
X39810Y50452D01*
X39775Y50626D01*
Y50699D01*
X39762Y50763D01*
X39755Y50893D01*
X39724Y50959D01*
X39652Y51317D01*
X39302Y51841D01*
X38778Y52192D01*
X38160Y52315D01*
X36250D01*
X35632Y52192D01*
X35107Y51841D01*
X34757Y51317D01*
X34634Y50699D01*
Y45954D01*
X34757Y45336D01*
X35107Y44812D01*
X35632Y44462D01*
X36250Y44339D01*
X38160D01*
X38778Y44462D01*
X39302Y44812D01*
X39321Y44840D01*
X39627Y44973D01*
X39674Y44980D01*
X39978Y44924D01*
X40112Y44797D01*
X40152Y44782D01*
X40340Y44594D01*
Y42995D01*
X40323Y42958D01*
X40298Y42408D01*
X40269Y42176D01*
X40229Y41949D01*
X40178Y41732D01*
X40115Y41526D01*
X40043Y41331D01*
X39960Y41146D01*
X39867Y40969D01*
X39752Y40784D01*
X39738Y40697D01*
X39728Y40682D01*
X39704Y40562D01*
X39656Y40447D01*
X39673Y40406D01*
X39614Y40111D01*
Y38039D01*
X39666Y37776D01*
X39659Y37761D01*
X39688Y37666D01*
X39728Y37468D01*
X39737Y37453D01*
X39751Y37368D01*
X39858Y37193D01*
X39944Y37027D01*
X40022Y36849D01*
X40089Y36659D01*
X40148Y36455D01*
X40197Y36237D01*
X40234Y36013D01*
X40280Y35493D01*
X40286Y35215D01*
X40304Y35174D01*
Y34058D01*
X40286Y34018D01*
X40277Y33610D01*
X40251Y33268D01*
X40209Y32982D01*
X40155Y32753D01*
X40095Y32585D01*
X40074Y32545D01*
X39980Y32526D01*
X39554Y32242D01*
X39496Y32218D01*
X39487Y32197D01*
X39457Y32177D01*
X39446Y32161D01*
X39445Y32160D01*
X39444Y32158D01*
X39107Y31654D01*
X38985Y31037D01*
Y25853D01*
X39107Y25236D01*
X39457Y24713D01*
X39980Y24363D01*
X40597Y24241D01*
X42853D01*
X43060Y23741D01*
X35504Y16185D01*
X35468Y16176D01*
X35451Y16149D01*
X35421Y16138D01*
X35306Y16038D01*
X35211Y15974D01*
X35102Y15918D01*
X34975Y15871D01*
X34828Y15834D01*
X34659Y15809D01*
X34468Y15797D01*
X34254Y15800D01*
X34019Y15819D01*
X33745Y15857D01*
X33624Y15825D01*
X33268Y15872D01*
X32497Y15770D01*
X31779Y15473D01*
X31162Y15000D01*
X30689Y14383D01*
X30391Y13665D01*
X30290Y12894D01*
X30391Y12123D01*
X30689Y11405D01*
X31162Y10788D01*
X31779Y10315D01*
X32497Y10017D01*
X33268Y9916D01*
X34038Y10017D01*
X34757Y10315D01*
X35374Y10788D01*
X35847Y11405D01*
X36145Y12123D01*
X36174Y12349D01*
X36236Y12449D01*
X36288Y12769D01*
X36342Y13048D01*
X36472Y13555D01*
X36538Y13756D01*
X36610Y13937D01*
X36683Y14089D01*
X36756Y14214D01*
X36825Y14312D01*
X36915Y14414D01*
X36934Y14470D01*
X46499Y24035D01*
X46499Y24035D01*
X46616Y24211D01*
X47116Y24059D01*
Y20441D01*
X43056Y16380D01*
X43000Y16361D01*
X42891Y16265D01*
X42793Y16197D01*
X42674Y16133D01*
X42532Y16074D01*
X42366Y16020D01*
X42175Y15975D01*
X41968Y15940D01*
X41449Y15898D01*
X41159Y15895D01*
X41088Y15865D01*
X40371Y15770D01*
X39653Y15473D01*
X39036Y15000D01*
X38563Y14383D01*
X38265Y13665D01*
X38164Y12894D01*
X38265Y12123D01*
X38563Y11405D01*
X39036Y10788D01*
X39653Y10315D01*
X40371Y10017D01*
X41142Y9916D01*
X41912Y10017D01*
X42631Y10315D01*
X43248Y10788D01*
X43721Y11405D01*
X43784Y11556D01*
X43798Y11565D01*
X44039Y11926D01*
X44124Y12352D01*
Y12855D01*
X44143Y12896D01*
X44162Y13480D01*
X44187Y13712D01*
X44223Y13927D01*
X44269Y14118D01*
X44322Y14284D01*
X44381Y14426D01*
X44445Y14545D01*
X44513Y14642D01*
X44609Y14752D01*
X44629Y14808D01*
X49015Y19194D01*
X49015Y19194D01*
X49256Y19555D01*
X49340Y19980D01*
Y49343D01*
X63657Y63659D01*
X84683D01*
X84743Y63632D01*
X84889Y63628D01*
X85002Y63618D01*
X85098Y63602D01*
X85178Y63583D01*
X85242Y63561D01*
X85290Y63539D01*
X85326Y63517D01*
X85353Y63497D01*
X85373Y63477D01*
X85414Y63422D01*
X85453Y63400D01*
X85470Y63359D01*
X85585Y63311D01*
X85865Y63124D01*
X86310Y63036D01*
X91115D01*
X91561Y63124D01*
X91938Y63376D01*
X92190Y63754D01*
X92278Y64199D01*
Y65343D01*
X92190Y65788D01*
X92049Y65999D01*
X91976Y66346D01*
X92049Y66692D01*
X92190Y66903D01*
X92278Y67348D01*
Y68493D01*
X92190Y68938D01*
X91938Y69315D01*
X91561Y69567D01*
X91115Y69655D01*
D02*
G37*
G36*
X8563Y66462D02*
X7792Y66361D01*
X7074Y66063D01*
X6457Y65590D01*
X5984Y64973D01*
X5686Y64255D01*
X5585Y63484D01*
X5686Y62713D01*
X5984Y61995D01*
X6457Y61378D01*
X7074Y60905D01*
X7792Y60607D01*
X8563Y60506D01*
X9334Y60607D01*
X10052Y60905D01*
X10669Y61378D01*
X11142Y61995D01*
X11440Y62713D01*
X11541Y63484D01*
X11440Y64255D01*
X11142Y64973D01*
X10669Y65590D01*
X10052Y66063D01*
X9334Y66361D01*
X8563Y66462D01*
D02*
G37*
G36*
Y58490D02*
X7792Y58389D01*
X7074Y58091D01*
X6457Y57618D01*
X5984Y57001D01*
X5686Y56283D01*
X5585Y55512D01*
X5686Y54741D01*
X5984Y54023D01*
X6457Y53406D01*
X7074Y52933D01*
X7792Y52635D01*
X8563Y52534D01*
X9334Y52635D01*
X10052Y52933D01*
X10669Y53406D01*
X11142Y54023D01*
X11440Y54741D01*
X11541Y55512D01*
X11440Y56283D01*
X11142Y57001D01*
X10669Y57618D01*
X10052Y58091D01*
X9334Y58389D01*
X8563Y58490D01*
D02*
G37*
G36*
X31254Y32649D02*
X28628D01*
X28011Y32526D01*
X27488Y32177D01*
X27139Y31654D01*
X27016Y31037D01*
Y29807D01*
X27007Y29790D01*
X26995Y29678D01*
X26988Y29658D01*
X26976Y29641D01*
X26941Y29607D01*
X26861Y29559D01*
X26727Y29505D01*
X26539Y29454D01*
X26296Y29414D01*
X26003Y29388D01*
X25645Y29379D01*
X25606Y29362D01*
X24606D01*
X23992Y29239D01*
X23471Y28891D01*
X23123Y28370D01*
X23001Y27756D01*
X23123Y27141D01*
X23471Y26621D01*
X23992Y26272D01*
X24606Y26150D01*
X25606D01*
X25646Y26133D01*
X26004Y26123D01*
X26299Y26098D01*
X26543Y26057D01*
X26734Y26007D01*
X26869Y25952D01*
X26951Y25903D01*
X26988Y25869D01*
X27001Y25851D01*
X27008Y25831D01*
X27020Y25720D01*
X27055Y25655D01*
X27139Y25236D01*
X27488Y24713D01*
X28011Y24363D01*
X28628Y24241D01*
X31254D01*
X31871Y24363D01*
X32394Y24713D01*
X32743Y25236D01*
X32866Y25853D01*
Y31037D01*
X32743Y31654D01*
X32394Y32177D01*
X31871Y32526D01*
X31254Y32649D01*
D02*
G37*
G36*
X12196Y95127D02*
X11033D01*
X10972Y95102D01*
X10908Y95115D01*
X9767Y94888D01*
X9712Y94852D01*
X9647D01*
X8572Y94407D01*
X8526Y94360D01*
X8462Y94348D01*
X7495Y93701D01*
X7458Y93647D01*
X7398Y93622D01*
X6575Y92799D01*
X6550Y92739D01*
X6496Y92702D01*
X5849Y91735D01*
X5836Y91671D01*
X5790Y91625D01*
X5345Y90550D01*
Y90484D01*
X5309Y90430D01*
X5082Y89289D01*
X5094Y89225D01*
X5069Y89164D01*
Y88001D01*
X5094Y87941D01*
X5082Y87876D01*
X5309Y86735D01*
X5345Y86681D01*
Y86616D01*
X5790Y85541D01*
X5836Y85495D01*
X5849Y85430D01*
X6496Y84463D01*
X6550Y84427D01*
X6575Y84366D01*
X7398Y83544D01*
X7458Y83518D01*
X7495Y83464D01*
X8462Y82818D01*
X8526Y82805D01*
X8572Y82759D01*
X9647Y82314D01*
X9712D01*
X9767Y82277D01*
X10908Y82050D01*
X10972Y82063D01*
X11033Y82038D01*
X12196D01*
X12256Y82063D01*
X12320Y82050D01*
X13461Y82277D01*
X13516Y82314D01*
X13581D01*
X14656Y82759D01*
X14702Y82805D01*
X14767Y82818D01*
X15734Y83464D01*
X15770Y83518D01*
X15831Y83544D01*
X16653Y84366D01*
X16678Y84427D01*
X16733Y84463D01*
X17379Y85430D01*
X17392Y85495D01*
X17438Y85541D01*
X17883Y86616D01*
Y86681D01*
X17920Y86735D01*
X18147Y87876D01*
X18134Y87941D01*
X18159Y88001D01*
Y89164D01*
X18134Y89225D01*
X18147Y89289D01*
X17920Y90430D01*
X17883Y90484D01*
Y90550D01*
X17438Y91625D01*
X17392Y91671D01*
X17379Y91735D01*
X16733Y92702D01*
X16678Y92739D01*
X16653Y92799D01*
X15831Y93622D01*
X15770Y93647D01*
X15734Y93701D01*
X14767Y94348D01*
X14702Y94360D01*
X14656Y94407D01*
X13581Y94852D01*
X13516D01*
X13461Y94888D01*
X12320Y95115D01*
X12256Y95102D01*
X12196Y95127D01*
D02*
G37*
G36*
X131496Y86447D02*
X131496Y86447D01*
X114961D01*
X114961Y86447D01*
X114535Y86362D01*
X114174Y86121D01*
X111007Y82953D01*
X110946Y82931D01*
X110944Y82926D01*
X110940Y82924D01*
X110783Y82774D01*
X110644Y82653D01*
X110515Y82552D01*
X110397Y82471D01*
X110291Y82409D01*
X110205Y82368D01*
X109965Y82321D01*
X109932Y82322D01*
X109889Y82306D01*
X109661Y82261D01*
X109571Y82200D01*
X109510Y82182D01*
X109497Y82160D01*
X109474Y82151D01*
X109463Y82128D01*
X109194Y81948D01*
X108881Y81480D01*
X108806Y81102D01*
X108768Y81092D01*
X108670Y81076D01*
X108542Y81065D01*
X108369Y81060D01*
X108308Y81033D01*
X106534D01*
X106473Y81060D01*
X106287Y81065D01*
X106145Y81076D01*
X106034Y81093D01*
X105963Y81111D01*
X105958Y81135D01*
X105819Y81344D01*
X105800Y81384D01*
X105789Y81388D01*
X105635Y81619D01*
X105150Y81943D01*
X104579Y82056D01*
X102507D01*
X101936Y81943D01*
X101452Y81619D01*
X101128Y81135D01*
X101015Y80564D01*
Y78885D01*
X101128Y78314D01*
X101452Y77830D01*
X101936Y77506D01*
X102364Y77421D01*
X102373Y77389D01*
X102389Y77291D01*
X102400Y77163D01*
X102403Y77054D01*
X102400Y76928D01*
X102388Y76778D01*
X102371Y76662D01*
X102361Y76621D01*
X102180Y76500D01*
X102113Y76475D01*
X101821Y76420D01*
X101476Y76493D01*
X101265Y76634D01*
X100820Y76722D01*
X99676D01*
X99231Y76634D01*
X99020Y76493D01*
X98673Y76420D01*
X98326Y76493D01*
X98116Y76634D01*
X97671Y76722D01*
X96526D01*
X96081Y76634D01*
X95704Y76382D01*
X95343D01*
X94966Y76634D01*
X94521Y76722D01*
X93377D01*
X92932Y76634D01*
X92554Y76382D01*
X92302Y76005D01*
X92214Y75560D01*
Y70754D01*
X92302Y70309D01*
X92489Y70029D01*
X92537Y69914D01*
X92578Y69897D01*
X92600Y69858D01*
X92655Y69817D01*
X92675Y69797D01*
X92695Y69771D01*
X92717Y69735D01*
X92739Y69686D01*
X92761Y69622D01*
X92780Y69542D01*
X92796Y69446D01*
X92806Y69333D01*
X92810Y69188D01*
X92837Y69127D01*
Y65500D01*
X92837Y65500D01*
X92922Y65074D01*
X93163Y64714D01*
X93808Y64068D01*
X93830Y64008D01*
X93956Y63873D01*
X93990Y63831D01*
X94019Y63791D01*
X94039Y63760D01*
X94050Y63740D01*
X94051Y63736D01*
X94055Y63719D01*
X94059Y63712D01*
X94062Y63704D01*
X94075Y63689D01*
X94082Y63679D01*
X94085Y63672D01*
X94186Y63165D01*
X94534Y62644D01*
X95055Y62296D01*
X95669Y62174D01*
X96284Y62296D01*
X96805Y62644D01*
X97153Y63165D01*
X97275Y63779D01*
X97153Y64394D01*
X96805Y64915D01*
X96284Y65263D01*
X95777Y65364D01*
X95770Y65367D01*
X95760Y65374D01*
X95745Y65387D01*
X95737Y65389D01*
X95730Y65394D01*
X95712Y65398D01*
X95708Y65399D01*
X95688Y65410D01*
X95658Y65430D01*
X95624Y65454D01*
X95512Y65550D01*
X95450Y65610D01*
X95386Y65635D01*
X95061Y65961D01*
Y69127D01*
X95088Y69188D01*
X95092Y69333D01*
X95102Y69446D01*
X95117Y69542D01*
X95137Y69622D01*
X95158Y69686D01*
X95181Y69735D01*
X95202Y69771D01*
X95223Y69797D01*
X95348Y69843D01*
X95433Y69864D01*
X95601Y69871D01*
X95860Y69825D01*
X95870Y69820D01*
X96081Y69679D01*
X96526Y69591D01*
X97671D01*
X98116Y69679D01*
X98326Y69820D01*
X98673Y69894D01*
X99020Y69820D01*
X99231Y69679D01*
X99676Y69591D01*
X100820D01*
X101265Y69679D01*
X101476Y69820D01*
X101823Y69894D01*
X102170Y69820D01*
X102380Y69679D01*
X102825Y69591D01*
X103970D01*
X104415Y69679D01*
X104626Y69820D01*
X104972Y69894D01*
X105319Y69820D01*
X105530Y69679D01*
X105975Y69591D01*
X107120D01*
X107564Y69679D01*
X107775Y69820D01*
X108122Y69894D01*
X108469Y69820D01*
X108680Y69679D01*
X109125Y69591D01*
X110269D01*
X110714Y69679D01*
X110925Y69820D01*
X111272Y69894D01*
X111618Y69820D01*
X111829Y69679D01*
X112274Y69591D01*
X113419D01*
X113864Y69679D01*
X114241Y69932D01*
X114602D01*
X114979Y69679D01*
X115424Y69591D01*
X116568D01*
X117013Y69679D01*
X117390Y69932D01*
X117642Y70309D01*
X117731Y70754D01*
Y75560D01*
X117642Y76005D01*
X117390Y76382D01*
X117013Y76634D01*
X116568Y76722D01*
X115424D01*
X114979Y76634D01*
X114602Y76382D01*
X114241D01*
X113864Y76634D01*
X113419Y76722D01*
X112274D01*
X111829Y76634D01*
X111618Y76493D01*
X111272Y76420D01*
X110925Y76493D01*
X110714Y76634D01*
X110269Y76722D01*
X109125D01*
X108680Y76634D01*
X108469Y76493D01*
X108122Y76420D01*
X107775Y76493D01*
X107564Y76634D01*
X107120Y76722D01*
X105975D01*
X105530Y76634D01*
X105319Y76493D01*
X105317Y76492D01*
X105149Y76455D01*
X105004Y76526D01*
X104702Y76730D01*
X104685Y76944D01*
X104683Y77039D01*
X104687Y77163D01*
X104698Y77291D01*
X104714Y77389D01*
X104723Y77421D01*
X105150Y77506D01*
X105635Y77830D01*
X105958Y78314D01*
X106044Y78744D01*
X106066Y78750D01*
X106166Y78767D01*
X106297Y78778D01*
X106474Y78782D01*
X106535Y78809D01*
X108308D01*
X108369Y78782D01*
X108542Y78778D01*
X108670Y78767D01*
X108768Y78751D01*
X108806Y78740D01*
X108881Y78362D01*
X109194Y77895D01*
X109661Y77582D01*
X110213Y77472D01*
X111795D01*
X112346Y77582D01*
X112814Y77895D01*
X113127Y78362D01*
X113236Y78914D01*
Y80929D01*
X113127Y81480D01*
X112985Y81692D01*
X112980Y81720D01*
X113054Y81810D01*
X113208Y81971D01*
X113233Y82034D01*
X115421Y84223D01*
X131035D01*
X143573Y71685D01*
Y28650D01*
X132875Y17952D01*
X132822Y17934D01*
X132687Y17819D01*
X132556Y17735D01*
X132387Y17652D01*
X132177Y17575D01*
X131928Y17507D01*
X131640Y17449D01*
X131321Y17405D01*
X130545Y17355D01*
X130106Y17352D01*
X130061Y17333D01*
X129107Y17207D01*
X128202Y16833D01*
X127425Y16236D01*
X126829Y15459D01*
X126454Y14554D01*
X126326Y13583D01*
X126454Y12611D01*
X126829Y11706D01*
X127425Y10929D01*
X128202Y10333D01*
X129107Y9958D01*
X130079Y9830D01*
X131050Y9958D01*
X131955Y10333D01*
X132732Y10929D01*
X133329Y11706D01*
X133703Y12611D01*
X133829Y13566D01*
X133848Y13610D01*
X133851Y14049D01*
X133901Y14825D01*
X133946Y15144D01*
X134003Y15432D01*
X134072Y15681D01*
X134148Y15891D01*
X134231Y16060D01*
X134315Y16191D01*
X134430Y16326D01*
X134448Y16379D01*
X145471Y27403D01*
X145471Y27403D01*
X145712Y27764D01*
X145797Y28189D01*
X145797Y28189D01*
Y72146D01*
X145712Y72571D01*
X145471Y72932D01*
X145471Y72932D01*
X132282Y86121D01*
X131922Y86362D01*
X131496Y86447D01*
D02*
G37*
G36*
X19487Y21738D02*
X17781D01*
X17230Y21628D01*
X16764Y21317D01*
X16452Y20850D01*
X16342Y20300D01*
Y17609D01*
X16397Y17334D01*
X16380Y17294D01*
X16428Y17178D01*
X16452Y17059D01*
X16462Y17044D01*
X16475Y16958D01*
X16583Y16783D01*
X16669Y16618D01*
X16746Y16441D01*
X16814Y16252D01*
X16873Y16050D01*
X16921Y15835D01*
X16937Y15744D01*
X16927Y15699D01*
X16882Y15551D01*
X16830Y15416D01*
X16769Y15292D01*
X16701Y15178D01*
X16624Y15074D01*
X16520Y14955D01*
X16488Y14860D01*
X16122Y14383D01*
X15824Y13665D01*
X15723Y12894D01*
X15824Y12123D01*
X16122Y11405D01*
X16595Y10788D01*
X17212Y10315D01*
X17930Y10017D01*
X18701Y9916D01*
X19472Y10017D01*
X20190Y10315D01*
X20807Y10788D01*
X21280Y11405D01*
X21577Y12123D01*
X21679Y12894D01*
X21577Y13665D01*
X21280Y14383D01*
X20807Y15000D01*
X20786Y15016D01*
X20762Y15074D01*
X20653Y15185D01*
X20575Y15282D01*
X20506Y15388D01*
X20444Y15504D01*
X20390Y15633D01*
X20344Y15774D01*
X20339Y15795D01*
X20346Y15835D01*
X20395Y16050D01*
X20453Y16252D01*
X20521Y16441D01*
X20598Y16618D01*
X20685Y16783D01*
X20792Y16958D01*
X20806Y17044D01*
X20816Y17059D01*
X20840Y17178D01*
X20887Y17294D01*
X20871Y17334D01*
X20925Y17609D01*
Y20300D01*
X20816Y20850D01*
X20504Y21317D01*
X20038Y21628D01*
X19487Y21738D01*
D02*
G37*
G36*
X96260Y15872D02*
X95489Y15770D01*
X94771Y15473D01*
X94154Y15000D01*
X93681Y14383D01*
X93383Y13665D01*
X93282Y12894D01*
X93383Y12123D01*
X93681Y11405D01*
X94154Y10788D01*
X94771Y10315D01*
X95489Y10017D01*
X96260Y9916D01*
X97031Y10017D01*
X97749Y10315D01*
X98366Y10788D01*
X98839Y11405D01*
X99137Y12123D01*
X99238Y12894D01*
X99137Y13665D01*
X98839Y14383D01*
X98366Y15000D01*
X97749Y15473D01*
X97031Y15770D01*
X96260Y15872D01*
D02*
G37*
G36*
X88386D02*
X87615Y15770D01*
X86897Y15473D01*
X86280Y15000D01*
X85807Y14383D01*
X85509Y13665D01*
X85408Y12894D01*
X85509Y12123D01*
X85807Y11405D01*
X86280Y10788D01*
X86897Y10315D01*
X87615Y10017D01*
X88386Y9916D01*
X89157Y10017D01*
X89875Y10315D01*
X90492Y10788D01*
X90965Y11405D01*
X91263Y12123D01*
X91364Y12894D01*
X91263Y13665D01*
X90965Y14383D01*
X90492Y15000D01*
X89875Y15473D01*
X89157Y15770D01*
X88386Y15872D01*
D02*
G37*
%LPD*%
G36*
X20596Y36216D02*
X20410Y36198D01*
X20244Y36135D01*
X20097Y36027D01*
X19970Y35875D01*
X19862Y35679D01*
X19774Y35439D01*
X19706Y35153D01*
X19702Y35124D01*
X19719Y35021D01*
X19776Y34770D01*
X19845Y34531D01*
X19927Y34302D01*
X20021Y34086D01*
X20129Y33880D01*
X20248Y33686D01*
X17019D01*
X17139Y33880D01*
X17246Y34086D01*
X17341Y34302D01*
X17423Y34531D01*
X17492Y34770D01*
X17546Y35007D01*
X17502Y35181D01*
X17419Y35417D01*
X17317Y35632D01*
X17197Y35827D01*
X17059Y36002D01*
X16901Y36156D01*
X16726Y36290D01*
X20596Y36216D01*
D02*
G37*
G36*
X20689Y45215D02*
X20503Y45211D01*
X20337Y45158D01*
X20190Y45057D01*
X20063Y44906D01*
X19955Y44708D01*
X19867Y44460D01*
X19799Y44164D01*
X19787Y44082D01*
X19799Y44002D01*
X19867Y43710D01*
X19955Y43463D01*
X20063Y43261D01*
X20190Y43104D01*
X20337Y42991D01*
X20503Y42924D01*
X20689Y42901D01*
X16765D01*
X16951Y42924D01*
X17117Y42991D01*
X17264Y43104D01*
X17391Y43261D01*
X17498Y43463D01*
X17586Y43710D01*
X17654Y44002D01*
X17676Y44153D01*
X17658Y44292D01*
X17552Y44792D01*
X17484Y45015D01*
X17405Y45219D01*
X17315Y45404D01*
X17215Y45571D01*
X20689Y45215D01*
D02*
G37*
G36*
X61974Y33449D02*
X61963Y33544D01*
X61933Y33629D01*
X61883Y33704D01*
X61812Y33769D01*
X61721Y33824D01*
X61609Y33869D01*
X61478Y33904D01*
X61326Y33929D01*
X61154Y33944D01*
X60962Y33949D01*
Y34949D01*
X61154Y34954D01*
X61326Y34969D01*
X61478Y34994D01*
X61609Y35029D01*
X61721Y35074D01*
X61812Y35129D01*
X61883Y35194D01*
X61933Y35269D01*
X61963Y35354D01*
X61974Y35449D01*
Y33449D01*
D02*
G37*
G36*
X59904Y35354D02*
X59934Y35269D01*
X59985Y35194D01*
X60056Y35129D01*
X60147Y35074D01*
X60258Y35029D01*
X60389Y34994D01*
X60541Y34969D01*
X60713Y34954D01*
X60906Y34949D01*
Y33949D01*
X60713Y33944D01*
X60541Y33929D01*
X60389Y33904D01*
X60258Y33869D01*
X60147Y33824D01*
X60056Y33769D01*
X59985Y33704D01*
X59934Y33629D01*
X59904Y33544D01*
X59894Y33449D01*
Y35449D01*
X59904Y35354D01*
D02*
G37*
G36*
X116869Y37779D02*
X116790Y37701D01*
X116721Y37613D01*
X116662Y37513D01*
X116611Y37402D01*
X116570Y37281D01*
X116537Y37148D01*
X116514Y37005D01*
X116501Y36851D01*
X116496Y36686D01*
X115496D01*
X115491Y36851D01*
X115478Y37005D01*
X115455Y37148D01*
X115422Y37281D01*
X115381Y37402D01*
X115330Y37513D01*
X115271Y37613D01*
X115202Y37701D01*
X115123Y37779D01*
X115036Y37846D01*
X116956D01*
X116869Y37779D01*
D02*
G37*
G36*
X113719D02*
X113641Y37701D01*
X113572Y37613D01*
X113512Y37513D01*
X113461Y37402D01*
X113420Y37281D01*
X113388Y37148D01*
X113365Y37005D01*
X113351Y36851D01*
X113346Y36686D01*
X112346D01*
X112342Y36851D01*
X112328Y37005D01*
X112305Y37148D01*
X112273Y37281D01*
X112231Y37402D01*
X112181Y37513D01*
X112121Y37613D01*
X112052Y37701D01*
X111974Y37779D01*
X111887Y37846D01*
X113806D01*
X113719Y37779D01*
D02*
G37*
G36*
X94513Y37698D02*
X94424Y37741D01*
X94324Y37759D01*
X94212Y37751D01*
X94088Y37717D01*
X93952Y37658D01*
X93805Y37573D01*
X93646Y37463D01*
X93476Y37327D01*
X93099Y36979D01*
X92140Y37433D01*
X92348Y37648D01*
X92671Y38027D01*
X92787Y38192D01*
X92872Y38340D01*
X92927Y38471D01*
X92951Y38586D01*
X92945Y38684D01*
X92908Y38765D01*
X92840Y38829D01*
X94513Y37698D01*
D02*
G37*
G36*
X101084Y37820D02*
X101014Y37788D01*
X100952Y37735D01*
X100898Y37660D01*
X100852Y37564D01*
X100814Y37447D01*
X100785Y37308D01*
X100765Y37148D01*
X100752Y36966D01*
X100748Y36764D01*
X99748D01*
X99744Y36966D01*
X99711Y37308D01*
X99682Y37447D01*
X99644Y37564D01*
X99598Y37660D01*
X99545Y37735D01*
X99482Y37788D01*
X99412Y37820D01*
X99333Y37831D01*
X101163D01*
X101084Y37820D01*
D02*
G37*
G36*
X107420Y37779D02*
X107342Y37701D01*
X107273Y37613D01*
X107213Y37513D01*
X107162Y37402D01*
X107121Y37281D01*
X107089Y37148D01*
X107066Y37005D01*
X107052Y36851D01*
X107047Y36686D01*
X106047D01*
X106043Y36851D01*
X106029Y37005D01*
X106006Y37148D01*
X105974Y37281D01*
X105932Y37402D01*
X105882Y37513D01*
X105822Y37613D01*
X105753Y37701D01*
X105675Y37779D01*
X105587Y37846D01*
X107507D01*
X107420Y37779D01*
D02*
G37*
G36*
X104270D02*
X104192Y37701D01*
X104123Y37613D01*
X104063Y37513D01*
X104013Y37402D01*
X103971Y37281D01*
X103939Y37148D01*
X103916Y37005D01*
X103902Y36851D01*
X103898Y36686D01*
X102898D01*
X102893Y36851D01*
X102879Y37005D01*
X102856Y37148D01*
X102824Y37281D01*
X102783Y37402D01*
X102732Y37513D01*
X102672Y37613D01*
X102603Y37701D01*
X102525Y37779D01*
X102438Y37846D01*
X104358D01*
X104270Y37779D01*
D02*
G37*
G36*
X58753Y37262D02*
X58768Y37084D01*
X58793Y36927D01*
X58828Y36791D01*
X58872Y36676D01*
X58927Y36582D01*
X58992Y36509D01*
X59066Y36456D01*
X59151Y36425D01*
X59246Y36414D01*
X57250D01*
X57345Y36425D01*
X57429Y36456D01*
X57504Y36509D01*
X57569Y36582D01*
X57624Y36676D01*
X57668Y36791D01*
X57703Y36927D01*
X57728Y37084D01*
X57743Y37262D01*
X57748Y37461D01*
X58748D01*
X58753Y37262D01*
D02*
G37*
G36*
X75626Y15175D02*
X75504Y15037D01*
X75396Y14879D01*
X75300Y14702D01*
X75218Y14505D01*
X75148Y14289D01*
X75092Y14054D01*
X75050Y13799D01*
X75020Y13524D01*
X75000Y12917D01*
X72661Y15256D01*
X72975Y15259D01*
X73543Y15305D01*
X73798Y15348D01*
X74033Y15404D01*
X74249Y15473D01*
X74446Y15556D01*
X74623Y15651D01*
X74781Y15760D01*
X74919Y15882D01*
X75626Y15175D01*
D02*
G37*
G36*
X83500D02*
X83378Y15037D01*
X83270Y14879D01*
X83174Y14702D01*
X83092Y14505D01*
X83022Y14289D01*
X82966Y14054D01*
X82924Y13799D01*
X82894Y13524D01*
X82874Y12917D01*
X80535Y15256D01*
X80849Y15259D01*
X81417Y15305D01*
X81672Y15348D01*
X81907Y15404D01*
X82123Y15473D01*
X82320Y15556D01*
X82497Y15651D01*
X82655Y15760D01*
X82793Y15882D01*
X83500Y15175D01*
D02*
G37*
G36*
X59418Y15699D02*
X59286Y15549D01*
X59178Y15386D01*
X59092Y15211D01*
X59030Y15022D01*
X58991Y14819D01*
X58974Y14604D01*
X58981Y14376D01*
X59011Y14134D01*
X59064Y13880D01*
X59140Y13612D01*
X56216Y15158D01*
X56558Y15263D01*
X57671Y15678D01*
X57885Y15780D01*
X58237Y15982D01*
X58375Y16082D01*
X58487Y16182D01*
X59418Y15699D01*
D02*
G37*
G36*
X67752Y15175D02*
X67630Y15037D01*
X67521Y14879D01*
X67426Y14702D01*
X67343Y14505D01*
X67274Y14289D01*
X67218Y14054D01*
X67175Y13799D01*
X67146Y13524D01*
X67126Y12917D01*
X64787Y15256D01*
X65101Y15259D01*
X65669Y15305D01*
X65924Y15348D01*
X66159Y15404D01*
X66375Y15473D01*
X66572Y15556D01*
X66749Y15651D01*
X66907Y15760D01*
X67045Y15882D01*
X67752Y15175D01*
D02*
G37*
G36*
X114493Y37326D02*
X114741Y37253D01*
X114742Y37251D01*
X114764Y37215D01*
X114786Y37166D01*
X114808Y37102D01*
X114828Y37022D01*
X114843Y36926D01*
X114853Y36813D01*
X114857Y36668D01*
X114884Y36608D01*
Y31027D01*
X114663Y30806D01*
X114421Y30445D01*
X114337Y30020D01*
X114337Y30020D01*
Y19413D01*
X112875Y17952D01*
X112822Y17934D01*
X112687Y17819D01*
X112556Y17735D01*
X112387Y17652D01*
X112177Y17575D01*
X111928Y17507D01*
X111640Y17449D01*
X111321Y17405D01*
X110545Y17355D01*
X110106Y17352D01*
X110062Y17333D01*
X109107Y17207D01*
X108203Y16833D01*
X107425Y16236D01*
X106829Y15459D01*
X106454Y14554D01*
X106326Y13583D01*
X106454Y12611D01*
X106829Y11706D01*
X107425Y10929D01*
X108203Y10333D01*
X109107Y9958D01*
X110079Y9830D01*
X111050Y9958D01*
X111955Y10333D01*
X112732Y10929D01*
X113329Y11706D01*
X113703Y12611D01*
X113742Y12907D01*
X114242Y12875D01*
Y9516D01*
X112925Y8198D01*
X106563D01*
X105147Y9614D01*
Y25622D01*
X113633Y34107D01*
X113874Y34468D01*
X113958Y34894D01*
X113958Y34894D01*
Y36608D01*
X113985Y36668D01*
X113989Y36813D01*
X113999Y36926D01*
X114015Y37022D01*
X114034Y37102D01*
X114056Y37166D01*
X114078Y37215D01*
X114100Y37251D01*
X114102Y37253D01*
X114350Y37326D01*
X114421Y37329D01*
X114493Y37326D01*
D02*
G37*
G36*
X52004Y15175D02*
X51882Y15037D01*
X51773Y14879D01*
X51678Y14702D01*
X51595Y14505D01*
X51526Y14289D01*
X51470Y14054D01*
X51427Y13799D01*
X51398Y13524D01*
X51378Y12917D01*
X49039Y15256D01*
X49353Y15259D01*
X49921Y15305D01*
X50176Y15348D01*
X50411Y15404D01*
X50627Y15473D01*
X50824Y15556D01*
X51001Y15651D01*
X51159Y15760D01*
X51297Y15882D01*
X52004Y15175D01*
D02*
G37*
G36*
X121871Y21016D02*
X118988Y18773D01*
X118014Y19213D01*
X118187Y19410D01*
X118316Y19613D01*
X118403Y19821D01*
X118447Y20034D01*
X118448Y20253D01*
X118406Y20478D01*
X118321Y20708D01*
X118192Y20943D01*
X118021Y21184D01*
X117806Y21430D01*
X121871Y21016D01*
D02*
G37*
G36*
X118384Y44227D02*
X118829Y44138D01*
X120061D01*
X120062Y44134D01*
X120078Y44037D01*
X120089Y43909D01*
X120093Y43736D01*
X120120Y43675D01*
Y30539D01*
X120120Y30539D01*
X120205Y30114D01*
X120446Y29753D01*
X123986Y26213D01*
Y25177D01*
X123486Y25078D01*
X123329Y25459D01*
X122732Y26236D01*
X121955Y26833D01*
X121050Y27207D01*
X120079Y27335D01*
X119107Y27207D01*
X118202Y26833D01*
X117425Y26236D01*
X117061Y25761D01*
X116561Y25931D01*
Y29559D01*
X116782Y29781D01*
X116782Y29781D01*
X117023Y30141D01*
X117108Y30567D01*
X117108Y30567D01*
Y36608D01*
X117135Y36668D01*
X117139Y36813D01*
X117149Y36926D01*
X117165Y37022D01*
X117184Y37102D01*
X117206Y37166D01*
X117228Y37215D01*
X117250Y37251D01*
X117270Y37277D01*
X117290Y37297D01*
X117345Y37339D01*
X117367Y37377D01*
X117408Y37394D01*
X117456Y37510D01*
X117642Y37789D01*
X117731Y38234D01*
Y43040D01*
X117648Y43458D01*
X117647Y43464D01*
X117650Y43517D01*
X117639Y43545D01*
X117639Y43551D01*
X117635Y43557D01*
X117629Y43582D01*
X117622Y43620D01*
X117581Y44216D01*
X117695Y44324D01*
X118076Y44433D01*
X118384Y44227D01*
D02*
G37*
G36*
X113945Y16742D02*
X113801Y16574D01*
X113672Y16373D01*
X113559Y16141D01*
X113462Y15877D01*
X113381Y15580D01*
X113315Y15251D01*
X113265Y14890D01*
X113212Y14071D01*
X113208Y13614D01*
X110110Y16712D01*
X110567Y16715D01*
X111386Y16769D01*
X111747Y16819D01*
X112076Y16885D01*
X112373Y16966D01*
X112637Y17063D01*
X112870Y17176D01*
X113070Y17305D01*
X113238Y17449D01*
X113945Y16742D01*
D02*
G37*
G36*
X123945D02*
X123801Y16574D01*
X123672Y16373D01*
X123559Y16141D01*
X123462Y15877D01*
X123381Y15580D01*
X123315Y15251D01*
X123265Y14890D01*
X123212Y14071D01*
X123208Y13614D01*
X120110Y16712D01*
X120568Y16715D01*
X121386Y16769D01*
X121747Y16819D01*
X122076Y16885D01*
X122372Y16966D01*
X122637Y17063D01*
X122870Y17176D01*
X123070Y17305D01*
X123238Y17449D01*
X123945Y16742D01*
D02*
G37*
G36*
X75635Y42066D02*
X75665Y41981D01*
X75716Y41906D01*
X75787Y41841D01*
X75878Y41786D01*
X75989Y41741D01*
X76121Y41706D01*
X76273Y41681D01*
X76445Y41666D01*
X76637Y41661D01*
Y40661D01*
X76445Y40656D01*
X76273Y40641D01*
X76121Y40616D01*
X75989Y40581D01*
X75878Y40536D01*
X75787Y40481D01*
X75716Y40416D01*
X75665Y40341D01*
X75635Y40256D01*
X75625Y40161D01*
Y42161D01*
X75635Y42066D01*
D02*
G37*
G36*
X118442Y63811D02*
X118375Y63898D01*
X118297Y63977D01*
X118208Y64046D01*
X118108Y64105D01*
X117998Y64156D01*
X117876Y64197D01*
X117744Y64230D01*
X117600Y64253D01*
X117509Y64261D01*
X117332Y64245D01*
X117254Y64231D01*
X117184Y64213D01*
X117121Y64192D01*
X117065Y64169D01*
X117016Y64141D01*
X116974Y64111D01*
X117102Y65483D01*
X117141Y65443D01*
X117186Y65407D01*
X117240Y65375D01*
X117301Y65347D01*
X117369Y65324D01*
X117445Y65305D01*
X117529Y65290D01*
X117563Y65286D01*
X117600Y65289D01*
X117744Y65312D01*
X117876Y65345D01*
X117998Y65386D01*
X118108Y65437D01*
X118208Y65496D01*
X118297Y65565D01*
X118375Y65643D01*
X118442Y65731D01*
Y63811D01*
D02*
G37*
G36*
X128395Y55419D02*
X131080D01*
X130953Y55215D01*
X130840Y55001D01*
X130740Y54777D01*
X130653Y54543D01*
X130580Y54300D01*
X130520Y54047D01*
X130473Y53784D01*
X130440Y53512D01*
X130425Y53190D01*
X130474Y52641D01*
X130521Y52379D01*
X130582Y52143D01*
X130656Y51934D01*
X130743Y51751D01*
X130844Y51595D01*
X130958Y51465D01*
X131086Y51362D01*
X128187Y51096D01*
X128412Y48333D01*
X131277D01*
X131150Y48128D01*
X131037Y47914D01*
X130937Y47690D01*
X130850Y47457D01*
X130777Y47214D01*
X130717Y46960D01*
X130670Y46698D01*
X130637Y46425D01*
X130610Y45851D01*
X128642D01*
X128635Y46143D01*
X128582Y46698D01*
X128535Y46960D01*
X128475Y47214D01*
X128402Y47457D01*
X128315Y47690D01*
X128215Y47914D01*
X128154Y48030D01*
X128048Y48085D01*
X127829Y48181D01*
X127599Y48263D01*
X127357Y48333D01*
X127104Y48390D01*
X126839Y48434D01*
X126275Y48485D01*
X126058Y48490D01*
X125861Y48486D01*
X125320Y48442D01*
X125069Y48404D01*
X124831Y48355D01*
X124607Y48294D01*
X124397Y48223D01*
X124199Y48141D01*
X124016Y48048D01*
X123845Y47944D01*
Y50102D01*
X123772Y50170D01*
X123766Y50231D01*
X123828Y50284D01*
X123957Y50331D01*
X124154Y50370D01*
X124418Y50402D01*
X125150Y50445D01*
X125940Y50457D01*
X125940Y50460D01*
X126254Y50469D01*
X126548Y50496D01*
X126822Y50541D01*
X127075Y50604D01*
X127308Y50685D01*
X127520Y50785D01*
X127712Y50902D01*
X127884Y51037D01*
X128035Y51190D01*
X128066Y51231D01*
X128144Y51399D01*
X128215Y51592D01*
X128276Y51805D01*
X128328Y52038D01*
X128370Y52293D01*
X128426Y52863D01*
X128440Y53167D01*
X128438Y53229D01*
X128385Y53784D01*
X128338Y54047D01*
X128278Y54300D01*
X128253Y54383D01*
X125955Y54339D01*
Y54338D01*
X123845Y54243D01*
Y56401D01*
X123892Y56383D01*
X123975Y56367D01*
X124094Y56353D01*
X124443Y56330D01*
X125830Y56308D01*
X126183Y56316D01*
X126569Y56346D01*
X126902Y56395D01*
X127180Y56464D01*
X127405Y56552D01*
X127576Y56661D01*
X127694Y56789D01*
X127758Y56936D01*
X127767Y57104D01*
X127724Y57291D01*
X128395Y55419D01*
D02*
G37*
G36*
X117066Y51984D02*
X117039Y51935D01*
X117015Y51879D01*
X116994Y51816D01*
X116977Y51745D01*
X116963Y51668D01*
X116943Y51490D01*
X116939Y51391D01*
X116937Y51284D01*
X115937Y51174D01*
X115935Y51280D01*
X115918Y51469D01*
X115903Y51553D01*
X115884Y51629D01*
X115860Y51697D01*
X115833Y51758D01*
X115801Y51811D01*
X115765Y51857D01*
X115725Y51895D01*
X117096Y52025D01*
X117066Y51984D01*
D02*
G37*
G36*
X130610Y60603D02*
X130615Y60266D01*
X130685Y59379D01*
X130728Y59125D01*
X130779Y58891D01*
X130840Y58678D01*
X130911Y58486D01*
X130991Y58314D01*
X131080Y58163D01*
X127969Y58448D01*
X128097Y58552D01*
X128211Y58681D01*
X128312Y58837D01*
X128400Y59020D01*
X128473Y59230D01*
X128534Y59465D01*
X128581Y59728D01*
X128615Y60017D01*
X128642Y60674D01*
X130610Y60603D01*
D02*
G37*
G36*
X82350Y60295D02*
X82391Y60128D01*
X82478Y59980D01*
X82612Y59853D01*
X82793Y59745D01*
X83020Y59656D01*
X83294Y59588D01*
X83614Y59539D01*
X83981Y59509D01*
X84220Y59503D01*
X86100Y59550D01*
Y57393D01*
X86041Y57419D01*
X85947Y57442D01*
X85819Y57463D01*
X85457Y57496D01*
X84652Y57525D01*
X84037Y57530D01*
X83788Y57529D01*
X82230Y57421D01*
X82139Y57400D01*
X82119Y57363D01*
X82019Y57139D01*
X81933Y56906D01*
X81859Y56662D01*
X81800Y56409D01*
X81753Y56146D01*
X81720Y55874D01*
X81712Y55701D01*
X81753Y55271D01*
X81800Y55008D01*
X81859Y54755D01*
X81933Y54512D01*
X82019Y54278D01*
X82119Y54054D01*
X82233Y53840D01*
X82237Y53834D01*
X82288Y53767D01*
X82431Y53630D01*
X82596Y53509D01*
X82784Y53404D01*
X82995Y53315D01*
X83229Y53243D01*
X83486Y53186D01*
X83766Y53146D01*
X84069Y53122D01*
X84321Y53115D01*
X86041Y53225D01*
X86100Y53251D01*
Y51094D01*
X86066Y51103D01*
X85993Y51112D01*
X85736Y51126D01*
X84242Y51143D01*
X84023Y51139D01*
X83403Y51096D01*
X83137Y51059D01*
X82901Y51010D01*
X82695Y50951D01*
X82519Y50881D01*
X82372Y50800D01*
X82256Y50709D01*
X82169Y50607D01*
Y53636D01*
X79058D01*
X79185Y53840D01*
X79298Y54054D01*
X79398Y54278D01*
X79484Y54512D01*
X79558Y54755D01*
X79618Y55008D01*
X79664Y55271D01*
X79698Y55543D01*
X79706Y55716D01*
X79664Y56146D01*
X79618Y56409D01*
X79558Y56662D01*
X79484Y56906D01*
X79398Y57139D01*
X79298Y57363D01*
X79185Y57577D01*
X79058Y57781D01*
X81955D01*
X82356Y60481D01*
X82350Y60295D01*
D02*
G37*
G36*
X126364Y66535D02*
X126323Y66571D01*
X126275Y66603D01*
X126220Y66632D01*
X126157Y66656D01*
X126088Y66677D01*
X126010Y66694D01*
X125926Y66707D01*
X125834Y66717D01*
X125629Y66724D01*
Y67724D01*
X125735Y67726D01*
X125926Y67741D01*
X126010Y67755D01*
X126088Y67772D01*
X126157Y67792D01*
X126220Y67817D01*
X126275Y67845D01*
X126323Y67878D01*
X126364Y67913D01*
Y66535D01*
D02*
G37*
G36*
X118420Y81398D02*
X118543Y81295D01*
X118694Y81204D01*
X118873Y81124D01*
X119080Y81058D01*
X119316Y81003D01*
X119579Y80960D01*
X119869Y80930D01*
X120535Y80905D01*
Y78937D01*
X120188Y78931D01*
X119579Y78882D01*
X119316Y78840D01*
X119080Y78785D01*
X118873Y78718D01*
X118694Y78639D01*
X118543Y78548D01*
X118420Y78444D01*
X118325Y78329D01*
Y81514D01*
X118420Y81398D01*
D02*
G37*
G36*
X124160Y68129D02*
X124174Y68044D01*
X124213Y67969D01*
X124277Y67904D01*
X124365Y67849D01*
X124479Y67804D01*
X124618Y67769D01*
X124781Y67744D01*
X124970Y67729D01*
X125183Y67724D01*
X125159Y66724D01*
X124878Y66726D01*
X123890Y66782D01*
X123842Y66799D01*
X123827Y66819D01*
X123845Y66842D01*
X124172Y68224D01*
X124160Y68129D01*
D02*
G37*
G36*
X91372Y53233D02*
X91455Y53217D01*
X91575Y53203D01*
X91924Y53180D01*
X93435Y53157D01*
Y51188D01*
X91325Y51094D01*
Y53251D01*
X91372Y53233D01*
D02*
G37*
G36*
X113351Y44423D02*
X113365Y44269D01*
X113388Y44126D01*
X113420Y43993D01*
X113461Y43872D01*
X113512Y43761D01*
X113572Y43661D01*
X113641Y43573D01*
X113719Y43495D01*
X113806Y43428D01*
X111887D01*
X111974Y43495D01*
X112052Y43573D01*
X112121Y43661D01*
X112181Y43761D01*
X112231Y43872D01*
X112273Y43993D01*
X112305Y44126D01*
X112328Y44269D01*
X112342Y44423D01*
X112346Y44588D01*
X113346D01*
X113351Y44423D01*
D02*
G37*
G36*
X109674Y44377D02*
X109689Y44190D01*
X109714Y44028D01*
X109749Y43890D01*
X109794Y43777D01*
X109849Y43688D01*
X109914Y43623D01*
X109989Y43583D01*
X110074Y43567D01*
X110169Y43576D01*
X108618Y43250D01*
X108628Y43274D01*
X108636Y43317D01*
X108644Y43379D01*
X108656Y43557D01*
X108669Y44326D01*
X109669Y44588D01*
X109674Y44377D01*
D02*
G37*
G36*
X122137Y44754D02*
X122052Y44724D01*
X121977Y44674D01*
X121912Y44603D01*
X121857Y44512D01*
X121812Y44400D01*
X121777Y44269D01*
X121752Y44117D01*
X121737Y43945D01*
X121732Y43753D01*
X120732D01*
X120727Y43945D01*
X120712Y44117D01*
X120687Y44269D01*
X120652Y44400D01*
X120607Y44512D01*
X120552Y44603D01*
X120487Y44674D01*
X120412Y44724D01*
X120327Y44754D01*
X120232Y44765D01*
X122232D01*
X122137Y44754D01*
D02*
G37*
G36*
X116937Y44440D02*
X116938Y44251D01*
X116987Y43539D01*
X117005Y43444D01*
X117025Y43363D01*
X117049Y43299D01*
X117075Y43250D01*
X115437Y43576D01*
X115532Y43569D01*
X115617Y43585D01*
X115692Y43626D01*
X115757Y43690D01*
X115812Y43780D01*
X115857Y43893D01*
X115892Y44030D01*
X115917Y44192D01*
X115932Y44378D01*
X115937Y44588D01*
X116937Y44440D01*
D02*
G37*
G36*
X78099Y40161D02*
X78088Y40256D01*
X78058Y40341D01*
X78008Y40416D01*
X77937Y40481D01*
X77846Y40536D01*
X77734Y40581D01*
X77603Y40616D01*
X77451Y40641D01*
X77279Y40656D01*
X77087Y40661D01*
Y41661D01*
X77279Y41666D01*
X77451Y41681D01*
X77603Y41706D01*
X77734Y41741D01*
X77846Y41786D01*
X77937Y41841D01*
X78008Y41906D01*
X78058Y41981D01*
X78088Y42066D01*
X78099Y42161D01*
Y40161D01*
D02*
G37*
G36*
X82109Y42996D02*
X81925Y42806D01*
X81633Y42458D01*
X81524Y42300D01*
X81440Y42153D01*
X81380Y42017D01*
X81345Y41892D01*
X81335Y41778D01*
X81350Y41674D01*
X81390Y41582D01*
X80342Y43338D01*
X80402Y43266D01*
X80477Y43224D01*
X80569Y43211D01*
X80676Y43228D01*
X80800Y43275D01*
X80939Y43352D01*
X81094Y43458D01*
X81265Y43594D01*
X81451Y43760D01*
X81654Y43955D01*
X82109Y42996D01*
D02*
G37*
G36*
X115028Y54049D02*
X115144Y53698D01*
X114861Y53275D01*
X114739Y52660D01*
X114861Y52046D01*
X115209Y51525D01*
X115250Y51497D01*
X115252Y51484D01*
X115261Y51469D01*
X115263Y51461D01*
X115268Y51455D01*
X115270Y51447D01*
X115278Y51419D01*
X115284Y51385D01*
X115296Y51245D01*
X115298Y51161D01*
X115310Y51133D01*
X115302Y51103D01*
X115325Y51061D01*
Y44716D01*
X115305Y44682D01*
X115315Y44642D01*
X115298Y44603D01*
X115293Y44411D01*
X115282Y44267D01*
X115267Y44172D01*
X114979Y44114D01*
X114768Y43973D01*
X114758Y43969D01*
X114499Y43923D01*
X114331Y43930D01*
X114246Y43951D01*
X114121Y43997D01*
X114100Y44023D01*
X114078Y44059D01*
X114056Y44108D01*
X114034Y44172D01*
X114015Y44252D01*
X113999Y44348D01*
X113989Y44461D01*
X113985Y44606D01*
X113947Y44693D01*
X113874Y45059D01*
X113633Y45420D01*
X107364Y51689D01*
X107347Y51741D01*
X107334Y51748D01*
X107329Y51761D01*
X107206Y51895D01*
X107175Y51934D01*
X107149Y51970D01*
X107133Y51997D01*
X107127Y52009D01*
X107126Y52019D01*
X107122Y52026D01*
X107118Y52040D01*
X107113Y52046D01*
X107117Y52067D01*
X106995Y52681D01*
X106647Y53202D01*
X106238Y53476D01*
X106079Y53913D01*
X106059Y54074D01*
X106150Y54198D01*
X114922D01*
X115028Y54049D01*
D02*
G37*
G36*
X60944Y49295D02*
X60990Y49259D01*
X61043Y49227D01*
X61103Y49199D01*
X61172Y49176D01*
X61248Y49156D01*
X61331Y49141D01*
X61422Y49131D01*
X61627Y49122D01*
X61510Y48122D01*
X61403Y48120D01*
X61126Y48097D01*
X61048Y48083D01*
X60978Y48065D01*
X60914Y48045D01*
X60858Y48021D01*
X60810Y47995D01*
X60768Y47965D01*
X60906Y49336D01*
X60944Y49295D01*
D02*
G37*
G36*
X85922Y48063D02*
X85875Y48118D01*
X85814Y48168D01*
X85737Y48212D01*
X85646Y48249D01*
X85539Y48281D01*
X85417Y48308D01*
X85281Y48328D01*
X85129Y48343D01*
X84780Y48354D01*
X84761Y49354D01*
X84971Y49359D01*
X85158Y49374D01*
X85323Y49399D01*
X85466Y49433D01*
X85585Y49478D01*
X85682Y49532D01*
X85757Y49596D01*
X85809Y49670D01*
X85839Y49754D01*
X85846Y49848D01*
X85922Y48063D01*
D02*
G37*
G36*
X106493Y51932D02*
X106500Y51874D01*
X106517Y51814D01*
X106541Y51752D01*
X106574Y51687D01*
X106614Y51620D01*
X106663Y51550D01*
X106721Y51479D01*
X106860Y51328D01*
X106094Y50679D01*
X106018Y50753D01*
X105873Y50879D01*
X105804Y50931D01*
X105739Y50976D01*
X105676Y51012D01*
X105616Y51042D01*
X105558Y51063D01*
X105504Y51078D01*
X105452Y51085D01*
X106493Y51987D01*
X106493Y51932D01*
D02*
G37*
G36*
X69966Y47933D02*
X69926Y47969D01*
X69878Y48001D01*
X69822Y48030D01*
X69760Y48054D01*
X69690Y48075D01*
X69613Y48092D01*
X69528Y48105D01*
X69436Y48114D01*
X69231Y48122D01*
Y49122D01*
X69337Y49124D01*
X69528Y49139D01*
X69613Y49152D01*
X69690Y49169D01*
X69760Y49190D01*
X69822Y49215D01*
X69878Y49243D01*
X69926Y49275D01*
X69966Y49311D01*
Y47933D01*
D02*
G37*
G36*
X85922Y44913D02*
X85855Y45001D01*
X85777Y45079D01*
X85688Y45148D01*
X85589Y45208D01*
X85478Y45258D01*
X85357Y45300D01*
X85224Y45332D01*
X85081Y45355D01*
X84926Y45369D01*
X84761Y45373D01*
Y46373D01*
X84926Y46378D01*
X85081Y46392D01*
X85224Y46415D01*
X85357Y46447D01*
X85478Y46488D01*
X85589Y46539D01*
X85688Y46599D01*
X85777Y46668D01*
X85855Y46746D01*
X85922Y46833D01*
Y44913D01*
D02*
G37*
G36*
X104189Y47799D02*
X104236Y47767D01*
X104292Y47738D01*
X104354Y47714D01*
X104424Y47693D01*
X104501Y47676D01*
X104586Y47663D01*
X104678Y47653D01*
X104883Y47646D01*
Y46646D01*
X104777Y46644D01*
X104586Y46629D01*
X104501Y46615D01*
X104424Y46598D01*
X104354Y46578D01*
X104292Y46553D01*
X104236Y46525D01*
X104189Y46493D01*
X104148Y46457D01*
Y47835D01*
X104189Y47799D01*
D02*
G37*
%LPC*%
G36*
X110079Y27335D02*
X109107Y27207D01*
X108203Y26833D01*
X107425Y26236D01*
X106829Y25459D01*
X106454Y24554D01*
X106326Y23583D01*
X106454Y22611D01*
X106829Y21706D01*
X107425Y20929D01*
X108203Y20333D01*
X109107Y19958D01*
X110079Y19830D01*
X111050Y19958D01*
X111955Y20333D01*
X112732Y20929D01*
X113329Y21706D01*
X113703Y22611D01*
X113831Y23583D01*
X113703Y24554D01*
X113329Y25459D01*
X112732Y26236D01*
X111955Y26833D01*
X111050Y27207D01*
X110079Y27335D01*
D02*
G37*
%LPD*%
G36*
X42904Y33578D02*
X42933Y33198D01*
X42982Y32862D01*
X43050Y32571D01*
X43138Y32325D01*
X43246Y32124D01*
X43373Y31967D01*
X43519Y31855D01*
X43685Y31788D01*
X43871Y31766D01*
X39948D01*
X40133Y31788D01*
X40299Y31855D01*
X40446Y31967D01*
X40573Y32124D01*
X40681Y32325D01*
X40769Y32571D01*
X40837Y32862D01*
X40886Y33198D01*
X40915Y33578D01*
X40925Y34003D01*
X42894D01*
X42904Y33578D01*
D02*
G37*
G36*
X43406Y37418D02*
X43309Y37334D01*
X43222Y37220D01*
X43145Y37075D01*
X43078Y36901D01*
X43022Y36696D01*
X42976Y36460D01*
X42940Y36194D01*
X42899Y35571D01*
X42894Y35214D01*
X40925Y35228D01*
X40919Y35528D01*
X40868Y36094D01*
X40824Y36359D01*
X40768Y36613D01*
X40698Y36854D01*
X40617Y37084D01*
X40522Y37302D01*
X40415Y37508D01*
X40295Y37703D01*
X43406Y37418D01*
D02*
G37*
G36*
X44130Y15175D02*
X44008Y15037D01*
X43899Y14879D01*
X43804Y14702D01*
X43722Y14505D01*
X43652Y14289D01*
X43596Y14054D01*
X43553Y13799D01*
X43524Y13524D01*
X43504Y12917D01*
X41165Y15256D01*
X41479Y15259D01*
X42047Y15305D01*
X42302Y15348D01*
X42537Y15404D01*
X42753Y15473D01*
X42950Y15556D01*
X43127Y15651D01*
X43285Y15760D01*
X43423Y15882D01*
X44130Y15175D01*
D02*
G37*
G36*
X36436Y14838D02*
X36323Y14710D01*
X36217Y14560D01*
X36117Y14388D01*
X36024Y14193D01*
X35938Y13975D01*
X35858Y13735D01*
X35718Y13188D01*
X35658Y12881D01*
X35605Y12551D01*
X33657Y15224D01*
X33949Y15183D01*
X34225Y15161D01*
X34484Y15157D01*
X34727Y15173D01*
X34954Y15207D01*
X35164Y15260D01*
X35358Y15331D01*
X35536Y15422D01*
X35698Y15531D01*
X35843Y15658D01*
X36436Y14838D01*
D02*
G37*
G36*
X85922Y63811D02*
X85855Y63898D01*
X85777Y63977D01*
X85688Y64046D01*
X85589Y64105D01*
X85478Y64156D01*
X85357Y64197D01*
X85224Y64230D01*
X85081Y64253D01*
X84926Y64266D01*
X84761Y64271D01*
Y65271D01*
X84926Y65276D01*
X85081Y65289D01*
X85224Y65312D01*
X85357Y65345D01*
X85478Y65386D01*
X85589Y65437D01*
X85688Y65496D01*
X85777Y65565D01*
X85855Y65643D01*
X85922Y65731D01*
Y63811D01*
D02*
G37*
G36*
X84743Y66782D02*
X84889Y66777D01*
X85002Y66767D01*
X85098Y66752D01*
X85178Y66733D01*
X85242Y66711D01*
X85290Y66688D01*
X85326Y66667D01*
X85328Y66665D01*
X85401Y66417D01*
X85404Y66346D01*
X85401Y66274D01*
X85328Y66026D01*
X85326Y66025D01*
X85290Y66003D01*
X85242Y65981D01*
X85178Y65959D01*
X85098Y65939D01*
X85002Y65924D01*
X84889Y65914D01*
X84743Y65910D01*
X84683Y65883D01*
X63196D01*
X63196Y65883D01*
X62771Y65798D01*
X62410Y65557D01*
X47442Y50589D01*
X47324Y50413D01*
X46824Y50565D01*
Y53815D01*
X59818Y66809D01*
X84683D01*
X84743Y66782D01*
D02*
G37*
G36*
X85922Y66961D02*
X85855Y67048D01*
X85777Y67126D01*
X85688Y67195D01*
X85589Y67255D01*
X85478Y67305D01*
X85357Y67347D01*
X85224Y67379D01*
X85081Y67402D01*
X84926Y67416D01*
X84761Y67421D01*
Y68420D01*
X84926Y68425D01*
X85081Y68439D01*
X85224Y68462D01*
X85357Y68494D01*
X85478Y68536D01*
X85589Y68586D01*
X85688Y68646D01*
X85777Y68715D01*
X85855Y68793D01*
X85922Y68880D01*
Y66961D01*
D02*
G37*
G36*
X42937Y42637D02*
X42990Y42082D01*
X43037Y41819D01*
X43097Y41566D01*
X43170Y41323D01*
X43257Y41089D01*
X43357Y40865D01*
X43470Y40651D01*
X43597Y40447D01*
X40295D01*
X40422Y40651D01*
X40535Y40865D01*
X40635Y41089D01*
X40722Y41323D01*
X40795Y41566D01*
X40855Y41819D01*
X40902Y42082D01*
X40935Y42355D01*
X40962Y42929D01*
X42930D01*
X42937Y42637D01*
D02*
G37*
G36*
X39132Y50580D02*
X39191Y50287D01*
X39295Y49977D01*
X39442Y49651D01*
X39633Y49308D01*
X39868Y48949D01*
X40147Y48573D01*
X40838Y47773D01*
X41249Y47348D01*
X40553Y45260D01*
X40260Y45539D01*
X39998Y45759D01*
X39765Y45922D01*
X39563Y46027D01*
X39391Y46073D01*
X39248Y46062D01*
X39136Y45993D01*
X39054Y45865D01*
X39002Y45680D01*
X38980Y45437D01*
X39117Y50858D01*
X39132Y50580D01*
D02*
G37*
G36*
X27655Y25790D02*
X27635Y25976D01*
X27575Y26143D01*
X27475Y26291D01*
X27335Y26418D01*
X27156Y26526D01*
X26936Y26615D01*
X26677Y26683D01*
X26379Y26732D01*
X26040Y26762D01*
X25662Y26772D01*
Y28740D01*
X26039Y28750D01*
X26376Y28780D01*
X26673Y28829D01*
X26931Y28898D01*
X27149Y28986D01*
X27327Y29094D01*
X27466Y29222D01*
X27564Y29370D01*
X27623Y29537D01*
X27643Y29724D01*
X27655Y25790D01*
D02*
G37*
G36*
X133945Y16742D02*
X133801Y16574D01*
X133672Y16373D01*
X133559Y16141D01*
X133462Y15877D01*
X133381Y15580D01*
X133315Y15251D01*
X133265Y14890D01*
X133212Y14071D01*
X133209Y13614D01*
X130110Y16712D01*
X130568Y16715D01*
X131386Y16769D01*
X131747Y16819D01*
X132076Y16885D01*
X132372Y16966D01*
X132637Y17063D01*
X132870Y17176D01*
X133070Y17305D01*
X133238Y17449D01*
X133945Y16742D01*
D02*
G37*
G36*
X95082Y65076D02*
X95228Y64952D01*
X95297Y64902D01*
X95364Y64859D01*
X95428Y64824D01*
X95490Y64797D01*
X95549Y64778D01*
X95605Y64767D01*
X95660Y64764D01*
X94685Y63789D01*
X94682Y63844D01*
X94670Y63900D01*
X94651Y63959D01*
X94625Y64021D01*
X94590Y64085D01*
X94547Y64152D01*
X94497Y64221D01*
X94439Y64292D01*
X94299Y64443D01*
X95006Y65150D01*
X95082Y65076D01*
D02*
G37*
G36*
X105381Y80821D02*
X105416Y80737D01*
X105473Y80663D01*
X105550Y80599D01*
X105649Y80545D01*
X105769Y80500D01*
X105909Y80466D01*
X106071Y80441D01*
X106254Y80426D01*
X106458Y80421D01*
Y79421D01*
X106262Y79416D01*
X106087Y79401D01*
X105933Y79376D01*
X105800Y79341D01*
X105689Y79296D01*
X105598Y79241D01*
X105528Y79176D01*
X105480Y79101D01*
X105452Y79016D01*
X105446Y78921D01*
X105366Y80915D01*
X105381Y80821D01*
D02*
G37*
G36*
X112747Y82414D02*
X112575Y82235D01*
X112324Y81928D01*
X112246Y81801D01*
X112200Y81691D01*
X112185Y81598D01*
X112201Y81523D01*
X112249Y81466D01*
X112329Y81425D01*
X112440Y81403D01*
X109909Y81683D01*
X110036Y81678D01*
X110168Y81692D01*
X110304Y81724D01*
X110444Y81775D01*
X110589Y81844D01*
X110739Y81931D01*
X110893Y82036D01*
X111051Y82160D01*
X111214Y82302D01*
X111382Y82463D01*
X112747Y82414D01*
D02*
G37*
G36*
X109398Y78921D02*
X109388Y79016D01*
X109357Y79101D01*
X109307Y79176D01*
X109236Y79241D01*
X109145Y79296D01*
X109034Y79341D01*
X108902Y79376D01*
X108750Y79401D01*
X108578Y79416D01*
X108386Y79421D01*
Y80421D01*
X108578Y80426D01*
X108750Y80441D01*
X108902Y80466D01*
X109034Y80501D01*
X109145Y80546D01*
X109236Y80601D01*
X109307Y80666D01*
X109357Y80741D01*
X109388Y80826D01*
X109398Y80921D01*
Y78921D01*
D02*
G37*
G36*
X104448Y78009D02*
X104363Y77978D01*
X104288Y77928D01*
X104223Y77857D01*
X104168Y77766D01*
X104123Y77655D01*
X104088Y77523D01*
X104063Y77371D01*
X104048Y77199D01*
X104044Y77042D01*
X104046Y76913D01*
X104072Y76597D01*
X104094Y76461D01*
X104122Y76339D01*
X104156Y76231D01*
X104197Y76139D01*
X104244Y76060D01*
X104298Y75997D01*
X104358Y75947D01*
X102550Y76008D01*
X102644Y76016D01*
X102728Y76047D01*
X102802Y76100D01*
X102866Y76176D01*
X102920Y76275D01*
X102964Y76396D01*
X102999Y76540D01*
X103024Y76707D01*
X103038Y76896D01*
X103042Y77055D01*
X103038Y77199D01*
X103023Y77371D01*
X102998Y77523D01*
X102963Y77655D01*
X102918Y77766D01*
X102863Y77857D01*
X102798Y77928D01*
X102723Y77978D01*
X102638Y78009D01*
X102543Y78019D01*
X104543D01*
X104448Y78009D01*
D02*
G37*
G36*
X94821Y70299D02*
X94743Y70221D01*
X94674Y70132D01*
X94614Y70033D01*
X94564Y69922D01*
X94522Y69801D01*
X94490Y69668D01*
X94467Y69525D01*
X94453Y69371D01*
X94449Y69205D01*
X93449D01*
X93444Y69371D01*
X93430Y69525D01*
X93407Y69668D01*
X93375Y69801D01*
X93334Y69922D01*
X93283Y70033D01*
X93223Y70132D01*
X93154Y70221D01*
X93076Y70299D01*
X92989Y70366D01*
X94909D01*
X94821Y70299D01*
D02*
G37*
G36*
X20129Y17099D02*
X20021Y16894D01*
X19927Y16677D01*
X19845Y16449D01*
X19776Y16209D01*
X19719Y15959D01*
X19688Y15774D01*
X19728Y15603D01*
X19790Y15411D01*
X19866Y15230D01*
X19955Y15062D01*
X20058Y14905D01*
X20175Y14760D01*
X20306Y14627D01*
X17000Y14533D01*
X17123Y14673D01*
X17234Y14825D01*
X17331Y14987D01*
X17416Y15159D01*
X17487Y15343D01*
X17546Y15538D01*
X17588Y15728D01*
X17549Y15959D01*
X17492Y16209D01*
X17423Y16449D01*
X17341Y16677D01*
X17246Y16894D01*
X17139Y17099D01*
X17019Y17294D01*
X20248D01*
X20129Y17099D01*
D02*
G37*
D10*
X103543Y85630D02*
D03*
Y79724D02*
D03*
D11*
X30341Y39590D02*
D03*
X18727D02*
D03*
D12*
X36040Y39075D02*
D03*
X41946D02*
D03*
X74803Y59153D02*
D03*
X80709D02*
D03*
X135531Y49705D02*
D03*
X129626D02*
D03*
X135335Y56791D02*
D03*
X129429D02*
D03*
X74803Y52264D02*
D03*
X80709D02*
D03*
D13*
X18634Y32025D02*
D03*
Y18954D02*
D03*
D14*
X41909Y28445D02*
D03*
X29941D02*
D03*
D15*
X111004Y79921D02*
D03*
X116949D02*
D03*
D16*
X19094Y48327D02*
D03*
X28150D02*
D03*
X37205D02*
D03*
D17*
X28150Y72342D02*
D03*
D18*
X93949Y73157D02*
D03*
X97098D02*
D03*
X100248D02*
D03*
X103398D02*
D03*
X106547D02*
D03*
X109697D02*
D03*
X112846D02*
D03*
X115996D02*
D03*
Y40637D02*
D03*
X112846D02*
D03*
X109697D02*
D03*
X106547D02*
D03*
X103398D02*
D03*
X100248D02*
D03*
X97098D02*
D03*
X93949D02*
D03*
D19*
X121232Y67921D02*
D03*
Y64771D02*
D03*
Y61621D02*
D03*
Y58472D02*
D03*
Y55322D02*
D03*
Y52172D02*
D03*
Y49023D02*
D03*
Y45873D02*
D03*
X88713D02*
D03*
Y49023D02*
D03*
Y52172D02*
D03*
Y55322D02*
D03*
Y58472D02*
D03*
Y61621D02*
D03*
Y64771D02*
D03*
Y67921D02*
D03*
D20*
X73150Y41161D02*
D03*
X64449D02*
D03*
Y34429D02*
D03*
X73150D02*
D03*
D21*
X52185Y34449D02*
D03*
X58248D02*
D03*
X85807Y41339D02*
D03*
X79744D02*
D03*
D22*
X105413Y52067D02*
X112846Y44634D01*
X103150Y73405D02*
X103543Y73798D01*
X43012Y12352D02*
Y12894D01*
X116437Y41078D02*
Y52753D01*
X121324Y68012D02*
X122111Y67224D01*
X81728Y48854D02*
X88713D01*
X105413Y52067D02*
X105512D01*
X112846Y40637D02*
Y44634D01*
X115996Y40637D02*
X116437Y41078D01*
X116344Y52660D02*
X116437Y52753D01*
X103445Y47146D02*
X107677D01*
X109169Y45654D01*
X131496Y85335D02*
X144685Y72146D01*
X114961Y85335D02*
X131496D01*
X111004Y81378D02*
X114961Y85335D01*
X122111Y67224D02*
X127067D01*
X111004Y79921D02*
Y81378D01*
X78937Y46063D02*
X81728Y48854D01*
X62598Y46063D02*
X78937D01*
X58248Y41713D02*
X62598Y46063D01*
X58248Y34449D02*
Y41713D01*
X79744Y41339D02*
X84279Y45873D01*
X79567Y41161D02*
X79744Y41339D01*
X84279Y45873D02*
X88713D01*
X63196Y64771D02*
X88713D01*
X48228Y49803D02*
X63196Y64771D01*
X48228Y19980D02*
Y49803D01*
X59358Y67921D02*
X88713D01*
X45713Y54276D02*
X59358Y67921D01*
X45713Y24821D02*
Y54276D01*
X120079Y20571D02*
Y23583D01*
X115354Y15846D02*
X120079Y20571D01*
X115354Y9055D02*
Y15846D01*
X113386Y7087D02*
X115354Y9055D01*
X106102Y7087D02*
X113386D01*
X104035Y9154D02*
X106102Y7087D01*
X104035Y9154D02*
Y26083D01*
X112846Y34894D01*
Y40637D01*
X121232Y30539D02*
Y45873D01*
X125098Y18602D02*
Y26673D01*
X121232Y30539D02*
X125098Y26673D01*
X115449Y18953D02*
Y30020D01*
X115996Y30567D01*
Y40637D01*
X116430Y64771D02*
X121232D01*
X116339Y64862D02*
X116430Y64771D01*
X121232Y67921D02*
X121324Y68012D01*
X121208Y67896D02*
X121232Y67921D01*
X41142Y12894D02*
X43012D01*
X88713Y45873D02*
X89003Y45583D01*
X103150Y73405D02*
X103398Y73157D01*
X120705Y64243D02*
X121232Y64771D01*
X103543Y73798D02*
Y79724D01*
X58248Y34449D02*
X64429D01*
X73150Y41161D02*
X79567D01*
X79173Y39783D02*
X79350Y39961D01*
X88713Y48854D02*
Y49023D01*
X96571Y37385D02*
Y40110D01*
X97098Y40637D01*
X56890Y12894D02*
Y13878D01*
X93949Y38535D02*
Y40637D01*
X49016Y12894D02*
X64173Y28051D01*
X83465D01*
X93949Y38535D01*
X56890Y13878D02*
X68602Y25591D01*
X84776D01*
X96571Y37385D01*
X72638Y12894D02*
X81169Y21425D01*
X64764Y12894D02*
X75295Y23425D01*
X93949Y65500D02*
Y73157D01*
Y65500D02*
X95669Y63779D01*
X103740Y79921D02*
X111004D01*
X103543Y79724D02*
X103740Y79921D01*
X120079Y13583D02*
X125098Y18602D01*
X110079Y13583D02*
X115449Y18953D01*
X33785Y12894D02*
X45713Y24821D01*
X33268Y12894D02*
X33785D01*
X41142D02*
X48228Y19980D01*
X60236Y48622D02*
X70669D01*
X60138Y48720D02*
X60236Y48622D01*
X106547Y35780D02*
Y40637D01*
X81169Y21425D02*
X88354D01*
X103398Y36468D01*
Y40637D01*
X75295Y23425D02*
X86910D01*
X100248Y36764D01*
Y40637D01*
X80512Y12894D02*
X86221Y18602D01*
X89370D01*
X106547Y35780D01*
X109169Y41165D02*
X109697Y40637D01*
X109169Y41165D02*
Y45654D01*
X130079Y13583D02*
X144685Y28189D01*
Y72146D01*
X41909Y39038D02*
X41946Y39075D01*
D23*
X101385Y52172D02*
X105016Y55803D01*
X117403D01*
X117927Y55279D02*
X121189D01*
X117403Y55803D02*
X117927Y55279D01*
X124114Y79921D02*
X129626Y74410D01*
Y56988D02*
Y74410D01*
X129429Y56791D02*
X129626Y56988D01*
X88713Y52172D02*
X101385D01*
X24606Y27756D02*
X29252D01*
X41909Y28445D02*
Y39038D01*
X29252Y27756D02*
X29941Y28445D01*
X116949Y79921D02*
X124114D01*
X41946Y39075D02*
Y45259D01*
X38878Y48327D02*
X41946Y45259D01*
X37205Y48327D02*
X38878D01*
X18634Y12961D02*
X18701Y12894D01*
X18634Y12961D02*
Y18954D01*
X18727Y47959D02*
X19094Y48327D01*
X18727Y39590D02*
Y47959D01*
X18634Y39497D02*
X18727Y39590D01*
X18634Y32025D02*
Y39497D01*
X88669Y52129D02*
X88713Y52172D01*
X88669Y58515D02*
X88713Y58472D01*
X80709Y51870D02*
Y52129D01*
Y52264D01*
Y58515D01*
Y59153D01*
X121189Y55279D02*
X121232Y55322D01*
X127960D01*
X129429Y56791D01*
Y49902D02*
Y56791D01*
Y49902D02*
X129626Y49705D01*
X121232Y49023D02*
X121685Y49476D01*
X129626Y41043D02*
Y49476D01*
Y49705D01*
X127657Y39075D02*
X129626Y41043D01*
X121685Y49476D02*
X129626D01*
X80709Y58515D02*
X88669D01*
X80709Y52129D02*
X88669D01*
D24*
X130079Y23583D02*
D03*
Y13583D02*
D03*
X120079Y23583D02*
D03*
Y13583D02*
D03*
X110079Y23583D02*
D03*
Y13583D02*
D03*
D25*
X33268Y12894D02*
D03*
X41142D02*
D03*
X49016D02*
D03*
X56890D02*
D03*
X64764D02*
D03*
X72638D02*
D03*
X80512D02*
D03*
X88386D02*
D03*
X96260D02*
D03*
X33268Y6990D02*
D03*
X41142D02*
D03*
X49016Y6988D02*
D03*
X56890D02*
D03*
X64764D02*
D03*
X72638D02*
D03*
X80512D02*
D03*
X88386D02*
D03*
X96260D02*
D03*
X18701Y12894D02*
D03*
Y6988D02*
D03*
X8563Y63484D02*
D03*
Y55512D02*
D03*
D26*
X105512Y52067D02*
D03*
X116344Y52660D02*
D03*
X103445Y47146D02*
D03*
X127067Y67224D02*
D03*
X116339Y64862D02*
D03*
X95669Y63779D02*
D03*
X70669Y48622D02*
D03*
X60138Y48720D02*
D03*
X24606Y27756D02*
D03*
X127657Y39075D02*
D03*
M02*
