G04 Layer_Color=32768*
%FSLAX25Y25*%
%MOIN*%
G70*
G01*
G75*
%ADD33C,0.00472*%
D33*
X105079Y8583D02*
X135079D01*
Y28583D01*
X105079D02*
X135079D01*
X105079Y8583D02*
Y28583D01*
X91654Y44098D02*
Y70083D01*
X109370D01*
Y44098D02*
Y70083D01*
X91654Y44098D02*
X109370D01*
X27067Y70768D02*
Y74311D01*
X20374D02*
X27067D01*
X20374Y70768D02*
Y74311D01*
Y70768D02*
X27067D01*
X13681Y62500D02*
X17224D01*
X13681Y55807D02*
Y62500D01*
Y55807D02*
X17224D01*
Y62500D01*
X40846Y49508D02*
Y68799D01*
X25492Y49508D02*
X40846D01*
X25492D02*
Y68799D01*
X40846D01*
X117913Y45866D02*
Y49409D01*
Y45866D02*
X124606D01*
Y49409D01*
X117913D02*
X124606D01*
X78962Y21516D02*
Y28209D01*
X82506D01*
Y21516D02*
Y28209D01*
X78962Y21516D02*
X82506D01*
X86862D02*
Y28209D01*
X90405D01*
Y21516D02*
Y28209D01*
X86862Y21516D02*
X90405D01*
X94762D02*
Y28209D01*
X98305D01*
Y21516D02*
Y28209D01*
X94762Y21516D02*
X98305D01*
X70862D02*
Y28209D01*
X74405D01*
Y21516D02*
Y28209D01*
X70862Y21516D02*
X74405D01*
X62862D02*
Y28209D01*
X66405D01*
Y21516D02*
Y28209D01*
X62862Y21516D02*
X66405D01*
X55062D02*
Y28209D01*
X58605D01*
Y21516D02*
Y28209D01*
X55062Y21516D02*
X58605D01*
X34905D02*
Y28209D01*
X31362Y21516D02*
X34905D01*
X31362D02*
Y28209D01*
X34905D01*
X39062Y21516D02*
Y28209D01*
X42606D01*
Y21516D02*
Y28209D01*
X39062Y21516D02*
X42606D01*
X46862D02*
Y28209D01*
X50406D01*
Y21516D02*
Y28209D01*
X46862Y21516D02*
X50406D01*
X105433Y79213D02*
Y86142D01*
X101654D02*
X105433D01*
X101654Y79213D02*
Y86142D01*
Y79213D02*
X105433D01*
X31227Y36046D02*
Y43133D01*
X17841Y36046D02*
X31227D01*
X17841D02*
Y43133D01*
X31227D01*
X35529Y40965D02*
X42458D01*
X35529Y37185D02*
Y40965D01*
Y37185D02*
X42458D01*
Y40965D01*
X74291Y61043D02*
X81221D01*
X74291Y57264D02*
Y61043D01*
Y57264D02*
X81221D01*
Y61043D01*
X129114Y47815D02*
X136043D01*
Y51595D01*
X129114D02*
X136043D01*
X129114Y47815D02*
Y51595D01*
X128917Y54902D02*
X135846D01*
Y58681D01*
X128917D02*
X135846D01*
X128917Y54902D02*
Y58681D01*
X15090Y31120D02*
X22177D01*
Y19860D02*
Y31120D01*
X15090Y19860D02*
X22177D01*
X15090D02*
Y31120D01*
X29035Y24902D02*
X42815D01*
Y31988D01*
X29035D02*
X42815D01*
X29035Y24902D02*
Y31988D01*
X110630Y78150D02*
Y81693D01*
X117323D01*
Y78150D02*
Y81693D01*
X110630Y78150D02*
X117323D01*
X14961Y53051D02*
Y67618D01*
X41339D01*
Y53051D02*
Y67618D01*
X14961Y53051D02*
X41339D01*
X90996Y42921D02*
Y70873D01*
Y42921D02*
X118949D01*
Y70873D01*
X90996D02*
X118949D01*
X111398Y42638D02*
X118327D01*
Y38858D02*
Y42638D01*
X111398Y38858D02*
X118327D01*
X111398D02*
Y42638D01*
X50669Y58976D02*
X57598D01*
Y55197D02*
Y58976D01*
X50669Y55197D02*
X57598D01*
X50669D02*
Y58976D01*
X75413Y32559D02*
Y43031D01*
X62185Y32559D02*
X75413D01*
X62185D02*
Y43031D01*
X75413D01*
X51713Y36457D02*
X58720D01*
X51713Y32441D02*
Y36457D01*
Y32441D02*
X58720D01*
Y36457D01*
X79272Y39331D02*
X86279D01*
Y43346D01*
X79272D02*
X86279D01*
X79272Y39331D02*
Y43346D01*
X74291Y54154D02*
X81221D01*
X74291Y50374D02*
Y54154D01*
Y50374D02*
X81221D01*
Y54154D01*
X68884Y65199D02*
Y78427D01*
X79356D01*
Y65199D02*
Y78427D01*
X68884Y65199D02*
X79356D01*
X77815Y82441D02*
Y86457D01*
X70807D02*
X77815D01*
X70807Y82441D02*
Y86457D01*
Y82441D02*
X77815D01*
X62067Y67146D02*
X66083D01*
Y74154D01*
X62067D02*
X66083D01*
X62067Y67146D02*
Y74154D01*
M02*
