G04 Layer_Color=32896*
%FSLAX25Y25*%
%MOIN*%
G70*
G01*
G75*
%ADD33C,0.00472*%
%ADD34C,0.00600*%
%ADD56C,0.00100*%
%ADD57C,0.00701*%
%ADD58R,0.04429X0.19193*%
D33*
X87146Y44098D02*
X91654D01*
Y70083D02*
X109370D01*
X91654Y44098D02*
X109370D01*
X23071Y74311D02*
X24370D01*
X23071Y70768D02*
X24370D01*
X13681Y58504D02*
Y59803D01*
X17224Y58504D02*
Y59803D01*
X40846Y68287D02*
X46339D01*
X25492D02*
Y68799D01*
X40846D01*
Y68287D02*
Y68799D01*
X25492Y49508D02*
Y50020D01*
Y49508D02*
X40846D01*
Y50020D01*
X120610Y45866D02*
X121909D01*
X120610Y49409D02*
X121909D01*
X78962Y24213D02*
Y25512D01*
X82506Y24213D02*
Y25512D01*
X86862Y24213D02*
Y25512D01*
X90405Y24213D02*
Y25512D01*
X94762Y24213D02*
Y25512D01*
X98305Y24213D02*
Y25512D01*
X70862Y24213D02*
Y25512D01*
X74405Y24213D02*
Y25512D01*
X62862Y24213D02*
Y25512D01*
X66405Y24213D02*
Y25512D01*
X55062Y24213D02*
Y25512D01*
X58605Y24213D02*
Y25512D01*
X34905Y24213D02*
Y25512D01*
X31362Y24213D02*
Y25512D01*
X39062Y24213D02*
Y25512D01*
X42606Y24213D02*
Y25512D01*
X46862Y24213D02*
Y25512D01*
X50406Y24213D02*
Y25512D01*
X114331Y42638D02*
X115394D01*
X114331Y38858D02*
X115394D01*
X53602Y58976D02*
X54665D01*
X53602Y55197D02*
X54665D01*
X79593Y70651D02*
Y72974D01*
X68648Y70651D02*
Y72974D01*
X73642Y86457D02*
X74980D01*
X73642Y82441D02*
X74980D01*
X66083Y69980D02*
Y71319D01*
X62067Y69980D02*
Y71319D01*
D34*
X85101Y70669D02*
X81102Y73335D01*
X85101D02*
X81102Y70669D01*
Y77334D02*
Y74668D01*
X83768Y77334D01*
X84435D01*
X85101Y76667D01*
Y75335D01*
X84435Y74668D01*
X65340Y80008D02*
X66007Y79342D01*
Y78009D01*
X65340Y77342D01*
X62674D01*
X62008Y78009D01*
Y79342D01*
X62674Y80008D01*
X62008Y81341D02*
Y82674D01*
Y82008D01*
X66007D01*
X65340Y81341D01*
Y84674D02*
X66007Y85340D01*
Y86673D01*
X65340Y87339D01*
X64674D01*
X64007Y86673D01*
Y86006D01*
Y86673D01*
X63341Y87339D01*
X62674D01*
X62008Y86673D01*
Y85340D01*
X62674Y84674D01*
X84139Y84359D02*
X84806Y83692D01*
Y82359D01*
X84139Y81693D01*
X81473D01*
X80807Y82359D01*
Y83692D01*
X81473Y84359D01*
X80807Y85692D02*
Y87024D01*
Y86358D01*
X84806D01*
X84139Y85692D01*
X80807Y91690D02*
Y89024D01*
X83473Y91690D01*
X84139D01*
X84806Y91023D01*
Y89690D01*
X84139Y89024D01*
X84609Y45079D02*
X81277D01*
X80610Y45745D01*
Y47078D01*
X81277Y47745D01*
X84609D01*
X83943Y49077D02*
X84609Y49744D01*
Y51077D01*
X83943Y51743D01*
X83276D01*
X82610Y51077D01*
Y50410D01*
Y51077D01*
X81943Y51743D01*
X81277D01*
X80610Y51077D01*
Y49744D01*
X81277Y49077D01*
X94291Y30413D02*
X98290D01*
Y32413D01*
X97624Y33079D01*
X96291D01*
X95624Y32413D01*
Y30413D01*
Y31746D02*
X94291Y33079D01*
Y34412D02*
Y35745D01*
Y35078D01*
X98290D01*
X97624Y34412D01*
Y37744D02*
X98290Y38411D01*
Y39744D01*
X97624Y40410D01*
X94958D01*
X94291Y39744D01*
Y38411D01*
X94958Y37744D01*
X97624D01*
X86417Y30512D02*
X90416D01*
Y32511D01*
X89750Y33178D01*
X88417D01*
X87750Y32511D01*
Y30512D01*
Y31845D02*
X86417Y33178D01*
X87084Y34510D02*
X86417Y35177D01*
Y36510D01*
X87084Y37176D01*
X89750D01*
X90416Y36510D01*
Y35177D01*
X89750Y34510D01*
X89083D01*
X88417Y35177D01*
Y37176D01*
X78839Y30512D02*
X82837D01*
Y32511D01*
X82171Y33178D01*
X80838D01*
X80172Y32511D01*
Y30512D01*
Y31845D02*
X78839Y33178D01*
X82171Y34510D02*
X82837Y35177D01*
Y36510D01*
X82171Y37176D01*
X81504D01*
X80838Y36510D01*
X80172Y37176D01*
X79505D01*
X78839Y36510D01*
Y35177D01*
X79505Y34510D01*
X80172D01*
X80838Y35177D01*
X81504Y34510D01*
X82171D01*
X80838Y35177D02*
Y36510D01*
X70374Y30512D02*
X74373D01*
Y32511D01*
X73706Y33178D01*
X72373D01*
X71707Y32511D01*
Y30512D01*
Y31845D02*
X70374Y33178D01*
X74373Y34510D02*
Y37176D01*
X73706D01*
X71040Y34510D01*
X70374D01*
X62500Y30512D02*
X66499D01*
Y32511D01*
X65832Y33178D01*
X64499D01*
X63833Y32511D01*
Y30512D01*
Y31845D02*
X62500Y33178D01*
X66499Y37176D02*
X65832Y35843D01*
X64499Y34510D01*
X63166D01*
X62500Y35177D01*
Y36510D01*
X63166Y37176D01*
X63833D01*
X64499Y36510D01*
Y34510D01*
X54724Y30413D02*
X58723D01*
Y32413D01*
X58057Y33079D01*
X56724D01*
X56057Y32413D01*
Y30413D01*
Y31746D02*
X54724Y33079D01*
X58723Y37078D02*
Y34412D01*
X56724D01*
X57390Y35745D01*
Y36411D01*
X56724Y37078D01*
X55391D01*
X54724Y36411D01*
Y35078D01*
X55391Y34412D01*
X46555Y30512D02*
X50554D01*
Y32511D01*
X49887Y33178D01*
X48555D01*
X47888Y32511D01*
Y30512D01*
Y31845D02*
X46555Y33178D01*
Y36510D02*
X50554D01*
X48555Y34510D01*
Y37176D01*
X38976Y30610D02*
X42975D01*
Y32610D01*
X42309Y33276D01*
X40976D01*
X40309Y32610D01*
Y30610D01*
Y31943D02*
X38976Y33276D01*
X42309Y34609D02*
X42975Y35275D01*
Y36608D01*
X42309Y37275D01*
X41642D01*
X40976Y36608D01*
Y35942D01*
Y36608D01*
X40309Y37275D01*
X39643D01*
X38976Y36608D01*
Y35275D01*
X39643Y34609D01*
X31398Y30906D02*
X35396D01*
Y32905D01*
X34730Y33571D01*
X33397D01*
X32730Y32905D01*
Y30906D01*
Y32238D02*
X31398Y33571D01*
Y37570D02*
Y34904D01*
X34063Y37570D01*
X34730D01*
X35396Y36904D01*
Y35571D01*
X34730Y34904D01*
X108352Y38394D02*
X109018Y37728D01*
Y36395D01*
X108352Y35728D01*
X105686D01*
X105020Y36395D01*
Y37728D01*
X105686Y38394D01*
X109018Y39727D02*
Y42393D01*
X108352D01*
X105686Y39727D01*
X105020D01*
X63765Y56701D02*
X64432Y56035D01*
Y54702D01*
X63765Y54035D01*
X61099D01*
X60433Y54702D01*
Y56035D01*
X61099Y56701D01*
Y58034D02*
X60433Y58701D01*
Y60034D01*
X61099Y60700D01*
X63765D01*
X64432Y60034D01*
Y58701D01*
X63765Y58034D01*
X63099D01*
X62432Y58701D01*
Y60700D01*
X13878Y65453D02*
X17877D01*
Y67452D01*
X17210Y68119D01*
X15877D01*
X15211Y67452D01*
Y65453D01*
Y66786D02*
X13878Y68119D01*
Y69451D02*
Y70784D01*
Y70118D01*
X17877D01*
X17210Y69451D01*
X23524Y75787D02*
X27522D01*
Y77787D01*
X26856Y78453D01*
X25523D01*
X24857Y77787D01*
Y75787D01*
Y77120D02*
X23524Y78453D01*
Y79786D02*
Y81119D01*
Y80453D01*
X27522D01*
X26856Y79786D01*
X23524Y83118D02*
Y84451D01*
Y83785D01*
X27522D01*
X26856Y83118D01*
X119488Y50984D02*
X123487D01*
Y52984D01*
X122820Y53650D01*
X121487D01*
X120821Y52984D01*
Y50984D01*
Y52317D02*
X119488Y53650D01*
Y54983D02*
Y56316D01*
Y55649D01*
X123487D01*
X122820Y54983D01*
Y58315D02*
X123487Y58982D01*
Y60315D01*
X122820Y60981D01*
X122154D01*
X121487Y60315D01*
Y59648D01*
Y60315D01*
X120821Y60981D01*
X120155D01*
X119488Y60315D01*
Y58982D01*
X120155Y58315D01*
X41203Y70571D02*
X37871D01*
X37205Y71237D01*
Y72570D01*
X37871Y73237D01*
X41203D01*
X37205Y74570D02*
Y75902D01*
Y75236D01*
X41203D01*
X40537Y74570D01*
D56*
X158721Y26710D02*
Y41510D01*
X163920Y28810D02*
Y41410D01*
Y45310D02*
Y57910D01*
Y61810D02*
Y74410D01*
Y76110D02*
Y88810D01*
X163821Y28410D02*
Y41510D01*
Y44910D02*
Y58010D01*
Y61410D02*
Y74510D01*
Y76110D02*
Y89210D01*
X163721Y28210D02*
Y41510D01*
Y44710D02*
Y58010D01*
Y61210D02*
Y74510D01*
Y76010D02*
Y89510D01*
X163620Y28010D02*
Y41510D01*
Y44410D02*
Y58010D01*
Y61010D02*
Y74510D01*
Y76010D02*
Y89710D01*
X163521Y27810D02*
Y41510D01*
Y44310D02*
Y58010D01*
Y60810D02*
Y74510D01*
Y76010D02*
Y89910D01*
X163420Y27610D02*
Y41510D01*
Y44110D02*
Y58010D01*
Y60610D02*
Y74510D01*
Y76010D02*
Y90010D01*
X163321Y27510D02*
Y41510D01*
Y44010D02*
Y58010D01*
Y60510D02*
Y74510D01*
Y76010D02*
Y90210D01*
X163221Y27410D02*
Y41510D01*
Y43910D02*
Y58010D01*
Y60310D02*
Y74510D01*
Y76010D02*
Y90310D01*
X163120Y27310D02*
Y41510D01*
Y43810D02*
Y58010D01*
Y60210D02*
Y74510D01*
Y76010D02*
Y90410D01*
X163021Y27210D02*
Y41510D01*
Y43710D02*
Y58010D01*
Y60110D02*
Y74510D01*
Y76010D02*
Y90510D01*
X162920Y27110D02*
Y41510D01*
Y43610D02*
Y58010D01*
Y60010D02*
Y74510D01*
Y76010D02*
Y90610D01*
X162820Y27010D02*
Y41510D01*
Y43510D02*
Y58010D01*
Y60010D02*
Y74510D01*
Y76010D02*
Y90610D01*
X162721Y26910D02*
Y41510D01*
Y43410D02*
Y58010D01*
Y59910D02*
Y74510D01*
Y76010D02*
Y90710D01*
X162620Y26910D02*
Y41510D01*
Y43410D02*
Y58010D01*
Y59810D02*
Y74510D01*
Y76010D02*
Y90710D01*
X162521Y26810D02*
Y41510D01*
Y43310D02*
Y58010D01*
Y59810D02*
Y74510D01*
Y76010D02*
Y90810D01*
X162420Y26810D02*
Y41510D01*
Y43310D02*
Y58010D01*
Y59710D02*
Y74510D01*
Y76010D02*
Y90810D01*
X162320Y26710D02*
Y41510D01*
Y43210D02*
Y58010D01*
Y59710D02*
Y74510D01*
Y76010D02*
Y90910D01*
X162221Y26710D02*
Y41510D01*
Y43210D02*
Y58010D01*
Y59710D02*
Y74510D01*
Y76110D02*
Y90910D01*
X162120Y26710D02*
Y41510D01*
Y43210D02*
Y58010D01*
Y59610D02*
Y74510D01*
Y76110D02*
Y90910D01*
X162021Y26710D02*
Y41510D01*
Y43110D02*
Y58010D01*
Y59610D02*
Y74510D01*
Y76110D02*
Y90910D01*
X161920Y26710D02*
Y41510D01*
Y43110D02*
Y58010D01*
Y59610D02*
Y74510D01*
Y76110D02*
Y90910D01*
X161820Y26710D02*
Y41510D01*
Y43110D02*
Y58010D01*
Y59610D02*
Y74510D01*
Y76110D02*
Y90910D01*
X161721Y26710D02*
Y41510D01*
Y43110D02*
Y58010D01*
Y59610D02*
Y74510D01*
Y76110D02*
Y90910D01*
X161620Y26710D02*
Y41510D01*
Y43110D02*
Y58010D01*
Y59610D02*
Y74410D01*
Y76110D02*
Y90910D01*
X161521Y26810D02*
Y41310D01*
Y43210D02*
Y57810D01*
Y59610D02*
Y74310D01*
Y76310D02*
Y90910D01*
X161421Y59610D02*
Y62010D01*
Y88510D02*
Y90910D01*
X161320Y59610D02*
Y62010D01*
Y88510D02*
Y90910D01*
X161221Y59610D02*
Y62010D01*
Y88510D02*
Y90910D01*
X161120Y59610D02*
Y62010D01*
Y88510D02*
Y90910D01*
X161021Y59610D02*
Y62010D01*
Y88510D02*
Y90910D01*
X160921Y59610D02*
Y62010D01*
Y88510D02*
Y90910D01*
X160820Y59610D02*
Y62010D01*
Y88510D02*
Y90910D01*
X160721Y59610D02*
Y62010D01*
Y88510D02*
Y90910D01*
X160620Y59610D02*
Y62010D01*
Y88410D02*
Y90910D01*
X160521Y26810D02*
Y41410D01*
Y43210D02*
Y57910D01*
Y59610D02*
Y62010D01*
Y76210D02*
Y90910D01*
X160421Y26710D02*
Y41510D01*
Y43110D02*
Y58010D01*
Y59610D02*
Y72510D01*
Y76110D02*
Y90910D01*
X160320Y26710D02*
Y41510D01*
Y43110D02*
Y58010D01*
Y59610D02*
Y72910D01*
Y76110D02*
Y90910D01*
X160221Y26710D02*
Y41510D01*
Y43110D02*
Y58010D01*
Y59610D02*
Y73210D01*
Y76010D02*
Y90910D01*
X160120Y26710D02*
Y41510D01*
Y43110D02*
Y58010D01*
Y59610D02*
Y73410D01*
Y76010D02*
Y90910D01*
X160020Y26710D02*
Y41510D01*
Y43110D02*
Y58010D01*
Y59610D02*
Y73610D01*
Y76010D02*
Y90810D01*
X159921Y26710D02*
Y41510D01*
Y43110D02*
Y58010D01*
Y59610D02*
Y73810D01*
Y76010D02*
Y90710D01*
X159820Y26710D02*
Y41510D01*
Y43110D02*
Y58010D01*
Y59710D02*
Y73910D01*
Y76010D02*
Y90610D01*
X159721Y26710D02*
Y41510D01*
Y43110D02*
Y58010D01*
Y59710D02*
Y74010D01*
Y76010D02*
Y90510D01*
X159620Y26710D02*
Y41510D01*
Y43110D02*
Y58010D01*
Y59710D02*
Y74110D01*
Y76010D02*
Y90310D01*
X159520Y26710D02*
Y41510D01*
Y43110D02*
Y58010D01*
Y59810D02*
Y74210D01*
Y76010D02*
Y90110D01*
X159421Y26710D02*
Y41510D01*
Y43110D02*
Y58010D01*
Y59810D02*
Y74210D01*
Y76010D02*
Y89910D01*
X159320Y26710D02*
Y41510D01*
Y43110D02*
Y58010D01*
Y59910D02*
Y74310D01*
Y76010D02*
Y89810D01*
X159221Y26710D02*
Y41510D01*
Y43110D02*
Y58010D01*
Y60010D02*
Y74310D01*
Y76010D02*
Y90010D01*
X159121Y26710D02*
Y41510D01*
Y43110D02*
Y58010D01*
Y60110D02*
Y74410D01*
Y76010D02*
Y90310D01*
X159020Y26710D02*
Y41510D01*
Y43110D02*
Y58010D01*
Y60210D02*
Y74410D01*
Y76010D02*
Y90510D01*
X158921Y26710D02*
Y41510D01*
Y43110D02*
Y58010D01*
Y60310D02*
Y74410D01*
Y76010D02*
Y90610D01*
X158820Y26710D02*
Y41510D01*
Y43110D02*
Y58010D01*
Y60410D02*
Y74410D01*
Y76010D02*
Y90710D01*
X158721Y43110D02*
Y58010D01*
Y60610D02*
Y74410D01*
Y76010D02*
Y90810D01*
X158621Y26710D02*
Y41510D01*
Y43110D02*
Y58010D01*
Y60710D02*
Y74410D01*
Y76010D02*
Y90910D01*
X158520Y26710D02*
Y41510D01*
Y43110D02*
Y58010D01*
Y61010D02*
Y74410D01*
Y76010D02*
Y90910D01*
X158421Y26710D02*
Y41510D01*
Y43110D02*
Y58010D01*
Y61210D02*
Y74410D01*
Y76010D02*
Y90910D01*
X158320Y26710D02*
Y41410D01*
Y43110D02*
Y57910D01*
Y61710D02*
Y74410D01*
Y76010D02*
Y78610D01*
Y88410D02*
Y90910D01*
X158221Y26710D02*
Y29110D01*
Y43110D02*
Y45510D01*
Y71910D02*
Y74410D01*
Y76010D02*
Y78510D01*
Y88510D02*
Y90910D01*
X158121Y26710D02*
Y29110D01*
Y43110D02*
Y45510D01*
Y72010D02*
Y74510D01*
Y76010D02*
Y78510D01*
Y88510D02*
Y90910D01*
X158020Y26710D02*
Y29110D01*
Y43110D02*
Y45510D01*
Y72010D02*
Y74510D01*
Y76010D02*
Y78510D01*
Y88510D02*
Y90910D01*
X157921Y26710D02*
Y29110D01*
Y43110D02*
Y45510D01*
Y72010D02*
Y74510D01*
Y76010D02*
Y78510D01*
Y88510D02*
Y90910D01*
X157820Y26710D02*
Y29110D01*
Y43110D02*
Y45510D01*
Y72010D02*
Y74510D01*
Y76010D02*
Y78510D01*
Y88510D02*
Y90910D01*
X157720Y26710D02*
Y29110D01*
Y43110D02*
Y45510D01*
Y72010D02*
Y74510D01*
Y76010D02*
Y78510D01*
Y88510D02*
Y90910D01*
X157621Y26710D02*
Y29110D01*
Y43110D02*
Y45510D01*
Y72010D02*
Y74510D01*
Y76010D02*
Y78510D01*
Y88510D02*
Y90910D01*
X157520Y26710D02*
Y29110D01*
Y43110D02*
Y45510D01*
Y72010D02*
Y74510D01*
Y76010D02*
Y78510D01*
Y88510D02*
Y90910D01*
X157421Y26710D02*
Y29110D01*
Y43110D02*
Y45510D01*
Y72010D02*
Y74510D01*
Y76010D02*
Y78510D01*
Y88510D02*
Y90910D01*
X157320Y26710D02*
Y29110D01*
Y43110D02*
Y45910D01*
Y47710D02*
Y57810D01*
Y71910D02*
Y74410D01*
Y76010D02*
Y78510D01*
Y88510D02*
Y90910D01*
X157220Y26710D02*
Y29110D01*
Y43110D02*
Y57910D01*
Y59710D02*
Y74410D01*
Y76010D02*
Y90910D01*
X157121Y26710D02*
Y29110D01*
Y43110D02*
Y58010D01*
Y59610D02*
Y74410D01*
Y76010D02*
Y90910D01*
X157020Y26710D02*
Y29110D01*
Y43110D02*
Y58010D01*
Y59610D02*
Y74410D01*
Y76010D02*
Y90910D01*
X156921Y26710D02*
Y29110D01*
Y43110D02*
Y58010D01*
Y59610D02*
Y74410D01*
Y76010D02*
Y90910D01*
X156820Y26710D02*
Y29110D01*
Y43110D02*
Y58010D01*
Y59610D02*
Y74410D01*
Y76010D02*
Y90910D01*
X156720Y26710D02*
Y29110D01*
Y43210D02*
Y58010D01*
Y59610D02*
Y74410D01*
Y76010D02*
Y90910D01*
X156621Y26710D02*
Y29110D01*
Y43210D02*
Y58010D01*
Y59610D02*
Y74410D01*
Y76010D02*
Y90910D01*
X156520Y26710D02*
Y29110D01*
Y43210D02*
Y58010D01*
Y59610D02*
Y74410D01*
Y76010D02*
Y90910D01*
X156421Y26710D02*
Y29110D01*
Y43210D02*
Y58010D01*
Y59610D02*
Y74410D01*
Y76010D02*
Y90810D01*
X156321Y26710D02*
Y29110D01*
Y43310D02*
Y58010D01*
Y59610D02*
Y74310D01*
Y76010D02*
Y90810D01*
X156220Y26710D02*
Y29110D01*
Y43310D02*
Y58010D01*
Y59610D02*
Y74310D01*
Y76010D02*
Y90810D01*
X156121Y26710D02*
Y29110D01*
Y43410D02*
Y58010D01*
Y59610D02*
Y74210D01*
Y76010D02*
Y90710D01*
X156020Y26710D02*
Y29110D01*
Y43410D02*
Y58010D01*
Y59610D02*
Y74210D01*
Y76010D02*
Y90710D01*
X155921Y26710D02*
Y29110D01*
Y43510D02*
Y58010D01*
Y59610D02*
Y74110D01*
Y76010D02*
Y90610D01*
X155821Y26710D02*
Y29110D01*
Y43610D02*
Y58010D01*
Y59610D02*
Y74110D01*
Y76010D02*
Y90510D01*
X155720Y26710D02*
Y29110D01*
Y43710D02*
Y58010D01*
Y59610D02*
Y74010D01*
Y76010D02*
Y90510D01*
X155621Y26710D02*
Y29110D01*
Y43810D02*
Y58010D01*
Y59610D02*
Y73910D01*
Y76010D02*
Y90410D01*
X155520Y26710D02*
Y29110D01*
Y43910D02*
Y58010D01*
Y59610D02*
Y73810D01*
Y76010D02*
Y90310D01*
X155420Y26710D02*
Y29110D01*
Y44010D02*
Y58010D01*
Y59610D02*
Y73710D01*
Y76010D02*
Y90110D01*
X155321Y26710D02*
Y29110D01*
Y44210D02*
Y58010D01*
Y59610D02*
Y73510D01*
Y76010D02*
Y90010D01*
X155220Y26710D02*
Y29110D01*
Y44310D02*
Y58010D01*
Y59610D02*
Y73310D01*
Y76010D02*
Y89810D01*
X155121Y26710D02*
Y29110D01*
Y44510D02*
Y58010D01*
Y59610D02*
Y73110D01*
Y76010D02*
Y89610D01*
X155020Y26710D02*
Y29110D01*
Y44810D02*
Y58010D01*
Y59610D02*
Y72810D01*
Y76110D02*
Y89310D01*
X154920Y26710D02*
Y29110D01*
Y45110D02*
Y58010D01*
Y59610D02*
Y72510D01*
Y76110D02*
Y89010D01*
X154821Y26710D02*
Y29010D01*
Y45610D02*
Y57910D01*
Y59710D02*
Y71910D01*
Y76210D02*
Y88410D01*
X153021Y39510D02*
Y48410D01*
Y50610D02*
Y58810D01*
Y61010D02*
Y69010D01*
Y69710D02*
Y71210D01*
Y72710D02*
Y80710D01*
Y83110D02*
Y90910D01*
X152920Y39310D02*
Y48510D01*
Y50410D02*
Y58910D01*
Y60810D02*
Y69010D01*
Y69610D02*
Y71210D01*
Y72410D02*
Y80910D01*
Y82810D02*
Y90910D01*
X152821Y39310D02*
Y48610D01*
Y50210D02*
Y59010D01*
Y60610D02*
Y69010D01*
Y69610D02*
Y71110D01*
Y72210D02*
Y81010D01*
Y82610D02*
Y90910D01*
X152720Y39210D02*
Y48710D01*
Y50110D02*
Y59110D01*
Y60510D02*
Y68910D01*
Y69510D02*
Y71110D01*
Y72110D02*
Y81110D01*
Y82510D02*
Y90910D01*
X152620Y39210D02*
Y48710D01*
Y49910D02*
Y59110D01*
Y60410D02*
Y68910D01*
Y69510D02*
Y71010D01*
Y71910D02*
Y81210D01*
Y82410D02*
Y90910D01*
X152521Y39210D02*
Y48810D01*
Y49810D02*
Y59210D01*
Y60310D02*
Y68810D01*
Y69510D02*
Y71010D01*
Y71810D02*
Y81210D01*
Y82210D02*
Y90910D01*
X152420Y39110D02*
Y48810D01*
Y49710D02*
Y59310D01*
Y60210D02*
Y68810D01*
Y69410D02*
Y71010D01*
Y71710D02*
Y81310D01*
Y82110D02*
Y90810D01*
X152321Y39110D02*
Y48810D01*
Y49610D02*
Y59310D01*
Y60110D02*
Y68810D01*
Y69410D02*
Y70910D01*
Y71610D02*
Y81310D01*
Y82010D02*
Y90810D01*
X152220Y39110D02*
Y48810D01*
Y49510D02*
Y59310D01*
Y60010D02*
Y68710D01*
Y69310D02*
Y70910D01*
Y71510D02*
Y81310D01*
Y81910D02*
Y90810D01*
X152120Y39010D02*
Y48810D01*
Y49510D02*
Y59310D01*
Y59910D02*
Y68710D01*
Y69310D02*
Y70910D01*
Y71510D02*
Y81310D01*
Y81910D02*
Y90710D01*
X152021Y39010D02*
Y48810D01*
Y49410D02*
Y59310D01*
Y59910D02*
Y68710D01*
Y69310D02*
Y70810D01*
Y71410D02*
Y81310D01*
Y81810D02*
Y90710D01*
X151920Y39010D02*
Y48810D01*
Y49410D02*
Y59210D01*
Y59810D02*
Y68610D01*
Y69210D02*
Y70810D01*
Y71410D02*
Y81210D01*
Y81810D02*
Y90610D01*
X151821Y38910D02*
Y48810D01*
Y49310D02*
Y59210D01*
Y59810D02*
Y68510D01*
Y69210D02*
Y70810D01*
Y71310D02*
Y81210D01*
Y81810D02*
Y90510D01*
X151720Y38910D02*
Y40510D01*
Y47110D02*
Y48710D01*
Y49310D02*
Y50910D01*
Y57610D02*
Y59110D01*
Y59710D02*
Y61410D01*
Y69210D02*
Y70710D01*
Y71310D02*
Y73010D01*
Y79610D02*
Y81210D01*
Y81710D02*
Y83410D01*
X151620Y38810D02*
Y40410D01*
Y47110D02*
Y48710D01*
Y49310D02*
Y50810D01*
Y57610D02*
Y59110D01*
Y59710D02*
Y61310D01*
Y69110D02*
Y70710D01*
Y71310D02*
Y72810D01*
Y79610D02*
Y81110D01*
Y81710D02*
Y83210D01*
X151521Y38810D02*
Y40410D01*
Y47110D02*
Y48610D01*
Y49310D02*
Y50810D01*
Y57510D02*
Y59110D01*
Y59610D02*
Y61210D01*
Y69110D02*
Y70610D01*
Y71210D02*
Y72810D01*
Y79510D02*
Y81110D01*
Y81710D02*
Y83210D01*
X151420Y38810D02*
Y40310D01*
Y47110D02*
Y48610D01*
Y49210D02*
Y50710D01*
Y57510D02*
Y59010D01*
Y59610D02*
Y61210D01*
Y69110D02*
Y70610D01*
Y71210D02*
Y72810D01*
Y79510D02*
Y81110D01*
Y81610D02*
Y83210D01*
X151321Y38710D02*
Y40310D01*
Y47010D02*
Y48610D01*
Y49210D02*
Y50710D01*
Y57510D02*
Y59010D01*
Y59610D02*
Y61110D01*
Y69010D02*
Y70610D01*
Y71210D02*
Y72710D01*
Y79510D02*
Y81010D01*
Y81610D02*
Y83110D01*
X151221Y38710D02*
Y40210D01*
Y47010D02*
Y48510D01*
Y49110D02*
Y50710D01*
Y57410D02*
Y59010D01*
Y59510D02*
Y61110D01*
Y69010D02*
Y70510D01*
Y71110D02*
Y72710D01*
Y79410D02*
Y81010D01*
Y81510D02*
Y83110D01*
X151120Y38710D02*
Y40210D01*
Y46910D02*
Y48510D01*
Y49110D02*
Y50610D01*
Y57410D02*
Y58910D01*
Y59510D02*
Y61110D01*
Y68910D02*
Y70510D01*
Y71110D02*
Y72710D01*
Y79410D02*
Y80910D01*
Y81510D02*
Y83110D01*
X151021Y38610D02*
Y40210D01*
Y46910D02*
Y48510D01*
Y49110D02*
Y50610D01*
Y57310D02*
Y58910D01*
Y59510D02*
Y61010D01*
Y68910D02*
Y70510D01*
Y71110D02*
Y72610D01*
Y79410D02*
Y80910D01*
Y81510D02*
Y83010D01*
Y90110D02*
Y90310D01*
X150920Y38610D02*
Y40110D01*
Y46810D02*
Y48410D01*
Y49010D02*
Y50610D01*
Y57310D02*
Y58910D01*
Y59410D02*
Y61010D01*
Y68910D02*
Y70410D01*
Y71010D02*
Y72610D01*
Y79310D02*
Y80910D01*
Y81410D02*
Y83010D01*
Y89710D02*
Y90310D01*
X150821Y38510D02*
Y40110D01*
Y41410D02*
Y48410D01*
Y49010D02*
Y58810D01*
Y59410D02*
Y61010D01*
Y68810D02*
Y70410D01*
Y71010D02*
Y72510D01*
Y79310D02*
Y80810D01*
Y81410D02*
Y83010D01*
Y89510D02*
Y90210D01*
X150721Y38510D02*
Y40110D01*
Y41410D02*
Y48310D01*
Y49010D02*
Y58810D01*
Y59410D02*
Y60910D01*
Y68810D02*
Y70310D01*
Y71010D02*
Y72510D01*
Y79210D02*
Y80810D01*
Y81410D02*
Y82910D01*
Y89210D02*
Y90210D01*
X150620Y38510D02*
Y40010D01*
Y41510D02*
Y48310D01*
Y48910D02*
Y58710D01*
Y59310D02*
Y60910D01*
Y68810D02*
Y70310D01*
Y70910D02*
Y72510D01*
Y79210D02*
Y80810D01*
Y81310D02*
Y82910D01*
Y89010D02*
Y90110D01*
X150521Y38410D02*
Y40010D01*
Y41710D02*
Y48210D01*
Y48910D02*
Y58710D01*
Y59310D02*
Y60810D01*
Y68710D02*
Y70310D01*
Y70910D02*
Y72410D01*
Y79210D02*
Y80710D01*
Y81310D02*
Y82810D01*
Y88810D02*
Y90110D01*
X150420Y38410D02*
Y40010D01*
Y41810D02*
Y48110D01*
Y48810D02*
Y58710D01*
Y59210D02*
Y60810D01*
Y68710D02*
Y70210D01*
Y70910D02*
Y72410D01*
Y79110D02*
Y80710D01*
Y81310D02*
Y82810D01*
Y88610D02*
Y90110D01*
X150320Y38410D02*
Y39910D01*
Y42010D02*
Y48010D01*
Y48810D02*
Y58610D01*
Y59210D02*
Y60810D01*
Y68610D02*
Y70210D01*
Y70810D02*
Y72410D01*
Y79110D02*
Y80610D01*
Y81210D02*
Y82810D01*
Y88510D02*
Y90010D01*
X150221Y38310D02*
Y39910D01*
Y42210D02*
Y47910D01*
Y48810D02*
Y58610D01*
Y59210D02*
Y60710D01*
Y68610D02*
Y70210D01*
Y70810D02*
Y72310D01*
Y79110D02*
Y80610D01*
Y81210D02*
Y82710D01*
Y88410D02*
Y90010D01*
X150120Y38310D02*
Y39910D01*
Y42310D02*
Y47810D01*
Y48710D02*
Y58610D01*
Y59110D02*
Y60710D01*
Y68610D02*
Y70110D01*
Y70710D02*
Y72310D01*
Y79010D02*
Y80610D01*
Y81110D02*
Y82710D01*
Y88410D02*
Y90010D01*
X150021Y38310D02*
Y39810D01*
Y42510D02*
Y47610D01*
Y48710D02*
Y58510D01*
Y59110D02*
Y60710D01*
Y68510D02*
Y70110D01*
Y70710D02*
Y72310D01*
Y79010D02*
Y80510D01*
Y81110D02*
Y82710D01*
Y88410D02*
Y89910D01*
X149920Y38210D02*
Y39810D01*
Y42710D02*
Y47410D01*
Y48710D02*
Y58510D01*
Y59110D02*
Y60610D01*
Y68510D02*
Y70110D01*
Y70710D02*
Y72210D01*
Y78910D02*
Y80510D01*
Y81110D02*
Y82610D01*
Y88310D02*
Y89910D01*
X149820Y38210D02*
Y39710D01*
Y42810D02*
Y47110D01*
Y48610D02*
Y58410D01*
Y59010D02*
Y67810D01*
Y68510D02*
Y70010D01*
Y70610D02*
Y72210D01*
Y78910D02*
Y80510D01*
Y81010D02*
Y89910D01*
X149721Y38110D02*
Y39710D01*
Y43010D02*
Y45710D01*
Y48610D02*
Y58410D01*
Y59010D02*
Y67810D01*
Y68410D02*
Y70010D01*
Y70610D02*
Y72110D01*
Y78910D02*
Y80410D01*
Y81010D02*
Y89810D01*
X149620Y38110D02*
Y39710D01*
Y43110D02*
Y45810D01*
Y48510D02*
Y58410D01*
Y59010D02*
Y67810D01*
Y68410D02*
Y69910D01*
Y70610D02*
Y72110D01*
Y78810D02*
Y80410D01*
Y81010D02*
Y89810D01*
X149521Y38110D02*
Y39610D01*
Y43310D02*
Y45910D01*
Y48510D02*
Y50110D01*
Y56710D02*
Y58310D01*
Y58910D02*
Y67810D01*
Y68410D02*
Y69910D01*
Y70510D02*
Y72110D01*
Y78810D02*
Y80310D01*
Y80910D02*
Y89810D01*
X149420Y38010D02*
Y39610D01*
Y43410D02*
Y46110D01*
Y48510D02*
Y50010D01*
Y56710D02*
Y58310D01*
Y58910D02*
Y67710D01*
Y68310D02*
Y69910D01*
Y70510D02*
Y72010D01*
Y78810D02*
Y80310D01*
Y80910D02*
Y89710D01*
X149320Y38010D02*
Y39610D01*
Y43610D02*
Y46310D01*
Y48410D02*
Y50010D01*
Y56710D02*
Y58310D01*
Y58910D02*
Y67710D01*
Y68310D02*
Y69810D01*
Y70410D02*
Y72010D01*
Y78710D02*
Y80310D01*
Y80910D02*
Y89710D01*
X149221Y38010D02*
Y39510D01*
Y43710D02*
Y46410D01*
Y48410D02*
Y50010D01*
Y56710D02*
Y58210D01*
Y59010D02*
Y67710D01*
Y68210D02*
Y69810D01*
Y70410D02*
Y72010D01*
Y78710D02*
Y80210D01*
Y80910D02*
Y89610D01*
X149120Y37910D02*
Y39510D01*
Y43910D02*
Y46610D01*
Y48410D02*
Y49910D01*
Y56610D02*
Y58210D01*
Y59010D02*
Y67610D01*
Y68210D02*
Y69810D01*
Y70410D02*
Y71910D01*
Y78710D02*
Y80210D01*
Y81010D02*
Y89610D01*
X149021Y37910D02*
Y39410D01*
Y44010D02*
Y46710D01*
Y48310D02*
Y49910D01*
Y56610D02*
Y58110D01*
Y59010D02*
Y67610D01*
Y68210D02*
Y69710D01*
Y70310D02*
Y71910D01*
Y78610D02*
Y80210D01*
Y81010D02*
Y89610D01*
X148921Y37910D02*
Y39410D01*
Y44110D02*
Y46910D01*
Y48310D02*
Y49910D01*
Y56610D02*
Y58110D01*
Y59110D02*
Y67610D01*
Y68110D02*
Y69710D01*
Y70310D02*
Y71810D01*
Y78610D02*
Y80110D01*
Y81110D02*
Y89510D01*
X148820Y37810D02*
Y39410D01*
Y44310D02*
Y47010D01*
Y48310D02*
Y49810D01*
Y56510D02*
Y58110D01*
Y59210D02*
Y67510D01*
Y68110D02*
Y69610D01*
Y70210D02*
Y71810D01*
Y78510D02*
Y80110D01*
Y81110D02*
Y89510D01*
X148721Y37810D02*
Y39310D01*
Y44510D02*
Y47210D01*
Y48210D02*
Y49810D01*
Y56510D02*
Y58010D01*
Y59310D02*
Y67510D01*
Y68110D02*
Y69610D01*
Y70210D02*
Y71810D01*
Y78510D02*
Y80110D01*
Y81210D02*
Y89510D01*
X148620Y37810D02*
Y39310D01*
Y44810D02*
Y47210D01*
Y48310D02*
Y49710D01*
Y56510D02*
Y57910D01*
Y59410D02*
Y67410D01*
Y68110D02*
Y69510D01*
Y70210D02*
Y71710D01*
Y78510D02*
Y80010D01*
Y81410D02*
Y89410D01*
D57*
X145307Y29622D02*
X145857Y29072D01*
Y27972D01*
X145307Y27423D01*
X144757D01*
X144208Y27972D01*
Y29072D01*
X143658Y29622D01*
X143108D01*
X142559Y29072D01*
Y27972D01*
X143108Y27423D01*
X145857Y30721D02*
X142559D01*
X143658Y31820D01*
X142559Y32920D01*
X145857D01*
X145307Y39516D02*
X145857Y38966D01*
Y37867D01*
X145307Y37317D01*
X143108D01*
X142559Y37867D01*
Y38966D01*
X143108Y39516D01*
X142559Y40615D02*
X144757D01*
X145857Y41715D01*
X144757Y42814D01*
X142559D01*
X144208D01*
Y40615D01*
X142559Y43913D02*
X145857D01*
X142559Y46112D01*
X145857D01*
Y50510D02*
X143658D01*
X142559Y51609D01*
X143658Y52709D01*
X145857D01*
X142559Y53808D02*
Y54907D01*
Y54358D01*
X145857D01*
X145307Y53808D01*
X142559Y56556D02*
X143108D01*
Y57106D01*
X142559D01*
Y56556D01*
Y59305D02*
Y60404D01*
Y59855D01*
X145857D01*
X145307Y59305D01*
X142559Y67550D02*
Y65351D01*
X144757Y67550D01*
X145307D01*
X145857Y67001D01*
Y65901D01*
X145307Y65351D01*
Y68650D02*
X145857Y69199D01*
Y70299D01*
X145307Y70848D01*
X143108D01*
X142559Y70299D01*
Y69199D01*
X143108Y68650D01*
X145307D01*
X142559Y74146D02*
Y71948D01*
X144757Y74146D01*
X145307D01*
X145857Y73597D01*
Y72497D01*
X145307Y71948D01*
Y75246D02*
X145857Y75796D01*
Y76895D01*
X145307Y77445D01*
X143108D01*
X142559Y76895D01*
Y75796D01*
X143108Y75246D01*
X145307D01*
X139667Y29622D02*
X140217Y29072D01*
Y27972D01*
X139667Y27423D01*
X139118D01*
X138568Y27972D01*
Y29072D01*
X138018Y29622D01*
X137469D01*
X136919Y29072D01*
Y27972D01*
X137469Y27423D01*
X136919Y32370D02*
Y31271D01*
X137469Y30721D01*
X138568D01*
X139118Y31271D01*
Y32370D01*
X138568Y32920D01*
X138018D01*
Y30721D01*
X139118Y34019D02*
X136919D01*
X138018D01*
X138568Y34569D01*
X139118Y35118D01*
Y35668D01*
X136919Y37317D02*
Y38417D01*
Y37867D01*
X139118D01*
Y37317D01*
Y40615D02*
Y41715D01*
X138568Y42265D01*
X136919D01*
Y40615D01*
X137469Y40066D01*
X138018Y40615D01*
Y42265D01*
X136919Y43364D02*
Y44463D01*
Y43913D01*
X140217D01*
Y43364D01*
X136919Y49410D02*
X139118D01*
Y51060D01*
X138568Y51609D01*
X136919D01*
X139118Y52709D02*
X137469D01*
X136919Y53258D01*
Y54907D01*
X139118D01*
X136919Y56007D02*
X139118D01*
Y56556D01*
X138568Y57106D01*
X136919D01*
X138568D01*
X139118Y57656D01*
X138568Y58205D01*
X136919D01*
X140217Y59305D02*
X136919D01*
Y60954D01*
X137469Y61504D01*
X138018D01*
X138568D01*
X139118Y60954D01*
Y59305D01*
X136919Y64252D02*
Y63153D01*
X137469Y62603D01*
X138568D01*
X139118Y63153D01*
Y64252D01*
X138568Y64802D01*
X138018D01*
Y62603D01*
X139118Y65901D02*
X136919D01*
X138018D01*
X138568Y66451D01*
X139118Y67001D01*
Y67550D01*
Y69199D02*
Y69749D01*
X138568D01*
Y69199D01*
X139118D01*
X137469D02*
Y69749D01*
X136919D01*
Y69199D01*
X137469D01*
D58*
X138334Y80610D02*
D03*
M02*
