G04 Layer_Color=16711935*
%FSLAX25Y25*%
%MOIN*%
G70*
G01*
G75*
G04:AMPARAMS|DCode=38|XSize=42.25mil|YSize=46.19mil|CornerRadius=12.73mil|HoleSize=0mil|Usage=FLASHONLY|Rotation=180.000|XOffset=0mil|YOffset=0mil|HoleType=Round|Shape=RoundedRectangle|*
%AMROUNDEDRECTD38*
21,1,0.04225,0.02072,0,0,180.0*
21,1,0.01678,0.04619,0,0,180.0*
1,1,0.02547,-0.00839,0.01036*
1,1,0.02547,0.00839,0.01036*
1,1,0.02547,0.00839,-0.01036*
1,1,0.02547,-0.00839,-0.01036*
%
%ADD38ROUNDEDRECTD38*%
G04:AMPARAMS|DCode=41|XSize=40.28mil|YSize=44.61mil|CornerRadius=12.23mil|HoleSize=0mil|Usage=FLASHONLY|Rotation=180.000|XOffset=0mil|YOffset=0mil|HoleType=Round|Shape=RoundedRectangle|*
%AMROUNDEDRECTD41*
21,1,0.04028,0.02015,0,0,180.0*
21,1,0.01582,0.04461,0,0,180.0*
1,1,0.02447,-0.00791,0.01007*
1,1,0.02447,0.00791,0.01007*
1,1,0.02447,0.00791,-0.01007*
1,1,0.02447,-0.00791,-0.01007*
%
%ADD41ROUNDEDRECTD41*%
G04:AMPARAMS|DCode=47|XSize=41.07mil|YSize=48.16mil|CornerRadius=12.27mil|HoleSize=0mil|Usage=FLASHONLY|Rotation=180.000|XOffset=0mil|YOffset=0mil|HoleType=Round|Shape=RoundedRectangle|*
%AMROUNDEDRECTD47*
21,1,0.04107,0.02362,0,0,180.0*
21,1,0.01654,0.04816,0,0,180.0*
1,1,0.02454,-0.00827,0.01181*
1,1,0.02454,0.00827,0.01181*
1,1,0.02454,0.00827,-0.01181*
1,1,0.02454,-0.00827,-0.01181*
%
%ADD47ROUNDEDRECTD47*%
%ADD48C,0.07060*%
%ADD49C,0.05524*%
%ADD50C,0.02768*%
G04:AMPARAMS|DCode=51|XSize=58mil|YSize=23.35mil|CornerRadius=7.92mil|HoleSize=0mil|Usage=FLASHONLY|Rotation=0.000|XOffset=0mil|YOffset=0mil|HoleType=Round|Shape=RoundedRectangle|*
%AMROUNDEDRECTD51*
21,1,0.05800,0.00752,0,0,0.0*
21,1,0.04217,0.02335,0,0,0.0*
1,1,0.01583,0.02108,-0.00376*
1,1,0.01583,-0.02108,-0.00376*
1,1,0.01583,-0.02108,0.00376*
1,1,0.01583,0.02108,0.00376*
%
%ADD51ROUNDEDRECTD51*%
G04:AMPARAMS|DCode=52|XSize=40.28mil|YSize=44.61mil|CornerRadius=12.23mil|HoleSize=0mil|Usage=FLASHONLY|Rotation=270.000|XOffset=0mil|YOffset=0mil|HoleType=Round|Shape=RoundedRectangle|*
%AMROUNDEDRECTD52*
21,1,0.04028,0.02015,0,0,270.0*
21,1,0.01582,0.04461,0,0,270.0*
1,1,0.02447,-0.01007,-0.00791*
1,1,0.02447,-0.01007,0.00791*
1,1,0.02447,0.01007,0.00791*
1,1,0.02447,0.01007,-0.00791*
%
%ADD52ROUNDEDRECTD52*%
G04:AMPARAMS|DCode=53|XSize=86.74mil|YSize=26.5mil|CornerRadius=8.72mil|HoleSize=0mil|Usage=FLASHONLY|Rotation=180.000|XOffset=0mil|YOffset=0mil|HoleType=Round|Shape=RoundedRectangle|*
%AMROUNDEDRECTD53*
21,1,0.08674,0.00907,0,0,180.0*
21,1,0.06930,0.02650,0,0,180.0*
1,1,0.01744,-0.03465,0.00453*
1,1,0.01744,0.03465,0.00453*
1,1,0.01744,0.03465,-0.00453*
1,1,0.01744,-0.03465,-0.00453*
%
%ADD53ROUNDEDRECTD53*%
G04:AMPARAMS|DCode=54|XSize=49.73mil|YSize=57.61mil|CornerRadius=13.81mil|HoleSize=0mil|Usage=FLASHONLY|Rotation=0.000|XOffset=0mil|YOffset=0mil|HoleType=Round|Shape=RoundedRectangle|*
%AMROUNDEDRECTD54*
21,1,0.04973,0.02999,0,0,0.0*
21,1,0.02212,0.05761,0,0,0.0*
1,1,0.02761,0.01106,-0.01500*
1,1,0.02761,-0.01106,-0.01500*
1,1,0.02761,-0.01106,0.01500*
1,1,0.02761,0.01106,0.01500*
%
%ADD54ROUNDEDRECTD54*%
G04:AMPARAMS|DCode=55|XSize=41.07mil|YSize=48.16mil|CornerRadius=12.27mil|HoleSize=0mil|Usage=FLASHONLY|Rotation=270.000|XOffset=0mil|YOffset=0mil|HoleType=Round|Shape=RoundedRectangle|*
%AMROUNDEDRECTD55*
21,1,0.04107,0.02362,0,0,270.0*
21,1,0.01654,0.04816,0,0,270.0*
1,1,0.02454,-0.01181,-0.00827*
1,1,0.02454,-0.01181,0.00827*
1,1,0.02454,0.01181,0.00827*
1,1,0.02454,0.01181,-0.00827*
%
%ADD55ROUNDEDRECTD55*%
D38*
X117815Y40748D02*
D03*
X111909D02*
D03*
X57087Y57087D02*
D03*
X51181D02*
D03*
D41*
X26693Y72539D02*
D03*
X20748D02*
D03*
X118287Y47638D02*
D03*
X124232D02*
D03*
D47*
X77342Y84449D02*
D03*
X71280D02*
D03*
D48*
X130079Y23583D02*
D03*
Y13583D02*
D03*
X120079Y23583D02*
D03*
Y13583D02*
D03*
X110079Y23583D02*
D03*
Y13583D02*
D03*
D49*
X33268Y12894D02*
D03*
X41142D02*
D03*
X49016D02*
D03*
X56890D02*
D03*
X64764D02*
D03*
X72638D02*
D03*
X80512D02*
D03*
X88386D02*
D03*
X96260D02*
D03*
X33268Y6990D02*
D03*
X41142D02*
D03*
X49016Y6988D02*
D03*
X56890D02*
D03*
X64764D02*
D03*
X72638D02*
D03*
X80512D02*
D03*
X88386D02*
D03*
X96260D02*
D03*
X18701Y12894D02*
D03*
Y6988D02*
D03*
X8563Y63484D02*
D03*
Y55512D02*
D03*
D50*
X105512Y52067D02*
D03*
X116344Y52660D02*
D03*
X103445Y47146D02*
D03*
X127067Y67224D02*
D03*
X116339Y64862D02*
D03*
X95669Y63779D02*
D03*
X70669Y48622D02*
D03*
X60138Y48720D02*
D03*
X24606Y27756D02*
D03*
X127657Y39075D02*
D03*
D51*
X111614Y45575D02*
D03*
Y48134D02*
D03*
Y50693D02*
D03*
Y53252D02*
D03*
Y55811D02*
D03*
Y58370D02*
D03*
Y60929D02*
D03*
Y63488D02*
D03*
Y66047D02*
D03*
Y68606D02*
D03*
X89410D02*
D03*
Y66047D02*
D03*
Y63488D02*
D03*
Y60929D02*
D03*
Y58370D02*
D03*
Y55811D02*
D03*
Y53252D02*
D03*
Y50693D02*
D03*
Y48134D02*
D03*
Y45575D02*
D03*
D52*
X15453Y56181D02*
D03*
Y62126D02*
D03*
X80734Y27835D02*
D03*
Y21890D02*
D03*
X88634Y27835D02*
D03*
Y21890D02*
D03*
X96534Y27835D02*
D03*
Y21890D02*
D03*
X72634Y27835D02*
D03*
Y21890D02*
D03*
X64634Y27835D02*
D03*
Y21890D02*
D03*
X56834Y27835D02*
D03*
Y21890D02*
D03*
X33134D02*
D03*
Y27835D02*
D03*
X40834D02*
D03*
Y21890D02*
D03*
X48634Y27835D02*
D03*
Y21890D02*
D03*
D53*
X23701Y66654D02*
D03*
Y51653D02*
D03*
X42638D02*
D03*
Y56653D02*
D03*
Y61654D02*
D03*
Y66654D02*
D03*
X23701Y61654D02*
D03*
Y56653D02*
D03*
D54*
X77486Y67462D02*
D03*
Y76163D02*
D03*
X70754D02*
D03*
Y67462D02*
D03*
D55*
X64075Y67618D02*
D03*
Y73681D02*
D03*
M02*
